<?xml version="1.0" encoding="UTF-8" standalone="no"?>
<!-- Generated by graphviz version 2.26.3 (20100126.1600)
 -->

<!-- Title: Core Pages: 1 -->

<svg
   xmlns:dc="http://purl.org/dc/elements/1.1/"
   xmlns:cc="http://creativecommons.org/ns#"
   xmlns:rdf="http://www.w3.org/1999/02/22-rdf-syntax-ns#"
   xmlns:svg="http://www.w3.org/2000/svg"
   xmlns="http://www.w3.org/2000/svg"
   xmlns:sodipodi="http://sodipodi.sourceforge.net/DTD/sodipodi-0.dtd"
   xmlns:inkscape="http://www.inkscape.org/namespaces/inkscape"
   width="419pt"
   height="332pt"
   viewBox="0.00 0.00 419.04 332.00"
   id="svg3071"
   version="1.1"
   inkscape:version="0.48.1 r9760"
   sodipodi:docname="2011-03-30-core.svg"
   inkscape:export-filename="/home/jasper/Public/jaspervdj/images/2011-03-30-core.png"
   inkscape:export-xdpi="85.919998"
   inkscape:export-ydpi="85.919998">
  <metadata
     id="metadata3222">
    <rdf:RDF>
      <cc:Work
         rdf:about="">
        <dc:format>image/svg+xml</dc:format>
        <dc:type
           rdf:resource="http://purl.org/dc/dcmitype/StillImage" />
        <dc:title></dc:title>
      </cc:Work>
    </rdf:RDF>
  </metadata>
  <defs
     id="defs3220">
    <filter
       inkscape:collect="always"
       id="filter4187">
      <feGaussianBlur
         inkscape:collect="always"
         stdDeviation="5.5400102"
         id="feGaussianBlur4189" />
    </filter>
  </defs>
  <sodipodi:namedview
     pagecolor="#ffffff"
     bordercolor="#666666"
     borderopacity="1"
     objecttolerance="10"
     gridtolerance="10"
     guidetolerance="10"
     inkscape:pageopacity="0"
     inkscape:pageshadow="2"
     inkscape:window-width="1122"
     inkscape:window-height="645"
     id="namedview3218"
     showgrid="false"
     inkscape:zoom="0.73253012"
     inkscape:cx="143.72088"
     inkscape:cy="207.5"
     inkscape:window-x="159"
     inkscape:window-y="36"
     inkscape:window-maximized="0"
     inkscape:current-layer="svg3071" />
  <g
     id="g4161"
     style="opacity:0.39111113;filter:url(#filter4187)"
     transform="matrix(0.90030948,0,0,0.90030948,21.368998,16.548627)">
    <ellipse
       cx="224.035"
       cy="-306"
       rx="27.7953"
       ry="18"
       id="ellipse4113"
       d="m 251.8303,-306 c 0,9.94113 -12.44438,18 -27.7953,18 -15.35092,0 -27.7953,-8.05887 -27.7953,-18 0,-9.94113 12.44438,-18 27.7953,-18 15.35092,0 27.7953,8.05887 27.7953,18 z"
       sodipodi:cx="224.035"
       sodipodi:cy="-306"
       sodipodi:rx="27.7953"
       sodipodi:ry="18"
       style="fill:#000000;fill-opacity:1;stroke:none"
       transform="translate(4,328)" />
    <ellipse
       cx="224.035"
       cy="-234"
       rx="32.856499"
       ry="18"
       id="ellipse4115"
       d="m 256.8915,-234 c 0,9.94113 -14.71035,18 -32.8565,18 -18.14614,0 -32.8565,-8.05887 -32.8565,-18 0,-9.94113 14.71036,-18 32.8565,-18 18.14615,0 32.8565,8.05887 32.8565,18 z"
       sodipodi:cx="224.035"
       sodipodi:cy="-234"
       sodipodi:rx="32.856499"
       sodipodi:ry="18"
       style="fill:#000000;fill-opacity:1;stroke:none"
       transform="translate(4,328)" />
    <ellipse
       cx="342.035"
       cy="-90"
       rx="68.793297"
       ry="18"
       id="ellipse4117"
       d="m 410.8283,-90 c 0,9.941125 -30.79981,18 -68.7933,18 -37.99349,0 -68.79329,-8.058875 -68.79329,-18 0,-9.941125 30.7998,-18 68.79329,-18 37.99349,0 68.7933,8.058875 68.7933,18 z"
       sodipodi:cx="342.035"
       sodipodi:cy="-90"
       sodipodi:rx="68.793297"
       sodipodi:ry="18"
       style="fill:#000000;fill-opacity:1;stroke:none"
       transform="translate(4,328)" />
    <ellipse
       cx="141.035"
       cy="-162"
       rx="46.754601"
       ry="18"
       id="ellipse4119"
       d="m 187.7896,-162 c 0,9.94113 -20.93274,18 -46.7546,18 -25.82185,0 -46.754597,-8.05887 -46.754597,-18 0,-9.94113 20.932747,-18 46.754597,-18 25.82186,0 46.7546,8.05887 46.7546,18 z"
       sodipodi:cx="141.035"
       sodipodi:cy="-162"
       sodipodi:rx="46.754601"
       sodipodi:ry="18"
       style="fill:#000000;fill-opacity:1;stroke:none"
       transform="translate(4,328)" />
    <ellipse
       cx="245.035"
       cy="-162"
       rx="38.913399"
       ry="18"
       id="ellipse4121"
       d="m 283.9484,-162 c 0,9.94113 -17.42212,18 -38.9134,18 -21.49127,0 -38.9134,-8.05887 -38.9134,-18 0,-9.94113 17.42213,-18 38.9134,-18 21.49128,0 38.9134,8.05887 38.9134,18 z"
       sodipodi:cx="245.035"
       sodipodi:cy="-162"
       sodipodi:rx="38.913399"
       sodipodi:ry="18"
       style="fill:#000000;fill-opacity:1;stroke:none"
       transform="translate(4,328)" />
    <ellipse
       cx="226.035"
       cy="-18"
       rx="45.862202"
       ry="18"
       id="ellipse4123"
       d="m 271.89721,-18 c 0,9.9411255 -20.53321,18 -45.86221,18 -25.32899,0 -45.8622,-8.0588745 -45.8622,-18 0,-9.941125 20.53321,-18 45.8622,-18 25.329,0 45.86221,8.058875 45.86221,18 z"
       sodipodi:cx="226.035"
       sodipodi:cy="-18"
       sodipodi:rx="45.862202"
       sodipodi:ry="18"
       style="fill:#000000;fill-opacity:1;stroke:none"
       transform="translate(4,328)" />
    <ellipse
       cx="42.0354"
       cy="-18"
       rx="32.157001"
       ry="18"
       id="ellipse4125"
       d="m 74.192402,-18 c 0,9.9411255 -14.39718,18 -32.157002,18 C 24.275579,0 9.8783989,-8.0588745 9.8783989,-18 c 0,-9.941125 14.3971801,-18 32.1570011,-18 17.759822,0 32.157002,8.058875 32.157002,18 z"
       sodipodi:cx="42.0354"
       sodipodi:cy="-18"
       sodipodi:rx="32.157001"
       sodipodi:ry="18"
       style="fill:#000000;fill-opacity:1;stroke:none"
       transform="translate(4,328)" />
    <ellipse
       cx="97.0354"
       cy="-90"
       rx="81.996101"
       ry="18"
       id="ellipse4127"
       d="m 179.0315,-90 c 0,9.941125 -36.7109,18 -81.9961,18 -45.285196,0 -81.996101,-8.058875 -81.996101,-18 0,-9.941125 36.710905,-18 81.996101,-18 45.2852,0 81.9961,8.058875 81.9961,18 z"
       sodipodi:cx="97.0354"
       sodipodi:cy="-90"
       sodipodi:rx="81.996101"
       sodipodi:ry="18"
       style="fill:#000000;fill-opacity:1;stroke:none"
       transform="translate(4,328)" />
  </g>
  <g
     id="g4191"
     style="fill:#ffffff;fill-opacity:1;stroke:#000000;stroke-opacity:1"
     transform="matrix(0.90030948,0,0,0.90030948,21.368998,16.548627)">
    <ellipse
       transform="translate(4,328)"
       style="fill:#ffffff;fill-opacity:1;stroke:#000000;stroke-opacity:1"
       sodipodi:ry="18"
       sodipodi:rx="27.7953"
       sodipodi:cy="-306"
       sodipodi:cx="224.035"
       d="m 251.8303,-306 c 0,9.94113 -12.44438,18 -27.7953,18 -15.35092,0 -27.7953,-8.05887 -27.7953,-18 0,-9.94113 12.44438,-18 27.7953,-18 15.35092,0 27.7953,8.05887 27.7953,18 z"
       id="ellipse3081"
       ry="18"
       rx="27.7953"
       cy="-306"
       cx="224.035" />
    <ellipse
       transform="translate(4,328)"
       style="fill:#ffffff;fill-opacity:1;stroke:#000000;stroke-opacity:1"
       sodipodi:ry="18"
       sodipodi:rx="32.856499"
       sodipodi:cy="-234"
       sodipodi:cx="224.035"
       d="m 256.8915,-234 c 0,9.94113 -14.71035,18 -32.8565,18 -18.14614,0 -32.8565,-8.05887 -32.8565,-18 0,-9.94113 14.71036,-18 32.8565,-18 18.14615,0 32.8565,8.05887 32.8565,18 z"
       id="ellipse3088"
       ry="18"
       rx="32.856499"
       cy="-234"
       cx="224.035" />
    <ellipse
       transform="translate(4,328)"
       style="fill:#ffffff;fill-opacity:1;stroke:#000000;stroke-opacity:1"
       sodipodi:ry="18"
       sodipodi:rx="68.793297"
       sodipodi:cy="-90"
       sodipodi:cx="342.035"
       d="m 410.8283,-90 c 0,9.941125 -30.79981,18 -68.7933,18 -37.99349,0 -68.79329,-8.058875 -68.79329,-18 0,-9.941125 30.7998,-18 68.79329,-18 37.99349,0 68.7933,8.058875 68.7933,18 z"
       id="ellipse3102"
       ry="18"
       rx="68.793297"
       cy="-90"
       cx="342.035" />
    <ellipse
       transform="translate(4,328)"
       style="fill:#ffffff;fill-opacity:1;stroke:#000000;stroke-opacity:1"
       sodipodi:ry="18"
       sodipodi:rx="46.754601"
       sodipodi:cy="-162"
       sodipodi:cx="141.035"
       d="m 187.7896,-162 c 0,9.94113 -20.93274,18 -46.7546,18 -25.82185,0 -46.754597,-8.05887 -46.754597,-18 0,-9.94113 20.932747,-18 46.754597,-18 25.82186,0 46.7546,8.05887 46.7546,18 z"
       id="ellipse3116"
       ry="18"
       rx="46.754601"
       cy="-162"
       cx="141.035" />
    <ellipse
       transform="translate(4,328)"
       style="fill:#ffffff;fill-opacity:1;stroke:#000000;stroke-opacity:1"
       sodipodi:ry="18"
       sodipodi:rx="38.913399"
       sodipodi:cy="-162"
       sodipodi:cx="245.035"
       d="m 283.9484,-162 c 0,9.94113 -17.42212,18 -38.9134,18 -21.49127,0 -38.9134,-8.05887 -38.9134,-18 0,-9.94113 17.42213,-18 38.9134,-18 21.49128,0 38.9134,8.05887 38.9134,18 z"
       id="ellipse3137"
       ry="18"
       rx="38.913399"
       cy="-162"
       cx="245.035" />
    <ellipse
       transform="translate(4,328)"
       style="fill:#ffffff;fill-opacity:1;stroke:#000000;stroke-opacity:1"
       sodipodi:ry="18"
       sodipodi:rx="45.862202"
       sodipodi:cy="-18"
       sodipodi:cx="226.035"
       d="m 271.89721,-18 c 0,9.9411255 -20.53321,18 -45.86221,18 -25.32899,0 -45.8622,-8.0588745 -45.8622,-18 0,-9.941125 20.53321,-18 45.8622,-18 25.329,0 45.86221,8.058875 45.86221,18 z"
       id="ellipse3151"
       ry="18"
       rx="45.862202"
       cy="-18"
       cx="226.035" />
    <ellipse
       transform="translate(4,328)"
       style="fill:#ffffff;fill-opacity:1;stroke:#000000;stroke-opacity:1"
       sodipodi:ry="18"
       sodipodi:rx="32.157001"
       sodipodi:cy="-18"
       sodipodi:cx="42.0354"
       d="m 74.192402,-18 c 0,9.9411255 -14.39718,18 -32.157002,18 C 24.275579,0 9.8783989,-8.0588745 9.8783989,-18 c 0,-9.941125 14.3971801,-18 32.1570011,-18 17.759822,0 32.157002,8.058875 32.157002,18 z"
       id="ellipse3172"
       ry="18"
       rx="32.157001"
       cy="-18"
       cx="42.0354" />
    <ellipse
       transform="translate(4,328)"
       style="fill:#ffffff;fill-opacity:1;stroke:#000000;stroke-opacity:1"
       sodipodi:ry="18"
       sodipodi:rx="81.996101"
       sodipodi:cy="-90"
       sodipodi:cx="97.0354"
       d="m 179.0315,-90 c 0,9.941125 -36.7109,18 -81.9961,18 -45.285196,0 -81.996101,-8.058875 -81.996101,-18 0,-9.941125 36.710905,-18 81.996101,-18 45.2852,0 81.9961,8.058875 81.9961,18 z"
       id="ellipse3186"
       ry="18"
       rx="81.996101"
       cy="-90"
       cx="97.0354" />
  </g>
  <text
     x="226.67107"
     y="40.046711"
     font-size="14.00"
     id="text3083"
     style="font-size:14.40632725px;font-style:normal;font-variant:normal;font-weight:normal;font-stretch:normal;text-align:center;line-height:125%;writing-mode:lr-tb;text-anchor:middle;font-family:Droid Sans;-inkscape-font-specification:Droid Sans"
     sodipodi:linespacing="125%">Run</text>
  <text
     x="226.67107"
     y="104.869"
     font-size="14.00"
     id="text3090"
     style="font-size:14.40632725px;font-style:normal;font-variant:normal;font-weight:normal;font-stretch:normal;text-align:center;line-height:125%;writing-mode:lr-tb;text-anchor:middle;font-family:Droid Sans;-inkscape-font-specification:Droid Sans"
     sodipodi:linespacing="125%">Rules</text>
  <path
     d="m 226.67107,52.713158 c 0,6.932383 0,15.176517 0,22.880465"
     id="path3095"
     inkscape:connector-curvature="0"
     style="fill:none;stroke:#000000;stroke-width:0.9003095" />
  <polygon
     points="224.035,-252.413 220.536,-262.413 227.536,-262.413 227.536,-262.413 "
     id="polygon3097"
     style="fill:#000000;stroke:#000000"
     transform="matrix(0.90030948,0,0,0.90030948,24.970235,311.85014)" />
  <text
     x="332.90759"
     y="234.51355"
     font-size="14.00"
     id="text3104"
     style="font-size:14.40632725px;font-style:normal;font-variant:normal;font-weight:normal;font-stretch:normal;text-align:center;line-height:125%;writing-mode:lr-tb;text-anchor:middle;font-family:Droid Sans;-inkscape-font-specification:Droid Sans"
     sodipodi:linespacing="125%">DirectedGraph</text>
  <path
     d="m 239.14846,50.632543 c 7.83899,9.375823 17.84863,22.123305 25.33561,34.339604 24.76931,40.412193 46.72966,91.235563 58.74609,120.975483"
     id="path3109"
     inkscape:connector-curvature="0"
     style="fill:none;stroke:#000000;stroke-width:0.9003095" />
  <polygon
     points="335.064,-108.168 328.105,-116.156 334.606,-118.752 334.606,-118.752 "
     id="polygon3111"
     style="fill:#000000;stroke:#000000"
     transform="matrix(0.90030948,0,0,0.90030948,24.970235,311.85014)" />
  <text
     x="151.94539"
     y="169.69127"
     font-size="14.00"
     id="text3118"
     style="font-size:14.40632725px;font-style:normal;font-variant:normal;font-weight:normal;font-stretch:normal;text-align:center;line-height:125%;writing-mode:lr-tb;text-anchor:middle;font-family:Droid Sans;-inkscape-font-specification:Droid Sans"
     sodipodi:linespacing="125%">Compiler</text>
  <path
     d="m 214.14776,50.603733 c -7.8579,9.364119 -17.87024,22.110701 -25.28969,34.368414 -10.93966,18.076413 -20.72062,39.949433 -27.46124,56.411593"
     id="path3123"
     inkscape:connector-curvature="0"
     style="fill:none;stroke:#000000;stroke-width:0.9003095" />
  <polygon
     points="147.734,-179.867 148.207,-190.451 154.704,-187.846 154.704,-187.846 "
     id="polygon3125"
     style="fill:#000000;stroke:#000000"
     transform="matrix(0.90030948,0,0,0.90030948,24.970235,311.85014)" />
  <path
     d="m 210.82382,114.92454 c -10.14649,8.80233 -23.50528,20.39021 -34.93201,30.30352"
     id="path3130"
     inkscape:connector-curvature="0"
     style="fill:none;stroke:#000000;stroke-width:0.9003095" />
  <polygon
     points="160.058,-178.501 165.318,-187.698 169.905,-182.41 169.905,-182.41 "
     id="polygon3132"
     style="fill:#000000;stroke:#000000"
     transform="matrix(0.90030948,0,0,0.90030948,24.970235,311.85014)" />
  <text
     x="245.57758"
     y="169.69127"
     font-size="14.00"
     id="text3139"
     style="font-size:14.40632725px;font-style:normal;font-variant:normal;font-weight:normal;font-stretch:normal;text-align:center;line-height:125%;writing-mode:lr-tb;text-anchor:middle;font-family:Droid Sans;-inkscape-font-specification:Droid Sans"
     sodipodi:linespacing="125%">Routes</text>
  <path
     d="m 231.34458,117.20143 c 2.11392,7.24569 4.66,15.97419 7.01071,24.03376"
     id="path3144"
     inkscape:connector-curvature="0"
     style="fill:none;stroke:#000000;stroke-width:0.9003095" />
  <polygon
     points="239.831,-179.843 233.671,-188.463 240.391,-190.423 240.391,-190.423 "
     id="polygon3146"
     style="fill:#000000;stroke:#000000"
     transform="matrix(0.90030948,0,0,0.90030948,24.970235,311.85014)" />
  <text
     x="228.47169"
     y="299.33585"
     font-size="14.00"
     id="text3153"
     style="font-size:14.40632725px;font-style:normal;font-variant:normal;font-weight:normal;font-stretch:normal;text-align:center;line-height:125%;writing-mode:lr-tb;text-anchor:middle;font-family:Droid Sans;-inkscape-font-specification:Droid Sans"
     sodipodi:linespacing="125%">Identifier</text>
  <path
     d="m 308.68566,245.85673 c -14.88031,9.23628 -34.06771,21.14539 -49.94467,31.00027"
     id="path3158"
     inkscape:connector-curvature="0"
     style="fill:none;stroke:#000000;stroke-width:0.9003095" />
  <polygon
     points="250.814,-33.3796 257.464,-41.627 261.156,-35.6795 261.156,-35.6795 "
     id="polygon3160"
     style="fill:#000000;stroke:#000000"
     transform="matrix(0.90030948,0,0,0.90030948,24.970235,311.85014)" />
  <path
     d="m 167.4163,181.19452 c 8.68349,9.11654 19.26212,21.27071 26.84363,33.42219 11.0495,17.70756 20.05259,39.60579 26.04505,56.1713"
     id="path3165"
     inkscape:connector-curvature="0"
     style="fill:none;stroke:#000000;stroke-width:0.9003095" />
  <polygon
     points="220.311,-36.0633 213.699,-44.3421 220.305,-46.6582 220.305,-46.6582 "
     id="polygon3167"
     style="fill:#000000;stroke:#000000"
     transform="matrix(0.90030948,0,0,0.90030948,24.970235,311.85014)" />
  <text
     x="62.815105"
     y="299.33585"
     font-size="14.00"
     id="text3174"
     style="font-size:14.40632725px;font-style:normal;font-variant:normal;font-weight:normal;font-stretch:normal;text-align:center;line-height:125%;writing-mode:lr-tb;text-anchor:middle;font-family:Droid Sans;-inkscape-font-specification:Droid Sans"
     sodipodi:linespacing="125%">Store</text>
  <path
     d="m 111.27696,170.55377 c -27.861604,5.47478 -62.907951,17.52812 -80.87297,44.06294 -12.504542,18.46958 0.09069,42.49227 13.0532,59.57357"
     id="path3179"
     inkscape:connector-curvature="0"
     style="fill:none;stroke:#000000;stroke-width:0.9003095" />
  <polygon
     points="26.8636,-33.9585 17.8695,-39.5582 23.3245,-43.9448 23.3245,-43.9448 "
     id="polygon3181"
     style="fill:#000000;stroke:#000000"
     transform="matrix(0.90030948,0,0,0.90030948,24.970235,311.85014)" />
  <text
     x="112.33212"
     y="234.51355"
     font-size="14.00"
     id="text3188"
     style="font-size:14.40632725px;font-style:normal;font-variant:normal;font-weight:normal;font-stretch:normal;text-align:center;line-height:125%;writing-mode:lr-tb;text-anchor:middle;font-family:Droid Sans;-inkscape-font-specification:Droid Sans"
     sodipodi:linespacing="125%">ResourceProvider</text>
  <path
     d="m 142.15362,182.02371 c -4.57087,7.47977 -10.10688,16.53868 -15.16302,24.81163"
     id="path3193"
     inkscape:connector-curvature="0"
     style="fill:none;stroke:#000000;stroke-width:0.9003095" />
  <polygon
     points="107.939,-107.843 110.167,-118.2 116.14,-114.55 116.14,-114.55 "
     id="polygon3195"
     style="fill:#000000;stroke:#000000"
     transform="matrix(0.90030948,0,0,0.90030948,24.970235,311.85014)" />
  <path
     d="m 243.41142,182.41984 c -2.9179,22.11251 -8.13879,61.68435 -11.57077,87.69726"
     id="path3200"
     inkscape:connector-curvature="0"
     style="fill:none;stroke:#000000;stroke-width:0.9003095" />
  <polygon
     points="228.422,-36.0896 226.261,-46.4616 233.2,-45.5458 233.2,-45.5458 "
     id="polygon3202"
     style="fill:#000000;stroke:#000000"
     transform="matrix(0.90030948,0,0,0.90030948,24.970235,311.85014)" />
  <path
     d="m 139.56163,246.02023 c 17.09327,9.54058 39.20937,21.88445 57.10753,31.87401"
     id="path3207"
     inkscape:connector-curvature="0"
     style="fill:none;stroke:#000000;stroke-width:0.9003095" />
  <polygon
     points="199.479,-32.8223 189.041,-34.6398 192.453,-40.7522 192.453,-40.7522 "
     id="polygon3209"
     style="fill:#000000;stroke:#000000"
     transform="matrix(0.90030948,0,0,0.90030948,24.970235,311.85014)" />
  <path
     d="m 100.09197,246.84581 c -6.113643,8.0033 -13.60917,17.81568 -20.27164,26.53743"
     id="path3214"
     inkscape:connector-curvature="0"
     style="fill:none;stroke:#000000;stroke-width:0.9003095" />
  <polygon
     points="54.7204,-34.6058 58.0095,-44.6772 63.5722,-40.4279 63.5722,-40.4279 "
     id="polygon3216"
     style="fill:#000000;stroke:#000000"
     transform="matrix(0.90030948,0,0,0.90030948,24.970235,311.85014)" />
</svg>
