<?xml version="1.0" encoding="UTF-8" standalone="no"?>
<!-- Created with Inkscape (http://www.inkscape.org/) -->

<svg
   version="1.1"
   id="svg1"
   width="109.24"
   height="54.413334"
   viewBox="0 0 109.24 54.413334"
   sodipodi:docname="2013-11-21-harmonic-number.pdf"
   xmlns:inkscape="http://www.inkscape.org/namespaces/inkscape"
   xmlns:sodipodi="http://sodipodi.sourceforge.net/DTD/sodipodi-0.dtd"
   xmlns="http://www.w3.org/2000/svg"
   xmlns:svg="http://www.w3.org/2000/svg">
  <defs
     id="defs1" />
  <sodipodi:namedview
     id="namedview1"
     pagecolor="#ffffff"
     bordercolor="#666666"
     borderopacity="1.0"
     inkscape:showpageshadow="2"
     inkscape:pageopacity="0.0"
     inkscape:pagecheckerboard="0"
     inkscape:deskcolor="#d1d1d1">
    <inkscape:page
       x="0"
       y="0"
       inkscape:label="1"
       id="page1"
       width="109.24"
       height="54.413334"
       margin="0"
       bleed="0" />
  </sodipodi:namedview>
  <g
     id="g1"
     inkscape:groupmode="layer"
     inkscape:label="1">
    <g
       id="g2"
       aria-label="H&#10;s&#10;(N)=&#10;N&#10;∑&#10;n=1&#10;1"
       transform="matrix(1.3333333,0,0,1.3333333,6.6413333,30.930667)">
      <path
         id="path2"
         d="m 7.6049375,-6.0358906 c 0.082031,-0.3632813 0.1054687,-0.4570313 0.8320312,-0.4570313 0.2578125,0 0.3398438,0 0.3398438,-0.1992187 0,-0.1171875 -0.1054688,-0.1171875 -0.140625,-0.1171875 -0.28125,0 -0.9960938,0.035156 -1.2773438,0.035156 -0.28125,0 -0.9960937,-0.035156 -1.2773437,-0.035156 -0.082031,0 -0.1992188,0 -0.1992188,0.1992187 0,0.1171875 0.09375,0.1171875 0.28125,0.1171875 0.023437,0 0.2109375,0 0.375,0.011719 0.1875,0.023437 0.2695313,0.035156 0.2695313,0.1640625 0,0.035156 0,0.058594 -0.035156,0.1875 l -0.5976562,2.4375 H 3.1400937 l 0.5859375,-2.34375 c 0.09375,-0.3632813 0.1171875,-0.4570313 0.8320313,-0.4570313 0.2578125,0 0.3398437,0 0.3398437,-0.1992187 0,-0.1171875 -0.1054687,-0.1171875 -0.140625,-0.1171875 -0.2695312,0 -0.9960937,0.035156 -1.265625,0.035156 -0.2929687,0 -0.9960937,-0.035156 -1.2890625,-0.035156 -0.082031,0 -0.1875,0 -0.1875,0.1992187 0,0.1171875 0.082031,0.1171875 0.28125,0.1171875 0.011719,0 0.1992188,0 0.375,0.011719 0.1757813,0.023437 0.2695313,0.035156 0.2695313,0.1640625 0,0.035156 -0.011719,0.070312 -0.046875,0.1875 l -1.3359375,5.35546872 c -0.09375,0.38671875 -0.1171875,0.46875 -0.90234375,0.46875 -0.17578125,0 -0.26953125,0 -0.26953125,0.19921875 0,0.105468755 0.1171875,0.105468755 0.140625,0.105468755 0.28125,0 0.984375,-0.035156255 1.265625,-0.035156255 0.2109375,0 0.4335937,0.01171875 0.6328125,0.01171875 0.2226562,0 0.4453125,0.023437505 0.65625,0.023437505 0.070312,0 0.1992187,0 0.1992187,-0.199218755 0,-0.10546875 -0.09375,-0.10546875 -0.28125,-0.10546875 -0.375,0 -0.6445312,0 -0.6445312,-0.1875 0,-0.0585938 0.011719,-0.10546875 0.023437,-0.1640625 l 0.679688,-2.73046912 h 3.0351562 c -0.4101562,1.6523437 -0.6445312,2.60156247 -0.6796875,2.75390622 -0.1054687,0.31640625 -0.2929687,0.328125 -0.9140625,0.328125 -0.1523437,0 -0.234375,0 -0.234375,0.19921875 0,0.105468755 0.1171875,0.105468755 0.140625,0.105468755 0.28125,0 0.984375,-0.035156255 1.265625,-0.035156255 0.2109375,0 0.421875,0.01171875 0.6328125,0.01171875 0.2226563,0 0.4335938,0.023437505 0.6445313,0.023437505 0.082031,0 0.1992187,0 0.1992187,-0.199218755 0,-0.10546875 -0.082031,-0.10546875 -0.2695312,-0.10546875 -0.375,0 -0.65625,0 -0.65625,-0.1875 0,-0.0585938 0.023437,-0.10546875 0.035156,-0.1640625 z m 0,0"
         style="fill:#000000;fill-opacity:1;fill-rule:nonzero;stroke:none" />
      <path
         id="path3"
         d="m 11.281695,-1.1286641 c -0.175781,0.046875 -0.292968,0.18750004 -0.292968,0.32812504 0,0.1640625 0.140625,0.22265625 0.234375,0.22265625 0.07031,0 0.339843,-0.0351563 0.339843,-0.3984375 0,-0.44531249 -0.503906,-0.59765629 -0.925781,-0.59765629 -1.0898437,0 -1.2890624,0.79687504 -1.2890624,1.00781254 0,0.2578125 0.1523437,0.43359375 0.2460937,0.515625 0.1757813,0.140625 0.3046875,0.1640625 0.7851567,0.24609375 0.152343,0.0351563 0.597656,0.1171875 0.597656,0.46875 0,0.1171875 -0.08203,0.37500001 -0.375,0.55078121 -0.269531,0.1523438 -0.6093752,0.1523438 -0.6914064,0.1523438 -0.28125,0 -0.6796875,-0.058594 -0.84375,-0.2929688 0.234375,-0.023437 0.3867187,-0.19921871 0.3867187,-0.39843746 0,-0.1640625 -0.1289062,-0.2578125 -0.2695312,-0.2578125 -0.1992188,0 -0.4101563,0.1640625 -0.4101563,0.46875 0,0.42187496 0.4453125,0.67968746 1.125,0.67968746 1.2890622,0 1.5234372,-0.87890621 1.5234372,-1.14843746 0,-0.64453125 -0.703125,-0.7734375 -0.960937,-0.8203125 -0.07031,-0.0117188 -0.246094,-0.0351563 -0.28125,-0.0585938 -0.2578127,-0.046875 -0.3867189,-0.1875 -0.3867189,-0.33984375 0,-0.1640625 0.1289062,-0.35156259 0.2812499,-0.44531259 0.1875,-0.1289062 0.433594,-0.140625 0.550781,-0.140625 0.140625,0 0.503907,0.023437 0.65625,0.2578126 z m 0,0"
         style="fill:#000000;fill-opacity:1;fill-rule:nonzero;stroke:none" />
      <path
         id="path4"
         d="m 15.83443,2.3898906 c 0,-0.035156 0,-0.046875 -0.164063,-0.2226562 -1.242187,-1.25390628 -1.570312,-3.12890628 -1.570312,-4.6640625 0,-1.7226563 0.386718,-3.4570313 1.605468,-4.7109375 0.128907,-0.1171875 0.128907,-0.1289063 0.128907,-0.1640625 0,-0.070312 -0.03516,-0.1054688 -0.09375,-0.1054688 -0.105469,0 -0.996094,0.6796875 -1.582032,1.9453125 -0.515625,1.1015625 -0.632812,2.203125 -0.632812,3.0351563 0,0.7851562 0.117187,1.99218747 0.65625,3.11718747 0.597656,1.21875003 1.453125,1.87500003 1.558594,1.87500003 0.05859,0 0.09375,-0.035156 0.09375,-0.1054688 z m 0,0"
         style="fill:#000000;fill-opacity:1;fill-rule:nonzero;stroke:none" />
      <path
         id="path5"
         d="m 23.949664,-5.7546406 c 0.09375,-0.3984375 0.269531,-0.7148438 1.066406,-0.7382813 0.05859,0 0.175782,-0.011719 0.175782,-0.1992187 0,-0.011719 0,-0.1171875 -0.128907,-0.1171875 -0.328125,0 -0.679687,0.035156 -1.007812,0.035156 -0.339844,0 -0.691406,-0.035156 -1.019531,-0.035156 -0.05859,0 -0.175782,0 -0.175782,0.1992187 0,0.1171875 0.09375,0.1171875 0.175782,0.1171875 0.574218,0.011719 0.679687,0.2109375 0.679687,0.4335938 0,0.035156 -0.02344,0.1757812 -0.02344,0.2109375 l -1.125,4.4296875 -2.203125,-5.1914063 c -0.07031,-0.1875 -0.08203,-0.1992187 -0.316407,-0.1992187 H 18.71138 c -0.199219,0 -0.28125,0 -0.28125,0.1992187 0,0.1171875 0.08203,0.1171875 0.28125,0.1171875 0.04687,0 0.667969,0 0.667969,0.082031 l -1.335938,5.3554687 c -0.09375,0.39843752 -0.269531,0.71484377 -1.066406,0.75000002 -0.05859,0 -0.175781,0 -0.175781,0.19921875 0,0.0703125 0.04687,0.105468755 0.128906,0.105468755 0.316406,0 0.667969,-0.035156255 0.996094,-0.035156255 0.339843,0 0.703125,0.035156255 1.03125,0.035156255 0.04687,0 0.175781,0 0.175781,-0.199218755 0,-0.10546875 -0.09375,-0.10546875 -0.199219,-0.10546875 -0.574219,-0.0234375 -0.65625,-0.24609375 -0.65625,-0.4453125 0,-0.0703125 0.01172,-0.1171875 0.03516,-0.22265625 l 1.324219,-5.26171877 c 0.03516,0.058594 0.03516,0.082031 0.08203,0.1757813 l 2.484375,5.87109372 c 0.07031,0.1640625 0.09375,0.187500005 0.1875,0.187500005 0.105469,0 0.105469,-0.035156255 0.164063,-0.210937505 z m 0,0"
         style="fill:#000000;fill-opacity:1;fill-rule:nonzero;stroke:none" />
      <path
         id="path6"
         d="m 28.388141,-2.4968281 c 0,-0.7734375 -0.117188,-1.9804688 -0.65625,-3.1054688 -0.597657,-1.21875 -1.464844,-1.875 -1.558594,-1.875 -0.05859,0 -0.105469,0.046875 -0.105469,0.1054688 0,0.035156 0,0.046875 0.199219,0.234375 0.972656,0.984375 1.535156,2.5664062 1.535156,4.640625 0,1.71093747 -0.363281,3.45703122 -1.59375,4.7226562 -0.140625,0.1171875 -0.140625,0.1289063 -0.140625,0.1640625 0,0.058594 0.04687,0.1054688 0.105469,0.1054688 0.09375,0 0.996094,-0.6796875 1.582031,-1.94531253 0.503906,-1.1015625 0.632813,-2.20312497 0.632813,-3.04687497 z m 10.584961,-0.7617188 c 0.152343,0 0.339843,0 0.339843,-0.1992187 0,-0.1992188 -0.1875,-0.1992188 -0.328125,-0.1992188 h -5.964843 c -0.140625,0 -0.328125,0 -0.328125,0.1992188 0,0.1992187 0.1875,0.1992187 0.339843,0.1992187 z m 0.01172,1.9335938 c 0.140625,0 0.328125,0 0.328125,-0.1992188 0,-0.1992187 -0.1875,-0.1992187 -0.339843,-0.1992187 h -5.941407 c -0.152343,0 -0.339843,0 -0.339843,0.1992187 0,0.1992188 0.1875,0.1992188 0.328125,0.1992188 z m 0,0"
         style="fill:#000000;fill-opacity:1;fill-rule:nonzero;stroke:none" />
      <path
         id="path7"
         d="m 52.452594,-16.459719 c 0.07031,-0.257812 0.1875,-0.492187 0.738281,-0.503906 0.03516,0 0.140625,-0.01172 0.140625,-0.152344 0,-0.04687 -0.03516,-0.09375 -0.105469,-0.09375 -0.222656,0 -0.480469,0.02344 -0.726562,0.02344 -0.164063,0 -0.5625,-0.02344 -0.738282,-0.02344 -0.03516,0 -0.140625,0 -0.140625,0.152344 0,0.08203 0.09375,0.09375 0.164063,0.09375 0.316406,0.01172 0.445312,0.117188 0.445312,0.28125 0,0.05859 -0.01172,0.09375 -0.03516,0.175781 l -0.761719,3.035156 -1.769531,-3.621093 c -0.05859,-0.117188 -0.07031,-0.117188 -0.234375,-0.117188 h -0.960937 c -0.128907,0 -0.222657,0 -0.222657,0.152344 0,0.09375 0.09375,0.09375 0.234375,0.09375 0.152344,0 0.304688,0.01172 0.445313,0.03516 l -0.9375,3.726563 c -0.05859,0.269531 -0.175781,0.480468 -0.714844,0.503906 -0.05859,0 -0.152344,0 -0.152344,0.140625 0,0.08203 0.05859,0.105469 0.105469,0.105469 0.234375,0 0.492188,-0.02344 0.726563,-0.02344 0.164062,0 0.574218,0.02344 0.738281,0.02344 0.07031,0 0.140625,-0.03516 0.140625,-0.140625 0,-0.105469 -0.08203,-0.105469 -0.164063,-0.105469 -0.433593,-0.02344 -0.433593,-0.199219 -0.433593,-0.292969 0,-0.03516 0,-0.07031 0.02344,-0.175781 l 0.890625,-3.574219 2.039063,4.171875 c 0.05859,0.105469 0.08203,0.117188 0.152343,0.117188 0.117188,0 0.117188,-0.02344 0.152344,-0.140625 z m 0,0"
         style="fill:#000000;fill-opacity:1;fill-rule:nonzero;stroke:none" />
      <path
         id="path8"
         d="m 55.58443,4.4816875 1.207031,-3.1875 H 56.545367 C 56.158648,2.3254375 55.092242,3.005125 53.955523,3.3098125 53.744586,3.3566875 52.77193,3.6145 50.850055,3.6145 h -6 l 5.0625,-5.9414063 c 0.07031,-0.082031 0.09375,-0.1171875 0.09375,-0.1640625 0,-0.023437 0,-0.046875 -0.07031,-0.1523437 L 45.29537,-8.9831563 h 5.460938 c 1.335937,0 2.238281,0.140625 2.332031,0.1523438 0.539062,0.082031 1.40625,0.2578125 2.191406,0.75 0.246094,0.1640625 0.925781,0.609375 1.265625,1.4179687 h 0.246094 L 55.58443,-9.463625 H 43.807086 c -0.222656,0 -0.234375,0.011719 -0.269531,0.070312 0,0.035156 0,0.2226562 0,0.328125 l 5.261718,7.2070312 -5.15625,6.046875 c -0.105468,0.1289063 -0.105468,0.1757813 -0.105468,0.1875 0,0.1054688 0.09375,0.1054688 0.269531,0.1054688 z m 0,0"
         style="fill:#000000;fill-opacity:1;fill-rule:nonzero;stroke:none" />
      <path
         id="path9"
         d="m 43.517047,11.202391 c -0.03516,0.08203 -0.07031,0.257812 -0.07031,0.28125 0,0.152343 0.117188,0.222656 0.234375,0.222656 0.128907,0 0.234375,-0.09375 0.269532,-0.152344 0.03516,-0.05859 0.09375,-0.292969 0.128906,-0.433594 0.03516,-0.128906 0.105469,-0.457031 0.152344,-0.632812 0.03516,-0.152344 0.08203,-0.304688 0.117187,-0.457031 0.08203,-0.2929691 0.09375,-0.3515629 0.292969,-0.6328129 0.199219,-0.28125 0.527344,-0.6445312 1.042969,-0.6445312 0.410156,0 0.410156,0.3632812 0.410156,0.4921875 0,0.421875 -0.292969,1.1953126 -0.410156,1.4882816 -0.07031,0.1875 -0.105469,0.257812 -0.105469,0.375 0,0.363281 0.304687,0.597656 0.667969,0.597656 0.691406,0 1.007812,-0.960938 1.007812,-1.066406 0,-0.09375 -0.09375,-0.09375 -0.117187,-0.09375 -0.09375,0 -0.105469,0.04687 -0.128907,0.117187 -0.164062,0.5625 -0.46875,0.84375 -0.738281,0.84375 -0.152344,0 -0.175781,-0.09375 -0.175781,-0.246094 0,-0.152343 0.03516,-0.246093 0.152344,-0.5625 0.09375,-0.210937 0.375,-0.9492184 0.375,-1.3476559 0,-0.6679687 -0.539063,-0.7851562 -0.902344,-0.7851562 -0.585938,0 -0.972656,0.3515625 -1.183594,0.6328125 -0.04687,-0.4804688 -0.457031,-0.6328125 -0.75,-0.6328125 -0.292969,0 -0.457031,0.2109375 -0.550781,0.375 -0.152344,0.2578125 -0.246094,0.65625 -0.246094,0.6914062 0,0.082031 0.09375,0.082031 0.117188,0.082031 0.09375,0 0.105468,-0.011719 0.152343,-0.1992188 0.105469,-0.421875 0.234375,-0.7617187 0.515625,-0.7617187 0.175782,0 0.222657,0.1523437 0.222657,0.3398437 0,0.140625 -0.05859,0.3984375 -0.105469,0.5859375 -0.04687,0.1875 -0.117188,0.4687502 -0.152344,0.6210942 z m 0,0"
         style="fill:#000000;fill-opacity:1;fill-rule:nonzero;stroke:none" />
      <path
         id="path10"
         d="m 52.944781,9.2922344 c 0.105469,0 0.269531,0 0.269531,-0.1757813 0,-0.1640625 -0.175781,-0.1640625 -0.257812,-0.1640625 h -4.617188 c -0.09375,0 -0.257812,0 -0.257812,0.1640625 0,0.1757813 0.152344,0.1757813 0.257812,0.1757813 z m 0.01172,1.5351566 c 0.08203,0 0.257812,0 0.257812,-0.164063 0,-0.175781 -0.164062,-0.175781 -0.269531,-0.175781 h -4.605469 c -0.105468,0 -0.257812,0 -0.257812,0.175781 0,0.164063 0.164062,0.164063 0.257812,0.164063 z m 3.079102,-3.6210941 c 0,-0.1875 -0.01172,-0.1992188 -0.210938,-0.1992188 -0.445312,0.4335938 -1.078125,0.4453125 -1.359375,0.4453125 v 0.2460938 c 0.164063,0 0.621094,0 1.007813,-0.1875 v 3.5507816 c 0,0.234375 0,0.328125 -0.691407,0.328125 h -0.269531 v 0.246093 c 0.128906,-0.01172 0.984375,-0.02344 1.242188,-0.02344 0.210937,0 1.089843,0.01172 1.242187,0.02344 v -0.246093 h -0.257812 c -0.703125,0 -0.703125,-0.09375 -0.703125,-0.328125 z m 0,0"
         style="fill:#000000;fill-opacity:1;fill-rule:nonzero;stroke:none" />
      <path
         id="path11"
         d="m 66.090289,-13.114016 c 0,-0.234375 0,-0.257812 -0.234375,-0.257812 -0.609375,0.632812 -1.488281,0.632812 -1.804687,0.632812 v 0.316407 c 0.199218,0 0.785156,0 1.300781,-0.257813 v 5.1562501 c 0,0.3515625 -0.03516,0.4804688 -0.925781,0.4804688 H 64.10982 v 0.3046875 c 0.351563,-0.035156 1.207032,-0.035156 1.605469,-0.035156 0.398438,0 1.265625,0 1.617188,0.035156 V -7.0437031 H 67.01607 c -0.902343,0 -0.925781,-0.1171875 -0.925781,-0.4804688 z m 0,0"
         style="fill:#000000;fill-opacity:1;fill-rule:nonzero;stroke:none" />
    </g>
    <path
       id="path12"
       d="M -6.488,51.294 H 3.75"
       style="fill:none;stroke:#000000;stroke-width:0.3985;stroke-linecap:butt;stroke-linejoin:miter;stroke-miterlimit:10;stroke-dasharray:none;stroke-opacity:1"
       transform="matrix(1.3333333,0,0,-1.3333333,96,96.002667)" />
    <g
       id="g12"
       aria-label="n&#10;s"
       transform="matrix(1.3333333,0,0,1.3333333,87.349333,40.042667)">
      <path
         id="path13"
         d="m 0.87764844,-0.58571094 c -0.0351563,0.15234375 -0.09375,0.375 -0.09375,0.421875 0,0.1875 0.140625,0.26953125 0.29296876,0.26953125 0.1171875,0 0.2929687,-0.0703125 0.3632812,-0.26953125 0.011719,-0.0234375 0.1289063,-0.4921875 0.1875,-0.73828125 L 1.8503047,-1.8044609 c 0.058594,-0.2226563 0.1171875,-0.4335938 0.1757812,-0.6679688 0.035156,-0.1640625 0.1171875,-0.4570312 0.1289063,-0.4921875 0.140625,-0.3164062 0.6679687,-1.21875 1.6171875,-1.21875 0.4453125,0 0.5390625,0.3632813 0.5390625,0.6914063 0,0.6210937 -0.4921875,1.8984375 -0.6445313,2.3320312 -0.09375,0.22265626 -0.1054687,0.33984376 -0.1054687,0.45703126 0,0.46875 0.3515625,0.80859375 0.8203125,0.80859375 0.9375,0 1.3007812,-1.45312501 1.3007812,-1.53515621 0,-0.09375 -0.082031,-0.09375 -0.1171875,-0.09375 -0.09375,0 -0.09375,0.023437 -0.1523437,0.1757812 -0.1992188,0.67968751 -0.5273438,1.24218751 -1.0078125,1.24218751 -0.1757813,0 -0.2460938,-0.10546875 -0.2460938,-0.328125 0,-0.2578125 0.09375,-0.4921875 0.1875,-0.71484371 0.1875,-0.5273438 0.5976563,-1.6171875 0.5976563,-2.1914063 0,-0.6679687 -0.421875,-1.0664062 -1.1367188,-1.0664062 -0.9023437,0 -1.3828125,0.6445312 -1.5585937,0.8671875 -0.046875,-0.5507813 -0.4570313,-0.8671875 -0.9140625,-0.8671875 -0.45703126,0 -0.64453126,0.3867187 -0.75000001,0.5742187 -0.15234375,0.3398438 -0.29296875,0.9257813 -0.29296875,0.9609375 0,0.1054688 0.09375,0.1054688 0.1171875,0.1054688 0.09375,0 0.10546875,-0.011719 0.1640625,-0.234375 0.17578125,-0.703125 0.375,-1.1835938 0.72656246,-1.1835938 0.1992188,0 0.3164063,0.1289063 0.3164063,0.4570313 0,0.2109375 -0.035156,0.3164062 -0.1640625,0.8320312 z m 0,0"
         style="fill:#000000;fill-opacity:1;fill-rule:nonzero;stroke:none" />
      <path
         id="path14"
         d="m 8.9811641,-5.5017266 c -0.1757813,0.046875 -0.2929688,0.1875 -0.2929688,0.328125 0,0.1640625 0.140625,0.2226563 0.234375,0.2226563 0.070312,0 0.3398438,-0.035156 0.3398438,-0.3984375 0,-0.4453125 -0.5039063,-0.5976563 -0.9257813,-0.5976563 -1.0898437,0 -1.2890625,0.796875 -1.2890625,1.0078125 0,0.2578125 0.1523438,0.4335938 0.2460938,0.515625 0.1757812,0.140625 0.3046875,0.1640625 0.7851562,0.2460938 0.1523438,0.035156 0.5976563,0.1171875 0.5976563,0.46875 0,0.1171875 -0.082031,0.375 -0.375,0.5507812 -0.2695313,0.1523438 -0.609375,0.1523438 -0.6914063,0.1523438 -0.28125,0 -0.6796875,-0.058594 -0.84375,-0.2929688 0.234375,-0.023437 0.3867188,-0.1992187 0.3867188,-0.3984375 0,-0.1640625 -0.1289063,-0.2578125 -0.2695313,-0.2578125 -0.1992187,0 -0.4101562,0.1640625 -0.4101562,0.46875 0,0.421875 0.4453125,0.6796875 1.125,0.6796875 1.2890625,0 1.5234375,-0.8789062 1.5234375,-1.1484375 0,-0.6445312 -0.703125,-0.7734375 -0.9609375,-0.8203125 -0.070312,-0.011719 -0.2460938,-0.035156 -0.28125,-0.058594 -0.2578125,-0.046875 -0.3867188,-0.1875 -0.3867188,-0.3398438 0,-0.1640625 0.1289063,-0.3515625 0.28125,-0.4453125 0.1875,-0.1289062 0.4335938,-0.140625 0.5507813,-0.140625 0.140625,0 0.5039062,0.023437 0.65625,0.2578128 z m 0,0"
         style="fill:#000000;fill-opacity:1;fill-rule:nonzero;stroke:none" />
    </g>
  </g>
</svg>
