<?xml version="1.0" encoding="UTF-8" standalone="no"?>
<!-- Created with Inkscape (http://www.inkscape.org/) -->

<svg
   version="1.1"
   id="svg1"
   width="94.533333"
   height="43.773335"
   viewBox="0 0 94.533333 43.773335"
   sodipodi:docname="2013-11-21-zipfs-law.pdf"
   xmlns:inkscape="http://www.inkscape.org/namespaces/inkscape"
   xmlns:sodipodi="http://sodipodi.sourceforge.net/DTD/sodipodi-0.dtd"
   xmlns="http://www.w3.org/2000/svg"
   xmlns:svg="http://www.w3.org/2000/svg">
  <defs
     id="defs1" />
  <sodipodi:namedview
     id="namedview1"
     pagecolor="#ffffff"
     bordercolor="#666666"
     borderopacity="1.0"
     inkscape:showpageshadow="2"
     inkscape:pageopacity="0.0"
     inkscape:pagecheckerboard="0"
     inkscape:deskcolor="#d1d1d1">
    <inkscape:page
       x="0"
       y="0"
       inkscape:label="1"
       id="page1"
       width="94.533333"
       height="43.773335"
       margin="0"
       bleed="0" />
  </sodipodi:namedview>
  <g
     id="g1"
     inkscape:groupmode="layer"
     inkscape:label="1">
    <g
       id="g2"
       aria-label="f&#10;i&#10;=&#10;F"
       transform="matrix(1.3333333,0,0,1.3333333,6.6413333,24.698667)">
      <path
         id="path2"
         d="m 3.6557187,-3.9839609 h 0.8554688 c 0.1992187,0 0.3046875,0 0.3046875,-0.1992188 0,-0.1054687 -0.1054688,-0.1054687 -0.2695313,-0.1054687 H 3.7143125 L 3.92525,-5.4253672 c 0.035156,-0.2109375 0.1757812,-0.9140625 0.234375,-1.0429687 0.09375,-0.1875 0.2578125,-0.3398438 0.46875,-0.3398438 0.046875,0 0.3046875,0 0.4921875,0.1875 C 4.6869687,-6.5855234 4.5815,-6.2339609 4.5815,-6.0816172 c 0,0.2226563 0.1757812,0.3398438 0.3632812,0.3398438 0.2695313,0 0.5507813,-0.2109375 0.5507813,-0.5976563 0,-0.4570312 -0.4570313,-0.6796875 -0.8671875,-0.6796875 -0.3398438,0 -0.9609375,0.1757813 -1.265625,1.1601563 -0.058594,0.2109375 -0.082031,0.3164062 -0.328125,1.5703125 H 2.3549375 c -0.1992188,0 -0.3046875,0 -0.3046875,0.1875 0,0.1171875 0.09375,0.1171875 0.28125,0.1171875 h 0.65625 l -0.75,3.93749996 C 2.0619687,0.91447656 1.8979062,1.8285391 1.3705625,1.8285391 c -0.035156,0 -0.28125,0 -0.46875,-0.1875 0.4570312,-0.023437 0.5390625,-0.3867188 0.5390625,-0.5390625 0,-0.22265629 -0.1757813,-0.33984379 -0.3632813,-0.33984379 -0.25781245,0 -0.5507812,0.2109375 -0.5507812,0.59765629 0,0.4453125 0.43359375,0.6796875 0.84375,0.6796875 0.5507812,0 0.9492187,-0.5859375 1.125,-0.9609375 0.328125,-0.63281254 0.5507812,-1.83984379 0.5625,-1.91015629 z m 0,0"
         style="fill:#000000;fill-opacity:1;fill-rule:nonzero;stroke:none" />
      <path
         id="path3"
         d="m 7.1391172,-2.8648203 c 0,-0.1054688 -0.082031,-0.2578125 -0.28125,-0.2578125 -0.1875,0 -0.3867188,0.1757812 -0.3867188,0.375 0,0.1171875 0.082031,0.2695312 0.2695313,0.2695312 0.2109375,0 0.3984375,-0.1992187 0.3984375,-0.3867187 z M 5.7094297,0.67424219 c -0.023437,0.09375 -0.058594,0.17578125 -0.058594,0.29296875 0,0.32812496 0.28125,0.59765626 0.6679688,0.59765626 0.6914062,0 0.9960937,-0.96093751 0.9960937,-1.06640626 0,-0.09375 -0.082031,-0.09375 -0.1054687,-0.09375 -0.1054688,0 -0.1054688,0.046875 -0.140625,0.1171875 C 6.9164609,1.0843984 6.6117734,1.3656484 6.3305234,1.3656484 c -0.140625,0 -0.1757812,-0.082031 -0.1757812,-0.2460937 0,-0.15234376 0.058594,-0.29296876 0.1171875,-0.44531251 0.070312,-0.1875 0.140625,-0.375 0.2226562,-0.55078125 0.058594,-0.1640625 0.3164063,-0.80859375 0.3398438,-0.890625 0.023437,-0.0703125 0.046875,-0.15234375 0.046875,-0.22265625 0,-0.32812499 -0.28125,-0.58593749 -0.6679688,-0.58593749 -0.6914062,0 -1.0078125,0.94921874 -1.0078125,1.06640624 0,0.0820313 0.09375,0.0820313 0.1171875,0.0820313 0.09375,0 0.1054688,-0.0351563 0.1289063,-0.10546875 0.1757812,-0.59765619 0.4804687,-0.85546869 0.7382812,-0.85546869 0.1171875,0 0.1757813,0.058594 0.1757813,0.2460937 0,0.16406249 -0.035156,0.26953124 -0.2109375,0.70312499 z m 0,0"
         style="fill:#000000;fill-opacity:1;fill-rule:nonzero;stroke:none" />
      <path
         id="path4"
         d="m 17.806109,-3.2573984 c 0.152344,0 0.339844,0 0.339844,-0.1992188 0,-0.1992187 -0.1875,-0.1992187 -0.328125,-0.1992187 h -5.964844 c -0.140625,0 -0.328125,0 -0.328125,0.1992187 0,0.1992188 0.1875,0.1992188 0.339844,0.1992188 z m 0.01172,1.9335937 c 0.140625,0 0.328125,0 0.328125,-0.1992187 0,-0.1992188 -0.1875,-0.1992188 -0.339844,-0.1992188 h -5.941406 c -0.152344,0 -0.339844,0 -0.339844,0.1992188 0,0.1992187 0.1875,0.1992187 0.328125,0.1992187 z m 0,0"
         style="fill:#000000;fill-opacity:1;fill-rule:nonzero;stroke:none" />
      <path
         id="path5"
         d="m 40.338336,-9.9751719 h 0.960937 c 0.75,0 0.832032,0.1523438 0.832032,0.4453125 0,0.070312 0,0.1875 -0.07031,0.4921875 -0.02344,0.046875 -0.03516,0.082031 -0.03516,0.1054688 0,0.082031 0.05859,0.1171875 0.117187,0.1171875 0.105469,0 0.105469,-0.023437 0.152344,-0.2109375 l 0.550781,-2.1562499 c 0.02344,-0.105469 0.02344,-0.128906 0.02344,-0.164063 0,-0.01172 -0.01172,-0.105468 -0.117188,-0.105468 -0.09375,0 -0.105468,0.04687 -0.152343,0.210937 -0.199219,0.773438 -0.433594,0.949219 -1.277344,0.949219 h -0.914063 l 0.644532,-2.53125 c 0.08203,-0.339844 0.09375,-0.386719 0.539062,-0.386719 h 1.3125 c 1.21875,0 1.453125,0.328125 1.453125,1.101563 0,0.222656 0,0.269531 -0.03516,0.539062 -0.01172,0.128906 -0.01172,0.140625 -0.01172,0.175781 0,0.04687 0.02344,0.117188 0.117188,0.117188 0.105468,0 0.117187,-0.05859 0.140625,-0.246094 l 0.199218,-1.722656 c 0.02344,-0.269531 -0.02344,-0.269531 -0.269531,-0.269531 h -4.886719 c -0.199218,0 -0.292968,0 -0.292968,0.199218 0,0.105469 0.09375,0.105469 0.28125,0.105469 0.363281,0 0.644531,0 0.644531,0.1875 0,0.03516 0,0.05859 -0.04687,0.234375 l -1.324219,5.2734376 c -0.09375,0.3867188 -0.117187,0.46875 -0.902344,0.46875 -0.164062,0 -0.28125,0 -0.28125,0.1875 0,0.1171875 0.128907,0.1171875 0.152344,0.1171875 0.292969,0 1.03125,-0.035156 1.3125,-0.035156 0.328125,0 1.160156,0.035156 1.488281,0.035156 0.09375,0 0.210938,0 0.210938,-0.1875 0,-0.082031 -0.05859,-0.1054687 -0.05859,-0.1171875 -0.03516,0 -0.05859,0 -0.28125,0 -0.222656,0 -0.269531,0 -0.515625,-0.023437 -0.292969,-0.035156 -0.328125,-0.070312 -0.328125,-0.1992187 0,-0.023437 0,-0.082031 0.04687,-0.234375 z m 0,0"
         style="fill:#000000;fill-opacity:1;fill-rule:nonzero;stroke:none" />
    </g>
    <path
       id="path6"
       d="m -44.345,55.962 h 37.07"
       style="fill:none;stroke:#000000;stroke-width:0.3985;stroke-linecap:butt;stroke-linejoin:miter;stroke-miterlimit:10;stroke-dasharray:none;stroke-opacity:1"
       transform="matrix(1.3333333,0,0,-1.3333333,96,95.993333)" />
    <g
       id="g6"
       aria-label="i&#10;s&#10;H&#10;s&#10;(N)"
       transform="matrix(1.3333333,0,0,1.3333333,36.873333,33.810667)">
      <path
         id="path7"
         d="m 2.8254687,-6.2212813 c 0,-0.1992187 -0.1289062,-0.3632812 -0.3632812,-0.3632812 -0.2695313,0 -0.5390625,0.2578125 -0.5390625,0.5273437 0,0.1875 0.140625,0.3632813 0.375,0.3632813 0.234375,0 0.5273437,-0.234375 0.5273437,-0.5273438 z m -0.75,3.7382813 c 0.1171875,-0.28125 0.1171875,-0.3046875 0.2226563,-0.5742188 0.070312,-0.1992187 0.1289062,-0.3398437 0.1289062,-0.5273437 0,-0.4453125 -0.328125,-0.8203125 -0.8203125,-0.8203125 -0.93749995,0 -1.31249995,1.453125 -1.31249995,1.5351562 0,0.1054688 0.09375,0.1054688 0.1171875,0.1054688 0.09375,0 0.10546875,-0.023437 0.15234375,-0.1875 0.26953125,-0.9375 0.6679687,-1.2304688 1.0078125,-1.2304688 0.082031,0 0.2578125,0 0.2578125,0.3164063 0,0.2109375 -0.070312,0.421875 -0.1171875,0.515625 C 1.6301562,-3.092375 1.1848437,-1.9322188 1.0325,-1.498625 0.92703125,-1.2408125 0.798125,-0.9126875 0.798125,-0.70175 c 0,0.46875 0.3398437,0.80859375 0.8203125,0.80859375 0.9375,0 1.3007812,-1.44140625 1.3007812,-1.53515625 0,-0.09375 -0.09375,-0.09375 -0.1171875,-0.09375 -0.1054687,0 -0.1054687,0.023437 -0.1523437,0.1757812 -0.1757813,0.63281255 -0.5039063,1.24218755 -1.0195313,1.24218755 -0.1640625,0 -0.234375,-0.10546875 -0.234375,-0.328125 0,-0.2578125 0.058594,-0.3984375 0.2929688,-0.99609375 z m 0,0"
         style="fill:#000000;fill-opacity:1;fill-rule:nonzero;stroke:none" />
      <path
         id="path8"
         d="m 6.4319141,-5.5035078 c -0.1757813,0.046875 -0.2929688,0.1875 -0.2929688,0.328125 0,0.1640625 0.140625,0.2226562 0.234375,0.2226562 0.070312,0 0.3398438,-0.035156 0.3398438,-0.3984375 0,-0.4453125 -0.5039063,-0.5976562 -0.9257813,-0.5976562 -1.0898437,0 -1.2890625,0.796875 -1.2890625,1.0078125 0,0.2578125 0.1523438,0.4335937 0.2460938,0.515625 0.1757812,0.140625 0.3046875,0.1640625 0.7851562,0.2460937 0.1523438,0.035156 0.5976563,0.1171875 0.5976563,0.46875 0,0.1171875 -0.082031,0.375 -0.375,0.5507813 -0.2695313,0.1523437 -0.609375,0.1523437 -0.6914063,0.1523437 -0.28125,0 -0.6796875,-0.058594 -0.84375,-0.2929687 0.234375,-0.023437 0.3867188,-0.1992188 0.3867188,-0.3984375 0,-0.1640625 -0.1289063,-0.2578125 -0.2695313,-0.2578125 -0.1992187,0 -0.4101562,0.1640625 -0.4101562,0.46875 0,0.421875 0.4453125,0.6796875 1.125,0.6796875 1.2890625,0 1.5234375,-0.8789063 1.5234375,-1.1484375 0,-0.6445313 -0.703125,-0.7734375 -0.9609375,-0.8203125 -0.070312,-0.011719 -0.2460938,-0.035156 -0.28125,-0.058594 -0.2578125,-0.046875 -0.3867188,-0.1875 -0.3867188,-0.3398437 0,-0.1640625 0.1289063,-0.3515625 0.28125,-0.4453125 0.1875,-0.1289063 0.4335938,-0.140625 0.5507813,-0.140625 0.140625,0 0.5039062,0.023437 0.65625,0.2578127 z m 0,0"
         style="fill:#000000;fill-opacity:1;fill-rule:nonzero;stroke:none" />
      <path
         id="path9"
         d="m 15.294219,-6.0337813 c 0.08203,-0.3632812 0.105468,-0.4570312 0.832031,-0.4570312 0.257812,0 0.339844,0 0.339844,-0.1992188 0,-0.1171875 -0.105469,-0.1171875 -0.140625,-0.1171875 -0.28125,0 -0.996094,0.035156 -1.277344,0.035156 -0.28125,0 -0.996094,-0.035156 -1.277344,-0.035156 -0.08203,0 -0.199219,0 -0.199219,0.1992188 0,0.1171875 0.09375,0.1171875 0.28125,0.1171875 0.02344,0 0.210938,0 0.375,0.011719 0.1875,0.023437 0.269532,0.035156 0.269532,0.1640625 0,0.035156 0,0.058594 -0.03516,0.1875 l -0.597656,2.4375 h -3.035156 l 0.585937,-2.34375 c 0.09375,-0.3632812 0.117188,-0.4570312 0.832032,-0.4570312 0.257812,0 0.339843,0 0.339843,-0.1992188 0,-0.1171875 -0.105468,-0.1171875 -0.140625,-0.1171875 -0.269531,0 -0.996093,0.035156 -1.265625,0.035156 -0.292968,0 -0.996093,-0.035156 -1.289062,-0.035156 -0.082031,0 -0.1875,0 -0.1875,0.1992188 0,0.1171875 0.082031,0.1171875 0.28125,0.1171875 0.011719,0 0.199219,0 0.375,0.011719 0.175781,0.023437 0.269531,0.035156 0.269531,0.1640625 0,0.035156 -0.01172,0.070312 -0.04687,0.1875 l -1.3359373,5.3554688 c -0.09375,0.38671875 -0.1171875,0.46875 -0.9023437,0.46875 -0.1757813,0 -0.2695313,0 -0.2695313,0.19921875 0,0.10546875 0.1171875,0.10546875 0.140625,0.10546875 0.28125,0 0.984375,-0.03515625 1.265625,-0.03515625 0.2109375,0 0.4335938,0.01171875 0.6328123,0.01171875 0.222656,0 0.445313,0.0234375 0.65625,0.0234375 0.07031,0 0.199219,0 0.199219,-0.19921875 0,-0.10546875 -0.09375,-0.10546875 -0.28125,-0.10546875 -0.375,0 -0.644531,0 -0.644531,-0.1875 0,-0.0585938 0.01172,-0.10546875 0.02344,-0.1640625 l 0.679688,-2.7304688 H 13.7825 c -0.410156,1.6523438 -0.644531,2.60156255 -0.679688,2.7539063 -0.105468,0.31640625 -0.292968,0.328125 -0.914062,0.328125 -0.152344,0 -0.234375,0 -0.234375,0.19921875 0,0.10546875 0.117187,0.10546875 0.140625,0.10546875 0.28125,0 0.984375,-0.03515625 1.265625,-0.03515625 0.210937,0 0.421875,0.01171875 0.632812,0.01171875 0.222657,0 0.433594,0.0234375 0.644532,0.0234375 0.08203,0 0.199218,0 0.199218,-0.19921875 0,-0.10546875 -0.08203,-0.10546875 -0.269531,-0.10546875 -0.375,0 -0.65625,0 -0.65625,-0.1875 0,-0.0585938 0.02344,-0.10546875 0.03516,-0.1640625 z m 0,0"
         style="fill:#000000;fill-opacity:1;fill-rule:nonzero;stroke:none" />
      <path
         id="path10"
         d="m 18.970977,-1.1324141 c -0.175782,0.046875 -0.292969,0.18750004 -0.292969,0.32812504 0,0.1640625 0.140625,0.22265625 0.234375,0.22265625 0.07031,0 0.339844,-0.0351563 0.339844,-0.3984375 0,-0.44531249 -0.503907,-0.59765629 -0.925782,-0.59765629 -1.089843,0 -1.289062,0.79687504 -1.289062,1.00781254 0,0.2578125 0.152344,0.43359375 0.246094,0.515625 0.175781,0.140625 0.304687,0.1640625 0.785156,0.24609375 0.152344,0.0351563 0.597656,0.1171875 0.597656,0.46875 0,0.1171875 -0.08203,0.37500001 -0.375,0.55078121 -0.269531,0.1523438 -0.609375,0.1523438 -0.691406,0.1523438 -0.28125,0 -0.679688,-0.058594 -0.84375,-0.2929688 0.234375,-0.023437 0.386719,-0.19921871 0.386719,-0.39843746 0,-0.1640625 -0.128907,-0.2578125 -0.269532,-0.2578125 -0.199218,0 -0.410156,0.1640625 -0.410156,0.46875 0,0.42187496 0.445313,0.67968746 1.125,0.67968746 1.289063,0 1.523438,-0.87890621 1.523438,-1.14843746 0,-0.64453125 -0.703125,-0.7734375 -0.960938,-0.8203125 -0.07031,-0.0117188 -0.246094,-0.0351563 -0.28125,-0.0585938 -0.257812,-0.046875 -0.386719,-0.1875 -0.386719,-0.33984375 0,-0.1640625 0.128907,-0.35156259 0.28125,-0.44531259 0.1875,-0.1289062 0.433594,-0.140625 0.550782,-0.140625 0.140625,0 0.503906,0.023437 0.65625,0.2578126 z m 0,0"
         style="fill:#000000;fill-opacity:1;fill-rule:nonzero;stroke:none" />
      <path
         id="path11"
         d="m 23.523711,2.392 c 0,-0.035156 0,-0.046875 -0.164063,-0.2226563 -1.242187,-1.2539062 -1.570312,-3.1289062 -1.570312,-4.6640625 0,-1.7226562 0.386719,-3.4570312 1.605469,-4.7109375 0.128906,-0.1171875 0.128906,-0.1289062 0.128906,-0.1640625 0,-0.070312 -0.03516,-0.1054687 -0.09375,-0.1054687 -0.105469,0 -0.996094,0.6796875 -1.582031,1.9453125 -0.515625,1.1015625 -0.632813,2.203125 -0.632813,3.0351562 0,0.7851563 0.117188,1.99218755 0.65625,3.11718755 0.597656,1.21874995 1.453125,1.87499995 1.558594,1.87499995 0.05859,0 0.09375,-0.035156 0.09375,-0.1054687 z m 0,0"
         style="fill:#000000;fill-opacity:1;fill-rule:nonzero;stroke:none" />
      <path
         id="path12"
         d="m 31.638945,-5.7525313 c 0.09375,-0.3984375 0.269532,-0.7148437 1.066407,-0.7382812 0.05859,0 0.175781,-0.011719 0.175781,-0.1992188 0,-0.011719 0,-0.1171875 -0.128906,-0.1171875 -0.328125,0 -0.679688,0.035156 -1.007813,0.035156 -0.339844,0 -0.691406,-0.035156 -1.019531,-0.035156 -0.05859,0 -0.175781,0 -0.175781,0.1992188 0,0.1171875 0.09375,0.1171875 0.175781,0.1171875 0.574219,0.011719 0.679687,0.2109375 0.679687,0.4335937 0,0.035156 -0.02344,0.1757813 -0.02344,0.2109375 l -1.125,4.4296875 L 28.053008,-6.608 c -0.07031,-0.1875 -0.08203,-0.1992188 -0.316406,-0.1992188 h -1.335938 c -0.199219,0 -0.28125,0 -0.28125,0.1992188 0,0.1171875 0.08203,0.1171875 0.28125,0.1171875 0.04687,0 0.667969,0 0.667969,0.082031 l -1.335938,5.3554688 c -0.09375,0.3984375 -0.269531,0.71484375 -1.066406,0.75 -0.05859,0 -0.175781,0 -0.175781,0.19921875 0,0.0703125 0.04687,0.10546875 0.128906,0.10546875 0.316406,0 0.667969,-0.03515625 0.996094,-0.03515625 0.339844,0 0.703125,0.03515625 1.03125,0.03515625 0.04687,0 0.175781,0 0.175781,-0.19921875 0,-0.10546875 -0.09375,-0.10546875 -0.199219,-0.10546875 -0.574218,-0.0234375 -0.65625,-0.24609375 -0.65625,-0.4453125 0,-0.0703125 0.01172,-0.1171875 0.03516,-0.22265625 L 27.326445,-6.233 c 0.03516,0.058594 0.03516,0.082031 0.08203,0.1757812 l 2.484375,5.8710938 c 0.07031,0.1640625 0.09375,0.1875 0.1875,0.1875 0.105468,0 0.105468,-0.03515625 0.164062,-0.2109375 z m 0,0"
         style="fill:#000000;fill-opacity:1;fill-rule:nonzero;stroke:none" />
      <path
         id="path13"
         d="m 36.077422,-2.4947188 c 0,-0.7734375 -0.117188,-1.9804687 -0.65625,-3.1054687 -0.597656,-1.21875 -1.464844,-1.875 -1.558594,-1.875 -0.05859,0 -0.105469,0.046875 -0.105469,0.1054687 0,0.035156 0,0.046875 0.199219,0.234375 0.972656,0.984375 1.535156,2.5664063 1.535156,4.640625 0,1.71093755 -0.363281,3.4570313 -1.59375,4.7226563 C 33.757109,2.345125 33.757109,2.3568437 33.757109,2.392 c 0,0.058594 0.04687,0.1054687 0.105469,0.1054687 0.09375,0 0.996094,-0.6796875 1.582031,-1.94531245 0.503907,-1.1015625 0.632813,-2.20312505 0.632813,-3.04687505 z m 0,0"
         style="fill:#000000;fill-opacity:1;fill-rule:nonzero;stroke:none" />
    </g>
  </g>
</svg>
