<?xml version="1.0" encoding="UTF-8" standalone="no"?>
<!-- Created with Inkscape (http://www.inkscape.org/) -->

<svg
   version="1.1"
   id="svg1"
   width="265.57333"
   height="54.573334"
   viewBox="0 0 265.57333 54.573334"
   sodipodi:docname="2013-11-21-expected-length-huf.pdf"
   xmlns:inkscape="http://www.inkscape.org/namespaces/inkscape"
   xmlns:sodipodi="http://sodipodi.sourceforge.net/DTD/sodipodi-0.dtd"
   xmlns="http://www.w3.org/2000/svg"
   xmlns:svg="http://www.w3.org/2000/svg">
  <defs
     id="defs1" />
  <sodipodi:namedview
     id="namedview1"
     pagecolor="#ffffff"
     bordercolor="#666666"
     borderopacity="1.0"
     inkscape:showpageshadow="2"
     inkscape:pageopacity="0.0"
     inkscape:pagecheckerboard="0"
     inkscape:deskcolor="#d1d1d1">
    <inkscape:page
       x="0"
       y="0"
       inkscape:label="1"
       id="page1"
       width="265.57333"
       height="54.573334"
       margin="0"
       bleed="0" />
  </sodipodi:namedview>
  <g
     id="g1"
     inkscape:groupmode="layer"
     inkscape:label="1">
    <g
       id="g2"
       aria-label="E[L&#10;huf&#10;]≈&#10;N&#10;∑&#10;i=1&#10;f&#10;i"
       transform="matrix(1.3333333,0,0,1.3333333,6.6413333,30.929333)">
      <path
         id="path2"
         d="m 7.0541562,-2.3200469 c 0.023437,-0.046875 0.046875,-0.1171875 0.046875,-0.140625 0,-0.011719 0,-0.1054687 -0.1171875,-0.1054687 -0.09375,0 -0.1054687,0.058594 -0.1289062,0.1171875 -0.6445313,1.47656248 -1.0195313,2.14453123 -2.71875,2.14453123 h -1.453125 c -0.140625,0 -0.1640625,0 -0.2226563,-0.0117188 C 2.3549375,-0.32785937 2.3315,-0.33957812 2.3315,-0.42160937 c 0,-0.0234375 0,-0.046875 0.046875,-0.22265625 L 3.0580625,-3.3630156 h 0.984375 c 0.84375,0 0.84375,0.2109375 0.84375,0.4570312 0,0.070312 0,0.1875 -0.070312,0.4804688 -0.011719,0.058594 -0.023437,0.082031 -0.023437,0.1171875 0,0.046875 0.035156,0.1054687 0.1289062,0.1054687 0.082031,0 0.1054688,-0.046875 0.1523438,-0.1992187 l 0.5625,-2.3320313 c 0,-0.058594 -0.046875,-0.1054687 -0.1171875,-0.1054687 -0.09375,0 -0.1054688,0.058594 -0.140625,0.1757812 -0.2109375,0.7617188 -0.3867188,0.984375 -1.3007813,0.984375 h -0.9375 L 3.73775,-6.0817656 C 3.819781,-6.4216094 3.8315,-6.4684844 4.2768125,-6.4684844 h 1.40625 c 1.2070312,0 1.5117187,0.2929688 1.5117187,1.1132813 0,0.234375 0,0.2578125 -0.046875,0.5273437 0,0.058594 -0.011719,0.1289063 -0.011719,0.1757813 0,0.046875 0.035156,0.1171875 0.1289062,0.1171875 0.1054688,0 0.1171875,-0.058594 0.140625,-0.2460938 L 7.6049375,-6.5036406 C 7.628375,-6.7731719 7.5815,-6.7731719 7.3354062,-6.7731719 H 2.2963437 c -0.1992187,0 -0.2929687,0 -0.2929687,0.1992188 0,0.1054687 0.09375,0.1054687 0.28125,0.1054687 0.3632812,0 0.6445312,0 0.6445312,0.1875 0,0.035156 0,0.058594 -0.046875,0.234375 l -1.3242187,5.27343753 c -0.09375,0.38671875 -0.1171875,0.46875 -0.90234375,0.46875 -0.1640625,0 -0.28125,0 -0.28125,0.1875 0,0.117187495 0.09375,0.117187495 0.28125,0.117187495 H 5.8236875 c 0.234375,0 0.2460937,-0.011718745 0.3164062,-0.164062495 z m 0,0"
         style="fill:#000000;fill-opacity:1;fill-rule:nonzero;stroke:none" />
      <path
         id="path3"
         d="M 10.473102,2.4963594 V 2.0979219 H 9.5004453 V -7.0778594 H 10.473102 V -7.4762969 H 9.1020078 v 9.9726563 z m 0,0"
         style="fill:#000000;fill-opacity:1;fill-rule:nonzero;stroke:none" />
      <path
         id="path4"
         d="m 14.42232,-6.0231719 c 0.09375,-0.3632812 0.117188,-0.46875 1.054688,-0.46875 0.304687,0 0.375,0 0.375,-0.1875 0,-0.1289062 -0.105469,-0.1289062 -0.152344,-0.1289062 -0.328125,0 -1.148437,0.035156 -1.476562,0.035156 -0.304688,0 -1.03125,-0.035156 -1.324219,-0.035156 -0.07031,0 -0.1875,0 -0.1875,0.1992187 0,0.1171875 0.08203,0.1171875 0.28125,0.1171875 0.01172,0 0.199219,0 0.375,0.011719 0.175781,0.023437 0.269531,0.035156 0.269531,0.1640625 0,0.035156 -0.01172,0.070312 -0.04687,0.1875 l -1.335937,5.35546873 c -0.09375,0.38671875 -0.117188,0.46875 -0.902344,0.46875 -0.164063,0 -0.269531,0 -0.269531,0.19921875 0,0.105468745 0.09375,0.105468745 0.269531,0.105468745 H 15.9692 c 0.234375,0 0.246094,0 0.304688,-0.164062495 l 0.785156,-2.15625003 c 0.04687,-0.1054687 0.04687,-0.1289062 0.04687,-0.140625 0,-0.035156 -0.03516,-0.1054687 -0.128906,-0.1054687 -0.08203,0 -0.09375,0.046875 -0.164063,0.2109375 -0.339843,0.9140625 -0.773437,2.05078123 -2.496093,2.05078123 h -0.9375 c -0.140625,0 -0.164063,0 -0.222657,-0.0117188 -0.105468,-0.0117188 -0.128906,-0.0234375 -0.128906,-0.10546875 0,-0.0234375 0,-0.046875 0.04687,-0.22265625 z m 0,0"
         style="fill:#000000;fill-opacity:1;fill-rule:nonzero;stroke:none" />
      <path
         id="path5"
         d="m 19.654742,-3.1345 c 0.01172,-0.011719 0.03516,-0.1054687 0.03516,-0.1171875 0,-0.035156 -0.03516,-0.09375 -0.117187,-0.09375 -0.140625,0 -0.714844,0.058594 -0.890625,0.070312 -0.05859,0.011719 -0.152344,0.011719 -0.152344,0.1640625 0,0.09375 0.09375,0.09375 0.175781,0.09375 0.339844,0 0.339844,0.046875 0.339844,0.1054688 0,0.046875 -0.01172,0.09375 -0.03516,0.1523437 l -0.972656,3.9492188 c -0.03516,0.1289062 -0.03516,0.140625 -0.03516,0.1523437 0,0.1054688 0.08203,0.2226563 0.234375,0.2226563 0.07031,0 0.210938,-0.035156 0.28125,-0.1875 0.02344,-0.035156 0.08203,-0.2929688 0.117188,-0.4335938 L 18.79927,0.32253075 c 0.02344,-0.10546875 0.09375,-0.36328125 0.117188,-0.46875 0.07031,-0.26953125 0.07031,-0.28125 0.199219,-0.50390625 0.222656,-0.33984375 0.574218,-0.7382812 1.125,-0.7382812 0.386718,0 0.410156,0.328125 0.410156,0.49218745 0,0.421875 -0.304688,1.1953125 -0.410156,1.48828125 -0.08203,0.1875 -0.105469,0.2578125 -0.105469,0.375 0,0.3632813 0.304687,0.5976563 0.65625,0.5976563 0.703125,0 1.007812,-0.96093755 1.007812,-1.0664063 0,-0.09375 -0.09375,-0.09375 -0.117187,-0.09375 -0.09375,0 -0.105469,0.046875 -0.128906,0.1171875 -0.164063,0.5625 -0.46875,0.84375 -0.738282,0.84375 -0.140625,0 -0.175781,-0.09375 -0.175781,-0.2460937 0,-0.1523438 0.03516,-0.2460938 0.164063,-0.56250005 0.08203,-0.2109375 0.363281,-0.94921875 0.363281,-1.34765625 0,-0.10546875 0,-0.3984375 -0.257813,-0.5976562 -0.117187,-0.09375 -0.316406,-0.1875 -0.644531,-0.1875 -0.503906,0 -0.878906,0.2695312 -1.136719,0.5742187 z m 5.431641,3.50390625 c -0.03516,0.140625 -0.105469,0.3984375 -0.117188,0.41015625 C 24.840289,0.9905 24.559039,1.3655 24.125445,1.3655 c -0.480468,0 -0.480468,-0.4453125 -0.480468,-0.57421875 0,-0.41015625 0.199218,-0.90234375 0.386718,-1.41796875 0.05859,-0.140625 0.105469,-0.24609375 0.105469,-0.3515625 0,-0.3632812 -0.304687,-0.5976562 -0.667969,-0.5976562 -0.691406,0 -1.007812,0.9492187 -1.007812,1.0664062 0,0.0820312 0.09375,0.0820312 0.117187,0.0820312 0.09375,0 0.105469,-0.0351563 0.128907,-0.10546875 0.164062,-0.57421865 0.46875,-0.85546865 0.738281,-0.85546865 0.128906,0 0.175781,0.082031 0.175781,0.2460937 0,0.16406245 -0.04687,0.30468745 -0.117187,0.46874995 -0.386719,0.9609375 -0.386719,1.16015625 -0.386719,1.34765625 0,0.1171875 0,0.4453126 0.269531,0.6679688 0.199219,0.1640625 0.46875,0.2226563 0.714844,0.2226563 0.433594,0 0.679687,-0.234375 0.902344,-0.4570313 0.152343,0.4453125 0.621093,0.4570313 0.703125,0.4570313 0.234375,0 0.421875,-0.140625 0.550781,-0.375 0.152344,-0.26953135 0.257812,-0.66796885 0.257812,-0.69140635 0,-0.09375 -0.105468,-0.09375 -0.117187,-0.09375 -0.105469,0 -0.105469,0.0351563 -0.164063,0.22265625 C 26.152789,0.95534375 26.023883,1.3655 25.730914,1.3655 c -0.175781,0 -0.234375,-0.1523437 -0.234375,-0.3398437 0,-0.11718755 0.05859,-0.3632813 0.105469,-0.5507813 0.04687,-0.1875 0.117187,-0.46875 0.152344,-0.62109375 l 0.164062,-0.62109375 c 0.04687,-0.17578125 0.117188,-0.4804687 0.117188,-0.515625 0,-0.140625 -0.105469,-0.2226562 -0.222657,-0.2226562 -0.257812,0 -0.316406,0.1992187 -0.363281,0.421875 z M 29.677203,-1.2595 h 0.679688 c 0.140625,0 0.234375,0 0.234375,-0.1523437 0,-0.09375 -0.09375,-0.09375 -0.210938,-0.09375 h -0.65625 c 0.164063,-0.890625 0.222656,-1.2070313 0.28125,-1.4179688 0.03516,-0.1523437 0.1875,-0.2929687 0.351563,-0.2929687 0,0 0.199218,0 0.328125,0.082031 -0.292969,0.09375 -0.304688,0.3398438 -0.304688,0.3867188 0,0.1523437 0.117188,0.2578125 0.269531,0.2578125 0.199219,0 0.398438,-0.1640625 0.398438,-0.4335938 0,-0.3164062 -0.339844,-0.4921875 -0.691406,-0.4921875 -0.304688,0 -0.644532,0.1757813 -0.84375,0.5273438 -0.128907,0.2578125 -0.1875,0.5742187 -0.339844,1.3828125 h -0.550781 c -0.140625,0 -0.222657,0 -0.222657,0.1523437 0,0.09375 0.08203,0.09375 0.210938,0.09375 h 0.515625 c 0,0.046875 -0.445313,2.5546875 -0.609375,3.2929688 -0.03516,0.1640625 -0.152344,0.6914062 -0.492188,0.6914062 0,0 -0.175781,0 -0.304687,-0.082031 0.28125,-0.09375 0.304687,-0.3515625 0.304687,-0.3867188 0,-0.1523437 -0.117187,-0.2578125 -0.28125,-0.2578125 -0.1875,0 -0.398437,0.1640625 -0.398437,0.421875 0,0.3164063 0.328125,0.4921875 0.679687,0.4921875 0.445313,0 0.75,-0.4570312 0.84375,-0.609375 0.246094,-0.46875 0.410157,-1.32421875 0.421875,-1.40625 z m 0,0"
         style="fill:#000000;fill-opacity:1;fill-rule:nonzero;stroke:none" />
      <path
         id="path6"
         d="M 33.597125,-7.4762969 H 32.23775 v 0.3984375 h 0.960937 V 2.0979219 H 32.23775 v 0.3984375 h 1.359375 z m 0,0"
         style="fill:#000000;fill-opacity:1;fill-rule:nonzero;stroke:none" />
      <path
         id="path7"
         d="m 44.747516,-4.4997344 c 0,-0.2109375 -0.07031,-0.3046875 -0.140625,-0.3046875 -0.04687,0 -0.128907,0.046875 -0.140625,0.2695313 -0.03516,0.6914062 -0.738282,1.1015625 -1.382813,1.1015625 -0.585937,0 -1.078125,-0.3164063 -1.59375,-0.65625 -0.539062,-0.3632813 -1.078125,-0.7265625 -1.722656,-0.7265625 -0.925781,0 -1.664063,0.7148437 -1.664063,1.6289062 0,0.2226563 0.08203,0.2929688 0.140625,0.2929688 0.09375,0 0.140625,-0.1875 0.140625,-0.2226563 0.04687,-0.8320312 0.867188,-1.1367187 1.382813,-1.1367187 0.574219,0 1.078125,0.3046875 1.59375,0.65625 0.539062,0.3632812 1.078125,0.7148437 1.722656,0.7148437 0.925781,0 1.664063,-0.703125 1.664063,-1.6171875 z m 0,2.3320313 c 0,-0.2929688 -0.117188,-0.3164063 -0.140625,-0.3164063 -0.04687,0 -0.128907,0.058594 -0.140625,0.2695313 -0.03516,0.6914062 -0.738282,1.1015625 -1.382813,1.1015625 -0.585937,0 -1.078125,-0.3164063 -1.59375,-0.65625 -0.539062,-0.3632813 -1.078125,-0.7265625 -1.722656,-0.7265625 -0.925781,0 -1.664063,0.7148437 -1.664063,1.62890623 0,0.22265625 0.08203,0.3046875 0.140625,0.3046875 0.09375,0 0.140625,-0.19921875 0.140625,-0.234375 0.04687,-0.83203123 0.867188,-1.13671873 1.382813,-1.13671873 0.574219,0 1.078125,0.3046875 1.59375,0.65625 0.539062,0.36328123 1.078125,0.71484373 1.722656,0.71484373 0.949219,0 1.664063,-0.73828123 1.664063,-1.60546873 z m 0,0"
         style="fill:#000000;fill-opacity:1;fill-rule:nonzero;stroke:none" />
      <path
         id="path8"
         d="m 57.544391,-16.461648 c 0.07031,-0.257813 0.1875,-0.492188 0.738281,-0.503907 0.03516,0 0.140625,-0.01172 0.140625,-0.152343 0,-0.04687 -0.03516,-0.09375 -0.105469,-0.09375 -0.222656,0 -0.480469,0.02344 -0.726562,0.02344 -0.164063,0 -0.5625,-0.02344 -0.738282,-0.02344 -0.03516,0 -0.140625,0 -0.140625,0.152343 0,0.08203 0.09375,0.09375 0.164063,0.09375 0.316406,0.01172 0.445312,0.117188 0.445312,0.28125 0,0.05859 -0.01172,0.09375 -0.03516,0.175782 l -0.761719,3.035156 -1.769531,-3.621094 c -0.05859,-0.117187 -0.07031,-0.117187 -0.234375,-0.117187 h -0.960937 c -0.128907,0 -0.222657,0 -0.222657,0.152343 0,0.09375 0.09375,0.09375 0.234375,0.09375 0.152344,0 0.304688,0.01172 0.445313,0.03516 l -0.9375,3.726562 c -0.05859,0.269531 -0.175781,0.480469 -0.714844,0.503906 -0.05859,0 -0.152344,0 -0.152344,0.140625 0,0.08203 0.05859,0.105469 0.105469,0.105469 0.234375,0 0.492188,-0.02344 0.726563,-0.02344 0.164062,0 0.574218,0.02344 0.738281,0.02344 0.07031,0 0.140625,-0.03516 0.140625,-0.140625 0,-0.105469 -0.08203,-0.105469 -0.164063,-0.105469 -0.433593,-0.02344 -0.433593,-0.199218 -0.433593,-0.292968 0,-0.03516 0,-0.07031 0.02344,-0.175782 l 0.890625,-3.574218 2.039063,4.171875 c 0.05859,0.105468 0.08203,0.117187 0.152343,0.117187 0.117188,0 0.117188,-0.02344 0.152344,-0.140625 z m 0,0"
         style="fill:#000000;fill-opacity:1;fill-rule:nonzero;stroke:none" />
      <path
         id="path9"
         d="m 60.676227,4.4826875 1.207031,-3.1875 H 61.637164 C 61.250445,2.3264375 60.184039,3.006125 59.04732,3.3108125 58.836383,3.3576875 57.863727,3.6155 55.941852,3.6155 h -6 l 5.0625,-5.9414062 c 0.07031,-0.082031 0.09375,-0.1171875 0.09375,-0.1640625 0,-0.023437 0,-0.046875 -0.07031,-0.1523438 l -4.640625,-6.3398437 h 5.460938 c 1.335937,0 2.238281,0.140625 2.332031,0.1523437 0.539062,0.082031 1.40625,0.2578125 2.191406,0.75 0.246094,0.1640625 0.925781,0.609375 1.265625,1.4179688 h 0.246094 L 60.676227,-9.462625 H 48.898883 c -0.222656,0 -0.234375,0.011719 -0.269531,0.070312 0,0.035156 0,0.2226563 0,0.328125 l 5.261718,7.2070313 -5.15625,6.046875 c -0.105468,0.1289062 -0.105468,0.1757812 -0.105468,0.1875 0,0.1054687 0.09375,0.1054687 0.269531,0.1054687 z m 0,0"
         style="fill:#000000;fill-opacity:1;fill-rule:nonzero;stroke:none" />
      <path
         id="path10"
         d="m 51.069781,7.3947969 c 0,-0.1054688 -0.08203,-0.2578125 -0.28125,-0.2578125 -0.1875,0 -0.386719,0.1757812 -0.386719,0.375 0,0.1171875 0.08203,0.2695312 0.269532,0.2695312 0.210937,0 0.398437,-0.1992187 0.398437,-0.3867187 z m -1.429687,3.5390621 c -0.02344,0.09375 -0.05859,0.175782 -0.05859,0.292969 0,0.328125 0.28125,0.597656 0.667969,0.597656 0.691406,0 0.996093,-0.960937 0.996093,-1.066406 0,-0.09375 -0.08203,-0.09375 -0.105468,-0.09375 -0.105469,0 -0.105469,0.04687 -0.140625,0.117188 -0.152344,0.5625 -0.457032,0.84375 -0.738282,0.84375 -0.140625,0 -0.175781,-0.08203 -0.175781,-0.246094 0,-0.152344 0.05859,-0.292969 0.117188,-0.445313 0.07031,-0.1875 0.140625,-0.375 0.222656,-0.550781 0.05859,-0.164062 0.316406,-0.8085936 0.339844,-0.8906249 0.02344,-0.070312 0.04687,-0.1523437 0.04687,-0.2226562 0,-0.328125 -0.28125,-0.5859375 -0.667969,-0.5859375 -0.691406,0 -1.007813,0.9492187 -1.007813,1.0664062 0,0.082031 0.09375,0.082031 0.117188,0.082031 0.09375,0 0.105469,-0.035156 0.128906,-0.1054688 0.175781,-0.5976562 0.480469,-0.8554687 0.738281,-0.8554687 0.117188,0 0.175782,0.058594 0.175782,0.2460937 0,0.1640625 -0.03516,0.2695313 -0.210938,0.703125 z m 0,0"
         style="fill:#000000;fill-opacity:1;fill-rule:nonzero;stroke:none" />
      <path
         id="path11"
         d="m 56.98482,9.4104219 c 0.105469,0 0.269532,0 0.269532,-0.1757813 0,-0.1640625 -0.175782,-0.1640625 -0.257813,-0.1640625 h -4.617187 c -0.09375,0 -0.257813,0 -0.257813,0.1640625 0,0.1757813 0.152344,0.1757813 0.257813,0.1757813 z m 0.01172,1.5351561 c 0.08203,0 0.257813,0 0.257813,-0.164062 0,-0.175782 -0.164063,-0.175782 -0.269532,-0.175782 h -4.605468 c -0.105469,0 -0.257813,0 -0.257813,0.175782 0,0.164062 0.164063,0.164062 0.257813,0.164062 z m 3.079102,-3.6210936 c 0,-0.1875 -0.01172,-0.1992188 -0.210938,-0.1992188 -0.445312,0.4335938 -1.078125,0.4453125 -1.359375,0.4453125 v 0.2460938 c 0.164063,0 0.621094,0 1.007813,-0.1875 v 3.5507811 c 0,0.234375 0,0.328125 -0.691407,0.328125 h -0.269531 v 0.246094 c 0.128906,-0.01172 0.984375,-0.02344 1.242188,-0.02344 0.210937,0 1.089843,0.01172 1.242187,0.02344 v -0.246094 h -0.257812 c -0.703125,0 -0.703125,-0.09375 -0.703125,-0.328125 z m 0,0"
         style="fill:#000000;fill-opacity:1;fill-rule:nonzero;stroke:none" />
      <path
         id="path12"
         d="m 68.970172,-10.722391 h 0.855469 c 0.199218,0 0.304687,0 0.304687,-0.199218 0,-0.105469 -0.105469,-0.105469 -0.269531,-0.105469 h -0.832031 l 0.210937,-1.136719 c 0.03516,-0.210937 0.175781,-0.914062 0.234375,-1.042969 0.09375,-0.1875 0.257813,-0.339843 0.46875,-0.339843 0.04687,0 0.304688,0 0.492188,0.1875 -0.433594,0.03516 -0.539063,0.386718 -0.539063,0.539062 0,0.222656 0.175781,0.339844 0.363281,0.339844 0.269532,0 0.550782,-0.210938 0.550782,-0.597656 0,-0.457032 -0.457032,-0.679688 -0.867188,-0.679688 -0.339844,0 -0.960937,0.175781 -1.265625,1.160156 -0.05859,0.210938 -0.08203,0.316407 -0.328125,1.570313 h -0.679687 c -0.199219,0 -0.304688,0 -0.304688,0.1875 0,0.117187 0.09375,0.117187 0.28125,0.117187 h 0.65625 l -0.75,3.9375004 c -0.175781,0.9609375 -0.339844,1.875 -0.867187,1.875 -0.03516,0 -0.28125,0 -0.46875,-0.1875 0.457031,-0.023437 0.539062,-0.3867188 0.539062,-0.5390625 0,-0.2226563 -0.175781,-0.3398438 -0.363281,-0.3398438 -0.257813,0 -0.550781,0.2109375 -0.550781,0.5976563 0,0.4453125 0.433593,0.6796875 0.84375,0.6796875 0.550781,0 0.949218,-0.5859375 1.125,-0.9609375 0.328125,-0.6328125 0.550781,-1.8398438 0.5625,-1.9101563 z m 0,0"
         style="fill:#000000;fill-opacity:1;fill-rule:nonzero;stroke:none" />
      <path
         id="path13"
         d="m 72.45357,-9.60325 c 0,-0.1054687 -0.08203,-0.2578125 -0.28125,-0.2578125 -0.1875,0 -0.386718,0.1757813 -0.386718,0.375 0,0.1171875 0.08203,0.2695313 0.269531,0.2695313 0.210937,0 0.398437,-0.1992188 0.398437,-0.3867188 z m -1.429687,3.5390625 c -0.02344,0.09375 -0.05859,0.1757813 -0.05859,0.2929688 0,0.328125 0.28125,0.5976562 0.667969,0.5976562 0.691406,0 0.996094,-0.9609375 0.996094,-1.0664062 0,-0.09375 -0.08203,-0.09375 -0.105469,-0.09375 -0.105469,0 -0.105469,0.046875 -0.140625,0.1171875 -0.152344,0.5625 -0.457031,0.84375 -0.738281,0.84375 -0.140625,0 -0.175782,-0.082031 -0.175782,-0.2460938 0,-0.1523437 0.05859,-0.2929687 0.117188,-0.4453125 0.07031,-0.1875 0.140625,-0.375 0.222656,-0.5507812 0.05859,-0.1640625 0.316406,-0.8085938 0.339844,-0.890625 0.02344,-0.070312 0.04687,-0.1523438 0.04687,-0.2226563 0,-0.328125 -0.28125,-0.5859375 -0.667969,-0.5859375 -0.691406,0 -1.007812,0.9492188 -1.007812,1.0664063 0,0.082031 0.09375,0.082031 0.117187,0.082031 0.09375,0 0.105469,-0.035156 0.128906,-0.1054687 0.175782,-0.5976563 0.480469,-0.8554688 0.738282,-0.8554688 0.117187,0 0.175781,0.058594 0.175781,0.2460938 0,0.1640625 -0.03516,0.2695312 -0.210938,0.703125 z m 0,0"
         style="fill:#000000;fill-opacity:1;fill-rule:nonzero;stroke:none" />
    </g>
    <path
       id="path14"
       d="M -1.706,51.294 H 6.488"
       style="fill:none;stroke:#000000;stroke-width:0.3985;stroke-linecap:butt;stroke-linejoin:miter;stroke-miterlimit:10;stroke-dasharray:none;stroke-opacity:1"
       transform="matrix(1.3333333,0,0,-1.3333333,96,96.001333)" />
    <g
       id="g14"
       aria-label="F&#10;L&#10;huf&#10;(f&#10;i&#10;)≈&#10;N&#10;∑&#10;i=1&#10;f&#10;i"
       transform="matrix(1.3333333,0,0,1.3333333,93.994667,40.041333)">
      <path
         id="path15"
         d="m 3.0245078,-3.2331484 h 0.9609375 c 0.75,0 0.8320313,0.1523437 0.8320313,0.4453125 0,0.070312 0,0.1875 -0.070312,0.4921875 -0.023437,0.046875 -0.035156,0.082031 -0.035156,0.1054687 0,0.082031 0.058594,0.1171875 0.1171875,0.1171875 0.1054688,0 0.1054688,-0.023437 0.1523438,-0.2109375 l 0.5507812,-2.15625 c 0.023437,-0.1054687 0.023437,-0.1289062 0.023437,-0.1640625 0,-0.011719 -0.011719,-0.1054687 -0.1171875,-0.1054687 -0.09375,0 -0.1054687,0.046875 -0.1523437,0.2109375 -0.1992188,0.7734375 -0.4335938,0.9492187 -1.2773438,0.9492187 H 3.0948203 l 0.6445313,-2.53125 c 0.082031,-0.3398437 0.09375,-0.3867187 0.5390625,-0.3867187 h 1.3125 c 1.21875,0 1.453125,0.328125 1.453125,1.1015625 0,0.2226562 0,0.2695312 -0.035156,0.5390625 -0.011719,0.1289062 -0.011719,0.140625 -0.011719,0.1757812 0,0.046875 0.023437,0.1171875 0.1171875,0.1171875 0.1054687,0 0.1171875,-0.058594 0.140625,-0.2460937 L 7.4541953,-6.5026797 C 7.4776328,-6.7722109 7.4307578,-6.7722109 7.1846641,-6.7722109 H 2.2979453 c -0.1992187,0 -0.2929687,0 -0.2929687,0.1992187 0,0.1054688 0.09375,0.1054688 0.28125,0.1054688 0.3632812,0 0.6445312,0 0.6445312,0.1875 0,0.035156 0,0.058594 -0.046875,0.234375 l -1.3242187,5.27343746 c -0.09375,0.38671875 -0.1171875,0.46875 -0.90234379,0.46875 -0.1640625,0 -0.28125,0 -0.28125,0.1875 0,0.1171875 0.12890625,0.1171875 0.15234375,0.1171875 0.29296875,0 1.03125004,-0.03515625 1.31250004,-0.03515625 0.328125,0 1.1601562,0.03515625 1.4882812,0.03515625 0.09375,0 0.2109375,0 0.2109375,-0.1875 0,-0.0820313 -0.058594,-0.10546875 -0.058594,-0.1171875 -0.035156,0 -0.058594,0 -0.28125,0 -0.2226563,0 -0.2695313,0 -0.515625,-0.0234375 -0.2929688,-0.0351563 -0.328125,-0.0703125 -0.328125,-0.19921875 0,-0.0234375 0,-0.0820313 0.046875,-0.234375 z m 9.8906252,-9.6240236 c 0.09375,-0.363281 0.117187,-0.46875 1.054687,-0.46875 0.304688,0 0.375,0 0.375,-0.1875 0,-0.128906 -0.105468,-0.128906 -0.152343,-0.128906 -0.328125,0 -1.148438,0.03516 -1.476563,0.03516 -0.304687,0 -1.03125,-0.03516 -1.324219,-0.03516 -0.07031,0 -0.1875,0 -0.1875,0.199219 0,0.117187 0.08203,0.117187 0.28125,0.117187 0.01172,0 0.199219,0 0.375,0.01172 0.175782,0.02344 0.269532,0.03516 0.269532,0.164062 0,0.03516 -0.01172,0.07031 -0.04687,0.1875 l -1.335938,5.3554691 c -0.09375,0.3867188 -0.117187,0.46875 -0.9023437,0.46875 -0.1640625,0 -0.2695312,0 -0.2695312,0.1992188 0,0.1054687 0.09375,0.1054687 0.2695312,0.1054687 h 4.6171877 c 0.234375,0 0.246094,0 0.304687,-0.1640625 l 0.785157,-2.15625 c 0.04687,-0.1054687 0.04687,-0.1289062 0.04687,-0.140625 0,-0.035156 -0.03516,-0.1054687 -0.128907,-0.1054687 -0.08203,0 -0.09375,0.046875 -0.164062,0.2109375 -0.339844,0.9140625 -0.773438,2.0507812 -2.496094,2.0507812 h -0.9375 c -0.140625,0 -0.164062,0 -0.222656,-0.011719 -0.105469,-0.011719 -0.128906,-0.023437 -0.128906,-0.1054688 0,-0.023437 0,-0.046875 0.04687,-0.2226562 z m 0,0"
         style="fill:#000000;fill-opacity:1;fill-rule:nonzero;stroke:none" />
      <path
         id="path16"
         d="m 18.147555,-9.9685 c 0.01172,-0.011719 0.03516,-0.105469 0.03516,-0.117187 0,-0.03516 -0.03516,-0.09375 -0.117188,-0.09375 -0.140625,0 -0.714843,0.05859 -0.890625,0.07031 -0.05859,0.01172 -0.152343,0.01172 -0.152343,0.1640625 0,0.09375 0.09375,0.09375 0.175781,0.09375 0.339844,0 0.339844,0.046875 0.339844,0.1054688 0,0.046875 -0.01172,0.09375 -0.03516,0.1523437 l -0.972656,3.9492188 c -0.03516,0.1289062 -0.03516,0.140625 -0.03516,0.1523437 0,0.1054688 0.08203,0.2226563 0.234375,0.2226563 0.07031,0 0.210937,-0.035156 0.28125,-0.1875 0.02344,-0.035156 0.08203,-0.2929688 0.117187,-0.4335938 l 0.164063,-0.6210937 c 0.02344,-0.1054688 0.09375,-0.3632813 0.117187,-0.46875 0.07031,-0.2695313 0.07031,-0.28125 0.199219,-0.5039063 0.222656,-0.3398437 0.574219,-0.7382812 1.125,-0.7382812 0.386719,0 0.410156,0.328125 0.410156,0.4921875 0,0.421875 -0.304687,1.1953125 -0.410156,1.4882812 -0.08203,0.1875 -0.105469,0.2578125 -0.105469,0.375 0,0.3632813 0.304688,0.5976563 0.65625,0.5976563 0.703125,0 1.007813,-0.9609375 1.007813,-1.0664063 0,-0.09375 -0.09375,-0.09375 -0.117188,-0.09375 -0.09375,0 -0.105468,0.046875 -0.128906,0.1171875 -0.164062,0.5625 -0.46875,0.84375 -0.738281,0.84375 -0.140625,0 -0.175781,-0.09375 -0.175781,-0.2460937 0,-0.1523438 0.03516,-0.2460938 0.164062,-0.5625 0.08203,-0.2109375 0.363281,-0.9492188 0.363281,-1.3476563 0,-0.1054687 0,-0.3984375 -0.257812,-0.5976562 -0.117188,-0.09375 -0.316406,-0.1875 -0.644531,-0.1875 -0.503907,0 -0.878907,0.2695312 -1.136719,0.5742187 z m 5.43164,3.5039063 c -0.03516,0.140625 -0.105468,0.3984375 -0.117187,0.4101562 C 23.333102,-5.8435 23.051852,-5.4685 22.618258,-5.4685 c -0.480469,0 -0.480469,-0.4453125 -0.480469,-0.5742187 0,-0.4101563 0.199219,-0.9023438 0.386719,-1.4179688 0.05859,-0.140625 0.105469,-0.2460937 0.105469,-0.3515625 0,-0.3632812 -0.304688,-0.5976562 -0.667969,-0.5976562 -0.691406,0 -1.007813,0.9492187 -1.007813,1.0664062 0,0.082031 0.09375,0.082031 0.117188,0.082031 0.09375,0 0.105469,-0.035156 0.128906,-0.1054688 0.164063,-0.5742187 0.46875,-0.8554687 0.738281,-0.8554687 0.128907,0 0.175782,0.082031 0.175782,0.2460937 0,0.1640625 -0.04687,0.3046875 -0.117188,0.46875 -0.386719,0.9609375 -0.386719,1.1601563 -0.386719,1.3476563 0,0.1171875 0,0.4453125 0.269532,0.6679687 0.199218,0.1640625 0.46875,0.2226563 0.714843,0.2226563 0.433594,0 0.679688,-0.234375 0.902344,-0.4570313 0.152344,0.4453125 0.621094,0.4570313 0.703125,0.4570313 0.234375,0 0.421875,-0.140625 0.550781,-0.375 0.152344,-0.2695313 0.257813,-0.6679688 0.257813,-0.6914063 0,-0.09375 -0.105469,-0.09375 -0.117188,-0.09375 -0.105468,0 -0.105468,0.035156 -0.164062,0.2226563 -0.08203,0.328125 -0.210938,0.7382812 -0.503906,0.7382812 -0.175782,0 -0.234375,-0.1523437 -0.234375,-0.3398437 0,-0.1171875 0.05859,-0.3632813 0.105468,-0.5507813 0.04687,-0.1875 0.117188,-0.46875 0.152344,-0.6210937 l 0.164063,-0.6210938 c 0.04687,-0.1757812 0.117187,-0.4804687 0.117187,-0.515625 0,-0.140625 -0.105469,-0.2226562 -0.222656,-0.2226562 -0.257813,0 -0.316406,0.1992187 -0.363281,0.421875 z M 28.170016,-8.0935 h 0.679687 c 0.140625,0 0.234375,0 0.234375,-0.1523437 0,-0.09375 -0.09375,-0.09375 -0.210937,-0.09375 h -0.65625 c 0.164062,-0.890625 0.222656,-1.2070313 0.28125,-1.4179688 0.03516,-0.1523437 0.1875,-0.2929685 0.351562,-0.2929685 0,0 0.199219,0 0.328125,0.082031 -0.292969,0.09375 -0.304687,0.3398438 -0.304687,0.3867188 0,0.1523437 0.117187,0.2578125 0.269531,0.2578125 0.199219,0 0.398437,-0.1640625 0.398437,-0.4335938 0,-0.3164065 -0.339843,-0.4921875 -0.691406,-0.4921875 -0.304687,0 -0.644531,0.175781 -0.84375,0.5273438 -0.128906,0.2578125 -0.1875,0.5742187 -0.339844,1.3828125 h -0.550781 c -0.140625,0 -0.222656,0 -0.222656,0.1523437 0,0.09375 0.08203,0.09375 0.210937,0.09375 h 0.515625 c 0,0.046875 -0.445312,2.5546875 -0.609375,3.2929688 -0.03516,0.1640625 -0.152343,0.6914062 -0.492187,0.6914062 0,0 -0.175781,0 -0.304688,-0.082031 0.28125,-0.09375 0.304688,-0.3515625 0.304688,-0.3867188 0,-0.1523437 -0.117188,-0.2578125 -0.28125,-0.2578125 -0.1875,0 -0.398438,0.1640625 -0.398438,0.421875 0,0.3164063 0.328125,0.4921875 0.679688,0.4921875 0.445312,0 0.75,-0.4570312 0.84375,-0.609375 0.246094,-0.46875 0.410156,-1.3242187 0.421875,-1.40625 z m 0,0"
         style="fill:#000000;fill-opacity:1;fill-rule:nonzero;stroke:none" />
      <path
         id="path17"
         d="m 33.800875,-4.4431094 c 0,-0.035156 0,-0.046875 -0.164062,-0.2226562 -1.242188,-1.2539063 -1.570313,-3.1289063 -1.570313,-4.6640625 0,-1.7226559 0.386719,-3.4570309 1.605469,-4.7109379 0.128906,-0.117187 0.128906,-0.128906 0.128906,-0.164062 0,-0.07031 -0.03516,-0.105469 -0.09375,-0.105469 -0.105469,0 -0.996094,0.679688 -1.582031,1.945313 -0.515625,1.101562 -0.632813,2.203125 -0.632813,3.0351559 0,0.7851562 0.117188,1.9921875 0.65625,3.1171875 0.597657,1.21875 1.453125,1.875 1.558594,1.875 0.05859,0 0.09375,-0.035156 0.09375,-0.1054688 z m 0,0"
         style="fill:#000000;fill-opacity:1;fill-rule:nonzero;stroke:none" />
      <path
         id="path18"
         d="m 38.037203,-10.818109 h 0.855469 c 0.199219,0 0.304687,0 0.304687,-0.199219 0,-0.105469 -0.105468,-0.105469 -0.269531,-0.105469 h -0.832031 l 0.210937,-1.136719 c 0.03516,-0.210937 0.175782,-0.914062 0.234375,-1.042968 0.09375,-0.1875 0.257813,-0.339844 0.46875,-0.339844 0.04687,0 0.304688,0 0.492188,0.1875 -0.433594,0.03516 -0.539063,0.386719 -0.539063,0.539062 0,0.222657 0.175782,0.339844 0.363282,0.339844 0.269531,0 0.550781,-0.210937 0.550781,-0.597656 0,-0.457031 -0.457031,-0.679688 -0.867188,-0.679688 -0.339843,0 -0.960937,0.175782 -1.265625,1.160157 -0.05859,0.210937 -0.08203,0.316406 -0.328125,1.570312 h -0.679687 c -0.199219,0 -0.304688,0 -0.304688,0.1875 0,0.117188 0.09375,0.117188 0.28125,0.117188 h 0.65625 l -0.75,3.9374996 c -0.175781,0.9609375 -0.339843,1.875 -0.867187,1.875 -0.03516,0 -0.28125,0 -0.46875,-0.1875 0.457031,-0.023437 0.539062,-0.3867187 0.539062,-0.5390625 0,-0.2226562 -0.175781,-0.3398437 -0.363281,-0.3398437 -0.257812,0 -0.550781,0.2109375 -0.550781,0.5976562 0,0.4453125 0.433594,0.6796875 0.84375,0.6796875 0.550781,0 0.949219,-0.5859375 1.125,-0.9609375 0.328125,-0.6328125 0.550781,-1.8398437 0.5625,-1.9101562 z m 0,0"
         style="fill:#000000;fill-opacity:1;fill-rule:nonzero;stroke:none" />
      <path
         id="path19"
         d="m 41.520602,-9.6989687 c 0,-0.1054688 -0.08203,-0.2578125 -0.28125,-0.2578125 -0.1875,0 -0.386719,0.1757812 -0.386719,0.375 0,0.1171875 0.08203,0.2695312 0.269531,0.2695312 0.210938,0 0.398438,-0.1992187 0.398438,-0.3867187 z m -1.429688,3.5390625 c -0.02344,0.09375 -0.05859,0.1757812 -0.05859,0.2929687 0,0.328125 0.28125,0.5976563 0.667969,0.5976563 0.691406,0 0.996094,-0.9609375 0.996094,-1.0664063 0,-0.09375 -0.08203,-0.09375 -0.105469,-0.09375 -0.105469,0 -0.105469,0.046875 -0.140625,0.1171875 -0.152344,0.5625 -0.457031,0.84375 -0.738281,0.84375 -0.140625,0 -0.175781,-0.082031 -0.175781,-0.2460937 0,-0.1523438 0.05859,-0.2929688 0.117187,-0.4453125 0.07031,-0.1875 0.140625,-0.375 0.222656,-0.5507813 0.05859,-0.1640625 0.316407,-0.8085937 0.339844,-0.890625 0.02344,-0.070312 0.04687,-0.1523437 0.04687,-0.2226562 0,-0.328125 -0.28125,-0.5859375 -0.667969,-0.5859375 -0.691406,0 -1.007812,0.9492187 -1.007812,1.0664062 0,0.082031 0.09375,0.082031 0.117187,0.082031 0.09375,0 0.105469,-0.035156 0.128907,-0.1054688 0.175781,-0.5976562 0.480468,-0.8554687 0.738281,-0.8554687 0.117187,0 0.175781,0.058594 0.175781,0.2460937 0,0.1640625 -0.03516,0.2695313 -0.210937,0.703125 z m 0,0"
         style="fill:#000000;fill-opacity:1;fill-rule:nonzero;stroke:none" />
      <path
         id="path20"
         d="m 45.458102,-9.3298281 c 0,-0.7734379 -0.117188,-1.9804689 -0.65625,-3.1054689 -0.597657,-1.21875 -1.464844,-1.875 -1.558594,-1.875 -0.05859,0 -0.105469,0.04687 -0.105469,0.105469 0,0.03516 0,0.04687 0.199219,0.234375 0.972656,0.984375 1.535156,2.566406 1.535156,4.6406249 0,1.7109375 -0.363281,3.4570312 -1.59375,4.7226562 -0.140625,0.1171875 -0.140625,0.1289063 -0.140625,0.1640625 0,0.058594 0.04687,0.1054688 0.105469,0.1054688 0.09375,0 0.996094,-0.6796875 1.582031,-1.9453125 0.503906,-1.1015625 0.632813,-2.203125 0.632813,-3.046875 z m 0,0"
         style="fill:#000000;fill-opacity:1;fill-rule:nonzero;stroke:none" />
      <path
         id="path21"
         d="m 56.412203,-11.333734 c 0,-0.210938 -0.07031,-0.304688 -0.140625,-0.304688 -0.04687,0 -0.128906,0.04687 -0.140625,0.269531 -0.03516,0.691407 -0.738281,1.101563 -1.382812,1.101563 -0.585938,0 -1.078125,-0.316406 -1.59375,-0.65625 -0.539063,-0.363281 -1.078125,-0.726563 -1.722657,-0.726563 -0.925781,0 -1.664062,0.714844 -1.664062,1.628907 0,0.2226559 0.08203,0.2929684 0.140625,0.2929684 0.09375,0 0.140625,-0.1875 0.140625,-0.2226563 0.04687,-0.8320311 0.867187,-1.1367191 1.382812,-1.1367191 0.574219,0 1.078125,0.304688 1.59375,0.65625 0.539063,0.363282 1.078125,0.7148441 1.722657,0.7148441 0.925781,0 1.664062,-0.7031251 1.664062,-1.6171871 z m 0,2.3320309 c 0,-0.2929688 -0.117187,-0.3164063 -0.140625,-0.3164063 -0.04687,0 -0.128906,0.058594 -0.140625,0.2695313 -0.03516,0.6914062 -0.738281,1.1015625 -1.382812,1.1015625 -0.585938,0 -1.078125,-0.3164063 -1.59375,-0.65625 -0.539063,-0.3632813 -1.078125,-0.7265625 -1.722657,-0.7265625 -0.925781,0 -1.664062,0.7148437 -1.664062,1.6289062 0,0.2226563 0.08203,0.3046875 0.140625,0.3046875 0.09375,0 0.140625,-0.1992187 0.140625,-0.234375 0.04687,-0.8320312 0.867187,-1.1367187 1.382812,-1.1367187 0.574219,0 1.078125,0.3046875 1.59375,0.65625 0.539063,0.3632812 1.078125,0.7148437 1.722657,0.7148437 0.949218,0 1.664062,-0.7382812 1.664062,-1.6054687 z m 0,0"
         style="fill:#000000;fill-opacity:1;fill-rule:nonzero;stroke:none" />
      <path
         id="path22"
         d="m 69.212008,-23.295648 c 0.07031,-0.257813 0.1875,-0.492188 0.738281,-0.503907 0.03516,0 0.140625,-0.01172 0.140625,-0.152343 0,-0.04687 -0.03516,-0.09375 -0.105469,-0.09375 -0.222656,0 -0.480468,0.02344 -0.726562,0.02344 -0.164063,0 -0.5625,-0.02344 -0.738281,-0.02344 -0.03516,0 -0.140625,0 -0.140625,0.152343 0,0.08203 0.09375,0.09375 0.164062,0.09375 0.316406,0.01172 0.445313,0.117188 0.445313,0.28125 0,0.05859 -0.01172,0.09375 -0.03516,0.175782 l -0.761718,3.035156 -1.769532,-3.621094 c -0.05859,-0.117187 -0.07031,-0.117187 -0.234375,-0.117187 H 65.22763 c -0.128906,0 -0.222656,0 -0.222656,0.152343 0,0.09375 0.09375,0.09375 0.234375,0.09375 0.152343,0 0.304687,0.01172 0.445312,0.03516 l -0.9375,3.726562 c -0.05859,0.269531 -0.175781,0.480469 -0.714844,0.503906 -0.05859,0 -0.152343,0 -0.152343,0.140625 0,0.08203 0.05859,0.105469 0.105468,0.105469 0.234375,0 0.492188,-0.02344 0.726563,-0.02344 0.164062,0 0.574219,0.02344 0.738281,0.02344 0.07031,0 0.140625,-0.03516 0.140625,-0.140625 0,-0.105469 -0.08203,-0.105469 -0.164062,-0.105469 -0.433594,-0.02344 -0.433594,-0.199218 -0.433594,-0.292968 0,-0.03516 0,-0.07031 0.02344,-0.175782 l 0.890625,-3.574218 2.039063,4.171875 c 0.05859,0.105468 0.08203,0.117187 0.152344,0.117187 0.117187,0 0.117187,-0.02344 0.152343,-0.140625 z m 0,0"
         style="fill:#000000;fill-opacity:1;fill-rule:nonzero;stroke:none" />
      <path
         id="path23"
         d="m 72.343844,-2.3513125 1.207031,-3.1875 h -0.246094 c -0.386718,1.03125 -1.453125,1.7109375 -2.589843,2.015625 C 70.504,-3.4763125 69.531344,-3.2185 67.609469,-3.2185 h -6 l 5.0625,-5.9414062 c 0.07031,-0.082031 0.09375,-0.1171875 0.09375,-0.1640625 0,-0.023437 0,-0.046875 -0.07031,-0.1523438 l -4.640625,-6.3398435 h 5.460938 c 1.335937,0 2.238281,0.140625 2.332031,0.152344 0.539063,0.08203 1.40625,0.257812 2.191406,0.75 0.246094,0.164062 0.925782,0.609375 1.265625,1.417968 h 0.246094 l -1.207031,-2.800781 H 60.5665 c -0.222656,0 -0.234375,0.01172 -0.269531,0.07031 0,0.03516 0,0.222656 0,0.328125 l 5.261719,7.2070308 -5.15625,6.046875 c -0.105469,0.1289062 -0.105469,0.1757812 -0.105469,0.1875 0,0.1054687 0.09375,0.1054687 0.269531,0.1054687 z m 0,0"
         style="fill:#000000;fill-opacity:1;fill-rule:nonzero;stroke:none" />
      <path
         id="path24"
         d="m 62.737398,0.56079688 c 0,-0.10546875 -0.08203,-0.2578125 -0.28125,-0.2578125 -0.1875,0 -0.386718,0.17578125 -0.386718,0.375 0,0.1171875 0.08203,0.26953125 0.269531,0.26953125 0.210937,0 0.398437,-0.19921875 0.398437,-0.38671875 z M 61.307711,4.0998594 c -0.02344,0.09375 -0.05859,0.1757812 -0.05859,0.2929687 0,0.328125 0.28125,0.5976563 0.667969,0.5976563 0.691406,0 0.996094,-0.9609375 0.996094,-1.0664063 0,-0.09375 -0.08203,-0.09375 -0.105469,-0.09375 -0.105469,0 -0.105469,0.046875 -0.140625,0.1171875 -0.152344,0.5625 -0.457031,0.84375 -0.738281,0.84375 -0.140625,0 -0.175782,-0.082031 -0.175782,-0.2460937 0,-0.1523438 0.05859,-0.2929688 0.117188,-0.4453125 0.07031,-0.1875 0.140625,-0.375 0.222656,-0.5507813 0.05859,-0.1640625 0.316406,-0.8085937 0.339844,-0.890625 0.02344,-0.070312 0.04687,-0.1523437 0.04687,-0.2226562 0,-0.328125 -0.28125,-0.5859375 -0.667969,-0.5859375 -0.691406,0 -1.007812,0.9492187 -1.007812,1.0664062 0,0.082031 0.09375,0.082031 0.117187,0.082031 0.09375,0 0.105469,-0.035156 0.128906,-0.1054688 0.175782,-0.5976562 0.480469,-0.8554687 0.738282,-0.8554687 0.117187,0 0.175781,0.058594 0.175781,0.2460937 0,0.1640625 -0.03516,0.2695313 -0.210938,0.703125 z m 0,0"
         style="fill:#000000;fill-opacity:1;fill-rule:nonzero;stroke:none" />
      <path
         id="path25"
         d="m 68.649508,2.5764219 c 0.105469,0 0.269531,0 0.269531,-0.1757813 0,-0.1640625 -0.175781,-0.1640625 -0.257812,-0.1640625 h -4.617188 c -0.09375,0 -0.257812,0 -0.257812,0.1640625 0,0.1757813 0.152343,0.1757813 0.257812,0.1757813 z m 0.01172,1.5351562 c 0.08203,0 0.257812,0 0.257812,-0.1640625 0,-0.1757812 -0.164062,-0.1757812 -0.269531,-0.1757812 H 64.04404 c -0.105469,0 -0.257812,0 -0.257812,0.1757812 0,0.1640625 0.164062,0.1640625 0.257812,0.1640625 z m 3.082031,-3.62109372 c 0,-0.1875 -0.01172,-0.19921875 -0.210938,-0.19921875 -0.445312,0.43359375 -1.078125,0.4453125 -1.359375,0.4453125 v 0.24609375 c 0.164063,0 0.621094,0 1.007813,-0.1875 V 4.3459531 c 0,0.234375 0,0.328125 -0.691406,0.328125 H 70.21982 v 0.2460938 c 0.128907,-0.011719 0.984375,-0.023437 1.242188,-0.023437 0.210937,0 1.089844,0.011719 1.242187,0.023437 V 4.6740781 h -0.257812 c -0.703125,0 -0.703125,-0.09375 -0.703125,-0.328125 z m 0,0"
         style="fill:#000000;fill-opacity:1;fill-rule:nonzero;stroke:none" />
      <path
         id="path26"
         d="m 80.634859,-17.556391 h 0.855469 c 0.199219,0 0.304688,0 0.304688,-0.199218 0,-0.105469 -0.105469,-0.105469 -0.269532,-0.105469 h -0.832031 l 0.210938,-1.136719 c 0.03516,-0.210937 0.175781,-0.914062 0.234375,-1.042969 0.09375,-0.1875 0.257812,-0.339843 0.46875,-0.339843 0.04687,0 0.304687,0 0.492187,0.1875 -0.433594,0.03516 -0.539062,0.386718 -0.539062,0.539062 0,0.222656 0.175781,0.339844 0.363281,0.339844 0.269531,0 0.550781,-0.210938 0.550781,-0.597656 0,-0.457032 -0.457031,-0.679688 -0.867187,-0.679688 -0.339844,0 -0.960938,0.175781 -1.265625,1.160156 -0.05859,0.210938 -0.08203,0.316407 -0.328125,1.570313 h -0.679688 c -0.199219,0 -0.304687,0 -0.304687,0.1875 0,0.117187 0.09375,0.117187 0.28125,0.117187 h 0.65625 l -0.75,3.9375 c -0.175782,0.960938 -0.339844,1.875 -0.867188,1.875 -0.03516,0 -0.28125,0 -0.46875,-0.1875 0.457031,-0.02344 0.539063,-0.386718 0.539063,-0.539062 0,-0.222656 -0.175782,-0.339844 -0.363282,-0.339844 -0.257812,0 -0.550781,0.210938 -0.550781,0.597656 0,0.445313 0.433594,0.679688 0.84375,0.679688 0.550781,0 0.949219,-0.585938 1.125,-0.960938 0.328125,-0.632812 0.550781,-1.839843 0.5625,-1.910156 z m 0,0"
         style="fill:#000000;fill-opacity:1;fill-rule:nonzero;stroke:none" />
      <path
         id="path27"
         d="m 84.118258,-16.43725 c 0,-0.105469 -0.08203,-0.257812 -0.28125,-0.257812 -0.1875,0 -0.386719,0.175781 -0.386719,0.375 0,0.117187 0.08203,0.269531 0.269531,0.269531 0.210938,0 0.398438,-0.199219 0.398438,-0.386719 z m -1.429688,3.539063 c -0.02344,0.09375 -0.05859,0.175781 -0.05859,0.292968 0,0.328125 0.28125,0.597657 0.667968,0.597657 0.691407,0 0.996094,-0.960938 0.996094,-1.066407 0,-0.09375 -0.08203,-0.09375 -0.105469,-0.09375 -0.105468,0 -0.105468,0.04687 -0.140625,0.117188 -0.152343,0.5625 -0.457031,0.84375 -0.738281,0.84375 -0.140625,0 -0.175781,-0.08203 -0.175781,-0.246094 0,-0.152344 0.05859,-0.292969 0.117187,-0.445312 0.07031,-0.1875 0.140625,-0.375 0.222657,-0.550782 0.05859,-0.164062 0.316406,-0.808593 0.339843,-0.890625 0.02344,-0.07031 0.04687,-0.152343 0.04687,-0.222656 0,-0.328125 -0.28125,-0.585937 -0.667968,-0.585937 -0.691407,0 -1.007813,0.949218 -1.007813,1.066406 0,0.08203 0.09375,0.08203 0.117188,0.08203 0.09375,0 0.105468,-0.03516 0.128906,-0.105469 0.175781,-0.597656 0.480469,-0.855468 0.738281,-0.855468 0.117188,0 0.175781,0.05859 0.175781,0.246093 0,0.164063 -0.03516,0.269532 -0.210937,0.703125 z m 0,0"
         style="fill:#000000;fill-opacity:1;fill-rule:nonzero;stroke:none" />
    </g>
    <path
       id="path28"
       d="m 75.476,51.294 h 8.195"
       style="fill:none;stroke:#000000;stroke-width:0.3985;stroke-linecap:butt;stroke-linejoin:miter;stroke-miterlimit:10;stroke-dasharray:none;stroke-opacity:1"
       transform="matrix(1.3333333,0,0,-1.3333333,96,96.001333)" />
    <g
       id="g28"
       aria-label="F&#10;log&#10;2&#10;(&#10;F"
       transform="matrix(1.3333333,0,0,1.3333333,196.90533,40.041333)">
      <path
         id="path29"
         d="m 3.024125,-3.2331484 h 0.9609375 c 0.75,0 0.8320313,0.1523437 0.8320313,0.4453125 0,0.070312 0,0.1875 -0.070312,0.4921875 -0.023437,0.046875 -0.035156,0.082031 -0.035156,0.1054687 0,0.082031 0.058594,0.1171875 0.1171875,0.1171875 0.1054688,0 0.1054688,-0.023437 0.1523438,-0.2109375 l 0.5507812,-2.15625 c 0.023437,-0.1054687 0.023437,-0.1289062 0.023437,-0.1640625 0,-0.011719 -0.011719,-0.1054687 -0.1171875,-0.1054687 -0.09375,0 -0.1054687,0.046875 -0.1523437,0.2109375 C 5.086625,-3.7253359 4.85225,-3.5495547 4.0085,-3.5495547 H 3.0944375 l 0.6445313,-2.53125 C 3.821,-6.4206484 3.8327188,-6.4675234 4.2780313,-6.4675234 h 1.3125 c 1.21875,0 1.453125,0.328125 1.453125,1.1015625 0,0.2226562 0,0.2695312 -0.035156,0.5390625 -0.011719,0.1289062 -0.011719,0.140625 -0.011719,0.1757812 0,0.046875 0.023437,0.1171875 0.1171875,0.1171875 0.1054687,0 0.1171875,-0.058594 0.140625,-0.2460937 L 7.4538125,-6.5026797 C 7.47725,-6.7722109 7.430375,-6.7722109 7.1842813,-6.7722109 H 2.2975625 c -0.1992187,0 -0.2929687,0 -0.2929687,0.1992187 0,0.1054688 0.09375,0.1054688 0.28125,0.1054688 0.3632812,0 0.6445312,0 0.6445312,0.1875 0,0.035156 0,0.058594 -0.046875,0.234375 l -1.3242187,5.27343746 c -0.09375,0.38671875 -0.1171875,0.46875 -0.9023438,0.46875 -0.1640625,0 -0.28125,0 -0.28125,0.1875 0,0.1171875 0.12890625,0.1171875 0.15234375,0.1171875 0.29296875,0 1.03125005,-0.03515625 1.31250005,-0.03515625 0.328125,0 1.1601562,0.03515625 1.4882812,0.03515625 0.09375,0 0.2109375,0 0.2109375,-0.1875 0,-0.0820313 -0.058594,-0.10546875 -0.058594,-0.1171875 -0.035156,0 -0.058594,0 -0.28125,0 -0.2226563,0 -0.2695313,0 -0.515625,-0.0234375 -0.2929688,-0.0351563 -0.328125,-0.0703125 -0.328125,-0.19921875 0,-0.0234375 0,-0.0820313 0.046875,-0.234375 z m 0,0"
         style="fill:#000000;fill-opacity:1;fill-rule:nonzero;stroke:none" />
      <path
         id="path30"
         d="m 12.607133,-13.747797 -1.429688,0.105469 v 0.316406 c 0.703125,0 0.773438,0.07031 0.773438,0.550781 v 5.1796879 c 0,0.4570312 -0.105469,0.4570312 -0.773438,0.4570312 v 0.3046875 c 0.328125,-0.011719 0.855469,-0.035156 1.101563,-0.035156 0.257812,0 0.738281,0.023437 1.113281,0.035156 v -0.3046875 c -0.667969,0 -0.785156,0 -0.785156,-0.4570312 z m 5.689453,4.7812501 c 0,-1.2773441 -0.996094,-2.3320311 -2.191406,-2.3320311 -1.253907,0 -2.214844,1.089844 -2.214844,2.3320311 0,1.2890625 1.03125,2.2382813 2.203125,2.2382813 1.207031,0 2.203125,-0.9726563 2.203125,-2.2382813 z m -2.191406,1.9921875 c -0.433594,0 -0.867188,-0.2109375 -1.136719,-0.6679687 -0.257813,-0.4335938 -0.257813,-1.0429688 -0.257813,-1.40625 0,-0.3867188 0,-0.9257813 0.246094,-1.3593749 0.269531,-0.457031 0.738281,-0.667969 1.136719,-0.667969 0.433594,0 0.867187,0.222656 1.125,0.644531 0.257812,0.4335941 0.257812,1.0078129 0.257812,1.3828129 0,0.3632812 0,0.9023437 -0.222656,1.3359375 -0.222656,0.4453125 -0.65625,0.7382812 -1.148437,0.7382812 z m 4.699218,-1.5703125 c -0.867187,0 -0.867187,-0.9960937 -0.867187,-1.2304687 0,-0.2695314 0.01172,-0.5859374 0.152344,-0.8320314 0.08203,-0.117187 0.316406,-0.398437 0.714843,-0.398437 0.867188,0 0.867188,0.996093 0.867188,1.2187496 0,0.2695313 -0.01172,0.5976563 -0.164063,0.84375 -0.08203,0.1171875 -0.304687,0.3984375 -0.703125,0.3984375 z m -1.160156,0.3867188 c 0,-0.035156 0,-0.2695313 0.175781,-0.46875 0.386719,0.28125 0.796875,0.3046875 0.984375,0.3046875 0.925782,0 1.605469,-0.6796875 1.605469,-1.453125 0,-0.3632814 -0.152344,-0.7382814 -0.398437,-0.9609374 0.351562,-0.339844 0.714843,-0.386719 0.890625,-0.386719 0.02344,0 0.07031,0 0.105468,0 -0.117187,0.04687 -0.164062,0.152344 -0.164062,0.269531 0,0.175782 0.128906,0.292969 0.292969,0.292969 0.09375,0 0.28125,-0.07031 0.28125,-0.292969 0,-0.175781 -0.117188,-0.492187 -0.503907,-0.492187 -0.199218,0 -0.632812,0.05859 -1.054687,0.46875 -0.421875,-0.328125 -0.84375,-0.363281 -1.054688,-0.363281 -0.925781,0 -1.617187,0.691406 -1.617187,1.4531246 0,0.4453125 0.222656,0.8203125 0.46875,1.03125 -0.128906,0.1523438 -0.304688,0.4804688 -0.304688,0.8203125 0,0.3164063 0.128907,0.6914063 0.433594,0.890625 -0.597656,0.1757813 -0.914062,0.5976563 -0.914062,0.9960938 0,0.7148437 0.984375,1.265625 2.203125,1.265625 1.171875,0 2.203125,-0.5039063 2.203125,-1.2890625 0,-0.3398438 -0.140625,-0.8554688 -0.644532,-1.125 -0.527343,-0.28125 -1.101562,-0.28125 -1.710937,-0.28125 -0.246094,0 -0.679688,0 -0.75,-0.011719 -0.316406,-0.046875 -0.527344,-0.3515625 -0.527344,-0.6679685 z m 1.441406,3.1523437 c -1.007812,0 -1.699218,-0.515625 -1.699218,-1.0429687 0,-0.4570313 0.375,-0.8203125 0.820312,-0.8554688 h 0.585938 c 0.855468,0 1.96875,0 1.96875,0.8554688 0,0.5390625 -0.703125,1.0429687 -1.675782,1.0429687 z m 0,0"
         style="fill:#000000;fill-opacity:1;fill-rule:nonzero;stroke:none" />
      <path
         id="path31"
         d="m 27.232133,-5.6647891 h -0.234375 c -0.02344,0.1523438 -0.08203,0.5625 -0.175781,0.6328125 -0.05859,0.035156 -0.597657,0.035156 -0.691407,0.035156 h -1.289062 c 0.738281,-0.6445313 0.984375,-0.84375 1.394531,-1.171875 0.515625,-0.4101563 0.996094,-0.84375 0.996094,-1.5 0,-0.84375 -0.738281,-1.359375 -1.628906,-1.359375 -0.867188,0 -1.453125,0.609375 -1.453125,1.2421875 0,0.3632812 0.304687,0.3984375 0.375,0.3984375 0.164062,0 0.375,-0.1171875 0.375,-0.375 0,-0.1289063 -0.05859,-0.3632813 -0.421875,-0.3632813 0.222656,-0.5039062 0.691406,-0.65625 1.019531,-0.65625 0.703125,0 1.066406,0.5507813 1.066406,1.1132813 0,0.609375 -0.433594,1.0898437 -0.65625,1.3359375 l -1.6875,1.6640625 c -0.07031,0.058594 -0.07031,0.070312 -0.07031,0.2695312 h 2.882812 z m 0,0"
         style="fill:#000000;fill-opacity:1;fill-rule:nonzero;stroke:none" />
      <path
         id="path32"
         d="m 31.48018,-4.4431094 c 0,-0.035156 0,-0.046875 -0.164063,-0.2226562 -1.242187,-1.2539063 -1.570312,-3.1289063 -1.570312,-4.6640625 0,-1.7226559 0.386718,-3.4570309 1.605468,-4.7109379 0.128907,-0.117187 0.128907,-0.128906 0.128907,-0.164062 0,-0.07031 -0.03516,-0.105469 -0.09375,-0.105469 -0.105469,0 -0.996094,0.679688 -1.582032,1.945313 -0.515625,1.101562 -0.632812,2.203125 -0.632812,3.0351559 0,0.7851562 0.117187,1.9921875 0.65625,3.1171875 0.597656,1.21875 1.453125,1.875 1.558594,1.875 0.05859,0 0.09375,-0.035156 0.09375,-0.1054688 z m 0,0"
         style="fill:#000000;fill-opacity:1;fill-rule:nonzero;stroke:none" />
      <path
         id="path33"
         d="m 36.481156,-16.806391 h 0.960938 c 0.75,0 0.832031,0.152344 0.832031,0.445313 0,0.07031 0,0.1875 -0.07031,0.492187 -0.02344,0.04687 -0.03516,0.08203 -0.03516,0.105469 0,0.08203 0.05859,0.117188 0.117188,0.117188 0.105469,0 0.105469,-0.02344 0.152344,-0.210938 l 0.550781,-2.15625 c 0.02344,-0.105469 0.02344,-0.128906 0.02344,-0.164062 0,-0.01172 -0.01172,-0.105469 -0.117187,-0.105469 -0.09375,0 -0.105469,0.04687 -0.152344,0.210937 -0.199219,0.773438 -0.433594,0.949219 -1.277344,0.949219 h -0.914062 l 0.644531,-2.53125 c 0.08203,-0.339844 0.09375,-0.386719 0.539063,-0.386719 h 1.3125 c 1.21875,0 1.453125,0.328125 1.453125,1.101563 0,0.222656 0,0.269531 -0.03516,0.539062 -0.01172,0.128907 -0.01172,0.140625 -0.01172,0.175782 0,0.04687 0.02344,0.117187 0.117187,0.117187 0.105469,0 0.117188,-0.05859 0.140625,-0.246094 l 0.199219,-1.722656 c 0.02344,-0.269531 -0.02344,-0.269531 -0.269531,-0.269531 h -4.886719 c -0.199219,0 -0.292969,0 -0.292969,0.199219 0,0.105468 0.09375,0.105468 0.28125,0.105468 0.363281,0 0.644531,0 0.644531,0.1875 0,0.03516 0,0.05859 -0.04687,0.234375 l -1.324218,5.273438 c -0.09375,0.386719 -0.117188,0.46875 -0.902344,0.46875 -0.164063,0 -0.28125,0 -0.28125,0.1875 0,0.117187 0.128906,0.117187 0.152344,0.117187 0.292968,0 1.03125,-0.03516 1.3125,-0.03516 0.328125,0 1.160156,0.03516 1.488281,0.03516 0.09375,0 0.210937,0 0.210937,-0.1875 0,-0.08203 -0.05859,-0.105468 -0.05859,-0.117187 -0.03516,0 -0.05859,0 -0.28125,0 -0.222657,0 -0.269532,0 -0.515625,-0.02344 -0.292969,-0.03516 -0.328125,-0.07031 -0.328125,-0.199218 0,-0.02344 0,-0.08203 0.04687,-0.234375 z m 0,0"
         style="fill:#000000;fill-opacity:1;fill-rule:nonzero;stroke:none" />
    </g>
    <path
       id="path34"
       d="m 108.935,51.294 h 8.194"
       style="fill:none;stroke:#000000;stroke-width:0.3985;stroke-linecap:butt;stroke-linejoin:miter;stroke-miterlimit:10;stroke-dasharray:none;stroke-opacity:1"
       transform="matrix(1.3333333,0,0,-1.3333333,96,96.001333)" />
    <g
       id="g34"
       aria-label="f&#10;i&#10;)"
       transform="matrix(1.3333333,0,0,1.3333333,241.24667,40.041333)">
      <path
         id="path35"
         d="m 3.6558203,-3.9831484 h 0.8554688 c 0.1992187,0 0.3046875,0 0.3046875,-0.1992188 0,-0.1054687 -0.1054688,-0.1054687 -0.2695313,-0.1054687 H 3.7144141 l 0.2109375,-1.1367188 c 0.035156,-0.2109375 0.1757812,-0.9140625 0.234375,-1.0429687 0.09375,-0.1875 0.2578125,-0.3398438 0.46875,-0.3398438 0.046875,0 0.3046875,0 0.4921875,0.1875 -0.4335938,0.035156 -0.5390625,0.3867188 -0.5390625,0.5390625 0,0.2226563 0.1757812,0.3398438 0.3632812,0.3398438 0.2695313,0 0.5507813,-0.2109375 0.5507813,-0.5976563 0,-0.4570312 -0.4570313,-0.6796875 -0.8671875,-0.6796875 -0.3398438,0 -0.9609375,0.1757813 -1.265625,1.1601563 -0.058594,0.2109375 -0.082031,0.3164062 -0.328125,1.5703125 H 2.3550391 c -0.1992188,0 -0.3046875,0 -0.3046875,0.1875 0,0.1171875 0.09375,0.1171875 0.28125,0.1171875 h 0.65625 l -0.75,3.93749996 C 2.0620703,0.91528906 1.8980078,1.8293516 1.3706641,1.8293516 c -0.035156,0 -0.28125,0 -0.46875004,-0.1875 C 1.3589453,1.6184141 1.4409766,1.2551328 1.4409766,1.1027891 c 0,-0.22265629 -0.1757813,-0.33984379 -0.3632813,-0.33984379 -0.25781249,0 -0.55078124,0.2109375 -0.55078124,0.59765629 0,0.4453125 0.43359375,0.6796875 0.84375004,0.6796875 0.5507812,0 0.9492187,-0.5859375 1.125,-0.9609375 0.328125,-0.63281254 0.5507812,-1.83984379 0.5625,-1.91015629 z m 0,0"
         style="fill:#000000;fill-opacity:1;fill-rule:nonzero;stroke:none" />
      <path
         id="path36"
         d="m 7.1392187,-2.8640078 c 0,-0.1054688 -0.082031,-0.2578125 -0.28125,-0.2578125 -0.1875,0 -0.3867187,0.1757812 -0.3867187,0.375 0,0.1171875 0.082031,0.2695312 0.2695312,0.2695312 0.2109375,0 0.3984375,-0.1992187 0.3984375,-0.3867187 z M 5.7095312,0.67505469 c -0.023437,0.09375 -0.058594,0.17578125 -0.058594,0.29296875 0,0.32812496 0.28125,0.59765626 0.6679687,0.59765626 0.6914063,0 0.9960938,-0.96093751 0.9960938,-1.06640626 0,-0.09375 -0.082031,-0.09375 -0.1054688,-0.09375 -0.1054687,0 -0.1054687,0.046875 -0.140625,0.1171875 C 6.9165625,1.0852109 6.611875,1.3664609 6.330625,1.3664609 c -0.140625,0 -0.1757813,-0.082031 -0.1757813,-0.2460937 0,-0.15234376 0.058594,-0.29296876 0.1171875,-0.44531251 0.070312,-0.1875 0.140625,-0.375 0.2226563,-0.55078125 0.058594,-0.1640625 0.3164062,-0.80859375 0.3398437,-0.890625 0.023437,-0.0703125 0.046875,-0.15234375 0.046875,-0.22265625 0,-0.32812499 -0.28125,-0.58593749 -0.6679687,-0.58593749 -0.6914063,0 -1.0078125,0.94921874 -1.0078125,1.06640624 0,0.0820313 0.09375,0.0820313 0.1171875,0.0820313 0.09375,0 0.1054687,-0.0351563 0.1289062,-0.10546875 C 5.6275,-1.1296328 5.9321875,-1.3874453 6.19,-1.3874453 c 0.1171875,0 0.1757812,0.058594 0.1757812,0.2460937 0,0.16406254 -0.035156,0.26953129 -0.2109375,0.70312504 z m 0,0"
         style="fill:#000000;fill-opacity:1;fill-rule:nonzero;stroke:none" />
      <path
         id="path37"
         d="m 12.272031,-9.3298281 c 0,-0.7734379 -0.117187,-1.9804689 -0.65625,-3.1054689 -0.597656,-1.21875 -1.464844,-1.875 -1.558594,-1.875 -0.058593,0 -0.1054683,0.04687 -0.1054683,0.105469 0,0.03516 0,0.04687 0.1992183,0.234375 0.972657,0.984375 1.535157,2.566406 1.535157,4.6406249 0,1.7109375 -0.363282,3.4570312 -1.59375,4.7226562 -0.1406253,0.1171875 -0.1406253,0.1289063 -0.1406253,0.1640625 0,0.058594 0.046875,0.1054688 0.1054683,0.1054688 0.09375,0 0.996094,-0.6796875 1.582032,-1.9453125 0.503906,-1.1015625 0.632812,-2.203125 0.632812,-3.046875 z m 0,0"
         style="fill:#000000;fill-opacity:1;fill-rule:nonzero;stroke:none" />
    </g>
  </g>
</svg>
