<?xml version="1.0" encoding="UTF-8" standalone="no"?>
<!-- Created with Inkscape (http://www.inkscape.org/) -->

<svg
   version="1.1"
   id="svg1"
   width="128.24001"
   height="43.040001"
   viewBox="0 0 128.24001 43.040001"
   sodipodi:docname="2013-11-21-length-huf.pdf"
   xmlns:inkscape="http://www.inkscape.org/namespaces/inkscape"
   xmlns:sodipodi="http://sodipodi.sourceforge.net/DTD/sodipodi-0.dtd"
   xmlns="http://www.w3.org/2000/svg"
   xmlns:svg="http://www.w3.org/2000/svg">
  <defs
     id="defs1" />
  <sodipodi:namedview
     id="namedview1"
     pagecolor="#ffffff"
     bordercolor="#666666"
     borderopacity="1.0"
     inkscape:showpageshadow="2"
     inkscape:pageopacity="0.0"
     inkscape:pagecheckerboard="0"
     inkscape:deskcolor="#d1d1d1">
    <inkscape:page
       x="0"
       y="0"
       inkscape:label="1"
       id="page1"
       width="128.24001"
       height="43.040001"
       margin="0"
       bleed="0" />
  </sodipodi:namedview>
  <g
     id="g1"
     inkscape:groupmode="layer"
     inkscape:label="1">
    <g
       id="g2"
       aria-label="L&#10;huf&#10;(f&#10;i&#10;)≈log&#10;2&#10;(&#10;F"
       transform="matrix(1.3333333,0,0,1.3333333,6.6413333,24.704)">
      <path
         id="path2"
         d="m 3.7260312,-6.0240938 c 0.09375,-0.3632812 0.1171875,-0.46875 1.0546875,-0.46875 0.3046875,0 0.375,0 0.375,-0.1875 0,-0.1289062 -0.1054687,-0.1289062 -0.1523437,-0.1289062 -0.328125,0 -1.1484375,0.035156 -1.4765625,0.035156 -0.3046875,0 -1.03125,-0.035156 -1.3242188,-0.035156 -0.070312,0 -0.1875,0 -0.1875,0.1992187 0,0.1171875 0.082031,0.1171875 0.28125,0.1171875 0.011719,0 0.1992188,0 0.375,0.011719 0.1757813,0.023437 0.2695313,0.035156 0.2695313,0.1640625 0,0.035156 -0.011719,0.070312 -0.046875,0.1875 l -1.3359375,5.35546875 c -0.09375,0.38671875 -0.1171875,0.46875 -0.90234375,0.46875 -0.1640625,0 -0.26953125,0 -0.26953125,0.19921875 0,0.10546875 0.09375,0.10546875 0.26953125,0.10546875 H 5.2729062 c 0.234375,0 0.2460938,0 0.3046875,-0.1640625 L 6.36275,-2.3209688 c 0.046875,-0.1054687 0.046875,-0.1289062 0.046875,-0.140625 0,-0.035156 -0.035156,-0.1054687 -0.1289063,-0.1054687 -0.082031,0 -0.09375,0.046875 -0.1640625,0.2109375 -0.3398437,0.9140625 -0.7734375,2.05078125 -2.4960937,2.05078125 h -0.9375 c -0.140625,0 -0.1640625,0 -0.2226563,-0.0117188 C 2.3549375,-0.32878125 2.3315,-0.3405 2.3315,-0.42253125 c 0,-0.0234375 0,-0.046875 0.046875,-0.22265625 z m 0,0"
         style="fill:#000000;fill-opacity:1;fill-rule:nonzero;stroke:none" />
      <path
         id="path3"
         d="m 8.9584531,-3.1354219 c 0.011719,-0.011719 0.035156,-0.1054687 0.035156,-0.1171875 0,-0.035156 -0.035156,-0.09375 -0.1171875,-0.09375 -0.140625,0 -0.7148438,0.058594 -0.890625,0.070312 -0.058594,0.011719 -0.1523438,0.011719 -0.1523438,0.1640625 0,0.09375 0.09375,0.09375 0.1757813,0.09375 0.3398437,0 0.3398437,0.046875 0.3398437,0.1054688 0,0.046875 -0.011719,0.09375 -0.035156,0.1523437 L 7.3412656,1.1887969 c -0.035156,0.1289062 -0.035156,0.140625 -0.035156,0.1523437 0,0.1054688 0.082031,0.2226563 0.234375,0.2226563 0.070312,0 0.2109375,-0.035156 0.28125,-0.1875 0.023437,-0.035156 0.082031,-0.2929688 0.1171875,-0.43359378 L 8.1029844,0.32160937 c 0.023437,-0.10546875 0.09375,-0.36328125 0.1171875,-0.46875 0.070312,-0.26953125 0.070312,-0.28125 0.1992187,-0.50390625 0.2226563,-0.33984375 0.5742188,-0.73828122 1.125,-0.73828122 0.3867188,0 0.4101563,0.328125 0.4101563,0.49218747 0,0.421875 -0.3046875,1.1953125 -0.4101563,1.48828125 -0.082031,0.1875 -0.1054687,0.2578125 -0.1054687,0.375 0,0.36328128 0.3046875,0.59765628 0.6562501,0.59765628 0.703125,0 1.007812,-0.96093753 1.007812,-1.06640628 0,-0.09375 -0.09375,-0.09375 -0.117187,-0.09375 -0.09375,0 -0.105469,0.046875 -0.128906,0.1171875 -0.164063,0.56249998 -0.46875,0.84374998 -0.738282,0.84374998 -0.1406246,0 -0.1757809,-0.09375 -0.1757809,-0.2460937 0,-0.15234378 0.035156,-0.24609378 0.1640629,-0.56250003 0.08203,-0.2109375 0.363281,-0.94921875 0.363281,-1.34765625 0,-0.10546875 0,-0.39843752 -0.257813,-0.59765622 -0.117187,-0.09375 -0.3164059,-0.1875 -0.6445309,-0.1875 -0.5039062,0 -0.8789062,0.2695312 -1.1367187,0.5742187 z m 5.4345699,3.50390627 c -0.03516,0.140625 -0.105468,0.3984375 -0.117187,0.41015625 -0.128906,0.2109375 -0.410156,0.58593748 -0.84375,0.58593748 -0.480469,0 -0.480469,-0.44531248 -0.480469,-0.57421873 0,-0.41015625 0.199219,-0.90234375 0.386719,-1.41796875 0.05859,-0.140625 0.105469,-0.24609375 0.105469,-0.3515625 0,-0.36328122 -0.304688,-0.59765622 -0.667969,-0.59765622 -0.691406,0 -1.007813,0.94921872 -1.007813,1.06640622 0,0.0820313 0.09375,0.0820313 0.117188,0.0820313 0.09375,0 0.105469,-0.0351563 0.128906,-0.10546875 0.164063,-0.57421867 0.46875,-0.85546867 0.738281,-0.85546867 0.128907,0 0.175782,0.082031 0.175782,0.2460937 0,0.16406247 -0.04687,0.30468747 -0.117188,0.46874997 -0.386719,0.9609375 -0.386719,1.16015625 -0.386719,1.34765625 0,0.1171875 0,0.44531258 0.269532,0.66796878 0.199218,0.1640625 0.46875,0.2226563 0.714843,0.2226563 0.433594,0 0.679688,-0.234375 0.902344,-0.4570313 0.152344,0.4453125 0.621094,0.4570313 0.703125,0.4570313 0.234375,0 0.421875,-0.140625 0.550781,-0.375 0.152344,-0.26953133 0.257813,-0.66796883 0.257813,-0.69140633 0,-0.09375 -0.105469,-0.09375 -0.117188,-0.09375 -0.105468,0 -0.105468,0.0351563 -0.164062,0.22265625 -0.08203,0.328125 -0.210938,0.73828128 -0.503906,0.73828128 -0.175782,0 -0.234375,-0.1523437 -0.234375,-0.3398437 0,-0.11718758 0.05859,-0.36328133 0.105468,-0.55078133 0.04687,-0.1875 0.117188,-0.46875 0.152344,-0.62109375 l 0.164063,-0.62109375 c 0.04687,-0.17578125 0.117187,-0.48046867 0.117187,-0.51562497 0,-0.140625 -0.105469,-0.2226562 -0.222656,-0.2226562 -0.257813,0 -0.316406,0.1992187 -0.363281,0.421875 z m 4.587891,-1.62890627 h 0.679688 c 0.140625,0 0.234375,0 0.234375,-0.1523437 0,-0.09375 -0.09375,-0.09375 -0.210938,-0.09375 h -0.65625 c 0.164063,-0.890625 0.222656,-1.2070313 0.28125,-1.4179688 0.03516,-0.1523437 0.1875,-0.2929687 0.351563,-0.2929687 0,0 0.199218,0 0.328125,0.082031 -0.292969,0.09375 -0.304688,0.3398438 -0.304688,0.3867188 0,0.1523437 0.117188,0.2578125 0.269531,0.2578125 0.199219,0 0.398438,-0.1640625 0.398438,-0.4335938 0,-0.3164062 -0.339844,-0.4921875 -0.691406,-0.4921875 -0.304688,0 -0.644532,0.1757813 -0.84375,0.5273438 -0.128907,0.2578125 -0.1875,0.5742187 -0.339844,1.3828125 h -0.550781 c -0.140625,0 -0.222657,0 -0.222657,0.1523437 0,0.09375 0.08203,0.09375 0.210938,0.09375 h 0.515625 c 0,0.046875 -0.445313,2.5546875 -0.609375,3.2929688 -0.03516,0.1640625 -0.152344,0.6914062 -0.492188,0.6914062 0,0 -0.175781,0 -0.304687,-0.082031 0.28125,-0.09375 0.304687,-0.3515625 0.304687,-0.3867188 0,-0.1523437 -0.117187,-0.2578125 -0.28125,-0.2578125 -0.1875,0 -0.398437,0.1640625 -0.398437,0.421875 0,0.3164063 0.328125,0.4921875 0.679687,0.4921875 0.445313,0 0.75,-0.4570312 0.84375,-0.609375 0.246094,-0.46875 0.410157,-1.32421873 0.421875,-1.40624998 z m 0,0"
         style="fill:#000000;fill-opacity:1;fill-rule:nonzero;stroke:none" />
      <path
         id="path4"
         d="m 24.611773,2.3899687 c 0,-0.035156 0,-0.046875 -0.164062,-0.2226562 -1.242188,-1.25390625 -1.570313,-3.12890625 -1.570313,-4.6640625 0,-1.7226563 0.386719,-3.4570313 1.605469,-4.7109375 0.128906,-0.1171875 0.128906,-0.1289063 0.128906,-0.1640625 0,-0.070312 -0.03516,-0.1054688 -0.09375,-0.1054688 -0.105468,0 -0.996093,0.6796875 -1.582031,1.9453125 -0.515625,1.1015625 -0.632812,2.203125 -0.632812,3.0351563 0,0.7851562 0.117187,1.9921875 0.65625,3.1171875 0.597656,1.21875 1.453125,1.875 1.558593,1.875 0.05859,0 0.09375,-0.035156 0.09375,-0.1054688 z m 0,0"
         style="fill:#000000;fill-opacity:1;fill-rule:nonzero;stroke:none" />
      <path
         id="path5"
         d="M 28.851031,-3.9850313 H 29.7065 c 0.199219,0 0.304687,0 0.304687,-0.1992187 0,-0.1054688 -0.105468,-0.1054688 -0.269531,-0.1054688 h -0.832031 l 0.210937,-1.1367187 c 0.03516,-0.2109375 0.175782,-0.9140625 0.234375,-1.0429688 0.09375,-0.1875 0.257813,-0.3398437 0.46875,-0.3398437 0.04687,0 0.304688,0 0.492188,0.1875 -0.433594,0.035156 -0.539063,0.3867187 -0.539063,0.5390625 0,0.2226562 0.175782,0.3398437 0.363282,0.3398437 0.269531,0 0.550781,-0.2109375 0.550781,-0.5976562 0,-0.4570313 -0.457031,-0.6796875 -0.867188,-0.6796875 -0.339843,0 -0.960937,0.1757812 -1.265625,1.1601562 -0.05859,0.2109375 -0.08203,0.3164063 -0.328125,1.5703125 H 27.55025 c -0.199219,0 -0.304688,0 -0.304688,0.1875 0,0.1171875 0.09375,0.1171875 0.28125,0.1171875 h 0.65625 l -0.75,3.93750005 c -0.175781,0.9609375 -0.339843,1.87499995 -0.867187,1.87499995 -0.03516,0 -0.28125,0 -0.46875,-0.1875 0.457031,-0.023437 0.539062,-0.3867187 0.539062,-0.5390625 0,-0.2226562 -0.175781,-0.3398437 -0.363281,-0.3398437 -0.257812,0 -0.550781,0.2109375 -0.550781,0.5976562 0,0.4453125 0.433594,0.6796875 0.84375,0.6796875 0.550781,0 0.949219,-0.5859375 1.125,-0.9609375 0.328125,-0.63281245 0.550781,-1.8398437 0.5625,-1.9101562 z m 0,0"
         style="fill:#000000;fill-opacity:1;fill-rule:nonzero;stroke:none" />
      <path
         id="path6"
         d="m 32.33443,-2.8658906 c 0,-0.1054688 -0.08203,-0.2578125 -0.28125,-0.2578125 -0.1875,0 -0.386719,0.1757812 -0.386719,0.375 0,0.1171875 0.08203,0.2695312 0.269531,0.2695312 0.210938,0 0.398438,-0.1992187 0.398438,-0.3867187 z m -1.429688,3.53906247 c -0.02344,0.09375 -0.05859,0.17578125 -0.05859,0.29296875 0,0.32812498 0.28125,0.59765628 0.667969,0.59765628 0.691406,0 0.996094,-0.96093753 0.996094,-1.06640628 0,-0.09375 -0.08203,-0.09375 -0.105469,-0.09375 -0.105469,0 -0.105469,0.046875 -0.140625,0.1171875 C 32.111777,1.0833281 31.80709,1.3645781 31.52584,1.3645781 c -0.140625,0 -0.175781,-0.082031 -0.175781,-0.2460937 0,-0.15234378 0.05859,-0.29296878 0.117187,-0.44531253 0.07031,-0.1875 0.140625,-0.375 0.222656,-0.55078125 0.05859,-0.1640625 0.316407,-0.80859375 0.339844,-0.890625 0.02344,-0.0703125 0.04687,-0.15234375 0.04687,-0.22265625 0,-0.32812497 -0.28125,-0.58593747 -0.667969,-0.58593747 -0.691406,0 -1.007812,0.94921872 -1.007812,1.06640622 0,0.0820313 0.09375,0.0820313 0.117187,0.0820313 0.09375,0 0.105469,-0.0351563 0.128907,-0.10546875 0.175781,-0.59765617 0.480468,-0.85546867 0.738281,-0.85546867 0.117187,0 0.175781,0.058594 0.175781,0.2460937 0,0.16406247 -0.03516,0.26953122 -0.210937,0.70312497 z m 0,0"
         style="fill:#000000;fill-opacity:1;fill-rule:nonzero;stroke:none" />
      <path
         id="path7"
         d="m 36.27193,-2.49675 c 0,-0.7734375 -0.117188,-1.9804688 -0.65625,-3.1054688 -0.597657,-1.21875 -1.464844,-1.875 -1.558594,-1.875 -0.05859,0 -0.105469,0.046875 -0.105469,0.1054688 0,0.035156 0,0.046875 0.199219,0.234375 0.972656,0.984375 1.535156,2.5664062 1.535156,4.640625 0,1.7109375 -0.363281,3.45703125 -1.59375,4.7226562 -0.140625,0.1171875 -0.140625,0.1289063 -0.140625,0.1640625 0,0.058594 0.04687,0.1054688 0.105469,0.1054688 0.09375,0 0.996094,-0.6796875 1.582031,-1.9453125 C 36.143023,-0.5514375 36.27193,-1.653 36.27193,-2.49675 Z m 0,0"
         style="fill:#000000;fill-opacity:1;fill-rule:nonzero;stroke:none" />
      <path
         id="path8"
         d="m 47.226031,-4.5006563 c 0,-0.2109375 -0.07031,-0.3046875 -0.140625,-0.3046875 -0.04687,0 -0.128906,0.046875 -0.140625,0.2695313 -0.03516,0.6914062 -0.738281,1.1015625 -1.382812,1.1015625 -0.585938,0 -1.078125,-0.3164063 -1.59375,-0.65625 -0.539063,-0.3632813 -1.078125,-0.7265625 -1.722657,-0.7265625 -0.925781,0 -1.664062,0.7148437 -1.664062,1.6289062 0,0.2226563 0.08203,0.2929688 0.140625,0.2929688 0.09375,0 0.140625,-0.1875 0.140625,-0.2226563 0.04687,-0.8320312 0.867187,-1.1367187 1.382812,-1.1367187 0.574219,0 1.078125,0.3046875 1.59375,0.65625 0.539063,0.3632812 1.078125,0.7148437 1.722657,0.7148437 0.925781,0 1.664062,-0.703125 1.664062,-1.6171875 z m 0,2.3320313 c 0,-0.2929688 -0.117187,-0.3164063 -0.140625,-0.3164063 -0.04687,0 -0.128906,0.058594 -0.140625,0.2695313 -0.03516,0.6914062 -0.738281,1.1015625 -1.382812,1.1015625 -0.585938,0 -1.078125,-0.3164063 -1.59375,-0.65625 -0.539063,-0.3632813 -1.078125,-0.7265625 -1.722657,-0.7265625 -0.925781,0 -1.664062,0.7148437 -1.664062,1.62890625 0,0.22265625 0.08203,0.3046875 0.140625,0.3046875 0.09375,0 0.140625,-0.19921875 0.140625,-0.234375 0.04687,-0.83203125 0.867187,-1.13671875 1.382812,-1.13671875 0.574219,0 1.078125,0.3046875 1.59375,0.65625 0.539063,0.36328125 1.078125,0.71484375 1.722657,0.71484375 0.949218,0 1.664062,-0.73828125 1.664062,-1.60546875 z m 0,0"
         style="fill:#000000;fill-opacity:1;fill-rule:nonzero;stroke:none" />
      <path
         id="path9"
         d="M 52.30318,-6.9147188 50.873492,-6.80925 v 0.3164062 c 0.703125,0 0.773438,0.070312 0.773438,0.5507813 v 5.1796875 c 0,0.45703125 -0.105469,0.45703125 -0.773438,0.45703125 v 0.3046875 c 0.328125,-0.01171875 0.855469,-0.03515625 1.101563,-0.03515625 0.257812,0 0.738281,0.0234375 1.113281,0.03515625 v -0.3046875 c -0.667969,0 -0.785156,0 -0.785156,-0.45703125 z m 5.689453,4.78125 c 0,-1.2773437 -0.996094,-2.3320312 -2.191406,-2.3320312 -1.253907,0 -2.214844,1.0898437 -2.214844,2.3320312 0,1.28906255 1.03125,2.2382813 2.203125,2.2382813 1.207031,0 2.203125,-0.97265625 2.203125,-2.2382813 z m -2.191406,1.99218755 c -0.433594,0 -0.867188,-0.2109375 -1.136719,-0.66796875 -0.257813,-0.4335938 -0.257813,-1.0429688 -0.257813,-1.40625 0,-0.3867188 0,-0.9257813 0.246094,-1.359375 0.269531,-0.4570313 0.738281,-0.6679688 1.136719,-0.6679688 0.433594,0 0.867187,0.2226563 1.125,0.6445313 0.257812,0.4335937 0.257812,1.0078125 0.257812,1.3828125 0,0.3632812 0,0.9023437 -0.222656,1.3359375 -0.222656,0.4453125 -0.65625,0.73828125 -1.148437,0.73828125 z m 4.699218,-1.57031255 c -0.867187,0 -0.867187,-0.9960937 -0.867187,-1.2304687 0,-0.2695313 0.01172,-0.5859375 0.152344,-0.8320313 0.08203,-0.1171875 0.316406,-0.3984375 0.714843,-0.3984375 0.867188,0 0.867188,0.9960938 0.867188,1.21875 0,0.2695313 -0.01172,0.5976563 -0.164063,0.84375 -0.08203,0.1171875 -0.304687,0.3984375 -0.703125,0.3984375 z m -1.160156,0.3867188 c 0,-0.035156 0,-0.2695313 0.175781,-0.46875 0.386719,0.28125 0.796875,0.3046875 0.984375,0.3046875 0.925782,0 1.605469,-0.6796875 1.605469,-1.453125 0,-0.3632813 -0.152344,-0.7382813 -0.398437,-0.9609375 0.351562,-0.3398438 0.714843,-0.3867188 0.890625,-0.3867188 0.02344,0 0.07031,0 0.105468,0 -0.117187,0.046875 -0.164062,0.1523438 -0.164062,0.2695313 0,0.1757812 0.128906,0.2929687 0.292969,0.2929687 0.09375,0 0.28125,-0.070312 0.28125,-0.2929687 0,-0.1757813 -0.117188,-0.4921875 -0.503907,-0.4921875 -0.199218,0 -0.632812,0.058594 -1.054687,0.46875 -0.421875,-0.328125 -0.84375,-0.3632813 -1.054688,-0.3632813 -0.925781,0 -1.617187,0.6914063 -1.617187,1.453125 0,0.4453125 0.222656,0.8203125 0.46875,1.03125 -0.128906,0.1523438 -0.304688,0.4804688 -0.304688,0.8203125 0,0.3164063 0.128907,0.6914063 0.433594,0.89062505 C 58.883258,-0.0358125 58.566852,0.3860625 58.566852,0.7845 c 0,0.7148437 0.984375,1.265625 2.203125,1.265625 1.171875,0 2.203125,-0.5039063 2.203125,-1.2890625 0,-0.33984375 -0.140625,-0.85546875 -0.644532,-1.125 -0.527343,-0.28125 -1.101562,-0.28125 -1.710937,-0.28125 -0.246094,0 -0.679688,0 -0.75,-0.0117188 -0.316406,-0.046875 -0.527344,-0.3515626 -0.527344,-0.6679687 z m 1.441406,3.1523437 c -1.007812,0 -1.699218,-0.515625 -1.699218,-1.0429687 0,-0.45703125 0.375,-0.8203125 0.820312,-0.85546875 h 0.585938 c 0.855468,0 1.96875,0 1.96875,0.85546875 0,0.5390625 -0.703125,1.0429687 -1.675782,1.0429687 z m 0,0"
         style="fill:#000000;fill-opacity:1;fill-rule:nonzero;stroke:none" />
      <path
         id="path10"
         d="m 66.931109,1.1682891 h -0.234375 c -0.02344,0.1523437 -0.08203,0.5625 -0.175781,0.6328125 -0.05859,0.035156 -0.597656,0.035156 -0.691406,0.035156 h -1.289063 c 0.738282,-0.6445312 0.984375,-0.84374999 1.394532,-1.17187499 0.515625,-0.41015625 0.996093,-0.84375 0.996093,-1.5 0,-0.84375001 -0.738281,-1.35937501 -1.628906,-1.35937501 -0.867187,0 -1.453125,0.609375 -1.453125,1.24218751 0,0.36328125 0.304688,0.3984375 0.375,0.3984375 0.164063,0 0.375,-0.1171875 0.375,-0.375 0,-0.12890621 -0.05859,-0.36328121 -0.421875,-0.36328121 0.222656,-0.5039063 0.691406,-0.65625 1.019531,-0.65625 0.703125,0 1.066407,0.5507812 1.066407,1.11328121 0,0.609375 -0.433594,1.08984375 -0.65625,1.3359375 l -1.6875,1.66406249 c -0.07031,0.058594 -0.07031,0.070312 -0.07031,0.2695313 h 2.882813 z m 0,0"
         style="fill:#000000;fill-opacity:1;fill-rule:nonzero;stroke:none" />
      <path
         id="path11"
         d="m 71.176227,2.3899687 c 0,-0.035156 0,-0.046875 -0.164063,-0.2226562 -1.242187,-1.25390625 -1.570312,-3.12890625 -1.570312,-4.6640625 0,-1.7226563 0.386718,-3.4570313 1.605468,-4.7109375 0.128907,-0.1171875 0.128907,-0.1289063 0.128907,-0.1640625 0,-0.070312 -0.03516,-0.1054688 -0.09375,-0.1054688 -0.105469,0 -0.996094,0.6796875 -1.582032,1.9453125 -0.515625,1.1015625 -0.632812,2.203125 -0.632812,3.0351563 0,0.7851562 0.117187,1.9921875 0.65625,3.1171875 0.597656,1.21875 1.453125,1.875 1.558594,1.875 0.05859,0 0.09375,-0.035156 0.09375,-0.1054688 z m 0,0"
         style="fill:#000000;fill-opacity:1;fill-rule:nonzero;stroke:none" />
      <path
         id="path12"
         d="m 76.180133,-9.9733125 h 0.960937 c 0.75,0 0.832032,0.1523437 0.832032,0.4453125 0,0.070312 0,0.1875 -0.07031,0.4921875 -0.02344,0.046875 -0.03516,0.082031 -0.03516,0.1054687 0,0.082031 0.05859,0.1171875 0.117187,0.1171875 0.105469,0 0.105469,-0.023437 0.152344,-0.2109375 l 0.550781,-2.1562502 c 0.02344,-0.105469 0.02344,-0.128906 0.02344,-0.164062 0,-0.01172 -0.01172,-0.105469 -0.117188,-0.105469 -0.09375,0 -0.105468,0.04687 -0.152343,0.210937 -0.199219,0.773438 -0.433594,0.949219 -1.277344,0.949219 h -0.914063 l 0.644532,-2.53125 c 0.08203,-0.339844 0.09375,-0.386719 0.539062,-0.386719 h 1.3125 c 1.21875,0 1.453125,0.328125 1.453125,1.101563 0,0.222656 0,0.269531 -0.03516,0.539062 -0.01172,0.128907 -0.01172,0.140625 -0.01172,0.175782 0,0.04687 0.02344,0.117187 0.117188,0.117187 0.105468,0 0.117187,-0.05859 0.140625,-0.246094 l 0.199218,-1.722656 c 0.02344,-0.269531 -0.02344,-0.269531 -0.269531,-0.269531 H 75.45357 c -0.199218,0 -0.292968,0 -0.292968,0.199219 0,0.105468 0.09375,0.105468 0.28125,0.105468 0.363281,0 0.644531,0 0.644531,0.1875 0,0.03516 0,0.05859 -0.04687,0.234375 l -1.324219,5.273438 c -0.09375,0.3867187 -0.117187,0.46875 -0.902344,0.46875 -0.164062,0 -0.28125,0 -0.28125,0.1875 0,0.1171875 0.128907,0.1171875 0.152344,0.1171875 0.292969,0 1.03125,-0.035156 1.3125,-0.035156 0.328125,0 1.160156,0.035156 1.488281,0.035156 0.09375,0 0.210938,0 0.210938,-0.1875 0,-0.082031 -0.05859,-0.1054688 -0.05859,-0.1171875 -0.03516,0 -0.05859,0 -0.28125,0 -0.222656,0 -0.269531,0 -0.515625,-0.023437 -0.292969,-0.035156 -0.328125,-0.070312 -0.328125,-0.1992188 0,-0.023437 0,-0.082031 0.04687,-0.234375 z m 0,0"
         style="fill:#000000;fill-opacity:1;fill-rule:nonzero;stroke:none" />
    </g>
    <path
       id="path13"
       d="m 5.935,55.962 h 8.194"
       style="fill:none;stroke:#000000;stroke-width:0.3985;stroke-linecap:butt;stroke-linejoin:miter;stroke-miterlimit:10;stroke-dasharray:none;stroke-opacity:1"
       transform="matrix(1.3333333,0,0,-1.3333333,96,95.998667)" />
    <g
       id="g13"
       aria-label="f&#10;i&#10;)"
       transform="matrix(1.3333333,0,0,1.3333333,103.91333,33.816)">
      <path
         id="path14"
         d="m 3.6567969,-3.9840703 h 0.8554687 c 0.1992188,0 0.3046875,0 0.3046875,-0.1992188 0,-0.1054687 -0.1054687,-0.1054687 -0.2695312,-0.1054687 H 3.7153906 l 0.2109375,-1.1367188 c 0.035156,-0.2109375 0.1757813,-0.9140625 0.234375,-1.0429687 0.09375,-0.1875 0.2578125,-0.3398438 0.46875,-0.3398438 0.046875,0 0.3046875,0 0.4921875,0.1875 -0.4335937,0.035156 -0.5390625,0.3867188 -0.5390625,0.5390625 0,0.2226563 0.1757813,0.3398438 0.3632813,0.3398438 0.2695312,0 0.5507812,-0.2109375 0.5507812,-0.5976563 0,-0.4570312 -0.4570312,-0.6796875 -0.8671875,-0.6796875 -0.3398437,0 -0.9609375,0.1757813 -1.265625,1.1601563 -0.058594,0.2109375 -0.082031,0.3164062 -0.328125,1.5703125 H 2.3560156 c -0.1992187,0 -0.3046875,0 -0.3046875,0.1875 0,0.1171875 0.09375,0.1171875 0.28125,0.1171875 h 0.65625 l -0.75,3.93749999 C 2.0630469,0.91436719 1.8989844,1.8284297 1.3716406,1.8284297 c -0.035156,0 -0.28125,0 -0.46874998,-0.1875 C 1.3599219,1.6174922 1.4419531,1.2542109 1.4419531,1.1018672 c 0,-0.22265626 -0.1757812,-0.33984376 -0.3632812,-0.33984376 -0.25781253,0 -0.55078128,0.2109375 -0.55078128,0.59765626 0,0.4453125 0.43359375,0.6796875 0.84374998,0.6796875 0.5507813,0 0.9492188,-0.5859375 1.125,-0.9609375 0.328125,-0.63281251 0.5507813,-1.83984376 0.5625,-1.91015626 z m 0,0"
         style="fill:#000000;fill-opacity:1;fill-rule:nonzero;stroke:none" />
      <path
         id="path15"
         d="m 7.1401953,-2.8649297 c 0,-0.1054687 -0.082031,-0.2578125 -0.28125,-0.2578125 -0.1875,0 -0.3867187,0.1757813 -0.3867187,0.375 0,0.1171875 0.082031,0.2695313 0.2695312,0.2695313 0.2109375,0 0.3984375,-0.1992188 0.3984375,-0.3867188 z M 5.7105078,0.67413281 c -0.023437,0.09375 -0.058594,0.17578125 -0.058594,0.29296875 0,0.32812504 0.28125,0.59765624 0.6679687,0.59765624 0.6914063,0 0.9960938,-0.96093749 0.9960938,-1.06640624 0,-0.09375 -0.082031,-0.09375 -0.1054688,-0.09375 -0.1054687,0 -0.1054687,0.046875 -0.140625,0.1171875 C 6.9175391,1.0842891 6.6128516,1.3655391 6.3316016,1.3655391 c -0.140625,0 -0.1757813,-0.082031 -0.1757813,-0.2460938 0,-0.15234374 0.058594,-0.29296874 0.1171875,-0.44531249 0.070312,-0.1875 0.140625,-0.375 0.2226563,-0.55078125 0.058594,-0.1640625 0.3164062,-0.80859375 0.3398437,-0.890625 0.023437,-0.0703125 0.046875,-0.15234375 0.046875,-0.22265625 0,-0.32812501 -0.28125,-0.58593751 -0.6679687,-0.58593751 -0.6914063,0 -1.0078125,0.94921876 -1.0078125,1.06640626 0,0.0820313 0.09375,0.0820313 0.1171875,0.0820313 0.09375,0 0.1054687,-0.0351563 0.1289062,-0.10546875 0.1757813,-0.59765631 0.4804688,-0.85546881 0.7382813,-0.85546881 0.1171875,0 0.1757812,0.058594 0.1757812,0.2460938 0,0.16406251 -0.035156,0.26953126 -0.2109375,0.70312501 z m 0,0"
         style="fill:#000000;fill-opacity:1;fill-rule:nonzero;stroke:none" />
      <path
         id="path16"
         d="m 12.273008,-9.33075 c 0,-0.773438 -0.117188,-1.980469 -0.65625,-3.105469 -0.597656,-1.21875 -1.464844,-1.875 -1.558594,-1.875 -0.058594,0 -0.1054687,0.04687 -0.1054687,0.105469 0,0.03516 0,0.04687 0.1992187,0.234375 0.972656,0.984375 1.535156,2.566406 1.535156,4.640625 0,1.7109375 -0.363281,3.4570312 -1.59375,4.7226562 -0.1406247,0.1171875 -0.1406247,0.1289063 -0.1406247,0.1640625 0,0.058594 0.046875,0.1054688 0.1054687,0.1054688 0.09375,0 0.996094,-0.6796875 1.582031,-1.9453125 0.503907,-1.1015625 0.632813,-2.203125 0.632813,-3.046875 z m 0,0"
         style="fill:#000000;fill-opacity:1;fill-rule:nonzero;stroke:none" />
    </g>
  </g>
</svg>
