<?xml version="1.0" encoding="UTF-8" standalone="no"?>
<!-- Created with Inkscape (http://www.inkscape.org/) -->

<svg
   version="1.1"
   id="svg1"
   width="109.45333"
   height="61.106667"
   viewBox="0 0 109.45333 61.106667"
   sodipodi:docname="2014-11-27-gaussian-blur-kernel.pdf"
   xmlns:inkscape="http://www.inkscape.org/namespaces/inkscape"
   xmlns:sodipodi="http://sodipodi.sourceforge.net/DTD/sodipodi-0.dtd"
   xmlns="http://www.w3.org/2000/svg"
   xmlns:svg="http://www.w3.org/2000/svg">
  <defs
     id="defs1" />
  <sodipodi:namedview
     id="namedview1"
     pagecolor="#ffffff"
     bordercolor="#666666"
     borderopacity="1.0"
     inkscape:showpageshadow="2"
     inkscape:pageopacity="0.0"
     inkscape:pagecheckerboard="0"
     inkscape:deskcolor="#d1d1d1">
    <inkscape:page
       x="0"
       y="0"
       inkscape:label="1"
       id="page1"
       width="109.45333"
       height="61.106667"
       margin="0"
       bleed="0" />
  </sodipodi:namedview>
  <g
     id="g1"
     inkscape:groupmode="layer"
     inkscape:label="1">
    <path
       id="path1"
       d="m 2.9306328,-6.3740313 c 0,-0.234375 0,-0.2578125 -0.234375,-0.2578125 -0.609375,0.6328125 -1.4882812,0.6328125 -1.80468749,0.6328125 v 0.3164063 c 0.19921879,0 0.78515629,0 1.30078129,-0.2578125 v 5.15625 c 0,0.3515625 -0.035156,0.48046875 -0.9257813,0.48046875 H 0.95016406 V 9.6875e-4 C 1.3017266,-0.0341875 2.1571953,-0.0341875 2.5556328,-0.0341875 c 0.3984375,0 1.265625,0 1.6171875,0.03515625 v -0.3046875 H 3.8564141 c -0.9023438,0 -0.9257813,-0.1171875 -0.9257813,-0.48046875 z m 0,0"
       style="fill:#000000;fill-opacity:1;fill-rule:nonzero;stroke:none"
       aria-label="1"
       transform="matrix(1.3333333,0,0,1.3333333,11.557333,24.889333)" />
    <path
       id="path2"
       d="m -65.823,49.086 h 9.963"
       style="fill:none;stroke:#000000;stroke-width:0.3985;stroke-linecap:butt;stroke-linejoin:miter;stroke-miterlimit:10;stroke-dasharray:none;stroke-opacity:1"
       transform="matrix(1.3333333,0,0,-1.3333333,96,96.002667)" />
    <g
       id="g2"
       aria-label="16&#10;&#10;&#10;121&#10;242&#10;121&#10;&#10;"
       transform="matrix(1.3333333,0,0,1.3333333,8.236,42.988)">
      <path
         id="path3"
         d="m 2.9284687,-6.3747891 c 0,-0.234375 0,-0.2578125 -0.234375,-0.2578125 -0.609375,0.6328125 -1.4882812,0.6328125 -1.80468745,0.6328125 v 0.3164063 c 0.19921875,0 0.78515625,0 1.30078125,-0.2578125 v 5.15624999 c 0,0.3515625 -0.035156,0.48046875 -0.9257813,0.48046875 H 0.948 V 2.109375e-4 C 1.2995625,-0.03494531 2.1550312,-0.03494531 2.5534687,-0.03494531 c 0.3984375,0 1.265625,0 1.6171875,0.0351562475 V -0.30447656 H 3.85425 c -0.9023438,0 -0.9257813,-0.1171875 -0.9257813,-0.48046875 z m 3.366211,3.1054688 v -0.234375 c 0,-2.5195313 1.2421875,-2.8828125 1.7460937,-2.8828125 0.234375,0 0.65625,0.058594 0.8789063,0.3984375 -0.1523438,0 -0.5507813,0 -0.5507813,0.4453125 0,0.3164062 0.234375,0.4570312 0.4570313,0.4570312 0.1640625,0 0.4570312,-0.082031 0.4570312,-0.46875 0,-0.5976562 -0.4335937,-1.078125 -1.265625,-1.078125 -1.2773437,0 -2.6132812,1.2890625 -2.6132812,3.4804688 0,2.66015624 1.1484375,3.37499999 2.0742187,3.37499999 1.1132813,0 2.0507813,-0.9375 2.0507813,-2.24999999 0,-1.265625 -0.8789063,-2.2265625 -1.9921875,-2.2265625 -0.6679688,0 -1.0429688,0.5039062 -1.2421875,0.984375 z m 1.1835937,3.21093749 c -0.6210937,0 -0.9257812,-0.59765625 -0.984375,-0.75 C 6.3181172,-1.2771328 6.3181172,-2.0740078 6.3181172,-2.2497891 c 0,-0.7734375 0.3164062,-1.7695312 1.21875,-1.7695312 0.1523437,0 0.609375,0 0.9257812,0.609375 0.1757813,0.375 0.1757813,0.8789062 0.1757813,1.3710937 0,0.4804688 0,0.9726563 -0.1640625,1.33593754 -0.3046875,0.59765625 -0.7617188,0.64453125 -0.9960938,0.64453125 z m 0,0"
         style="fill:#000000;fill-opacity:1;fill-rule:nonzero;stroke:none" />
      <path
         id="path4"
         d="m 16.065187,-9.3279141 h 0.691407 V -26.554477 h 2.625 v -0.691406 h -3.316407 z m 0,17.9208985 h 3.316407 V 7.9132969 h -2.625 V -9.3249844 h -0.691407 z m 0,0"
         style="fill:#000000;fill-opacity:1;fill-rule:nonzero;stroke:none" />
      <path
         id="path5"
         d="m 27.370852,-25.265414 c 0,-0.234375 0,-0.257813 -0.234375,-0.257813 -0.609375,0.632813 -1.488282,0.632813 -1.804688,0.632813 v 0.316406 c 0.199219,0 0.785156,0 1.300781,-0.257812 v 5.15625 c 0,0.351562 -0.03516,0.480468 -0.925781,0.480468 h -0.316406 v 0.304688 c 0.351562,-0.03516 1.207031,-0.03516 1.605469,-0.03516 0.398437,0 1.265625,0 1.617187,0.03516 v -0.304688 h -0.316406 c -0.902344,0 -0.925781,-0.117187 -0.925781,-0.480468 z m 13.271484,5.613281 1.054687,-1.03125 c 1.558594,-1.371094 2.15625,-1.910156 2.15625,-2.90625 0,-1.136719 -0.902343,-1.933594 -2.121093,-1.933594 -1.125,0 -1.851563,0.914063 -1.851563,1.804688 0,0.550781 0.492188,0.550781 0.527344,0.550781 0.164062,0 0.515625,-0.117187 0.515625,-0.527344 0,-0.257812 -0.1875,-0.515625 -0.527344,-0.515625 -0.08203,0 -0.105469,0 -0.128906,0.01172 0.222656,-0.644531 0.761719,-1.019531 1.335937,-1.019531 0.914063,0 1.335938,0.808594 1.335938,1.628906 0,0.796875 -0.492188,1.582031 -1.042969,2.203125 l -1.910156,2.132813 c -0.105469,0.105468 -0.105469,0.128906 -0.105469,0.363281 h 3.691406 l 0.28125,-1.734375 h -0.257812 c -0.04687,0.304687 -0.117188,0.738281 -0.210938,0.890625 -0.07031,0.08203 -0.726562,0.08203 -0.949218,0.08203 z m 16.608398,-5.613281 c 0,-0.234375 0,-0.257813 -0.234375,-0.257813 -0.609375,0.632813 -1.488281,0.632813 -1.804687,0.632813 v 0.316406 c 0.199219,0 0.785156,0 1.300781,-0.257812 v 5.15625 c 0,0.351562 -0.03516,0.480468 -0.925781,0.480468 h -0.316406 v 0.304688 c 0.351562,-0.03516 1.207031,-0.03516 1.605468,-0.03516 0.398438,0 1.265625,0 1.617188,0.03516 v -0.304688 h -0.316406 c -0.902344,0 -0.925782,-0.117187 -0.925782,-0.480468 z m -31.543945,17.5693359 1.054688,-1.03125 c 1.558593,-1.3710939 2.15625,-1.9101559 2.15625,-2.9062499 0,-1.136719 -0.902344,-1.933594 -2.121094,-1.933594 -1.125,0 -1.851563,0.914063 -1.851563,1.804688 0,0.550781 0.492188,0.550781 0.527344,0.550781 0.164063,0 0.515625,-0.117188 0.515625,-0.527344 0,-0.257812 -0.1875,-0.515625 -0.527344,-0.515625 -0.08203,0 -0.105468,0 -0.128906,0.01172 0.222656,-0.644531 0.761719,-1.019531 1.335938,-1.019531 0.914062,0 1.335937,0.808593 1.335937,1.628906 0,0.796875 -0.492187,1.582031 -1.042969,2.2031249 l -1.910156,2.1328125 c -0.105469,0.1054687 -0.105469,0.1289062 -0.105469,0.3632812 h 3.691407 l 0.28125,-1.734375 h -0.257813 c -0.04687,0.3046875 -0.117187,0.7382813 -0.210937,0.890625 -0.07031,0.082031 -0.726563,0.082031 -0.949219,0.082031 z m 16.599609,-0.8789063 v 0.8671875 c 0,0.3515625 -0.02344,0.46875 -0.761718,0.46875 h -0.210938 v 0.3046875 c 0.410156,-0.035156 0.9375,-0.035156 1.347656,-0.035156 0.421875,0 0.949219,0 1.359375,0.035156 v -0.3046875 h -0.210937 c -0.738281,0 -0.761719,-0.1171875 -0.761719,-0.46875 v -0.8671875 h 0.996094 v -0.3164062 h -0.996094 v -4.5234374 c 0,-0.199219 0,-0.257813 -0.152344,-0.257813 -0.09375,0 -0.117187,0 -0.199218,0.117188 l -3.058594,4.6640624 v 0.3164062 z m 0.05859,-0.3164062 h -2.425781 l 2.425781,-3.7148434 z m 13.22168,1.1953125 1.054687,-1.03125 c 1.558594,-1.3710939 2.15625,-1.9101559 2.15625,-2.9062499 0,-1.136719 -0.902343,-1.933594 -2.121093,-1.933594 -1.125,0 -1.851563,0.914063 -1.851563,1.804688 0,0.550781 0.492188,0.550781 0.527344,0.550781 0.164062,0 0.515625,-0.117188 0.515625,-0.527344 0,-0.257812 -0.1875,-0.515625 -0.527344,-0.515625 -0.08203,0 -0.105469,0 -0.128906,0.01172 0.222656,-0.644531 0.761719,-1.019531 1.335937,-1.019531 0.914063,0 1.335938,0.808593 1.335938,1.628906 0,0.796875 -0.492188,1.582031 -1.042969,2.2031249 l -1.910156,2.1328125 c -0.105469,0.1054687 -0.105469,0.1289062 -0.105469,0.3632812 h 3.691406 l 0.28125,-1.734375 h -0.257812 c -0.04687,0.3046875 -0.117188,0.7382813 -0.210938,0.890625 -0.07031,0.082031 -0.726562,0.082031 -0.949218,0.082031 z m -28.21582,6.3427734 c 0,-0.234375 0,-0.2578125 -0.234375,-0.2578125 -0.609375,0.63281251 -1.488282,0.63281251 -1.804688,0.63281251 v 0.31640625 c 0.199219,0 0.785156,0 1.300781,-0.2578125 V 4.2365391 c 0,0.3515625 -0.03516,0.4804687 -0.925781,0.4804687 h -0.316406 v 0.3046875 c 0.351562,-0.035156 1.207031,-0.035156 1.605469,-0.035156 0.398437,0 1.265625,0 1.617187,0.035156 V 4.7170078 h -0.316406 c -0.902344,0 -0.925781,-0.1171875 -0.925781,-0.4804687 z m 13.271484,5.6132813 1.054687,-1.03125 c 1.558594,-1.3710938 2.15625,-1.9101563 2.15625,-2.90625004 0,-1.13671875 -0.902343,-1.93359376 -2.121093,-1.93359376 -1.125,0 -1.851563,0.91406251 -1.851563,1.80468751 0,0.55078125 0.492188,0.55078125 0.527344,0.55078125 0.164062,0 0.515625,-0.1171875 0.515625,-0.52734375 0,-0.2578125 -0.1875,-0.515625 -0.527344,-0.515625 -0.08203,0 -0.105469,0 -0.128906,0.0117188 0.222656,-0.64453125 0.761719,-1.01953131 1.335937,-1.01953131 0.914063,0 1.335938,0.80859381 1.335938,1.62890631 0,0.79687499 -0.492188,1.58203119 -1.042969,2.20312499 l -1.910156,2.1328125 c -0.105469,0.1054687 -0.105469,0.1289062 -0.105469,0.3632812 h 3.691406 l 0.28125,-1.734375 h -0.257812 c -0.04687,0.3046875 -0.117188,0.7382813 -0.210938,0.890625 -0.07031,0.082031 -0.726562,0.082031 -0.949218,0.082031 z M 57.25073,-1.3533047 c 0,-0.234375 0,-0.2578125 -0.234375,-0.2578125 -0.609375,0.63281251 -1.488281,0.63281251 -1.804687,0.63281251 v 0.31640625 c 0.199219,0 0.785156,0 1.300781,-0.2578125 V 4.2365391 c 0,0.3515625 -0.03516,0.4804687 -0.925781,0.4804687 h -0.316406 v 0.3046875 c 0.351562,-0.035156 1.207031,-0.035156 1.605468,-0.035156 0.398438,0 1.265625,0 1.617188,0.035156 V 4.7170078 h -0.316406 c -0.902344,0 -0.925782,-0.1171875 -0.925782,-0.4804687 z m 0,0"
         style="fill:#000000;fill-opacity:1;fill-rule:nonzero;stroke:none" />
      <path
         id="path6"
         d="m 66.986086,-9.3279141 h 0.691406 V -27.245883 h -3.316406 v 0.691406 h 2.625 z m 0,17.241211 h -2.625 v 0.6796875 h 3.316406 V -9.3249844 h -0.691406 z m 0,0"
         style="fill:#000000;fill-opacity:1;fill-rule:nonzero;stroke:none" />
    </g>
  </g>
</svg>
