<?xml version="1.0" encoding="UTF-8" standalone="no"?>
<!-- Created with Inkscape (http://www.inkscape.org/) -->

<svg
   xmlns:dc="http://purl.org/dc/elements/1.1/"
   xmlns:cc="http://creativecommons.org/ns#"
   xmlns:rdf="http://www.w3.org/1999/02/22-rdf-syntax-ns#"
   xmlns:svg="http://www.w3.org/2000/svg"
   xmlns="http://www.w3.org/2000/svg"
   xmlns:sodipodi="http://sodipodi.sourceforge.net/DTD/sodipodi-0.dtd"
   xmlns:inkscape="http://www.inkscape.org/namespaces/inkscape"
   width="815.48053mm"
   height="309.96204mm"
   viewBox="0 0 815.48053 309.96204"
   version="1.1"
   id="svg8"
   inkscape:version="0.92.2 2405546, 2018-03-11"
   sodipodi:docname="06.svg"
   inkscape:export-filename="/home/jasper/Documents/Projects/jaspervdj/drafts/06.png"
   inkscape:export-xdpi="37.380001"
   inkscape:export-ydpi="37.380001">
  <defs
     id="defs2" />
  <sodipodi:namedview
     id="base"
     pagecolor="#ffffff"
     bordercolor="#666666"
     borderopacity="1.0"
     inkscape:pageopacity="0.0"
     inkscape:pageshadow="2"
     inkscape:zoom="0.35319565"
     inkscape:cx="1876.2464"
     inkscape:cy="996.72371"
     inkscape:document-units="mm"
     inkscape:current-layer="layer1"
     showgrid="false"
     fit-margin-top="10"
     fit-margin-left="10"
     fit-margin-right="10"
     fit-margin-bottom="10"
     inkscape:window-width="1663"
     inkscape:window-height="1051"
     inkscape:window-x="219"
     inkscape:window-y="141"
     inkscape:window-maximized="0" />
  <metadata
     id="metadata5">
    <rdf:RDF>
      <cc:Work
         rdf:about="">
        <dc:format>image/svg+xml</dc:format>
        <dc:type
           rdf:resource="http://purl.org/dc/dcmitype/StillImage" />
        <dc:title />
      </cc:Work>
    </rdf:RDF>
  </metadata>
  <g
     inkscape:label="Layer 1"
     inkscape:groupmode="layer"
     id="layer1"
     transform="translate(244.99589,-12.723546)">
    <path
       style="fill:#000000;stroke-width:0.35277778"
       d="m 408.98815,312.3136 c -0.97663,-0.22076 -2.56413,-0.87561 -3.52778,-1.45522 -0.96365,-0.57962 -2.05729,-1.21462 -2.43032,-1.41112 -1.19098,-0.62736 -3.60655,-5.16568 -3.86934,-7.26973 -0.63644,-5.0952 -0.6405,-5.45955 -0.0757,-6.81117 0.3115,-0.74557 0.56639,-1.6604 0.56639,-2.03295 0,-0.75041 0.28074,-1.1599 2.18164,-3.1821 1.25716,-1.33735 1.36681,-1.37915 3.34832,-1.27614 2.0446,0.10628 2.0501,0.1096 2.82459,1.69399 0.42683,0.87312 0.78539,2.05248 0.79686,2.62079 0.0498,2.47427 -1.6872,6.05925 -3.94794,8.14786 -1.83046,1.69109 -1.98864,2.17383 -1.05833,3.22949 1.52802,1.7339 6.50614,3.66031 9.75748,3.77592 2.36569,0.0841 3.21578,0.80216 2.65655,2.24385 -0.75321,1.94185 -3.43436,2.58278 -7.22238,1.72653 z m -4.91702,-15.48264 c 1.0825,-1.48652 1.5723,-2.49121 1.50333,-3.08378 -0.2249,-1.93269 -2.21668,-0.9723 -3.62278,1.74682 -0.61599,1.19115 -0.49579,3.54183 0.18104,3.54183 0.18303,0 1.0553,-0.99219 1.93841,-2.20487 z m -83.37709,-0.47497 c -0.61778,-0.6978 -1.12324,-1.43821 -1.12324,-1.64535 0,-0.58883 -1.16554,-3.08315 -1.44071,-3.08315 -0.27418,0 -1.42551,-2.6129 -1.62401,-3.6857 -0.0699,-0.3779 -0.3447,-0.93352 -0.61059,-1.23472 -0.26592,-0.3012 -0.47107,-1.10326 -0.45593,-1.78236 0.0152,-0.67909 -0.16447,-1.58914 -0.39917,-2.02233 -0.51022,-0.94167 -1.23349,-6.32978 -0.94915,-7.07075 0.11003,-0.28674 0.0379,-0.71669 -0.16023,-0.95545 -0.44584,-0.53722 -1.1164,-14.58312 -0.73208,-15.33534 0.41836,-0.81896 0.71853,-4.5661 0.38237,-4.77385 -0.48874,-0.30206 -0.31288,-5.21043 0.23403,-6.53116 0.2812,-0.6791 0.60163,-2.34598 0.71205,-3.70417 0.11042,-1.35819 0.35094,-2.76126 0.53449,-3.11793 0.18356,-0.35667 0.42066,-1.78542 0.52688,-3.175 0.10622,-1.38958 0.39211,-2.92339 0.63532,-3.40846 0.24317,-0.48507 0.55163,-1.91382 0.68544,-3.175 0.13381,-1.26118 0.4566,-3.24555 0.71734,-4.40972 0.2607,-1.16417 0.66153,-3.38667 0.89077,-4.93889 0.2292,-1.55222 0.58074,-3.36397 0.78122,-4.02611 0.34445,-1.13756 0.69208,-6.33822 0.70951,-10.61417 0.009,-2.21351 -0.61454,-5.66474 -1.07848,-5.96913 -0.17141,-0.11246 -0.40132,-0.89125 -0.51096,-1.73064 -0.28812,-2.20631 -2.76218,-4.58085 -6.69742,-6.42797 -1.82911,-0.85856 -1.32341,-2.48675 2.57659,-8.29602 2.57065,-3.82913 5.70618,-9.48074 5.41916,-9.76775 -0.0972,-0.0972 0.0566,-0.71228 0.34184,-1.36689 1.19764,-2.74899 1.89611,-5.50209 2.18143,-8.59854 0.10728,-1.16417 0.51351,-3.17946 0.90269,-4.47843 0.74803,-2.49675 0.92093,-4.27064 1.25212,-12.84679 0.14601,-3.782 0.0901,-5.40234 -0.19269,-5.57707 -0.24762,-0.15305 -0.3985,-1.42936 -0.3985,-3.37107 0,-1.85201 -0.14961,-3.17466 -0.36731,-3.24722 -0.202,-0.0673 -0.43191,-1.23213 -0.51089,-2.58842 -0.079,-1.35629 -0.39261,-3.062 -0.69699,-3.79048 -0.30437,-0.72849 -0.45843,-1.70296 -0.34237,-2.16549 0.12647,-0.50388 -0.0439,-1.31579 -0.42506,-2.02551 -0.34992,-0.65148 -0.81978,-2.13702 -1.04422,-3.30119 -0.82508,-4.27981 -1.91195,-7.84099 -2.99219,-9.80393 -0.19121,-0.34744 -0.26353,-0.76782 -0.16073,-0.93418 0.10284,-0.16636 -0.19649,-1.46959 -0.6652,-2.89606 -0.46866,-1.42648 -0.9646,-3.30798 -1.102,-4.1811 -0.13741,-0.87313 -0.54529,-1.96384 -0.90639,-2.4238 -0.38407,-0.48926 -0.58001,-1.14801 -0.47216,-1.5875 0.10139,-0.41316 -0.13854,-1.380082 -0.53312,-2.14871 -0.39462,-0.768629 -0.71748,-1.909039 -0.71748,-2.534243 0,-0.625203 -0.33352,-3.012574 -0.74115,-5.305269 -0.40764,-2.292696 -0.86646,-4.88291 -1.01956,-5.756035 -0.15314,-0.873125 -0.4668,-2.143125 -0.69709,-2.822223 -0.65317,-1.926272 -0.81756,-5.908487 -0.37158,-8.999942 0.22362,-1.549961 0.48574,-3.929363 0.58247,-5.287557 0.0968,-1.358195 0.40375,-3.61369 0.68224,-5.01221 0.27848,-1.398521 0.50634,-3.254467 0.50634,-4.124318 0,-0.869855 0.14386,-1.670456 0.31965,-1.779115 0.17582,-0.108659 0.23678,-0.514491 0.1355,-0.901848 -0.23036,-0.880808 0.82695,-4.371753 2.05546,-6.786749 0.17138,-0.336917 0.31161,-0.784564 0.31161,-0.994773 0,-0.210207 0.47625,-1.074403 1.05833,-1.920431 0.58209,-0.846028 1.05834,-1.688426 1.05834,-1.87199 0,-0.546079 5.10998,-5.043326 6.39642,-5.629448 0.65356,-0.297766 1.63308,-0.747751 2.17671,-0.99997 0.54363,-0.252215 2.32491,-0.709016 3.95842,-1.015107 3.4508,-0.646624 4.40178,-0.359735 4.40178,1.327943 0,1.446985 -1.51416,2.720517 -3.23455,2.720517 -3.69189,0 -9.24087,3.731866 -11.75357,7.904603 -1.75482,2.914177 -3.12219,7.086825 -2.8599,8.727217 0.15145,0.947046 0.0695,1.403809 -0.28814,1.606198 -1.74132,0.985347 -2.91176,20.209266 -1.46707,24.095314 0.32463,0.873125 0.82497,3.368283 1.11189,5.544795 0.28695,2.176512 0.83425,4.935633 1.21624,6.131373 0.38202,1.195744 0.69454,2.677273 0.69454,3.292288 0,0.615015 0.15777,1.275965 0.35056,1.468772 0.4161,0.416105 1.7459,5.265278 1.75782,6.409918 0.005,0.4392 0.16704,1.11388 0.36107,1.49931 0.19403,0.38542 0.51153,1.01611 0.70555,1.40153 0.19403,0.38543 0.35278,1.01106 0.35278,1.39029 0,0.37924 0.15875,0.78764 0.35278,0.90756 0.19403,0.11991 0.35278,0.68548 0.35278,1.25682 0,0.57133 0.3175,1.63117 0.70555,2.3552 0.38806,0.72403 0.7106,1.63627 0.71678,2.0272 0.006,0.39093 0.2443,1.01893 0.52916,1.39556 0.28487,0.37664 0.51591,1.01164 0.51344,1.41111 -0.005,0.86512 0.86882,5.0462 1.77461,8.48744 0.51209,1.94549 1.11086,6.36058 1.11196,8.19928 10e-5,0.14706 0.16654,0.46788 0.36992,0.71292 0.45991,0.55415 0.60212,2.03693 0.83707,8.72669 0.18221,5.18811 -0.41713,11.39368 -1.58429,16.40416 -0.20338,0.87313 -0.46225,2.61938 -0.57531,3.88056 -0.40069,4.47084 -2.9536,12.41361 -5.13246,15.96849 -0.56667,0.92455 -1.03032,1.90731 -1.03032,2.18392 0,0.2766 -0.87313,1.77782 -1.94028,3.33604 -1.06715,1.55821 -1.94028,3.04757 -1.94028,3.30969 0,0.26211 1.00567,1.36497 2.23478,2.4508 1.64585,1.45396 2.52906,2.59024 3.35139,4.31181 0.61415,1.28568 1.11661,2.70295 1.11661,3.1495 0,0.44655 0.26229,1.33767 0.58286,1.98028 0.51072,1.02374 0.55312,2.0676 0.34258,8.43267 -0.13215,3.99536 -0.38975,7.97867 -0.57245,8.8518 -0.1827,0.87312 -0.56536,2.77812 -0.85037,4.23333 -0.28501,1.45521 -0.85185,4.23333 -1.25966,6.17361 -0.40778,1.94028 -0.79714,3.92465 -0.86526,4.40972 -0.11765,0.83819 -1.63806,9.10978 -2.36675,12.87639 -0.41759,2.15839 -0.77139,11.02581 -0.69677,17.4625 0.0805,6.94693 1.12719,16.20922 2.04103,18.06234 0.25841,0.52395 0.46979,1.32621 0.46979,1.78282 0,0.73842 1.25568,3.78158 2.14648,5.20206 0.18252,0.29105 0.62833,1.17261 0.99067,1.95904 0.36234,0.78642 1.15407,1.92515 1.75944,2.5305 1.10183,1.10183 1.28722,1.6693 0.8865,2.71355 -0.14831,0.38654 -0.67042,0.55802 -1.69898,0.55802 -1.26115,0 -1.65407,-0.19114 -2.60809,-1.26872 z m 83.9844,-13.91274 c -0.68774,-0.27554 -0.79375,-0.57592 -0.79375,-2.24885 0,-1.06195 0.15875,-2.02894 0.35278,-2.14885 0.19403,-0.11992 0.35376,-0.48648 0.35496,-0.81457 0,-0.3281 0.21326,-1.00103 0.47124,-1.4954 0.25803,-0.49436 0.50349,-2.00249 0.54554,-3.35138 0.042,-1.3489 0.16034,-2.79241 0.26289,-3.20781 0.10252,-0.41539 0.0342,-0.84926 -0.15159,-0.96416 -0.20535,-0.12693 -0.0822,-1.14558 0.31394,-2.59612 0.35856,-1.31298 0.66008,-2.7841 0.67003,-3.26917 0.0205,-0.9934 0.92763,-2.25868 1.85173,-2.58255 0.44012,-0.15425 0.7656,0.0766 1.14653,0.81328 0.66985,1.29531 0.67758,3.39193 0.0219,5.95168 -0.47809,1.86662 -1.0274,5.69569 -1.39908,9.75231 -0.23492,2.56396 -0.77177,4.09757 -1.87717,5.36248 -0.80895,0.92571 -1.11227,1.06264 -1.76999,0.79911 z m 4.49792,-26.78374 c -0.29104,-0.19653 -0.95596,-0.35976 -1.47758,-0.36273 -1.25994,-0.007 -4.47562,-1.80217 -6.45389,-3.60254 -1.35372,-1.23201 -1.59353,-1.65132 -1.59353,-2.78629 0,-0.73482 -0.15875,-1.43415 -0.35278,-1.55407 -0.44228,-0.27333 -0.46694,-5.96694 -0.0293,-6.79576 0.17783,-0.33691 0.51572,-1.1312 0.75082,-1.76508 0.66664,-1.79729 3.76265,-4.3407 7.9594,-6.53879 2.11081,-1.10555 4.05959,-2.01009 4.3306,-2.01009 0.65458,0 1.4273,1.05458 1.44127,1.96698 0.0152,0.98278 -1.09957,1.92056 -3.95721,3.32934 -1.30948,0.64558 -2.64379,1.46425 -2.96507,1.81928 -0.32131,0.35503 -0.72255,0.64551 -0.89168,0.64551 -0.51361,0 -2.79756,2.23072 -3.32316,3.24568 -0.2776,0.53602 -0.49333,1.9783 -0.49333,3.29804 0,2.13017 0.0934,2.43265 1.01738,3.2958 1.70317,1.591 3.49349,2.86048 4.03405,2.86048 0.2818,0 0.94622,0.22509 1.47648,0.5002 1.08521,0.563 2.74069,0.43486 5.0612,-0.39176 1.46046,-0.52026 1.56964,-0.51204 2.25114,0.16947 1.07054,1.07055 0.59789,2.26257 -1.40183,3.53542 -1.80259,1.14735 -4.52029,1.72338 -5.38286,1.14091 z m 41.61638,-3.30815 c -2.5128,-1.3114 -3.80545,-3.651 -4.223,-7.64331 -0.33782,-3.22978 0.0148,-4.07473 2.38277,-5.70911 3.32698,-2.29629 6.81069,-3.13649 8.61374,-2.07743 l 1.17539,0.69038 0.0947,-1.91998 c 0.0521,-1.05598 -0.0416,-1.91997 -0.20807,-1.91997 -0.52899,0 -1.52566,-8.07988 -1.54485,-12.52361 -0.012,-2.75342 0.61404,-7.52046 1.05378,-8.0257 1.62087,-1.86214 2.12224,0.15645 2.12972,8.57396 0.004,3.79405 0.19452,7.92155 0.42482,9.17223 0.23033,1.25067 0.42153,2.63404 0.42495,3.07414 0.004,0.4401 0.1451,0.88603 0.31486,0.99095 0.16975,0.10493 0.30868,0.58828 0.30868,1.07411 0,0.74783 0.915,3.08595 2.15572,5.50844 0.17254,0.33691 0.31372,0.84727 0.31372,1.13411 0,0.28685 0.30674,0.68571 0.68167,0.88636 0.3749,0.20065 0.77033,0.64422 0.87874,0.9857 0.10837,0.3415 0.4886,0.77823 0.84494,0.97052 2.56053,1.38172 2.53834,1.37662 4.12898,0.95118 1.76103,-0.471 2.51915,-0.2967 2.81905,0.64812 0.23032,0.72574 -0.52744,2.42272 -1.40833,3.15377 -0.903,0.74944 -4.34544,0.6109 -6.18483,-0.24891 -1.49317,-0.69796 -4.22966,-3.29034 -4.22966,-4.0069 0,-0.17822 -0.13653,-0.32403 -0.30343,-0.32403 -0.1669,0 -0.3931,0.86901 -0.50274,1.93113 -0.34696,3.36186 -2.78398,5.1105 -7.13133,5.11694 -1.16417,0.002 -2.51866,-0.20666 -3.01001,-0.46309 z m 6.87056,-4.89959 c 0.57055,-0.81459 0.71131,-2.90312 0.32561,-4.83162 -0.52055,-2.60276 -4.814,-2.92799 -6.6089,-0.50063 -0.57164,0.77301 -0.59831,1.01511 -0.20158,1.82797 0.25153,0.51532 0.46863,1.08938 0.48246,1.27567 0.0138,0.1863 0.5805,0.71295 1.25921,1.17033 0.67871,0.45739 1.3613,1.05903 1.51684,1.33697 0.45871,0.81966 2.58575,0.63593 3.22636,-0.27869 z m -7.78288,-17.90699 c -0.41105,-0.16604 -1.09174,-0.85912 -1.51267,-1.54019 -0.42094,-0.68107 -0.87838,-1.28923 -1.01657,-1.35146 -0.43864,-0.19755 -3.46861,-3.96776 -3.70572,-4.61105 -0.12513,-0.33955 -0.39126,-0.61736 -0.59136,-0.61736 -0.20013,0 -0.36385,-0.22728 -0.36385,-0.50507 0,-0.27779 -0.55852,-1.1906 -1.24115,-2.02847 -6.03031,-7.40164 -6.46779,-8.00906 -6.57976,-9.13568 -0.0949,-0.95521 0.0452,-1.25491 0.75449,-1.61396 0.76902,-0.38928 1.01698,-0.33163 2.11666,0.49212 2.19664,1.64547 6.33635,6.31414 7.94837,8.96402 1.81038,2.97592 6.05924,8.06037 6.73573,8.06037 0.61199,0 -0.0814,3.25261 -0.8085,3.79236 -0.67677,0.5024 -0.71977,0.50474 -1.73567,0.0944 z m -34.97478,-4.5875 c -0.64558,-1.03374 -0.54003,-1.80694 0.44433,-3.25557 0.48507,-0.71384 0.88194,-1.46507 0.88194,-1.66939 0,-0.20432 0.15875,-0.37149 0.35278,-0.37149 0.19403,0 0.35278,-0.16545 0.35278,-0.36767 0,-0.20222 0.16302,-0.5594 0.36227,-0.79375 0.19924,-0.23434 1.25088,-1.61671 2.33694,-3.07192 1.08609,-1.4552 2.62301,-3.32052 3.41534,-4.14513 1.23466,-1.28489 1.64712,-1.49931 2.88417,-1.49931 1.74086,0 2.29017,0.47632 2.29017,1.9859 0,0.97174 -0.29552,1.36385 -2.01024,2.66714 -2.0175,1.53347 -3.65566,3.40606 -6.28004,7.17885 -2.68718,3.86303 -4.11342,4.81068 -5.03044,3.34234 z m 7.85266,-24.28398 c -3.13662,-1.48404 -5.1761,-4.49313 -5.80972,-8.57179 -0.61549,-3.96168 0.1245,-6.76115 2.43389,-9.20796 0.49851,-0.52819 1.16723,-0.96475 1.486,-0.97014 0.31881,-0.005 0.66365,-0.22881 0.76638,-0.49648 0.27795,-0.72434 3.28235,-1.62999 5.4073,-1.62999 1.77045,0 5.03848,0.84442 5.41754,1.39982 0.097,0.14214 0.52395,0.44139 0.94873,0.66499 0.95165,0.50092 1.03635,0.37621 1.82252,-2.68325 0.60674,-2.36115 0.62138,-2.38017 1.8306,-2.38017 1.1926,0 1.21824,0.0306 1.18526,1.41111 -0.0187,0.77611 -0.15289,2.70408 -0.29856,4.28437 -0.21858,2.3715 -0.12742,3.4804 0.52208,6.35 1.16498,5.14725 1.70709,5.834 5.3491,6.77656 0.78426,0.20297 1.84069,0.21392 2.64583,0.0274 1.0794,-0.25003 1.51194,-0.18478 2.22222,0.33521 2.44232,1.78801 0.10125,3.69645 -4.40055,3.58728 -2.31055,-0.056 -3.50831,-0.38522 -5.972,-1.64133 -0.96358,-0.49129 -1.07791,-0.4704 -1.94028,0.35442 -0.50398,0.48205 -1.86884,1.31613 -3.033,1.85351 -1.77663,0.82009 -2.68341,0.99529 -5.64445,1.09056 -2.89193,0.0931 -3.78213,-0.007 -4.93889,-0.55414 z m 9.19762,-4.09697 c 0.57108,-0.28489 1.57424,-1.0709 2.22924,-1.74669 1.09471,-1.12946 1.1775,-1.36823 1.02496,-2.95587 -0.19085,-1.986 -1.30789,-4.646 -1.95668,-4.6594 -0.24253,-0.005 -0.44097,-0.19003 -0.44097,-0.41118 0,-0.52681 -0.88304,-1.20846 -2.75121,-2.12376 -1.2301,-0.6027 -1.94306,-0.70876 -3.77557,-0.56166 -2.43663,0.19559 -3.09315,0.601 -3.48195,2.15017 -0.13751,0.54777 -0.66887,1.65745 -1.18085,2.46595 -1.03749,1.63833 -1.25826,2.96697 -0.6253,3.76305 0.23138,0.29104 0.72224,1.19976 1.09072,2.01937 0.36851,0.81961 0.84899,1.4943 1.06778,1.49931 0.21876,0.005 0.58184,0.23088 0.80681,0.50195 0.59083,0.71192 6.59525,0.75606 7.99302,0.0588 z M 0.83606611,197.66268 c -1.93912421,-0.90652 -5.34271021,-4.4056 -5.71105611,-5.8713 -0.1219024,-0.48507 -0.6027808,-1.38554 -1.0686169,-2.00106 -0.6977168,-0.92189 -0.8796267,-1.66792 -1.0322595,-4.23333 -0.2699703,-4.53756 0.085799,-7.18023 1.1302753,-8.39577 0.4734525,-0.55099 0.8608237,-1.17151 0.8608237,-1.37894 0,-0.56588 2.5069025,-2.68407 3.4596247,-2.92319 0.4579797,-0.11495 1.63963712,-0.11343 2.6259015,0.004 2.3559348,0.27903 3.6317803,1.4597 3.9628129,3.66719 0.1325492,0.8839 0.4089294,1.87599 0.6141791,2.20465 1.2318012,1.97243 -1.756403,6.22016 -5.37085137,7.63466 -0.29104168,0.1139 -1.19179273,0.50256 -2.00167173,0.86368 l -1.4725051,0.6566 0.6497179,1.34475 c 1.3979878,2.89337 4.1206668,4.67391 7.1472251,4.67391 H 6.511093 l 0.5447983,-1.4993 c 0.560197,-1.54169 1.7183453,-2.16892 2.5216027,-1.36566 0.507725,0.50772 0.3560163,3.34998 -0.2571362,4.81747 -1.0985394,2.62917 -4.9604437,3.44947 -8.48429169,1.80212 z M -1.4569895,182.79555 c 0.2415434,-0.29104 0.68998748,-0.52917 0.99654079,-0.52917 0.30655332,0 1.08086529,-0.50739 1.72069131,-1.12753 1.2343801,-1.19641 1.5914406,-3.03498 0.7223513,-3.71952 -0.751907,-0.59223 -2.36349122,-0.83172 -3.0661999,-0.45564 -0.9450776,0.50579 -2.8004241,4.07608 -2.7650335,5.32083 0.025294,0.89006 0.1683456,1.0402 0.9910304,1.0402 0.5287963,0 1.1590762,-0.23813 1.4006196,-0.52917 z m 1.21865322,-16.20279 c -0.47293038,-0.72178 -0.52883508,-1.62607 -0.35439704,-5.73264 0.11390842,-2.68162 0.28973992,-6.84424 0.39073315,-9.25026 0.15281275,-3.64045 0.30375579,-4.54328 0.89945283,-5.37986 0.87433154,-1.22788 1.47119624,-1.27049 2.20073014,-0.15708 0.4618214,0.70483 0.5342502,1.79311 0.4284945,6.43819 -0.2099592,9.22197 -0.5725866,13.62654 -1.1790645,14.32125 -0.7556253,0.86555 -1.72565137,0.76814 -2.38594908,-0.2396 z M 1.3274362,141.72549 c -4.6175473,-2.49268 -6.3161053,-4.80938 -6.3068908,-8.60208 0.00758,-3.11557 0.6357973,-4.54937 3.2655758,-7.45297 2.16304293,-2.38826 2.5064086,-2.62115 5.1553817,-3.49664 1.5608936,-0.51589 3.1554457,-0.93797 3.5434483,-0.93797 1.3685662,0 1.9564986,2.59932 0.8184762,3.61859 -0.3395486,0.30411 -1.5104921,0.71656 -2.602096,0.91656 -2.0599012,0.37739 -2.8362029,0.92441 -5.32907537,3.75513 -0.79027164,0.89737 -1.33149983,1.94242 -1.48662323,2.8705 -0.2180237,1.3044 -0.1273987,1.59212 0.85332007,2.70909 1.79990053,2.04998 4.63143613,3.42567 7.35554393,3.57366 0.4507441,0.0245 0.8966764,-0.0803 0.9909563,-0.23284 0.09428,-0.15254 0.8004528,-0.27736 1.5692756,-0.27736 1.1546133,0 1.4689033,0.15595 1.8061693,0.89616 1.001995,2.19914 -0.655257,3.4433 -5.0057157,3.75798 -2.110158,0.15264 -2.4691235,0.0675 -4.6277461,-1.09781 z m 49.5688358,0.78473 c -0.346379,-0.25327 -0.882672,-0.4605 -1.191765,-0.4605 -0.737736,0 -4.242051,-3.55832 -4.242051,-4.30742 0,-0.31959 -0.246425,-0.8275 -0.547613,-1.12869 -0.445583,-0.44558 -0.478815,-0.79534 -0.178357,-1.87728 0.203094,-0.73132 0.370145,-1.79342 0.371224,-2.36022 0.0011,-0.56681 0.2197,-1.28118 0.48581,-1.5875 0.266115,-0.30632 0.747741,-1.3507 1.070282,-2.32084 1.099454,-3.30693 2.820808,-4.6146 5.63849,-4.28344 2.549966,0.2997 4.145654,1.02253 5.392699,2.44283 1.644378,1.87284 1.714451,1.81906 1.576878,-1.21036 -0.159597,-3.51439 0.571528,-10.88296 1.149911,-11.5893 0.393241,-0.48024 0.774569,-1.60088 2.483407,-7.29823 0.301915,-1.0066 0.548937,-2.08209 0.548937,-2.38999 0,-0.76856 1.694356,-1.39199 2.335967,-0.8595 0.551237,0.45748 0.659395,3.17274 0.163883,4.11431 -0.271734,0.51635 -0.984624,3.4815 -1.292292,5.37507 -0.200565,1.23441 -0.480924,2.12099 -0.913112,2.88753 -1.00631,1.78482 -0.459211,14.88037 0.756288,18.10275 0.146378,0.38806 0.407631,1.18181 0.580563,1.76389 0.210665,0.70908 0.924715,1.46029 2.163787,2.27638 1.579845,1.04054 1.84936,1.3796 1.84936,2.32658 0,1.31083 -0.92626,2.27621 -2.183987,2.27621 -1.035646,0 -4.162478,-2.38364 -4.16494,-3.175 -0.0028,-0.88128 -1.303871,-4.02084 -1.724456,-4.16104 -0.428304,-0.14277 -0.434248,-0.1248 -0.566469,1.711 -0.165979,2.3045 -1.929398,4.56598 -4.236537,5.4331 -1.572165,0.59088 -4.687895,0.76619 -5.325907,0.29966 z m 5.094421,-4.72697 c 0.589273,-0.46685 1.211026,-1.23931 1.381676,-1.71658 0.391156,-1.094 -0.343285,-4.4128 -1.243316,-5.6183 -1.290761,-1.72882 -4.508246,-2.812 -5.476554,-1.84369 -0.220818,0.22081 -0.434263,1.55035 -0.474321,2.95451 -0.06722,2.35645 -0.142924,2.58847 -0.983163,3.01325 -0.500687,0.25312 -0.910336,0.64695 -0.910336,0.87518 0,0.22823 0.746142,1.10984 1.658091,1.95913 1.562061,1.45474 1.754191,1.53494 3.317303,1.38474 1.033346,-0.0993 2.063355,-0.47961 2.73062,-1.00824 z M 214.32131,134.7018 c -0.32113,-0.35483 -0.58385,-1.20247 -0.58385,-1.88365 0,-0.96454 0.18704,-1.32374 0.84557,-1.62379 0.46511,-0.2119 1.29854,-0.98968 1.85209,-1.7284 0.55358,-0.73872 2.47484,-2.85302 4.26949,-4.69844 1.79462,-1.84541 3.26305,-3.53676 3.2632,-3.75853 1e-4,-0.22178 0.19865,-0.48189 0.44118,-0.57803 0.24253,-0.0961 0.71843,-0.65294 1.05756,-1.23736 l 0.61655,-1.06256 -1.4985,0.11581 c -0.82419,0.0637 -4.51478,0.23332 -8.2013,0.37695 -3.68653,0.14363 -7.33778,0.30429 -8.11389,0.35702 -0.77612,0.0527 -6.96737,0.17282 -13.75834,0.26686 -6.79097,0.094 -12.58535,0.25315 -12.87639,0.35356 -0.29104,0.10041 -2.51354,0.27586 -4.93889,0.38987 -2.42534,0.11402 -5.04472,0.35757 -5.82083,0.54121 -0.77611,0.18365 -2.32392,0.33769 -3.43958,0.34232 l -2.02848,0.008 v -1.6055 c 0,-1.47932 0.0901,-1.6426 1.14653,-2.07753 0.63059,-0.25961 2.01966,-0.58678 3.08681,-0.72705 1.06715,-0.14027 2.10132,-0.38441 2.29817,-0.54254 0.83647,-0.67201 12.52929,-1.33679 24.51294,-1.39367 4.75368,-0.0226 9.11931,-0.1784 9.70139,-0.34631 1.25391,-0.3617 13.15381,-0.81909 19.9971,-0.76862 l 4.82766,0.0356 1.35647,-1.13789 c 1.71143,-1.43563 7.15627,-7.01647 7.15627,-7.33499 0,-0.13109 0.55453,-0.61599 1.23232,-1.07756 1.02673,-0.69923 1.23272,-1.05314 1.23473,-2.12157 0.004,-1.01364 -0.20088,-1.41331 -0.96774,-1.907369 -0.53358,-0.343761 -3.51046,-3.223426 -6.61529,-6.399251 -5.36501,-5.487705 -5.69941,-5.763376 -6.73887,-5.555481 -0.90473,0.180947 -1.22061,0.05747 -1.82788,-0.714579 -0.40379,-0.513331 -0.79386,-1.11246 -0.86685,-1.331398 -0.31055,-0.931668 -28.28124,-0.286575 -35.72125,0.823846 -1.3582,0.202713 -4.05695,0.586225 -5.99723,0.852254 -1.94027,0.266027 -4.79777,0.722934 -6.35,1.015348 -1.55222,0.29241 -3.1194,0.487154 -3.48262,0.432759 -1.69743,-0.254197 -1.83847,-3.558473 -0.18584,-4.353937 0.98827,-0.475696 3.86327,-1.05628 12.84069,-2.59309 3.93633,-0.673847 11.35309,-1.056661 29.98611,-1.54772 5.8771,-0.154884 5.81508,-0.145884 5.58465,-0.810564 -0.26843,-0.774149 -3.29491,-3.615972 -3.85096,-3.615972 -0.22691,0 -0.63045,-0.263387 -0.89676,-0.585308 -0.26628,-0.321916 -1.24178,-0.936751 -2.16779,-1.366301 -1.56629,-0.726553 -3.07886,-2.033167 -3.07886,-2.659627 0,-0.748174 0.53805,-1.473898 1.31053,-1.767589 0.9955,-0.378495 4.50645,0.495056 4.94707,1.23087 0.14782,0.246881 1.02458,0.887264 1.94832,1.423074 0.92375,0.535813 3.22563,2.643127 5.11528,4.68292 1.88966,2.039793 3.77677,3.839245 4.19354,3.998778 0.41681,0.159537 1.13118,1.047256 1.5875,1.972709 0.45636,0.925456 2.02033,2.893779 3.47553,4.374052 1.45521,1.480274 3.77282,3.86847 5.15024,5.307108 3.29403,3.440384 4.85691,4.798159 6.23761,5.418942 1.90863,0.858163 2.32861,1.381065 2.42531,3.019726 0.0849,1.43975 -0.01,1.61863 -1.48135,2.79647 -1.70067,1.36128 -5.8257,5.48268 -12.5082,12.49724 -2.32833,2.44403 -4.39208,4.45016 -4.58611,4.45807 -0.35888,0.0146 -2.64583,2.59947 -2.64583,2.99048 0,0.61011 -10.73633,11.47505 -11.3392,11.47505 -0.30024,0 -0.80863,-0.29031 -1.12973,-0.64514 z M 44.051345,121.68479 c -1.052346,-0.19152 -2.116666,-1.0725 -2.116666,-1.75205 0,-0.66187 -2.29615,-5.67082 -4.119792,-8.98714 -1.35713,-2.46797 -2.16698,-4.70775 -2.912209,-8.05421 -0.151226,-0.6791 -0.562755,-1.79035 -0.914503,-2.46945 -1.095198,-2.114424 -1.225719,-2.441887 -1.225719,-3.075197 0,-0.338434 -0.303922,-1.412148 -0.675379,-2.386037 -0.655288,-1.718028 -0.924694,-2.655637 -1.826532,-6.356819 -0.236385,-0.970139 -0.550358,-1.922639 -0.697709,-2.116667 -0.409075,-0.538642 -0.747226,-3.292333 -0.499964,-4.07138 0.27619,-0.870197 1.628055,-0.912085 2.380336,-0.07376 0.304694,0.339548 0.669325,1.252361 0.810285,2.028472 0.140959,0.776111 0.471893,1.724247 0.735404,2.106968 0.263514,0.382719 0.479115,0.97861 0.479115,1.324194 0,0.345588 0.3175,1.220724 0.705555,1.944755 0.388056,0.724027 0.705556,1.663086 0.705556,2.086797 0,0.42371 0.226141,1.219813 0.502535,1.769113 0.276391,0.5493 0.688739,1.713103 0.916326,2.586228 0.227588,0.873125 0.544125,1.842428 0.703418,2.154008 0.159293,0.311577 0.87025,2.295955 1.579901,4.409725 1.326762,3.95189 1.650986,4.69934 3.350384,7.72377 1.70845,3.04054 4.274654,8.42685 4.468481,9.37906 0.174103,0.85534 -0.612581,2.16158 -1.227494,2.03817 -0.13166,-0.0264 -0.636259,-0.12027 -1.121329,-0.20855 z m 496.581375,-3.72093 c -0.89126,-0.65401 -0.5062,-3.04178 0.66848,-4.14533 0.73152,-0.68723 1.07671,-0.76038 2.62131,-0.55548 0.97836,0.12978 1.77885,0.10042 1.77885,-0.0653 0,-0.16568 1.30969,-0.31196 2.91042,-0.32509 1.60073,-0.0131 4.02717,-0.0418 5.39214,-0.0637 l 2.48168,-0.0399 0.0781,-20.988689 c 0.0551,-14.812045 -0.0401,-21.430385 -0.32364,-22.489583 -0.39253,-1.466472 -0.5347,-3.141609 -1.3402,-15.788389 -0.21629,-3.395486 -0.55774,-7.919861 -0.75879,-10.054166 -0.20108,-2.134306 -0.49498,-5.388681 -0.65317,-7.231945 -0.47942,-5.587294 -0.83971,-6.397842 -2.81192,-6.326306 -1.89198,0.06863 -10.58944,-0.419829 -12.17034,-0.683496 -1.8445,-0.307631 -2.2933,-1.066484 -1.55116,-2.622783 0.7541,-1.581321 1.42822,-1.673896 10.50759,-1.442938 7.62067,0.193852 8.46988,0.388074 8.46988,1.937158 0,0.346532 0.13606,0.714149 0.30236,0.816925 0.39681,0.245247 0.75308,3.301745 0.96989,8.32144 0.0964,2.23132 0.31482,4.533195 0.48543,5.115278 0.55407,1.890557 0.82267,5.781033 1.18741,17.197271 0.0293,0.921275 0.13914,1.675338 0.24381,1.675694 0.10467,3.53e-4 0.22891,0.992833 0.27612,2.205507 0.0472,1.212673 0.22867,2.760486 0.40333,3.439583 0.17466,0.679097 0.34819,2.980972 0.38562,5.115278 0.0514,2.933297 0.26772,34.224281 0.2987,43.215281 0.009,2.53039 -1.49635,2.98218 -11.60823,3.48457 -3.39548,0.16869 -6.49111,0.41378 -6.87917,0.54463 -0.40417,0.13629 -0.98703,0.0314 -1.36447,-0.24562 z m -169.09458,-3.16622 c -0.15695,-0.24254 -0.31513,-2.98098 -0.35147,-6.08542 -0.11088,-9.47438 -0.51033,-16.753917 -0.98143,-17.886577 -0.13733,-0.33026 -0.1385,-0.780451 -0.004,-1.000425 0.13593,-0.219975 0.30364,-6.458515 0.37268,-13.863422 0.17864,-19.165524 0.47209,-30.098445 0.83326,-31.04843 0.19554,-0.514354 0.13963,-1.865006 -0.14954,-3.612695 -0.25404,-1.535176 -0.55288,-5.126394 -0.66411,-7.98049 -0.22045,-5.682635 -0.0526,-6.276015 1.77603,-6.276015 0.48976,0 1.31589,-0.302925 1.83585,-0.673168 1.0879,-0.774653 0.67938,-0.742774 9.2177,-0.719315 4.57729,0.01258 6.65346,0.144169 6.95184,0.440625 0.74538,0.740565 0.68315,2.981321 -0.10319,3.713896 -0.76927,0.716691 -2.61532,1.21219 -2.61532,0.701982 0,-0.182526 -2.79795,-0.268392 -6.54833,-0.200964 -7.17042,0.128916 -7.3726,0.192578 -7.00493,2.20573 0.2842,1.556125 0.28031,17.277701 -0.006,25.22288 -0.23389,6.486476 -0.2806,26.961073 -0.10241,44.923928 l 0.0799,8.05864 2.64583,-0.24613 c 1.45521,-0.13537 2.92439,-0.39431 3.26485,-0.57541 0.34043,-0.1811 1.45168,-0.40494 2.46945,-0.49742 2.5849,-0.23488 3.65654,-0.45868 6.07,-1.26763 2.0018,-0.67098 2.12478,-0.67497 2.55764,-0.083 0.75416,1.03139 0.5588,3.02781 -0.39716,4.0588 -0.69854,0.75332 -1.3813,0.99339 -3.79236,1.33342 -1.61728,0.22808 -3.8136,0.56305 -4.88075,0.74438 -6.15167,1.04528 -10.04669,1.27294 -10.47433,0.61223 z M 9.8278181,114.35175 c -0.6106831,-0.73583 -0.1989878,-3.45715 0.6778489,-4.4806 0.379864,-0.44338 1.359355,-2.07615 2.176642,-3.62837 0.817291,-1.55223 1.859672,-3.31346 2.316399,-3.91386 0.456727,-0.6004 0.830414,-1.43539 0.830414,-1.85554 0,-0.42014 0.3175,-1.035751 0.705556,-1.368015 0.388055,-0.332264 0.705555,-0.930388 0.705555,-1.329161 0,-0.398776 0.213307,-1.038186 0.474017,-1.420904 0.959683,-1.408822 2.700983,-4.810643 2.700983,-5.276677 0,-0.264227 0.555625,-1.208324 1.234723,-2.097991 0.679097,-0.889663 1.234722,-1.75056 1.234722,-1.913099 0,-0.517906 1.139472,-2.601729 1.76439,-3.226647 0.331614,-0.331614 1.017944,-0.707097 1.525175,-0.834404 0.735478,-0.184591 1.038034,-0.05474 1.494059,0.641244 0.539966,0.824096 0.520916,0.980317 -0.342014,2.804396 -0.502606,1.062426 -0.913832,2.12972 -0.913832,2.371764 0,0.242045 -0.303237,0.767814 -0.673862,1.168376 -0.559728,0.604939 -3.580899,5.87528 -4.057562,7.078291 -0.612105,1.544846 -1.261922,2.704377 -2.025086,3.613537 -0.286141,0.34089 -1.053775,1.81042 -1.705857,3.26563 -1.165648,2.60131 -2.562172,5.00472 -3.454869,5.94583 -0.249259,0.26278 -0.783393,1.1359 -1.18696,1.94028 -0.855084,1.70432 -2.007835,3.05 -2.612714,3.05 -0.233462,0 -0.623941,-0.24034 -0.8677279,-0.53408 z m 98.3020519,-0.0673 c -0.0419,-0.0397 -3.24513,-0.24593 -7.11832,-0.45827 -7.537165,-0.41322 -7.670022,-0.45229 -8.158936,-2.39947 -0.139101,-0.55399 0.0405,-1.07378 0.563351,-1.63033 0.716209,-0.76238 0.984638,-0.80783 4.011894,-0.67923 1.784386,0.0758 4.890731,0.31149 6.902981,0.52375 3.00888,0.31738 3.71112,0.30105 3.954,-0.092 0.4191,-0.67808 0.65903,-3.22153 0.87768,-9.3034 0.24211,-6.735068 0.44305,-9.617685 0.88526,-12.699996 0.44326,-3.089709 0.9857,-7.566 1.19701,-9.877778 0.0887,-0.970139 0.31175,-2.795764 0.49576,-4.056944 0.18401,-1.261181 0.34964,-3.297661 0.36809,-4.525515 0.0183,-1.227853 0.18312,-2.511943 0.36593,-2.853531 0.33966,-0.634682 0.45868,-2.06218 1.04673,-12.552898 0.18489,-3.298472 0.35119,-6.235347 0.36957,-6.526389 0.0183,-0.291041 0.0992,-3.148541 0.17956,-6.35 0.0804,-3.201458 0.32202,-7.465863 0.53686,-9.476455 0.21488,-2.010592 0.3024,-3.743897 0.19452,-3.851789 -0.49135,-0.491327 -6.30989,-0.408106 -9.68639,0.138541 -3.53318,0.572003 -3.68847,0.569957 -4.14514,-0.05461 -1.415276,-1.935484 0.0569,-3.911736 3.07721,-4.130938 1.08031,-0.0784 2.14104,-0.251856 2.35722,-0.385449 0.53654,-0.331597 7.39595,-0.44926 7.71289,-0.132303 0.13977,0.139762 0.99593,0.254113 1.9026,0.254113 1.36871,0 1.70893,0.134692 2.00484,0.79375 0.19604,0.436563 0.32713,1.190625 0.29136,1.675694 -0.32562,4.414308 -0.84554,15.631858 -1.0547,22.754166 -0.0513,1.74625 -0.20959,3.863196 -0.35176,4.704324 -0.1422,0.841128 -0.39839,4.016128 -0.56931,7.055555 -0.3265,5.80578 -0.41914,6.759441 -0.97042,9.989523 -0.18715,1.096617 -0.45353,4.350992 -0.592,7.231945 -0.13843,2.880952 -0.3363,5.379688 -0.43967,5.552746 -0.10336,0.173056 -0.3121,1.443056 -0.46386,2.822223 -0.15173,1.379163 -0.44567,3.856947 -0.65317,5.506183 -0.20754,1.649236 -0.46129,6.094236 -0.56395,9.877782 -0.18768,6.9179 -0.56081,10.77494 -1.20671,12.47376 -0.30579,0.80434 -0.52712,0.90736 -1.79681,0.83637 -0.79639,-0.0445 -1.4823,-0.11346 -1.52417,-0.15317 z m -226.5118,-6.21569 c -0.64427,-0.47411 -0.69457,-1.12553 -0.85267,-11.042695 -0.27678,-17.361619 -0.10673,-26.834076 0.64623,-35.996067 0.22155,-2.695886 0.24999,-5.270091 0.0703,-6.360192 -0.19565,-1.186646 -0.16641,-2.24221 0.0831,-2.998611 0.21175,-0.642024 0.36083,-2.357942 0.33129,-3.81315 -0.13814,-6.804494 -0.12312,-15.882668 0.0291,-17.610052 0.0927,-1.051293 0.3835,-2.126468 0.64632,-2.389279 0.34618,-0.346182 2.46471,-0.570667 7.68915,-0.814761 9.33582,-0.436185 9.01079,-0.442977 9.65556,0.201791 0.780887,0.780883 0.705223,2.727538 -0.13559,3.488461 -0.59015,0.534079 -1.57248,0.644086 -6.79097,0.760494 -3.35556,0.07485 -6.53758,0.313985 -7.07116,0.531408 -0.84498,0.344314 -0.97854,0.605976 -1.03533,2.028209 -0.0855,2.14219 -0.032,5.363108 0.16506,9.923173 0.088,2.037292 0.0203,4.815417 -0.15055,6.173611 -0.17082,1.358195 -0.3903,4.050383 -0.48775,5.982638 -0.0974,1.93226 -0.33676,5.333838 -0.53183,7.559065 -0.19508,2.225227 -0.33157,8.978667 -0.30332,15.007639 0.0283,6.028972 0.0456,11.517393 0.0386,12.19649 -0.0504,4.863307 0.0215,8.306255 0.22113,10.583338 l 0.23196,2.64583 4.80748,-0.0582 c 4.67273,-0.0566 4.8685,-0.0899 6.98499,-1.19146 l 2.17752,-1.13327 0.86431,0.81198 c 0.52857,0.49656 0.86431,1.206 0.86431,1.82633 0,1.39223 -0.92121,3.05809 -1.6735,3.02624 -0.34075,-0.0144 -2.20705,0.14864 -4.14733,0.36237 -6.69419,0.73737 -11.56963,0.85549 -12.32633,0.29865 z m -96.9104,-22.25695 c -1.627,-1.245556 -1.71115,-2.811088 -1.22883,-22.860878 0.10603,-4.407732 0.055,-8.099184 -0.1133,-8.203226 -0.60916,-0.376481 -1.30934,0.232682 -3.72855,3.243848 -3.33594,4.152198 -12.19442,13.14818 -12.94812,13.14909 -0.65987,7.97e-4 -1.68476,-1.671684 -1.68476,-2.749293 0,-0.695388 1.02495,-1.836085 1.64978,-1.836085 0.19772,0 1.21709,-0.932134 2.26527,-2.071405 1.04819,-1.139274 3.24099,-3.520478 4.8729,-5.291567 1.63191,-1.771086 3.27831,-3.736143 3.65866,-4.366786 0.38036,-0.630647 0.9113,-1.27405 1.17989,-1.429787 0.94027,-0.545197 2.15214,-1.842738 2.7009,-2.891843 0.61642,-1.178465 3.94564,-4.7625 4.42389,-4.7625 0.16832,0 0.57881,0.301421 0.91221,0.669819 0.71756,0.792893 0.78943,2.286025 0.41777,8.678792 -0.46796,8.049168 -0.58236,24.553633 -0.18543,26.754105 0.47682,2.643406 0.19511,3.989888 -0.87768,4.194962 -0.44792,0.08563 -1.03949,-0.01662 -1.3146,-0.227246 z m 131.990893,0.09964 c -0.485069,-0.212206 -1.465633,-0.624903 -2.17903,-0.917105 -0.713398,-0.292203 -1.683128,-0.948969 -2.154954,-1.459484 -1.000513,-1.082552 -3.274346,-6.639881 -3.555316,-8.689319 -0.106405,-0.776111 -0.366416,-2.442986 -0.577804,-3.704167 -0.639928,-3.817909 -0.729855,-12.550622 -0.15621,-15.169444 0.548051,-2.501974 0.793725,-3.920165 1.100018,-6.349999 0.225298,-1.787317 1.976402,-7.345176 2.858488,-9.072612 0.701276,-1.373346 4.718088,-5.37748 6.428697,-6.408404 0.841005,-0.506845 1.829753,-0.744545 3.100776,-0.745443 1.715213,-0.0012 1.978992,0.1139 3.263195,1.424045 0.768427,0.783949 1.397141,1.708171 1.397141,2.053822 0,0.345652 0.261489,1.395886 0.581085,2.333848 0.476162,1.397462 0.54133,2.539453 0.360913,6.324649 -0.121095,2.540592 -0.389792,5.254261 -0.597098,6.030372 -0.458209,1.715421 -3.062827,6.904299 -3.738224,7.447224 -0.267977,0.21542 -0.487232,0.523278 -0.487232,0.684131 0,0.359332 -4.59432,4.745034 -4.970745,4.745034 -0.148787,0 -0.480303,0.204921 -0.736695,0.45538 -0.256395,0.250461 -1.111095,0.771443 -1.899335,1.157739 -1.116185,0.547013 -1.734805,0.639681 -2.797009,0.41899 -1.720211,-0.357406 -2.154527,0.02981 -1.651607,1.47248 0.208721,0.598731 0.478953,2.079199 0.600523,3.289925 0.382232,3.80674 2.359011,8.618816 4.046534,9.850483 1.190643,0.869008 4.463193,1.514432 6.111188,1.205265 1.774169,-0.332835 4.824924,-3.200541 4.824924,-4.53542 0,-0.509291 0.139689,-1.012314 0.31042,-1.11783 0.436809,-0.269963 1.349773,-3.222243 1.644491,-5.317846 0.296478,-2.108126 0.983142,-2.998611 2.312279,-2.998611 0.540561,0 1.069826,-0.140754 1.17615,-0.312787 0.246662,-0.399111 2.322139,-0.810517 4.705424,-0.932719 2.057792,-0.105513 2.551236,0.319182 2.551236,2.195787 0,1.53143 -1.003709,2.062198 -4.7625,2.518442 -2.566183,0.311485 -2.998611,0.552626 -2.998611,1.672163 0,0.47625 -0.147292,1.141568 -0.327318,1.478485 -0.180026,0.336917 -0.589576,1.474907 -0.910114,2.528866 -0.940004,3.090841 -2.516469,5.17967 -5.253252,6.960602 -2.064692,1.343575 -2.76012,1.605378 -4.586112,1.726508 -1.183802,0.07853 -2.549246,-0.03083 -3.034316,-0.24305 z m -3.536276,-23.425054 c 0.674423,-0.245191 1.626923,-0.819062 2.116667,-1.27527 0.489744,-0.456209 1.226679,-1.067597 1.63763,-1.358639 1.675652,-1.186713 4.698033,-5.205225 5.448561,-7.24432 0.425986,-1.157361 0.971077,-2.342416 1.211308,-2.633458 0.240231,-0.291041 0.537489,-1.909501 0.660573,-3.59658 0.286681,-3.929556 -0.364751,-6.743699 -1.879536,-8.11943 -1.027797,-0.93345 -1.084132,-0.943258 -2.358891,-0.41063 -0.718274,0.300115 -1.635556,0.967927 -2.03841,1.48403 -0.402852,0.516107 -1.248396,1.414163 -1.878987,1.995689 -0.63059,0.581522 -1.146528,1.237414 -1.146528,1.457533 0,0.220119 -0.219233,0.582168 -0.487182,0.804545 -0.717014,0.595069 -2.551885,6.810269 -3.030587,10.265399 -0.745003,5.377243 -1.069781,8.884489 -0.854915,9.232152 0.115895,0.187522 0.472472,0.229309 0.792396,0.09286 0.319923,-0.136443 1.133478,-0.448694 1.807901,-0.693882 z M -197.72972,85.028005 c -1.00335,-1.003346 -1.26159,-2.83064 -0.50672,-3.585507 0.62369,-0.62369 2.21028,-0.514717 2.82496,0.194028 0.29448,0.339549 0.63562,1.14832 0.75808,1.797272 0.18019,0.954786 0.0716,1.305917 -0.56893,1.840347 -1.0593,0.883768 -1.41212,0.849132 -2.50739,-0.24614 z m 612.70186,-0.960128 c -1.19651,-0.578223 -1.66313,-1.140601 -2.79661,-3.370668 -0.74827,-1.472162 -1.80855,-3.255126 -2.3562,-3.962142 -0.54769,-0.70702 -0.99575,-1.69091 -0.99575,-2.186425 0,-0.838119 -0.12915,-0.908374 -1.85208,-1.007568 -1.81138,-0.104289 -1.85456,-0.132158 -1.96374,-1.26806 -0.0858,-0.892609 0.14259,-1.451021 0.98689,-2.412626 0.92128,-1.049271 1.06666,-1.452055 0.90079,-2.495712 -0.10876,-0.684481 -0.2661,-1.355073 -0.34961,-1.490208 -0.12474,-0.201838 -0.24084,-7.119775 -0.16319,-9.726136 0.0116,-0.388055 0.23315,-1.340555 0.49244,-2.116666 0.25929,-0.776111 0.54952,-2.078366 0.64502,-2.893896 0.0955,-0.815534 0.49213,-1.930132 0.88145,-2.476881 0.44351,-0.6229 0.64354,-1.330463 0.53562,-1.894914 -0.12012,-0.628449 0.10333,-1.22826 0.73907,-1.983768 0.50116,-0.59562 0.91123,-1.176959 0.91123,-1.291858 0,-0.358617 2.62466,-2.668249 3.04362,-2.678303 0.21876,-0.0053 0.59539,-0.247672 0.83693,-0.538713 0.514,-0.619344 2.88668,-0.708293 3.93453,-0.147504 1.25896,0.673778 2.74723,2.585547 2.75792,3.542732 0.006,0.509182 0.24468,1.589966 0.53107,2.401736 0.39842,1.129199 0.47519,2.486417 0.32674,5.776993 -0.21618,4.792356 -0.30265,5.04323 -4.52184,13.120487 -0.50676,0.970138 -2.00942,2.878042 -3.33925,4.239785 l -2.41787,2.475893 1.27353,2.639385 c 0.70044,1.451659 1.47292,2.84892 1.71658,3.105023 0.2437,0.256102 0.53213,0.820388 0.64096,1.253969 0.23908,0.95261 2.2962,2.137297 3.20566,1.846115 0.92632,-0.296588 2.94753,-3.397684 2.94753,-4.522329 0,-0.518121 0.15875,-1.040148 0.35278,-1.160064 0.19403,-0.119916 0.35278,-0.695346 0.35278,-1.278735 0,-2.124883 1.30926,-3.519674 4.07758,-4.343957 3.10557,-0.924698 5.60796,0.312833 4.62389,2.286691 -0.50641,1.015711 -1.80615,1.736122 -3.14522,1.743301 -1.15214,0.0062 -2.38125,1.118898 -2.38125,2.155765 0,1.717396 -1.13052,4.472672 -2.46539,6.008578 -2.94933,3.393556 -5.01033,4.079296 -7.96661,2.65068 z m -1.92757,-19.171086 c 2.06456,-2.521497 4.65613,-7.447587 5.62327,-10.688736 0.55376,-1.855668 0.54275,-6.37273 -0.018,-7.408993 -1.21599,-2.247022 -1.60535,-2.567549 -2.83457,-2.333445 -1.47701,0.281284 -3.78456,2.438174 -4.05497,3.790198 -0.1131,0.565418 -0.34385,1.113473 -0.51283,1.217902 -0.16895,0.104426 -0.3072,0.552521 -0.3072,0.995765 0,0.44324 -0.32713,1.743561 -0.727,2.889595 -0.63656,1.824514 -0.71547,2.785795 -0.63423,7.728144 0.11907,7.246458 0.39928,7.554478 3.46555,3.80957 z m 52.92411,19.46784 c -1.07354,-1.293513 0.47353,-7.921417 2.60551,-11.162616 0.68167,-1.03633 1.34348,-2.314289 1.47069,-2.839907 0.12718,-0.525617 0.45382,-1.140368 0.72581,-1.366114 0.27203,-0.225742 0.49456,-0.601458 0.49456,-0.834919 0,-0.233461 0.404,-0.804023 0.89778,-1.267915 0.68802,-0.646342 1.03212,-0.758719 1.47257,-0.480903 1.37385,0.866623 0.85555,3.009339 -2.38136,9.844408 -1.32168,2.790892 -1.89473,4.36783 -2.2788,6.27078 -0.22151,1.097633 -1.33735,2.372275 -2.07673,2.372275 -0.26727,0 -0.6858,-0.240788 -0.93003,-0.535089 z m 50.52268,-1.652133 c -0.23283,-0.232833 -0.42524,-0.748771 -0.42757,-1.146528 -0.008,-1.303834 1.83275,-8.455042 2.51358,-9.767058 0.36611,-0.705516 0.66566,-1.588512 0.66566,-1.962213 0,-0.798015 1.24608,-3.490567 1.76336,-3.810251 0.19656,-0.1215 0.92519,-0.01559 1.61914,0.235335 1.20597,0.436086 1.25497,0.51888 1.10917,1.874174 -0.14344,1.333578 -1.36165,5.177868 -2.11833,6.68479 -0.59601,1.186938 -2.02057,5.590896 -2.02057,6.246466 0,0.766481 -1.32983,2.068619 -2.11264,2.068619 -0.31267,0 -0.75897,-0.1905 -0.9918,-0.423334 z M 22.646616,79.369135 c -2.113103,-0.291694 -5.98328,-4.487569 -6.771142,-7.340974 -0.190313,-0.68926 -0.279923,-1.766065 -0.199133,-2.392902 0.08079,-0.626836 0.225873,-2.428215 0.322404,-4.003061 0.186827,-3.048 0.896348,-5.093359 2.225375,-6.415186 1.322116,-1.314951 3.180405,-2.186735 4.661228,-2.186735 1.627558,0 4.644771,1.255726 6.223868,2.590292 1.586964,1.341218 2.242129,1.23765 2.242129,-0.354436 0,-1.63775 1.537053,-4.352523 2.464311,-4.352523 0.368876,0 0.917808,0.352824 1.219853,0.784052 0.591506,0.844494 0.746213,2.390948 0.239191,2.390948 -1.143262,0 -1.546074,5.32837 -0.760071,10.054166 0.5571,3.349537 0.978553,4.074234 3.021348,5.195232 1.91547,1.051129 4.700341,1.308025 6.296367,0.580827 0.479891,-0.218652 1.281109,-0.295003 1.780487,-0.169665 0.783178,0.196564 0.907959,0.418843 0.907959,1.617402 0,1.266129 -0.13589,1.469157 -1.530301,2.286335 -1.263251,0.740314 -1.982562,0.896814 -4.121951,0.896814 -2.860375,0 -4.888424,-0.735941 -6.971831,-2.529943 -0.637339,-0.548809 -1.293184,-0.997835 -1.457434,-0.997835 -0.164247,0 -0.727001,0.561619 -1.250562,1.248047 -1.87959,2.464265 -4.983473,3.590385 -8.542095,3.099145 z m 5.255836,-5.296732 c 2.13077,-2.025093 2.592405,-4.451273 1.428058,-7.505333 -0.873689,-2.291662 -2.900172,-4.597905 -4.040156,-4.597905 -0.330083,0 -0.69826,-0.15875 -0.818176,-0.352777 -0.285478,-0.461913 -2.503541,-0.453757 -3.374581,0.01242 -0.489133,0.261778 -0.682364,0.741291 -0.682364,1.693333 0,0.730479 -0.18633,1.514475 -0.414069,1.742214 -0.249918,0.249918 -0.429736,1.692416 -0.453598,3.638723 l -0.03953,3.224657 1.666551,1.7751 1.66655,1.775096 2.00944,-0.207391 c 1.54746,-0.159713 2.2491,-0.435165 3.051874,-1.198128 z m -59.820043,0.657179 c -0.769924,-0.850755 -0.736763,-1.540034 0.121712,-2.529861 0.388055,-0.447432 0.706568,-0.987662 0.707806,-1.200507 0.0014,-0.212844 0.551674,-1.418868 1.22319,-2.680049 0.671519,-1.26118 1.443796,-2.769305 1.716172,-3.351388 0.27238,-0.582084 0.910999,-1.441719 1.419155,-1.910299 0.79279,-0.731051 1.048205,-0.795338 1.799621,-0.45297 1.179368,0.537354 1.494776,1.934012 0.707951,3.134857 -1.18908,1.814763 -4.046117,7.661783 -4.046117,8.280506 0,1.318224 -2.635046,1.830659 -3.64949,0.709711 z"
       id="path826"
       inkscape:connector-curvature="0" />
    <rect
       style="opacity:1;fill:none;fill-opacity:1;stroke:#ff8080;stroke-width:2;stroke-miterlimit:4;stroke-dasharray:none"
       id="rect816"
       width="103.37755"
       height="148.32431"
       x="378.26587"
       y="170.61572" />
    <rect
       style="opacity:1;fill:none;fill-opacity:1;stroke:#ff8080;stroke-width:2;stroke-miterlimit:4;stroke-dasharray:none"
       id="rect818"
       width="36.70652"
       height="45.695869"
       x="499.6221"
       y="51.506798" />
    <rect
       style="opacity:1;fill:none;fill-opacity:1;stroke:#ff8080;stroke-width:2;stroke-miterlimit:4;stroke-dasharray:none"
       id="rect820"
       width="93.639076"
       height="167.80124"
       x="-15.018305"
       y="38.771885" />
  </g>
</svg>
