<?xml version="1.0" encoding="UTF-8" standalone="no"?>
<!-- Created with Inkscape (http://www.inkscape.org/) -->

<svg
   xmlns:dc="http://purl.org/dc/elements/1.1/"
   xmlns:cc="http://creativecommons.org/ns#"
   xmlns:rdf="http://www.w3.org/1999/02/22-rdf-syntax-ns#"
   xmlns:svg="http://www.w3.org/2000/svg"
   xmlns="http://www.w3.org/2000/svg"
   xmlns:sodipodi="http://sodipodi.sourceforge.net/DTD/sodipodi-0.dtd"
   xmlns:inkscape="http://www.inkscape.org/namespaces/inkscape"
   version="1.1"
   id="svg898"
   width="3200"
   height="1044"
   viewBox="0 0 3200 1044"
   sodipodi:docname="2018-09-04-illustration-07.svg"
   inkscape:version="0.92.2 2405546, 2018-03-11"
   inkscape:export-filename="/home/jasper/Documents/Projects/jaspervdj/images/2018-09-04-illustration-07.png"
   inkscape:export-xdpi="36"
   inkscape:export-ydpi="36">
  <metadata
     id="metadata904">
    <rdf:RDF>
      <cc:Work
         rdf:about="">
        <dc:format>image/svg+xml</dc:format>
        <dc:type
           rdf:resource="http://purl.org/dc/dcmitype/StillImage" />
        <dc:title></dc:title>
      </cc:Work>
    </rdf:RDF>
  </metadata>
  <defs
     id="defs902" />
  <sodipodi:namedview
     pagecolor="#ffffff"
     bordercolor="#666666"
     borderopacity="1"
     objecttolerance="10"
     gridtolerance="10"
     guidetolerance="10"
     inkscape:pageopacity="1"
     inkscape:pageshadow="2"
     inkscape:window-width="1411"
     inkscape:window-height="823"
     id="namedview900"
     showgrid="false"
     inkscape:zoom="0.21441157"
     inkscape:cx="606.07649"
     inkscape:cy="395.87835"
     inkscape:window-x="453"
     inkscape:window-y="161"
     inkscape:window-maximized="0"
     inkscape:current-layer="svg898" />
  <rect
     style="opacity:1;fill:none;fill-opacity:1;stroke:#55ddff;stroke-width:7.55905533;stroke-miterlimit:4;stroke-dasharray:none"
     id="rect820"
     width="213.75272"
     height="192.6785"
     x="722.54437"
     y="164.90434" />
  <rect
     style="opacity:1;fill:none;fill-opacity:1;stroke:#87deaa;stroke-width:7.55905533;stroke-miterlimit:4;stroke-dasharray:none"
     id="rect812"
     width="225.79512"
     height="544.91888"
     x="572.01428"
     y="456.93271" />
  <path
     style="fill:#000000;stroke-width:1.33333337"
     d="m 670.18189,942.64296 c -13.86778,-6.88676 -21.53581,-11.95209 -22.94292,-15.15557 -0.94009,-2.14028 -2.64953,-2.92175 -7.08637,-3.23955 -5.67863,-0.40675 -9.48593,-2.59776 -9.48593,-5.45895 0,-3.8577 4.51164,-11.9273 7.40565,-13.2459 2.66049,-1.2122 3.26101,-2.45875 3.26101,-6.76904 0,-2.90579 -0.68249,-5.70504 -1.51664,-6.22058 -2.45821,-1.51925 -0.62777,-25.54212 2.37884,-31.22004 C 647.32788,851.64104 658.40935,844 667.33333,844 c 10.34104,0 20.73132,8.945 22.45712,19.33333 0.48731,2.93334 1.25143,7.28006 1.69804,9.65938 1.31338,6.99689 -3.61094,15.23525 -17.57817,29.40825 -6.94064,7.04289 -12.42295,13.43387 -12.18291,14.20215 0.24006,0.76829 3.99959,3.30917 8.35452,5.64641 8.93176,4.79356 24.93819,7.23249 30.5839,4.66013 2.62797,-1.19738 3.64578,-0.90106 6.4142,1.86735 2.81836,2.81835 3.1372,3.97057 2.22186,8.02908 -0.58778,2.60619 -1.27117,4.86076 -1.51864,5.01017 -0.24745,0.14942 -1.55389,1.12015 -2.9032,2.15719 -1.43777,1.10503 -7.15765,2.19789 -13.8181,2.64016 -11.0297,0.73239 -11.64542,0.61529 -20.88006,-3.97064 z m -2.51522,-56.95528 c 11.18356,-11.93172 11.9691,-14.97243 5.33333,-20.64425 -6.70525,-5.7312 -11.94019,-4.65307 -16.71688,3.44282 -2.49075,4.2215 -3.59377,12.68216 -3.109,23.84708 0.26749,6.16043 4.16432,4.37352 14.49255,-6.64565 z m 1675.66663,40.18264 c -7.6165,-2.25376 -14.2449,-8.64625 -20.7445,-20.00652 l -4.0765,-7.12496 -6.2562,0.81841 c -3.4409,0.45014 -6.5116,1.03939 -6.8238,1.30944 -1.2631,1.0924 -6.7656,-5.52449 -6.7656,-8.13577 0,-4.20379 3.7484,-8.73092 7.229,-8.73092 1.693,0 4.569,-1.17276 6.3912,-2.60615 3.2144,-2.52852 3.2944,-2.99545 2.6838,-15.67654 -0.4756,-9.878 -0.1014,-14.62643 1.5336,-19.44111 4.444,-13.08981 9.0225,-16.31203 21.826,-15.36047 6.2001,0.46082 8.4737,1.32186 11.866,4.49382 3.6745,3.43585 4.3093,5.08762 5.1045,13.28286 0.8748,9.01679 0.7281,9.6995 -4.0116,18.66667 -2.7059,5.11917 -7.8528,12.42167 -11.4377,16.22777 -3.585,3.80611 -6.5182,7.58 -6.5182,8.38646 0,3.16653 5.5535,12.10941 8.8688,14.2817 4.8031,3.14715 19.5242,3.07878 25.6082,-0.11893 5.5348,-2.90908 9.9016,-1.95897 11.982,2.60703 2.2294,4.89336 -0.425,9.83436 -7.1852,13.37432 -4.82,2.52398 -7.7066,3.30022 -19.2738,5.18301 -1.8333,0.29841 -6.3333,-0.34513 -10,-1.43011 z m -7.3765,-60.99148 c 7.6413,-10.12085 7.3356,-16.74901 -0.8244,-17.87296 -4.0492,-0.55773 -8.4657,8.87547 -8.4657,18.08175 0,9.11234 2.2914,9.06084 9.2901,-0.20879 z m -535.5572,-36.05425 c -0.5864,-1.01316 -3.7663,-3.65864 -7.0663,-5.87887 -3.3,-2.22023 -7.4545,-5.59129 -9.2324,-7.49125 -1.7778,-1.89996 -3.8568,-3.45447 -4.6197,-3.45447 -1.5863,0 -3.1404,-1.40063 -16.5175,-14.88551 -16.7908,-16.92626 -18.5574,-19.01569 -19.5429,-23.11449 -0.5291,-2.2 -1.7165,-4.9 -2.6391,-6 -0.9224,-1.1 -3.0666,-6.8 -4.765,-12.66667 -1.6986,-5.86666 -3.5439,-11.56666 -4.1008,-12.66666 -4.679,-9.24032 -5.9067,-15.88948 -5.6623,-30.66667 0.2452,-14.82265 0.6847,-18.77731 4.9633,-44.66667 3.8559,-23.33081 4.5788,-26.74078 7.2088,-34 C 1739.8871,629.3 1741.4172,623.3 1741.826,620 c 0.4087,-3.3 2.3365,-12.6 4.284,-20.66667 4.474,-18.53186 5.4492,-33.1717 2.7767,-41.68214 -1.0912,-3.47482 -2.3564,-8.94384 -2.8115,-12.15339 -0.8659,-6.1068 -5.862,-15.83311 -11.0359,-21.48417 -1.6716,-1.82584 -3.0393,-4.57638 -3.0393,-6.1123 0,-1.53592 -2.482,-6.33572 -5.5155,-10.66622 -3.0336,-4.3305 -6.4762,-10.46588 -7.6505,-13.63419 l -2.1351,-5.76056 6.0994,-5.58685 c 23.7468,-21.75155 31.8684,-30.45867 31.8684,-34.16582 0,-1.18854 0.9316,-3.49097 2.0701,-5.11648 1.1385,-1.6255 2.9687,-7.26501 4.0668,-12.53225 1.0983,-5.26723 2.3088,-10.08149 2.69,-10.69835 1.3476,-2.18049 0.7347,-55.11248 -0.6767,-58.43788 -0.7709,-1.8165 -2.015,-6.83504 -2.7645,-11.15232 -0.7496,-4.31726 -1.9144,-8.51726 -2.5884,-9.33333 -0.6741,-0.81605 -2.2343,-5.38375 -3.4671,-10.15041 -1.2328,-4.76667 -3.0328,-10.16667 -3.9998,-12 -3.6928,-7.00062 -5.9987,-13.18636 -6.0395,-16.20151 -0.023,-1.72251 -0.9233,-4.29651 -2,-5.72 -3.9669,-5.24468 -2.1588,-15.69419 4.3531,-25.15759 3.277,-4.76242 9.6694,-18.88065 9.6832,-21.38606 0,-0.62251 0.9773,-3.32251 2.1642,-6 1.1871,-2.6775 3.0676,-6.96818 4.1792,-9.53484 2.4312,-5.61438 9.2511,-12.76538 16.0314,-16.81007 17.1786,-10.24764 21.6098,-12.19104 33.0558,-14.49747 6.6684,-1.34374 13.6947,-2.03398 15.6667,-1.53905 3.1227,0.78375 3.5755,1.56361 3.5755,6.15841 0,6.02272 -1.623,7.33406 -11.6476,9.41111 -3.4939,0.72391 -7.7184,1.62201 -9.3879,1.99581 -3.004,0.67255 -13.4969,5.45271 -20.682,9.42186 -5.2988,2.92713 -16.7579,17.31301 -22.6159,28.39229 -2.75,5.20107 -5,10.06541 -5,10.80965 0,0.74426 -1.115,3.89664 -2.4778,7.00532 -5.6688,12.93122 -5.5936,12.13319 -2.0602,21.87522 1.8175,5.01064 3.2586,9.41025 3.2024,9.77692 -0.056,0.36666 0.8852,3.06666 2.092,6 6.5124,15.83009 8.9932,23.36024 12.5191,38 0.7947,3.3 1.7109,12.6 2.0361,20.66666 C 1776.97,379.4 1777.3033,386 1777.3856,386 c 0.083,0 0.3287,4.2 0.5475,9.33333 0.7368,17.28919 -2.8172,40.713 -7.8898,52 -0.9886,2.2 -2.7937,6.43836 -4.011,9.41858 -1.3564,3.32044 -7.6516,10.96312 -16.2579,19.7378 -13.3233,13.584 -14.002,14.54578 -13.2167,18.7317 0.4552,2.42687 2.016,5.48786 3.4684,6.80219 1.4523,1.31433 2.6406,3.29947 2.6406,4.4114 0,1.11193 0.8376,2.96893 1.8612,4.12668 5.747,6.49963 12.6172,23.72652 15.4624,38.77165 0.624,3.3 2.0124,8.1 3.0852,10.66667 1.0728,2.56667 1.7465,7.06667 1.497,10 -2.1225,24.95748 -3.291,32.69307 -5.8212,38.53592 -1.5566,3.59475 -3.1718,8.69475 -3.5893,11.33333 -0.4175,2.63858 -1.0065,5.20116 -1.3091,5.69464 -0.3024,0.49347 -0.8656,3.58156 -1.2514,6.86243 -1.0099,8.58665 -1.5698,11.06676 -3.175,14.06616 -0.7845,1.46605 -1.4265,4.68499 -1.4265,7.1532 0,2.46821 -0.5385,5.05765 -1.1968,5.75432 -0.6581,0.69667 -1.5032,3.66667 -1.8779,6.6 -0.3746,2.93333 -1.5734,9.53333 -2.664,14.66667 -2.5026,11.78073 -3.3301,29.06984 -1.8824,39.33333 0.9094,6.44639 6.2058,26.31389 8.567,32.13608 1.0713,2.64152 3.2986,6.25944 4.9494,8.03981 1.6508,1.78038 3.3778,4.71915 3.8375,6.53059 1.2253,4.82803 19.6927,23.10105 30.9527,30.62685 5.0914,3.40298 8.0422,6.2195 14.8168,14.14236 2.107,2.46419 4.581,5.34739 5.4977,6.4071 2.4193,2.79692 2.0901,4.33173 -1.8871,8.79542 -3.967,4.45238 -5.1581,4.83318 -6.7133,2.14638 z M 666.51908,826.33333 c -0.0812,-0.91666 -0.0457,-2.95936 0.0787,-4.53932 0.12453,-1.57996 -0.43824,-3.28337 -1.2505,-3.78537 -1.00804,-0.623 -1.04732,-1.43021 -0.12373,-2.54308 0.74419,-0.89671 1.29725,-4.29328 1.22904,-7.54796 -0.0683,-3.25468 0.26633,-34.09589 0.74347,-68.53604 0.63896,-46.12047 0.45224,-64.47413 -0.70871,-69.66177 -1.40528,-6.27947 -1.31401,-7.33307 0.84151,-9.7149 2.7202,-3.00578 7.67312,-3.5209 9.66216,-1.00489 2.98216,3.77225 3.46516,24.15979 2.56652,108.33333 -0.24271,22.73334 -0.87886,43.13334 -1.41367,45.33334 -0.53481,2.2 -1.24324,5.3334 -1.57429,6.96309 -1.10619,5.4456 -9.65691,11.1488 -10.05055,6.70357 z M 2339.2748,796.73225 c -1.0573,-2.5306 -1.844,-5.9806 -1.748,-7.66666 0.096,-1.68608 -0.4263,-4.56559 -1.1603,-6.39892 -0.8562,-2.13872 -0.9254,-8.58963 -0.193,-18 1.5554,-19.98612 1.487,-57.0374 -0.1364,-73.82108 -0.7354,-7.6016 -1.0427,-14.29708 -0.6832,-14.87886 0.9856,-1.59461 2.3482,-32.09134 2.1394,-47.87868 -0.2202,-16.64933 0.1644,-18.14212 5.1184,-19.86912 6.5006,-2.26609 8.5374,1.49287 9.143,16.87306 0.2796,7.09941 -0.033,15.90801 -0.696,19.57468 -0.6623,3.66666 -0.8483,8.46666 -0.4132,10.66666 0.435,2.2 0.2417,12.21892 -0.4298,22.26427 -0.6713,10.04535 -0.8282,19.28683 -0.3486,20.53663 0.4794,1.24978 0.9406,24.06693 1.0246,50.70477 0.1636,51.82879 0.081,52.49433 -6.4564,52.49433 -2.4316,0 -3.7169,-1.14596 -5.1605,-4.60108 z M 1960.4279,648.90779 c -2.4334,-3.09342 -2.5924,-5.0862 -2.1664,-27.12326 0.2529,-13.08149 0.4317,-33.64898 0.3973,-45.70553 -0.035,-12.05656 0.5599,-34.55656 1.3207,-50 0.7608,-15.44345 1.6797,-34.979 2.042,-43.41233 0.3624,-8.43334 1.1082,-19.23334 1.6573,-24 0.9447,-8.1993 0.1267,-26.1783 -1.7313,-38.07435 -0.6186,-3.95945 -0.3139,-5.84835 1.1378,-7.05316 1.4042,-1.16533 10.205,-1.74324 30.1607,-1.98048 31.3647,-0.37289 31.0783,-0.44851 32.7661,8.64971 0.7299,3.93404 0.3656,5.4139 -1.8872,7.66666 -2.3702,2.37031 -4.6529,2.84192 -15.1249,3.12495 -6.7833,0.18333 -16.6833,0.19089 -22,0.0168 -9.1941,-0.30107 -9.6704,-0.17069 -9.744,2.66667 -0.9477,36.55486 -3.6328,96.95106 -6.2087,139.64986 -1.0761,17.84004 -0.9366,47.95178 0.2516,54.28552 0.7436,3.96364 1.2676,4.38115 5.4983,4.38115 2.572,0 8.6948,-0.88136 13.6063,-1.95859 4.9114,-1.07721 12.8361,-2.18749 17.6105,-2.46726 4.7743,-0.27979 10.5945,-1.49843 12.9337,-2.7081 5.7975,-2.99796 8.722,-2.76573 12.233,0.97138 2.3996,2.55437 2.8984,4.4252 2.5657,9.62356 -0.3432,5.36177 -0.9767,6.72121 -3.7464,8.04033 -1.8333,0.87316 -15.9333,2.84864 -31.3333,4.38997 -15.4,1.54134 -30.1628,3.15182 -32.8063,3.57883 -4.0473,0.6538 -5.2209,0.24923 -7.4325,-2.56233 z m 483.8688,-13.65006 c -2.387,-1.67189 -2.9634,-3.36574 -2.9634,-8.70852 0,-6.87874 0.6427,-7.6713 6.7955,-8.37994 1.7625,-0.203 5.0045,-1.12998 7.2045,-2.05995 2.2,-0.92996 7.6,-2.45124 12,-3.3806 6.6228,-1.39885 7.9344,-2.12351 7.6191,-4.20924 -0.2096,-1.38572 -0.3387,-6.29293 -0.2869,-10.90492 0.052,-4.61199 -0.3599,-9.11199 -0.9148,-10 -1.7958,-2.87345 -1.325,0.66643 -8.46,-63.61456 -0.6919,-6.23333 -1.4366,-16.73333 -1.6548,-23.33333 -0.2182,-6.6 -0.917,-12.84076 -1.553,-13.86836 -0.636,-1.0276 -1.2464,-11.5276 -1.3566,-23.33334 -0.1107,-11.80573 -0.889,-24.76497 -1.7306,-28.7983 -0.8417,-4.03334 -2.2184,-12.55836 -3.0594,-18.94451 -0.8411,-6.38613 -2.2652,-12.22188 -3.1646,-12.96832 -1.0841,-0.89971 -4.2413,-0.93303 -9.3665,-0.0989 -10.7197,1.74468 -36.1169,3.05536 -39.3459,2.03052 -3.565,-1.1315 -6.1242,-10.21687 -3.887,-13.79923 1.2638,-2.02373 3.7661,-2.70031 12.3726,-3.34533 23.4328,-1.75622 28.2966,-2.29884 32.7884,-3.65803 6.302,-1.90689 16.1476,-1.08256 17.3236,1.45043 0.5108,1.1 1.6219,3.34185 2.4692,4.9819 0.8474,1.64006 1.5406,4.37706 1.5406,6.08222 0,1.70517 1.1189,7.56332 2.4866,13.01809 1.3676,5.45479 2.613,14.99848 2.7675,21.2082 0.1544,6.20973 0.5512,11.72792 0.8816,12.26264 0.3305,0.53471 0.9103,11.95403 1.2883,25.37624 0.378,13.42223 1.2288,27.10404 1.8906,30.40404 0.6619,3.3 1.5862,12.3 2.0542,20 0.4678,7.7 1.6709,18.8 2.6733,24.66667 1.0024,5.86666 2.4861,16.66666 3.2971,24 1.2954,11.71626 1.996,16.56481 4.527,31.33333 3.5858,20.92292 3.6227,21.82181 1.0391,25.2992 -2.0495,2.75852 -4.2864,3.62495 -12.3703,4.79131 -10.0989,1.4571 -23.5352,5.31417 -25.8017,7.40672 -1.832,1.69134 -3.7429,1.44757 -7.1033,-0.90616 z M 687.33333,621.37792 c -11.92809,-1.63408 -16.89814,-4.66027 -25.90229,-15.77147 l -8.32499,-10.27312 0.76151,-8.66666 c 0.98733,-11.23675 2.84816,-17.703 7.60173,-26.41546 2.12522,-3.89517 3.86404,-7.71105 3.86404,-8.47972 0,-1.98082 13.25772,-16.3 15.84794,-17.11677 1.18364,-0.37324 5.17392,-2.2684 8.86728,-4.21148 3.69337,-1.94308 9.37269,-3.73771 12.62072,-3.98805 5.377,-0.41446 6.07174,-0.1136 7.76294,3.36185 1.52515,3.13416 1.55268,4.38648 0.15398,7 -0.93691,1.75063 -2.75848,3.18296 -4.04795,3.18296 -3.25651,0 -19.82715,8.79769 -23.87157,12.67391 -1.83334,1.75709 -4.52759,5.47426 -5.98724,8.2604 -1.45964,2.78613 -3.04999,5.36569 -3.5341,5.73236 -1.43858,1.0896 -5.53858,16.37432 -5.42962,20.24154 0.0553,1.96619 1.20861,4.66619 2.56269,6 11.67031,11.49558 31.22347,15.14055 47.28364,8.81431 4.95145,-1.95043 10.19983,-0.80005 10.60463,2.32439 0.0917,0.70753 0.26865,2.03642 0.39329,2.95309 0.39149,2.87913 -3.41792,7.67017 -9.33633,11.74215 -5.1329,3.53152 -6.68144,3.90572 -15.46387,3.73678 -5.36787,-0.1032 -12.75976,-0.5987 -16.42643,-1.10101 z m 311.22952,-7.81013 c -6.93481,-3.2482 -15.89618,-10.97211 -15.89618,-13.7011 0,-1.2945 -1.17022,-2.72506 -2.60047,-3.17901 -1.43025,-0.45395 -3.77311,-2.74439 -5.20633,-5.08985 -2.9578,-4.84044 -2.83431,-13.18598 0.28496,-19.25682 1.03836,-2.02089 1.85104,-6.07434 1.80596,-9.00768 -0.20615,-13.41345 10.03301,-20.5945 27.90821,-19.57293 4.2123,0.24075 10.5003,4.99441 13.5445,10.2396 2.9062,5.00735 3.9379,-0.248 1.9087,-9.72333 -2.1979,-10.26372 -4.6786,-47.30202 -3.5012,-52.27667 0.4339,-1.83333 1.0669,-8.13333 1.4068,-14 1.282,-22.13357 1.4222,-22.51723 7.9531,-21.77091 l 3.8291,0.43758 -0.2444,9.76721 c -0.1344,5.37197 -0.8695,12.68196 -1.6335,16.24443 -2.7524,12.83385 4.3161,75.81825 9.6888,86.33273 1.0274,2.0106 2.3034,5.67639 2.8357,8.1462 1.0394,4.82347 11.7916,16.62243 16.5133,18.12104 1.5011,0.47645 4.4887,-0.0623 6.7072,-1.20957 5.3522,-2.76771 6.111,-2.64051 7.9189,1.32736 2.1666,4.75522 1.9456,6.96628 -1.1277,11.28232 -5.6778,7.9737 -19.3888,6.33042 -29.8805,-3.58123 -3.4527,-3.2618 -6.9197,-5.71653 -7.7044,-5.45496 -0.7847,0.26157 -2.3999,3.14908 -3.5893,6.41669 -1.7465,4.79798 -3.3062,6.51835 -8.1059,8.94111 -7.0702,3.56887 -15.937,3.78953 -22.81535,0.56779 z m 17.56135,-16.46656 c 0.9962,-1.86146 1.2599,-6.02015 0.7369,-11.62134 -0.6636,-7.10557 -1.7222,-10.04034 -5.7105,-15.83121 -2.6927,-3.90977 -5.9638,-7.68017 -7.2689,-8.37868 -3.4383,-1.84009 -10.53277,-1.57544 -10.63349,0.39667 -0.0468,0.91666 -0.41874,3.76666 -0.82652,6.33333 -2.93572,18.4786 4.55042,31.87533 17.86471,31.96964 3.0556,0.0216 4.7319,-0.802 5.8378,-2.86841 z M 2102,575.08987 c -3.6596,-0.58715 -14.3985,-7.67891 -19.7856,-13.06591 -3.1233,-3.12333 -4.1593,-8.38985 -2.3248,-11.81779 1.2491,-2.33374 1.0185,-5.25956 -1.1451,-14.53905 -3.7897,-16.253 -2.7544,-25.56417 3.6615,-32.92952 4.4443,-5.10193 5.1215,-5.40427 12.1063,-5.40427 7.4036,0 18.821,3.34526 18.821,5.51448 0,0.63371 0.8658,1.15219 1.9238,1.15219 3.4324,0 10.9081,5.23483 12.85,8.9982 1.041,2.01765 3.1412,5.05257 4.6668,6.74427 2.3334,2.58753 3.0209,2.77805 4.3304,1.20017 1.1582,-1.39567 1.1889,-3.54745 0.12,-8.40913 -1.8234,-8.28848 -2.5095,-22.03476 -2.8614,-57.32131 -0.2472,-24.79008 0,-28.54111 2.0428,-31.66667 2.4916,-3.80282 5.6598,-4.44821 9.0148,-1.83646 1.8327,1.42674 1.9451,4.45813 0.924,24.92732 -0.6766,13.56465 -0.6664,24.4301 0.024,26 0.6527,1.48332 1.0835,8.69694 0.9571,16.03028 -0.2348,13.61734 3.0495,34.55382 6.6929,42.66666 3.7639,8.38104 19.3428,19.33334 27.5004,19.33334 8.4686,0 12.222,8.99284 6.1479,14.72937 -2.4649,2.32791 -4.0456,2.69365 -8.8624,2.0506 -9.9279,-1.32535 -15.5431,-3.28879 -19.5893,-6.84959 -13.9624,-12.28733 -16.143,-13.80237 -17.669,-12.27644 -0.8502,0.85034 -1.546,3.17099 -1.546,5.15702 0,4.45948 -9.264,14.4057 -17.1781,18.44321 -5.7975,2.9576 -14.184,4.23401 -20.8219,3.16903 z m 21.452,-22.26752 c 3.9532,-2.51563 4.4412,-3.48888 4.4916,-8.95563 0.067,-7.21837 -4.2092,-14.01785 -13.3848,-21.28609 -9.5485,-7.56367 -23.9949,-11.71068 -25.6619,-7.3666 -0.9154,2.38581 2.7438,25.55072 4.5874,29.03946 0.6549,1.23942 3.8889,4.19112 7.1865,6.55936 3.2977,2.36823 5.9959,4.84092 5.9959,5.49487 0,2.01377 12.0881,-0.49625 16.7853,-3.48537 z M 2348,573.2524 c -2.5667,-0.60919 -6.4667,-1.52071 -8.6667,-2.0256 -2.2,-0.50489 -4.6,-1.35473 -5.3333,-1.88855 -0.7333,-0.5338 -2.9413,-1.35418 -4.9068,-1.82306 -1.9653,-0.4689 -4.3907,-1.60163 -5.3896,-2.51719 -0.9989,-0.91557 -2.9909,-2.31648 -4.4265,-3.11315 -1.4358,-0.79666 -4.1104,-4.39666 -5.9438,-8 -3.0821,-6.05785 -3.3154,-7.81549 -3.0962,-23.32588 0.3205,-22.67332 2.1322,-26.38833 19.2902,-39.55713 4.0595,-3.11564 10.9266,-6.91312 15.2602,-8.43883 19.8272,-6.9805 21.8792,-6.87749 21.8792,1.09847 0,6.64148 -2.6515,10.19173 -12.2399,16.38907 -6.9547,4.49497 -8.3503,4.93836 -11.7801,3.7427 -3.4067,-1.18758 -4.643,-0.81622 -9.9354,2.98456 -3.3245,2.3875 -6.0446,4.89852 -6.0446,5.58004 0,0.68152 -0.9842,3.31296 -2.187,5.84764 -3.1374,6.61171 -1.824,23.52512 2.156,27.76154 3.2315,3.43978 11.561,6.37938 26.8599,9.47936 10.4145,2.11026 10.9092,2.0912 19.7859,-0.76307 6.9496,-2.23456 9.732,-2.59152 11.7562,-1.50817 3.678,1.96838 5.0011,9.84202 2.3371,13.90781 -3.9459,6.02212 -25.6604,9.42447 -39.3748,6.16944 z m -879.2889,-3.87005 c -3.9954,-4.4148 -2.0044,-10.76791 5.7257,-18.27042 7.1099,-6.90057 16.9617,-18.1178 20.2299,-23.0337 2.8013,-4.21367 11.6812,-16.47355 13.0941,-18.07823 0.9457,-1.07397 7.6481,-6.58341 12.1653,-10 0.4848,-0.36667 2.6498,-3.06541 4.8111,-5.99723 2.1612,-2.9318 9.4795,-10.77068 16.2628,-17.41972 6.7833,-6.64904 12.3333,-12.68258 12.3333,-13.40788 0,-2.39581 -16.8272,-16.5085 -19.6838,-16.5085 -0.6572,0 -5.0474,-3.41443 -9.7556,-7.5876 -14.5339,-12.882 -13.1152,-12.09616 -15.6854,-8.68891 -2.2398,2.96949 -2.3733,2.97965 -21.3449,1.62392 -10.5,-0.75036 -19.6399,-1.02507 -20.3107,-0.61049 -0.6708,0.41458 -1.9146,0.32421 -2.7642,-0.20083 -3.8651,-2.3888 -95.5107,-1.09163 -113.122,1.60116 -14.1218,2.15924 -35.4674,3.25932 -38.2898,1.97333 -4.4687,-2.03609 -4.2744,-10.4894 0.3407,-14.8251 3.0264,-2.84315 4.7536,-3.21198 16.3333,-3.48772 7.122,-0.16959 19.8491,-1.0505 28.2824,-1.95756 15.7292,-1.69179 32.7359,-2.1767 98.3334,-2.80378 20.7166,-0.19804 37.6666,-0.77182 37.6666,-1.27506 0,-0.50324 -1.05,-1.26578 -2.3333,-1.6945 -1.2833,-0.42873 -4.7333,-2.84912 -7.6667,-5.37862 -8.7278,-7.52628 -11.6766,-9.90876 -18.3333,-14.81199 -5.8963,-4.34316 -6.3333,-5.07165 -6.3333,-10.55708 0,-5.89236 2.2445,-8.69389 6.9124,-8.62759 1.6353,0.0232 22.5617,15.9569 42.3416,32.23946 4.7229,3.88793 12.4562,11.11896 17.185,16.06896 4.7288,4.95 9.3006,9 10.1596,9 0.859,0 3.3258,1.68612 5.4816,3.74694 2.1559,2.06082 6.3198,5.5074 9.2531,7.65908 2.9333,2.15167 5.6333,4.24466 6,4.65107 0.3667,0.40643 4.6621,3.05263 9.5456,5.88047 7.4137,4.2931 8.9808,5.82256 9.4963,9.26865 0.7585,5.07097 -2.1195,8.92967 -18.5806,24.91241 -6.487,6.29858 -14.4149,14.39858 -17.6174,18 -3.2026,3.60143 -9.612,10.55746 -14.2435,15.45784 -4.6313,4.9004 -9.4849,10.6004 -10.7857,12.66667 -6.5867,10.46323 -35.4688,41.09951 -39.9243,42.3492 -1.8179,0.50988 -3.6059,-0.13796 -5.1793,-1.87665 z m -158.5684,-36.82474 c -1.5268,-3.9786 -0.8077,-9.59754 1.6103,-12.58365 2.2539,-2.78347 3.9206,-3.06271 24.3333,-4.07689 12.0525,-0.59882 25.2137,-1.70928 29.247,-2.4677 4.0334,-0.75842 12.4334,-1.64366 18.6667,-1.96721 12.9915,-0.67433 21.3077,-1.59883 32.6667,-3.63151 20.7965,-3.7215 69.0305,-6.29504 71.9876,-3.8409 2.7314,2.26692 2.4881,9.31468 -0.4538,13.13938 -2.915,3.79 -7.819,4.80382 -32.8672,6.7949 -22.7797,1.81076 -25.3786,2.0785 -44.6666,4.60184 -8.4334,1.10328 -18.9334,2.01422 -23.3334,2.02434 -4.4,0.0107 -15.7962,0.94044 -25.3252,2.06742 -9.5288,1.12697 -24.9146,2.04904 -34.1906,2.04904 -14.1492,0 -16.9959,-0.33968 -17.6748,-2.10906 z M 953.43011,507.15352 c -1.5199,-1.93223 -2.76344,-4.89681 -2.76344,-6.58797 0,-1.69116 -0.6091,-3.45128 -1.35354,-3.91136 C 947.58376,495.58537 944,487.06145 944,484.01697 c 0,-1.2782 -1.13351,-3.76504 -2.51892,-5.5263 -1.3854,-1.76126 -4.13237,-7.09216 -6.10437,-11.84647 -1.972,-4.75431 -4.28848,-9.2442 -5.14775,-9.97753 C 928.44828,455.14695 924,445.968 924,443.81331 c 0,-0.78627 -1.69877,-3.61591 -3.77505,-6.28811 -2.07628,-2.67219 -5.17972,-7.85853 -6.89652,-11.5252 -1.71682,-3.66667 -5.11804,-9.82832 -7.55828,-13.69256 -2.44026,-3.86424 -4.43682,-7.33956 -4.43682,-7.72293 0,-0.82428 -1.50234,-2.72795 -8.71656,-11.04502 -2.96077,-3.41338 -6.54721,-8.45616 -7.96986,-11.20616 -1.42266,-2.75 -2.98138,-5 -3.4638,-5 -0.48244,0 -3.346,-4.08606 -6.36347,-9.08014 -5.55768,-9.19828 -7.08571,-16.99363 -4.21927,-21.52491 1.81488,-2.86896 7.03832,0.32431 10.47874,6.40603 1.51388,2.67613 5.65158,8.16569 9.1949,12.19902 7.21008,8.20719 13.72599,16.73651 13.72599,17.96731 0,0.44655 0.61179,1.53659 1.35953,2.42231 6.14571,7.27972 7.97076,9.79909 7.97218,11.00502 8.9e-4,0.76707 2.70162,5.77392 6.00162,11.12636 3.3,5.35244 6,10.25398 6,10.8923 0,0.63832 1.8,3.21066 4,5.71633 2.2,2.50565 4,5.33787 4,6.29379 0,0.95593 1.14414,2.97672 2.54252,4.49065 3.31104,3.58463 17.45748,31.41103 17.45748,34.33931 0,1.24076 0.6,2.62673 1.33334,3.07996 0.73333,0.45322 1.33333,1.98864 1.33333,3.41202 0,1.42339 0.6,2.58798 1.33333,2.58798 0.73334,0 1.33334,0.60294 1.33334,1.33986 0,0.73694 1.56704,4.48694 3.48232,8.33334 5.17493,10.39274 6.05724,16.26928 2.94432,19.61061 -3.50731,3.76465 -8.3345,3.4348 -11.6632,-0.79696 z M 712.88889,476.44444 C 712.4,475.95556 712,473.97556 712,472.04444 c 0,-1.93111 -0.68027,-4.19137 -1.51171,-5.02281 -1.12672,-1.12672 -0.27781,-3.1926 3.33334,-8.11198 2.66477,-3.63014 4.84504,-7.17688 4.84504,-7.88164 0,-0.70476 1.09757,-2.27468 2.43906,-3.4887 1.34148,-1.21403 3.79083,-5.35702 5.44299,-9.20666 1.65216,-3.84962 4.22657,-9.39932 5.72091,-12.33265 14.62096,-28.7004 21.04297,-40.93389 23.19082,-44.17697 4.61375,-6.96634 5.8648,-9.12127 7.25092,-12.4897 1.73176,-4.20834 6.44066,-13.45686 11.05571,-21.71397 1.96144,-3.50936 3.56625,-7.15477 3.56625,-8.10092 0,-0.94615 1.42706,-3.06092 3.17123,-4.69948 2.66408,-2.50277 3.89015,-2.79297 7.66667,-1.81461 7.40932,1.91949 7.40406,7.45745 -0.0193,20.32898 -0.6344,1.1 -2.50592,4.7 -4.15894,8 -9.17448,18.31539 -10.77167,21.24516 -11.99374,22.00044 -0.7368,0.45538 -2.55464,3.34156 -4.03965,6.41375 -1.48501,3.0722 -4.49224,8.58581 -6.68272,12.25248 -2.19047,3.66667 -6.06829,10.86667 -8.61739,16 -2.54908,5.13333 -5.37238,10.53333 -6.27401,12 -6.60209,10.73955 -7.71884,12.77452 -7.71884,14.06545 0,2.00131 -14.64877,26.10335 -18.26967,30.0596 -2.89712,3.16544 -5.7735,4.054 -7.5081,2.31939 z M 146,358.88391 c -3.57895,-0.66104 -7.33896,-4.13718 -7.30907,-6.75723 0.0133,-1.16967 1.81335,-4.76697 4,-7.99399 2.18666,-3.22702 3.98908,-6.82702 4.00539,-8 0.0163,-1.17298 1.20296,-3.63269 2.63701,-5.46602 1.43406,-1.83334 2.62071,-3.84812 2.63702,-4.4773 0.0163,-0.62917 2.98469,-4.22917 6.5964,-8 10.35712,-10.81338 14.48477,-15.70013 19.31296,-22.8647 2.47417,-3.67143 7.71644,-9.97143 11.64948,-14 10.43632,-10.68982 21.97884,-25.48375 22.90036,-29.3512 0.44032,-1.84792 2.02381,-4.67284 3.51885,-6.27759 1.49505,-1.60473 2.71827,-3.5428 2.71827,-4.3068 0,-0.76399 0.52721,-1.38908 1.17157,-1.38908 0.64436,0 1.96031,-1.95 2.92431,-4.33333 0.964,-2.38334 2.12816,-4.63334 2.58702,-5 C 226.33039,229.88293 232,218.21412 232,216.97921 c 0,-0.46504 1.8,-3.51262 4,-6.7724 2.2,-3.25978 4,-6.91097 4,-8.11376 0,-1.20278 0.83379,-3.51576 1.85285,-5.13996 2.39788,-3.82176 3.81243,-20.2765 2.25974,-26.28642 -3.7571,-14.54235 -6.39564,-19.24554 -13.65007,-24.33114 -3.92105,-2.7488 -7.90899,-4.9988 -8.86207,-5 -0.95308,-0.001 -3.61116,-0.97349 -5.90682,-2.16062 -3.53695,-1.82904 -5.23075,-1.92192 -11.09892,-0.6087 -3.80874,0.85236 -9.22754,2.72366 -12.04176,4.15844 -2.81424,1.43478 -5.77223,2.60868 -6.57332,2.60868 -4.08102,0 -15.31296,15.58572 -15.31296,21.24866 0,4.6995 -2.95436,12.61438 -5.23454,14.02362 -0.82865,0.51212 -2.70486,-0.46462 -4.16938,-2.17057 -2.33832,-2.7238 -2.56251,-4.32009 -1.84004,-13.10171 0.45248,-5.5 1.69928,-11.87296 2.77066,-14.16213 3.28087,-7.01 16.92303,-20.22175 23.99674,-23.23961 3.5621,-1.51971 8.14262,-3.58805 10.17893,-4.5963 6.63276,-3.28415 27.05484,-0.44474 31.94045,4.44088 0.85646,0.85644 2.62107,1.55716 3.92139,1.55716 2.00156,0 10.18,4.12427 15.19327,7.66175 3.05338,2.15455 11.97154,40.80847 10.53728,45.67159 -0.32443,1.1 -0.92635,5.3 -1.3376,9.33333 -0.41126,4.03333 -2.57855,11.23333 -4.8162,16 -5.064,10.78737 -12.9195,26.20151 -15.70512,30.81683 -1.15638,1.91592 -3.84032,6.41592 -5.96431,10 -2.12399,3.58408 -6.17399,10.15833 -9,14.60946 -2.82601,4.45112 -5.1382,8.47386 -5.1382,8.93939 0,0.46555 -1.35,2.25164 -3,3.96909 -1.65,1.71746 -4.8,5.45499 -7,8.3056 -2.2,2.85063 -6.7,7.81799 -10,11.03858 -3.3,3.2206 -6.70608,6.56034 -7.56907,7.42168 -0.86298,0.86132 -4.52884,5.46604 -8.14633,10.2327 C 176.66711,318.1 171.1756,324.7 168.08125,328 c -12.00749,12.80552 -11.91049,15.01256 0.58542,13.32147 38.39922,-5.19666 75.54029,-8.19138 85.33333,-6.88051 6.12613,0.82001 6.70257,1.20721 7.10945,4.77552 0.58019,5.08815 -1.94716,9.61703 -6.2877,11.26725 -3.43536,1.3061 -13.19962,2.18836 -36.82175,3.32714 -31.32321,1.51002 -44.27036,2.4783 -47.33333,3.53993 -3.6667,1.27085 -20.44168,2.31348 -24.66667,1.53311 z m 146.23241,-4.63651 c -3.40386,-3.62325 -3.5916,-6.00896 -0.96712,-12.29023 1.59236,-3.81105 2.6311,-4.62384 5.90922,-4.62384 7.75541,0 12.3898,11.76903 6.82549,17.33334 -3.53959,3.53958 -8.20459,3.37337 -11.76759,-0.41927 z M 818,313.7112 c -9.47135,-0.75027 -21.69575,-7.09375 -27.04189,-14.03256 -2.40638,-3.12325 -5.88786,-7.60267 -7.73662,-9.95425 -1.84877,-2.35158 -4.82992,-7.88966 -6.62477,-12.30683 -5.05952,-12.45155 -4.60513,-26.58985 1.7154,-53.37465 0.88141,-3.73523 3.78017,-6.46807 12.258,-11.55634 7.52451,-4.51612 22.45055,-6.07645 25.29868,-2.64466 0.98508,1.18696 3.18217,2.15809 4.88244,2.15809 1.70025,0 3.50004,0.66123 3.99951,1.46937 0.49946,0.80816 2.8863,2.29592 5.30406,3.30612 2.41778,1.01022 8.30024,5.149 13.07215,9.1973 4.77191,4.0483 9.56007,7.36054 10.64036,7.36054 1.34628,0 2.20632,-1.9923 2.73395,-6.33333 1.40368,-11.54875 1.69329,-12.97855 3.19564,-15.77632 2.60121,-4.84416 4.96046,-6.08135 8.80757,-4.61868 4.18745,1.59207 4.63151,6.68767 1.39325,15.98791 -2.41998,6.95016 -4.52558,22.60704 -3.15425,23.45456 0.52185,0.32253 1.3742,3.44378 1.89412,6.93613 0.51991,3.49236 1.40736,6.94973 1.97211,7.68307 0.56474,0.73333 1.00858,2.35948 0.98633,3.61366 -0.0492,2.77143 8.89376,13.01459 14.40396,16.49811 2.2,1.39084 6.4,3.34632 9.33333,4.34553 6.62663,2.25731 10,5.1592 10,8.60235 0,9.29049 -21.47782,7.70676 -33.147,-2.44417 -5.58198,-4.85575 -5.95426,-4.98178 -7.69276,-2.60424 -1.0048,1.37414 -1.8269,3.27694 -1.8269,4.22844 0,0.9515 -3.15,4.73825 -7,8.415 -10.16783,9.71024 -22.0702,13.62534 -37.66667,12.38985 z m 14.58917,-16.06307 c 6.38486,-1.79337 9.2902,-3.61498 14.9693,-9.38554 l 7.04678,-7.16027 -0.16868,-9.55116 c -0.1076,-6.09653 -1.08945,-11.70695 -2.7144,-15.51136 -2.77974,-6.50812 -14.4808,-18.34409 -19.34085,-19.56389 -1.6764,-0.42075 -3.04799,-1.29995 -3.04799,-1.95379 0,-0.65383 -0.85396,-1.18879 -1.89769,-1.18879 -1.04375,0 -3.66877,-1.49025 -5.83341,-3.31168 -2.16464,-1.82142 -7.00111,-3.96909 -10.74772,-4.7726 -6.16727,-1.32264 -7.19372,-1.18909 -10.84515,1.41095 -2.21823,1.57952 -5.26163,5.56853 -6.76311,8.86448 -2.64892,5.81476 -2.66088,6.17349 -0.40281,12.08617 l 2.32715,6.09356 -3.83698,3.30042 c -3.19168,2.74537 -3.78386,4.20045 -3.5212,8.65204 0.58044,9.8372 10.24076,24.38189 19.50378,29.36508 3.12378,1.68049 12.15092,4.46226 15.22836,4.69272 1.16716,0.0875 5.68725,-0.84244 10.04462,-2.06634 z M 2004,300.23667 c -1.1,-0.62659 -3.7524,-1.98618 -5.8943,-3.0213 -4.4081,-2.13033 -13.8678,-16.25725 -14.0118,-20.92486 -0.052,-1.67355 -1.0439,-5.27355 -2.205,-8 -3.3712,-7.91632 -2.8816,-28.66538 0.8564,-36.29051 5.7706,-11.77147 14.5816,-17.04521 32.5314,-19.47135 2.9021,-0.39226 5.7106,-0.98146 6.2412,-1.30934 0.5305,-0.32788 1.3414,0.0136 1.802,0.75894 0.4606,0.7453 2.2666,1.35508 4.0134,1.35508 1.7468,0 3.5468,0.6 4,1.33334 0.4532,0.73333 1.8134,1.33333 3.0226,1.33333 1.209,0 4.4736,2.22177 7.2545,4.93727 l 5.0563,4.93726 0.1413,-6.60393 c 0.077,-3.63216 0.029,-8.28523 -0.108,-10.34013 -0.3484,-5.22651 3.2699,-10.2638 7.3724,-10.2638 3.7329,0 5.1455,2.44857 4.9603,8.59834 -0.8251,27.39944 -0.2852,46.62816 1.3638,48.57424 1.007,1.18842 2.6039,4.1141 3.5486,6.50154 2.1162,5.34748 12.0157,12.79061 20.0548,15.07841 11.3388,3.22687 14.0738,9.30641 6.5857,14.63847 -3.8372,2.73228 -4.5412,2.80384 -11.782,1.19746 -6.4612,-1.43342 -9.0697,-2.98309 -16.2041,-9.62653 -5.516,-5.13651 -8.6924,-7.28175 -9.0419,-6.10667 -1.0839,3.64466 -14.4,16.11747 -20.6025,19.29796 -6.7928,3.48307 -25.0556,5.63812 -28.9552,3.41678 z m 19.3333,-16.61234 c 7.3195,-2.28989 11.0179,-4.87502 14.1378,-9.88201 3.3584,-5.38995 4.0986,-8.64132 4.0089,-17.60909 -0.1027,-10.26884 -2.4132,-16.09306 -8.6032,-21.68632 -5.9737,-5.39782 -10.0344,-6.68175 -17.7375,-5.60827 -10.8352,1.50999 -17.5113,5.54463 -21.3337,12.89279 -1.7729,3.40825 -1.7164,3.92792 0.6527,6 3.0213,2.64258 4.3702,7.83976 2.9841,11.49716 -1.7732,4.67856 2.0195,11.8398 10.0989,19.06853 4.2856,3.83433 8.392,6.97696 9.1254,6.98361 0.7333,0.007 3.7333,-0.73872 6.6666,-1.6564 z"
     id="path1451"
     inkscape:connector-curvature="0" />
  <rect
     y="435.85849"
     x="2239.8877"
     height="544.91882"
     width="180.63603"
     id="rect814"
     style="opacity:1;fill:none;fill-opacity:1;stroke:#87deaa;stroke-width:7.55905533;stroke-miterlimit:4;stroke-dasharray:none" />
  <rect
     style="opacity:1;fill:none;fill-opacity:1;stroke:#87deaa;stroke-width:7.55905533;stroke-miterlimit:4;stroke-dasharray:none"
     id="rect816"
     width="162.57254"
     height="225.79512"
     x="2050.2197"
     y="402.74188" />
  <rect
     style="opacity:1;fill:none;fill-opacity:1;stroke:#87deaa;stroke-width:7.55905533;stroke-miterlimit:4;stroke-dasharray:none"
     id="rect818"
     width="186.65733"
     height="201.71031"
     x="924.25464"
     y="438.86911" />
  <rect
     style="opacity:1;fill:none;fill-opacity:1;stroke:#55ddff;stroke-width:7.55905533;stroke-miterlimit:4;stroke-dasharray:none"
     id="rect822"
     width="219.77391"
     height="192.6785"
     x="1914.7426"
     y="164.90434" />
</svg>
