<?xml version="1.0" encoding="UTF-8" standalone="no"?>
<!-- Created with Inkscape (http://www.inkscape.org/) -->

<svg
   xmlns:dc="http://purl.org/dc/elements/1.1/"
   xmlns:cc="http://creativecommons.org/ns#"
   xmlns:rdf="http://www.w3.org/1999/02/22-rdf-syntax-ns#"
   xmlns:svg="http://www.w3.org/2000/svg"
   xmlns="http://www.w3.org/2000/svg"
   xmlns:sodipodi="http://sodipodi.sourceforge.net/DTD/sodipodi-0.dtd"
   xmlns:inkscape="http://www.inkscape.org/namespaces/inkscape"
   version="1.1"
   id="svg2064"
   width="2554.5391"
   height="1039.0287"
   viewBox="0 0 2554.5391 1039.0287"
   sodipodi:docname="2018-09-04-illustration-02.svg"
   inkscape:version="0.92.2 2405546, 2018-03-11"
   inkscape:export-filename="/home/jasper/Documents/Projects/jaspervdj/images/2018-09-04-illustration-02.png"
   inkscape:export-xdpi="45.099998"
   inkscape:export-ydpi="45.099998">
  <metadata
     id="metadata2070">
    <rdf:RDF>
      <cc:Work
         rdf:about="">
        <dc:format>image/svg+xml</dc:format>
        <dc:type
           rdf:resource="http://purl.org/dc/dcmitype/StillImage" />
        <dc:title></dc:title>
      </cc:Work>
    </rdf:RDF>
  </metadata>
  <defs
     id="defs2068" />
  <sodipodi:namedview
     pagecolor="#ffffff"
     bordercolor="#666666"
     borderopacity="1"
     objecttolerance="10"
     gridtolerance="10"
     guidetolerance="10"
     inkscape:pageopacity="1"
     inkscape:pageshadow="2"
     inkscape:window-width="1878"
     inkscape:window-height="1081"
     id="namedview2066"
     showgrid="false"
     fit-margin-top="10"
     fit-margin-left="10"
     fit-margin-right="10"
     fit-margin-bottom="10"
     inkscape:zoom="0.28925462"
     inkscape:cx="939.66381"
     inkscape:cy="190.49022"
     inkscape:window-x="578"
     inkscape:window-y="272"
     inkscape:window-maximized="0"
     inkscape:current-layer="svg2064" />
  <path
     style="fill:#000000;stroke-width:1.33333337"
     d="m 1842.5832,982.98767 c -0.7333,-0.2692 -5.5333,-0.7629 -10.6667,-1.0969 -11.1922,-0.7284 -16.9525,-2.1602 -25.1389,-6.2486 -8.6289,-4.3095 -13.1873,-9.218 -18.0876,-19.4765 -3.736,-7.8212 -4.2453,-10.2465 -4.2728,-20.3454 -0.031,-11.1941 2.5588,-21.4658 5.4111,-21.4658 0.6652,0 1.6325,-4.05 2.1497,-9 0.5172,-4.95 1.8155,-10.7181 2.8852,-12.8179 1.5921,-3.1255 1.7444,-6.9953 0.8389,-21.3334 -0.6082,-9.6334 -0.9584,-23.15315 -0.7778,-30.04383 0.1822,-6.95918 -0.2675,-13.24621 -1.0118,-14.14306 -0.737,-0.88803 -1.2968,-6.95022 -1.2438,-13.47152 0.1364,-16.80115 -1.2179,-50.40763 -2.4102,-59.81338 -0.944,-7.44676 -1.371,-8.1994 -6.6665,-11.74886 -3.1117,-2.08583 -6.9196,-3.88746 -8.4617,-4.00363 -3.3914,-0.25545 -8.897,-6.49113 -10.0599,-11.39381 -0.4649,-1.96015 -1.5924,-4.46391 -2.5055,-5.56391 -8.2974,-9.99609 -7.8841,-22.45028 1.2584,-37.91419 3.3191,-5.61381 5.2978,-9.76662 4.3972,-9.22845 -0.9005,0.53816 -0.1373,-0.66259 1.696,-2.66835 7.9467,-8.69406 19.4612,-11.54693 32.4646,-8.04349 16.349,4.40485 27.861,22.27953 29.6922,46.1032 0.6079,7.90843 0.4127,11.65399 -0.6414,12.30545 -0.8335,0.5151 -1.5154,2.28888 -1.5154,3.94174 0,4.59434 -14.9716,16.61376 -22.6456,18.1802 -2.6396,0.5388 -3.504,1.75734 -4.2565,6 -1.3409,7.56101 -1.2517,32.32714 0.1393,38.65722 0.6447,2.93334 1.5752,10.43334 2.0679,16.66667 0.4928,6.23333 1.4471,14.2464 2.1208,17.80683 0.6737,3.56041 0.9583,6.90485 0.6325,7.43209 -0.3258,0.52723 0.2602,10.51416 1.3022,22.19317 1.0421,11.67901 1.9122,22.53801 1.9337,24.13121 0.049,3.6299 4.86,5.276 19.0391,6.5143 5.6833,0.4963 10.3333,1.3407 10.3333,1.8765 0,0.5358 2.5451,2.1154 5.6557,3.5101 3.1107,1.3947 6.5943,3.4358 7.7414,4.5358 1.147,1.1 4.902,4.5624 8.3442,7.6941 3.4423,3.1318 6.2587,6.1622 6.2587,6.7342 0,1.9127 3.3204,8.2174 4.3333,8.228 0.55,0.01 1,1.9131 1,4.2387 0,2.3256 0.9155,5.24 2.0344,6.4764 1.4958,1.6527 2.2515,6.7998 2.8542,19.4383 l 0.8197,17.1903 -5.8541,6.0289 c -6.8623,7.0671 -11.934,9.9432 -15.7666,8.941 -1.8193,-0.4757 -2.7542,-0.084 -2.7542,1.1549 0,1.0314 -1.1646,1.8752 -2.588,1.8752 -1.4234,0 -2.9588,0.6 -3.412,1.3333 -0.8062,1.3044 -4.0102,1.6087 -6.6667,0.6332 z m -2.6667,-15.2091 c 0,-0.1489 2.1,-0.5339 4.6667,-0.8556 2.5667,-0.3216 6.9184,-1.477 9.6704,-2.5673 2.752,-1.0904 5.3607,-1.8367 5.7969,-1.6585 0.4364,0.1782 2.2034,-2.1864 3.9268,-5.2546 3.152,-5.6117 3.3668,-11.6861 0.6516,-18.4214 -0.5913,-1.4667 -1.8873,-5.3667 -2.88,-8.6667 -0.9926,-3.3 -3.761,-8.9103 -6.152,-12.4673 -2.3908,-3.557 -4.347,-7.007 -4.347,-7.6667 0,-0.6596 -0.5366,-1.1993 -1.1923,-1.1993 -0.6559,0 -3.1193,-1.8 -5.4744,-4 -2.3551,-2.2 -5.2685,-4.0191 -6.4744,-4.0424 -1.2057,-0.023 -3.3569,-0.9233 -4.7804,-2 -5.2077,-3.9389 -15.3353,-1.8858 -22.4119,4.5434 -4.212,3.8267 -4.5229,7.0465 -1.5565,16.1159 2.8683,8.7692 2.2008,12.7524 -2.1101,12.5937 -1.8334,-0.068 -4.9834,-0.5826 -7,-1.1446 l -3.6667,-1.0218 v 7.8479 c 0,5.0661 0.7788,9.0164 2.1971,11.1446 3.9628,5.9461 12.98,14.63 15.1916,14.63 1.1918,0 2.6125,0.4456 3.1572,0.9902 1.6766,1.6767 11.8337,3.7441 17.4541,3.5528 2.9333,-0.1 5.3333,-0.3034 5.3333,-0.4523 z m -32.3333,-237.0142 c 3.4833,-1.24849 6.3333,-2.73263 6.3333,-3.29808 0,-0.56545 0.9,-0.68273 2,-0.26063 1.4554,0.55846 2,-0.15778 2,-2.62981 0,-1.86852 0.6,-3.76812 1.3334,-4.22135 0.7333,-0.45322 1.3333,-3.72225 1.3333,-7.2645 0,-4.82494 -1.3379,-9.14966 -5.3333,-17.24083 -2.9334,-5.94019 -5.3334,-11.40657 -5.3334,-12.14751 0,-0.74093 -0.819,-1.34716 -1.8201,-1.34716 -1.0012,0 -3.2621,-1.1342 -5.0244,-2.52044 -2.746,-2.15992 -11.0275,-3.64117 -16.7277,-2.99196 -0.8647,0.0985 -3.2759,2.72907 -5.3582,5.84574 -3.4253,5.12664 -3.6988,6.36286 -2.8696,12.97213 0.793,6.32055 1.6734,8.01148 6.5304,12.54211 5.255,4.90178 5.6336,5.73993 5.9215,13.10757 0.3241,8.29645 1.0331,9.72287 5.3481,10.76076 4.5508,1.09463 5.1586,1.02659 11.6667,-1.30604 z M 956.01411,765.6483 c -3.1897,-0.80988 -7.6076,-2.9323 -9.8176,-4.71649 -2.21,-1.78419 -5.8771,-4.66151 -8.1491,-6.39405 -2.272,-1.73255 -4.1309,-3.96144 -4.1309,-4.9531 0,-0.99165 -1.2,-2.44522 -2.6666,-3.23016 -1.4667,-0.78493 -2.6667,-2.30604 -2.6667,-3.38024 0,-1.0742 -0.5596,-1.95309 -1.2435,-1.95309 -0.6839,0 -1.6232,-1.19645 -2.0873,-2.65877 -0.4641,-1.46232 -1.7314,-3.54632 -2.8162,-4.6311 -2.8124,-2.8124 -2.3223,-24.51577 0.9494,-42.04346 1.9183,-10.27716 8.3253,-24.766 11.9536,-27.0319 1.4175,-0.88526 2.5773,-2.24777 2.5773,-3.0278 0,-3.10348 8.1886,-14.08086 11.6509,-15.61893 6.5304,-2.90101 6.7266,-3.44327 4.9223,-13.60423 -0.9165,-5.16109 -2.0383,-18.08381 -2.4931,-28.71714 -1.1451,-26.77788 -1.9645,-36.10964 -3.5186,-40.07259 -0.7346,-1.87325 -1.0869,-7.27325 -0.7829,-12 0.3041,-4.72675 0.039,-17.59408 -0.5884,-28.59408 -0.7322,-12.83168 -0.676,-20.15803 0.157,-20.44089 0.8193,-0.27826 0.8387,-1.2995 0.053,-2.76843 -0.6851,-1.28015 -1.2354,-8.58175 -1.2228,-16.22577 0.04,-24.42546 -0.7359,-30.71335 -4.1304,-33.46206 -1.6547,-1.3399 -3.9921,-2.44181 -5.1942,-2.44869 -4.0026,-0.0229 -16.2622,-8.02896 -17.9076,-11.6944 -0.8862,-1.97443 -2.60769,-4.5944 -3.82541,-5.82217 -4.59188,-4.62982 -6.24772,-26.25911 -2.38494,-31.15311 0.58555,-0.74187 1.99746,-6.69309 3.13758,-13.22495 1.80807,-10.35854 2.73217,-12.65662 7.23227,-17.98448 2.8376,-3.35961 6.6,-6.84954 8.3609,-7.7554 3.7655,-1.93709 23.3527,-2.26586 24.4989,-0.41121 1.5241,2.46597 4.7329,-0.29169 7.4682,-6.41808 2.181,-4.88491 2.4974,-7.07459 1.5004,-10.38332 -1.4386,-4.77395 -0.608,-6.72443 3.8016,-8.92763 2.1362,-1.06734 3.6188,-3.6035 4.788,-8.19061 0.9315,-3.65448 2.2813,-7.85448 2.9995,-9.33333 0.7183,-1.47884 2.5528,-5.3888 4.0767,-8.6888 2.4516,-5.3089 4.3238,-8.92427 8.2855,-16 0.6159,-1.1 2.6496,-5.29395 4.5194,-9.31988 1.8697,-4.02594 4.5442,-8.53835 5.9433,-10.02759 1.39909,-1.48923 4.43129,-7.79528 6.73829,-14.01345 2.3069,-6.21816 5.5265,-14.90575 7.1546,-19.30575 4.2633,-11.522 7.6941,-18.50979 9.6886,-19.73292 0.9562,-0.58644 1.7386,-1.97833 1.7386,-3.09309 0,-1.11478 1.8527,-4.71972 4.1172,-8.011 3.3765,-4.90758 4.7557,-5.9103 7.6666,-5.57358 3.0781,0.35606 3.606,1.10094 3.9751,5.6082 0.2341,2.8587 -0.066,5.5587 -0.6667,6 -2.7228,2.00026 -17.7589,35.1976 -17.7589,39.20912 0,1.74702 -21.3502,47.51614 -24.06699,51.59327 -0.733,1.1 -2.5444,4.7 -4.0253,8 -1.481,3.3 -4.4424,9.9 -6.5809,14.66667 -2.1385,4.76666 -4.2744,10.6841 -4.7463,13.14985 -0.472,2.46575 -2.9699,6.82067 -5.551,9.67759 -3.3714,3.73173 -4.8744,6.80493 -5.3375,10.91394 -0.6017,5.33863 -0.2437,6.13215 5.376,11.91438 3.3114,3.40714 6.4219,8.02156 6.9123,10.25424 0.4903,2.23268 1.4545,4.40733 2.1425,4.83254 4.6332,2.86348 7.3302,20.64518 5.8132,38.32744 -1.2971,15.11839 -4.9675,18.86271 -23.936,24.41768 -4.4,1.28855 -8.555,2.81603 -9.2334,3.39439 -1.206,1.02812 -1.3495,37.76268 -0.1551,39.69527 0.3324,0.53793 0.9502,14.72809 1.3727,31.53369 0.8607,34.22805 1.6198,44.15352 3.4642,45.29344 0.694,0.42889 0.8623,1.4262 0.374,2.21623 -1.2226,1.97828 -0.6879,14.87546 0.9128,22.01841 0.7263,3.24081 1.6708,14.09781 2.099,24.12665 0.4281,10.02884 1.2909,19.19875 1.9173,20.37758 0.7333,1.37998 3.7889,2.45476 8.5795,3.01781 7.0108,0.82397 19.5018,5.53437 20.4218,7.70112 0.2308,0.54337 1.2757,0.65939 2.3222,0.25781 2.48329,-0.9529 19.02599,16.09562 20.13459,20.75024 0.4536,1.90467 1.2667,4.06303 1.8068,4.79636 0.5401,0.73334 1.3271,3.13334 1.7491,5.33334 0.4219,2.2 1.3985,7.3 2.1703,11.33333 1.7956,9.38407 1.6264,29.81037 -0.3024,36.50176 -1.6704,5.79533 -23.7946,30.16491 -27.38549,30.16491 -1.1399,0 -4.5517,1.2001 -7.5817,2.66689 -4.9638,2.40293 -11.4902,3.59932 -24.3844,4.47001 -2.4116,0.16286 -6.9945,-0.36654 -10.1842,-1.17644 z m 21.2358,-14.19106 c 10.0729,-2.84346 18.8434,-7.84751 24.77829,-14.1373 10.2592,-10.87281 11.0818,-13.28501 11.1143,-32.59308 0.02,-11.62465 -0.485,-17.49801 -1.5987,-18.61176 -0.895,-0.895 -1.6302,-2.55726 -1.6339,-3.69393 0,-1.13667 -2.7236,-5.41377 -6.0443,-9.50468 -5.39129,-6.64184 -7.06759,-7.76949 -15.65999,-10.53483 -5.2923,-1.70324 -10.3291,-3.64368 -11.1929,-4.31208 -1.0512,-0.81346 -3.4015,0.43894 -7.1083,3.78788 -4.7514,4.29254 -5.8987,4.77783 -8.0781,3.41676 -5.731,-3.57905 -7.9098,-0.30589 -7.9098,11.88288 0,6.30346 -4.6679,10.36092 -9.1562,7.95883 -3.9481,-2.11292 -4.0582,-2.02879 -7.4847,5.71927 -4.6287,10.46629 -6.6234,32.63094 -3.2505,36.1193 0.6736,0.69667 1.2248,2.2725 1.2248,3.50184 0,3.02044 16.1438,19.89816 19.0329,19.89816 1.2652,0 2.3015,0.45 2.3028,1 0,1.64747 14.9292,1.72167 20.6643,0.10267 z m -7.3334,-316.15596 c 8.3501,-3.66315 10.2491,-6.98782 11.0438,-19.33475 0.6618,-10.28236 0.4418,-11.58641 -3.1492,-18.66667 -2.1234,-4.18661 -3.8684,-8.28924 -3.8777,-9.11693 -0.01,-0.82769 -1.8169,-2.25049 -4.0169,-3.16176 -2.2,-0.91127 -4,-2.39293 -4,-3.2926 0,-1.71283 -6.0064,-4.56065 -15.7791,-7.48129 -4.4948,-1.34332 -6.3427,-1.37516 -8.3152,-0.1433 -1.3949,0.87112 -3.6513,1.58386 -5.0143,1.58386 -7.5886,0 -10.6997,14.0822 -7.4347,33.65314 0.6463,3.87404 0.3536,5.17004 -1.3124,5.80932 -3.5487,1.36176 -2.5071,12.53754 1.1685,12.53754 0.9317,0 2.4738,0.93956 3.4269,2.08792 6.2634,7.54701 25.9856,10.4717 37.2603,5.52552 z M 2238.5832,766.85125 c -1.4667,-0.31776 -7.1667,-2.73699 -12.6667,-5.37605 -16.5918,-7.96124 -31.1466,-27.16008 -35.1809,-46.40611 -1.8916,-9.02393 -1.0061,-19.54113 1.7219,-20.45045 0.8025,-0.2675 1.459,-2.42411 1.459,-4.79246 0,-3.04406 1.1723,-5.42926 4,-8.13834 2.2,-2.10774 4,-4.5154 4,-5.35038 0,-0.83496 1.5,-2.92729 3.3334,-4.64962 1.8333,-1.72234 3.3333,-4.55224 3.3333,-6.2887 0,-1.73645 0.5909,-3.88186 1.3132,-4.76758 0.7223,-0.88571 2.8655,-3.54836 4.7628,-5.917 1.8972,-2.36863 5.0561,-5.08476 7.02,-6.03584 2.9467,-1.42706 3.5285,-2.53846 3.3295,-6.36006 -0.132,-2.54696 -0.5599,-17.73648 -0.9494,-33.7545 -0.3896,-16.01803 -1.0153,-30.11803 -1.3906,-31.33334 -0.3752,-1.2153 -0.9815,-6.10965 -1.3471,-10.87632 -0.3655,-4.76666 -1.3979,-13.76666 -2.2941,-20 -0.8962,-6.23333 -1.6628,-17.33333 -1.7035,-24.66666 -0.041,-7.33334 -0.5883,-14.12975 -1.2165,-15.10315 -0.6284,-0.97339 -1.154,-9.12436 -1.1682,-18.11327 l -0.025,-16.34345 -4.2231,-4.88673 c -2.7173,-3.14436 -5.3909,-4.88987 -7.4985,-4.89552 -1.8015,-0.005 -4.7755,-1.05483 -6.6088,-2.33334 -5.1235,-3.57288 -16,-14.42292 -16,-15.96094 0,-0.75372 -0.8251,-2.05522 -1.8336,-2.89218 -1.0085,-0.83697 -2.2348,-4.03068 -2.7252,-7.0971 -0.4903,-3.06644 -1.5232,-6.33646 -2.2952,-7.2667 -2.2573,-2.72001 -2.4605,-10.94689 -0.4687,-18.98242 1.0168,-4.10219 1.6508,-9.55854 1.4087,-12.1252 -0.242,-2.56667 0.4051,-6.31667 1.4379,-8.33334 1.5722,-3.06993 2.7404,-3.66666 7.177,-3.66666 4.0864,0 5.2991,-0.51572 5.2991,-2.25358 0,-1.23946 1.9075,-6.04956 4.2388,-10.6891 3.8551,-7.67168 4.6908,-8.5078 9.2297,-9.2336 l 4.991,-0.79808 -0.5736,-15.51282 c -0.3155,-8.53205 -0.8412,-24.37537 -1.1683,-35.20737 -0.3271,-10.832 -1.0463,-20.42519 -1.5981,-21.3182 -1.8659,-3.019 -2.2014,-14.07665 -1.8404,-60.65392 l 0.054,-7 h 5.1702 c 2.8434,0 5.8405,0.80789 6.66,1.79532 0.9944,1.19813 1.3294,7.95561 1.0076,20.31516 -0.4876,18.72111 0.4454,39.21764 3.0605,67.22285 0.7875,8.43334 1.6869,22.23334 1.9989,30.66667 0.3119,8.43333 0.6127,16.36792 0.6683,17.63243 0.1187,2.70489 5.5169,5.76192 12.4807,7.06832 2.7245,0.51114 4.9538,1.33654 4.9538,1.8342 0,0.49766 3,2.65693 6.6667,4.79838 3.6667,2.14146 6.6667,4.3675 6.6667,4.94678 0,0.57928 0.5362,0.90322 1.1917,0.71989 1.5085,-0.42193 7.3992,6.30807 9.5135,10.86901 0.8832,1.90538 2.1165,4.47508 2.7405,5.71046 3.2249,6.3841 5.3395,37.0872 2.5543,37.0872 -0.7334,0 -1.3334,1.46458 -1.3334,3.25464 0,1.79005 -0.6,3.62546 -1.3333,4.07869 -0.7333,0.45323 -1.3333,1.95823 -1.3333,3.34444 0,3.37768 -7.3739,10.30199 -14.1864,13.32161 -3.0359,1.34563 -5.9214,3.09624 -6.4122,3.89027 -0.4906,0.79403 -2.3649,1.44368 -4.1649,1.44368 -1.8,0 -4.6145,0.69325 -6.2547,1.54057 -1.64,0.84731 -3.8818,1.97334 -4.9818,2.50228 -2.2798,1.09626 -2.2798,1.05746 -0.029,29.29048 0.9063,11.36667 1.8936,24.47506 2.1942,29.12975 0.3005,4.65469 1.0708,9.45469 1.7117,10.66667 0.6408,1.21197 1.256,8.74034 1.3671,16.7297 0.1106,7.98938 0.6957,15.48938 1.2996,16.66667 1.9016,3.70755 4.4944,42.8208 4.3622,65.80721 -0.057,10.07506 0.2395,11.66787 2.1802,11.67546 1.236,0.005 4.0472,1.20088 6.2472,2.65788 2.2,1.457 4.9249,2.65305 6.0554,2.65788 2.3599,0.0107 19.2903,15.93973 23.6036,22.20836 1.5894,2.30977 3.2812,5.75977 3.7599,7.66666 0.4785,1.90691 1.6316,3.4671 2.5624,3.4671 3.1009,0 4.9655,3.87572 5.3756,11.17416 0.2233,3.97381 0.978,8.33526 1.6771,9.69213 0.699,1.35688 1.6664,7.4178 2.1498,13.46872 0.722,9.03895 0.4072,12.43847 -1.765,19.05529 -3.3212,10.11674 -13.9611,21.93486 -21.5999,23.99176 -2.7717,0.74639 -5.3571,1.87064 -5.7451,2.49834 -0.3878,0.62769 -4.1632,1.55586 -8.3896,2.0626 -4.2264,0.50672 -8.8842,1.11861 -10.3509,1.35974 -1.4667,0.24114 -3.8667,0.17844 -5.3333,-0.13933 z m 24.1549,-19.25915 c 7.0692,-4.369 13.6252,-11.86036 15.0852,-17.2376 0.697,-2.56666 1.6327,-8.40993 2.0795,-12.98502 0.7043,-7.21291 0.4491,-8.70816 -1.9204,-11.25143 -1.5029,-1.61317 -2.7325,-4.58297 -2.7325,-6.59957 0,-4.77052 -14.0995,-23.59968 -22.8528,-30.51878 -4.9739,-3.93166 -8.1411,-5.32745 -13.6503,-6.01577 -10.4263,-1.30269 -18.1523,3.19277 -18.178,10.57723 -0.013,2.26966 -0.8452,6.86344 -1.8605,10.20837 -1.3219,4.35503 -1.4531,6.78399 -0.4618,8.55532 0.7614,1.36048 1.8606,4.58536 2.4427,7.1664 0.8335,3.69516 0.5803,5.0562 -1.1904,6.40228 -3.6272,2.75717 -6.8125,2.07167 -10.8343,-2.33153 -2.0726,-2.26922 -4.08,-3.61922 -4.4606,-3 -0.3808,0.61921 -0.6938,5.02584 -0.6954,9.7925 0,9.32211 2.3636,16.88835 5.6811,18.1614 1.1332,0.43482 2.0603,1.50792 2.0603,2.38467 0,2.4874 13.3009,15.45393 15.8525,15.45393 1.2544,0 2.8612,0.58036 3.5705,1.2897 4.693,4.6929 24.4395,4.66082 32.0652,-0.0521 z m -36.1549,-297.81942 c 2.5871,-0.96366 5.8839,-2.28774 10,-4.01623 6.4501,-2.70863 13.1743,-8.12419 16.6404,-13.40195 2.2393,-3.40969 2.5899,-6.04262 2.3752,-17.8413 -0.2633,-14.4825 -1.4573,-17.72791 -7.1915,-19.54784 -1.3698,-0.4348 -2.4908,-1.54874 -2.4908,-2.4754 0,-0.92667 -1.5,-2.48762 -3.3333,-3.46879 -1.8333,-0.98117 -3.3333,-2.28256 -3.3333,-2.89197 0,-0.60942 -0.78,-1.10803 -1.7334,-1.10803 -0.9533,0 -2.434,-0.70072 -3.2905,-1.55717 -2.3656,-2.3656 -10.7635,-5.2105 -19.3192,-6.54463 -6.9247,-1.0798 -8.0019,-0.91404 -11,1.69284 -1.9933,1.73315 -3.3236,4.31675 -3.3236,6.45471 0,3.94265 -5.3901,10.62092 -8.5723,10.62092 -4.322,0 -6.5333,6.29852 -6.471,18.43201 0.049,9.60852 0.5832,12.47139 3.1518,16.90132 8.9832,15.4924 25.1554,23.49559 37.8915,18.75151 z M 66.591939,763.01026 c -2.1952,-1.19226 -5.94684,-3.65934 -8.33697,-5.48238 -2.39013,-1.82304 -6.14405,-3.94154 -8.34206,-4.70776 -2.198,-0.76624 -3.99637,-2.08472 -3.99637,-2.92998 0,-0.84525 -2.31921,-4.07401 -5.15381,-7.17501 -8.88579,-9.72092 -11.94467,-14.41229 -12.91281,-19.80427 -0.5158,-2.87266 -1.87448,-6.29477 -3.0193,-7.60468 -1.73322,-1.98314 -1.81651,-3.11448 -0.49779,-6.76133 0.87104,-2.40881 1.58371,-6.81361 1.58371,-9.78841 0,-3.18118 0.8237,-6.09235 2,-7.0686 1.1,-0.91292 2,-2.42968 2,-3.37059 0,-3.40715 5.75928,-12.39545 8.84258,-13.80029 1.73658,-0.79124 3.15742,-2.05148 3.15742,-2.80054 0,-0.74905 1.19624,-1.36192 2.65831,-1.36192 1.57379,0 4.25333,-2.20186 6.56797,-5.39713 2.15031,-2.96843 5.39719,-6.56723 7.21527,-7.99733 2.77913,-2.18607 3.22799,-3.50312 2.81825,-8.26952 -1.07074,-12.45595 -2.25136,-20.4393 -3.31844,-22.4392 -1.38878,-2.60288 -2.4714,-11.66271 -3.97082,-33.23015 -0.6373,-9.16667 -1.48319,-18.46667 -1.87975,-20.66667 -1.07327,-5.95404 -2.32447,-22.34686 -2.79865,-36.66666 -0.23069,-6.96667 -0.70706,-15.06667 -1.0586,-18 -0.35155,-2.93334 -0.012,-8.10922 0.75462,-11.50195 1.14658,-5.07448 1.019,-6.70371 -0.7192,-9.18535 -1.69391,-2.41838 -1.95749,-5.22009 -1.32899,-14.12608 0.55463,-7.85912 0.30318,-11.68872 -0.85944,-13.0896 -0.90389,-1.08912 -1.28199,-2.56504 -0.84023,-3.27982 0.44176,-0.71479 0.19341,-1.67648 -0.55188,-2.1371 -0.7453,-0.46061 -1.35508,-2.52861 -1.35508,-4.59553 0,-2.06693 -0.99222,-4.58152 -2.20493,-5.58799 -1.21271,-1.00645 -2.26271,-1.59188 -2.33333,-1.30094 -0.25186,1.03753 -6.81142,-1.61762 -10.76929,-4.35914 -7.7012,-5.33442 -10.17461,-8.13261 -14.25558,-16.12741 -4.034885,-7.90452 -4.090875,-8.282 -3.265151,-22.01337 1.184175,-19.69223 4.843362,-29.49511 16.166131,-43.30871 8.21209,-10.0186 13.50043,-13.33405 24.51704,-15.37059 7.72429,-1.4279 20.14511,-0.51004 20.14511,1.48868 0,0.63886 0.8082,1.16156 1.79598,1.16156 0.98779,0 3.1796,1.2 4.87068,2.66667 1.69108,1.46667 3.5829,2.66667 4.20402,2.66667 2.06794,0 5.75997,4.6713 8.98881,11.37302 1.75605,3.64484 4.05583,7.62922 5.11061,8.85419 1.7573,2.04083 3.64102,15.90495 3.50174,25.77279 -0.14096,9.98689 -3.14126,23.77041 -6.37546,29.28914 -4.21464,7.19175 -12.94726,14.46324 -20.09638,16.7339 -14.5111,4.60893 -14.67931,4.71933 -14.49378,9.51145 0.92782,23.96331 3.18188,64.09071 3.64259,64.84573 0.31985,0.5242 0.99859,7.25159 1.50827,14.94972 0.50969,7.69815 1.15092,14.3594 1.42496,14.8028 0.27402,0.44339 0.84814,7.64491 1.2758,16.00338 0.42766,8.35846 1.04334,16.99721 1.36817,19.19721 0.32483,2.2 1.16968,8.5 1.87744,14 0.70777,5.5 1.995,14.2 2.86051,19.33333 0.86552,5.13334 1.6402,12.33334 1.72152,16 0.14702,6.6295 0.17758,6.67411 5.48118,8 2.93334,0.73334 5.93334,1.71278 6.66667,2.17654 0.73333,0.46376 3.43333,1.28282 6,1.82014 2.56667,0.53731 7.16764,3.00787 10.224401,5.49012 3.05675,2.48227 6.17948,4.5132 6.93939,4.5132 1.73018,0 6.83718,5.06291 11.73746,11.63612 2.06264,2.7668 4.30452,5.4283 4.98198,5.91443 0.67745,0.48615 1.70673,3.78615 2.2873,7.33333 0.58058,3.5472 1.70698,10.34946 2.50312,15.11612 1.16314,6.96383 1.01034,11.60278 -0.77764,23.61 -2.0441,13.72736 -2.66238,15.53892 -7.59814,22.26247 -4.19352,5.71245 -7.30379,8.25709 -14.16876,11.59204 -7.9087,3.84199 -10.274951,4.32769 -23.462441,4.81597 -11.76947,0.43578 -15.4551,0.1148 -18.65794,-1.62472 z m 28.17336,-15.2532 c 2.55035,-1.50474 5.668991,-2.73589 6.930311,-2.73589 3.39641,0 10.70491,-7.23771 13.10585,-12.97895 3.14154,-7.51209 3.9515,-31.84388 1.23236,-37.02105 -1.15546,-2.2 -2.10454,-4.63575 -2.10906,-5.41277 -0.0135,-2.31916 -16.382221,-17.92056 -18.801961,-17.92056 -1.22912,0 -3.95335,-0.89631 -6.05384,-1.99179 -2.1005,-1.09548 -4.83367,-1.99548 -6.07372,-2 -1.24006,-0.004 -2.62683,-0.61041 -3.08172,-1.34644 -2.01686,-3.26333 -13.99698,1.9294 -13.99698,6.06693 0,1.61963 -0.9,3.69171 -2,4.60463 -2.97229,2.46677 -2.59133,14.27628 0.66667,20.66667 4.15961,8.15882 2.98113,14 -2.82453,14 -3.07202,0 -13.15996,-9.8287 -13.23561,-12.89547 -0.111,-4.49957 -3.15322,-9.79617 -4.96813,-8.64963 -2.07969,1.31382 -6.97173,14.3601 -6.97173,18.59248 0,10.85408 24.92831,38.041 36.22223,39.50412 0.48888,0.0633 1.19346,0.41516 1.56574,0.78183 0.37227,0.36667 4.06992,0.84781 8.21699,1.06923 5.73029,0.30593 8.65316,-0.25414 12.17713,-2.33334 z M 68.276779,438.5185 c 1.57239,-0.84152 3.33459,-2.27268 3.91599,-3.18034 0.58141,-0.90768 2.23213,-2.29996 3.66828,-3.09396 1.43615,-0.79402 4.58615,-4.30952 7,-7.81226 4.18119,-6.06732 4.38883,-6.94734 4.38883,-18.60132 0,-11.54176 -0.24568,-12.61405 -4.34951,-18.98384 -5.42107,-8.41434 -11.31485,-15.14986 -15.79881,-18.05514 -6.45828,-4.1845 -27.85168,0.54277 -27.85168,6.15433 0,1.02483 -1.7365,2.24472 -3.85889,2.71088 -5.20971,1.14424 -6.13026,5.92989 -1.92011,9.98204 1.99231,1.91753 3.11233,4.53564 3.11233,7.27528 0,3.58551 -0.76369,4.64395 -4.70775,6.52473 -5.21075,2.48484 -7.11262,5.62856 -4.80263,7.93856 0.83071,0.83071 1.51781,2.44038 1.52689,3.57704 0.0171,2.13746 7.99048,8.03424 10.96479,8.10907 5.74454,0.14453 9.03392,9.36567 4.5187,12.66728 -2.80783,2.05313 -2.74907,4.13691 0.16667,5.91037 2.90111,1.76458 20.13682,0.95919 24.0269,-1.12272 z M 2015.9165,751.59924 c -16.1473,-7.58667 -30.4305,-21.0165 -37.313,-35.08388 -3.053,-6.2401 -3.7116,-9.4264 -3.8515,-18.63243 -0.1,-6.61013 0.5056,-12.40508 1.4973,-14.31677 0.9164,-1.7664 3.0164,-6.55474 4.6667,-10.64072 3.9012,-9.65912 8.2716,-14.68727 16.2136,-18.65367 3.5465,-1.77121 6.7613,-4.03637 7.144,-5.03368 0.3827,-0.99732 -1.5001,-6.10411 -4.184,-11.34844 -2.6839,-5.24433 -4.8708,-11.10141 -4.8597,-13.01575 0.013,-1.91433 -1.4536,-5.65201 -3.2546,-8.30594 -1.801,-2.65395 -3.9173,-7.21235 -4.7029,-10.12978 -0.7856,-2.91742 -2.012,-5.66516 -2.7255,-6.10606 -0.7133,-0.44092 -1.297,-1.72162 -1.297,-2.846 0,-1.12439 -1.2,-3.5699 -2.6667,-5.43446 -1.4667,-1.86456 -2.6667,-4.46634 -2.6667,-5.78173 0,-1.31539 -0.7568,-3.18448 -1.6817,-4.15352 -0.9249,-0.96905 -3.7007,-5.96191 -6.1681,-11.09524 -2.4676,-5.13333 -6.4863,-13.39716 -8.9303,-18.36405 -2.4441,-4.96688 -4.8551,-11.26688 -5.3576,-14 -0.5024,-2.73311 -1.3484,-5.26928 -1.8797,-5.63595 -0.5314,-0.36667 -2.5335,-3.7742 -4.449,-7.57231 -1.9156,-3.7981 -4.0249,-7.24065 -4.6874,-7.65012 -0.6626,-0.40946 -1.9536,-4.80192 -2.8692,-9.76102 -0.9155,-4.95911 -2.2622,-10.1716 -2.9926,-11.58334 -0.7305,-1.41173 -2.1942,-6.7516 -3.2528,-11.86636 -1.8153,-8.77029 -1.7814,-9.44292 0.5942,-11.81846 1.608,-1.60807 3.3828,-2.1874 4.9078,-1.60215 2.5586,0.98179 10.0998,16.4102 10.0998,20.66281 0,1.40826 0.53,3.60232 1.1777,4.87571 3.4141,6.71147 12.1556,30.89121 12.1556,33.62367 0,1.35917 2.7,7.03809 6,12.6198 3.3,5.58172 6,10.94756 6,11.9241 0,0.97655 1.4819,3.95927 3.2932,6.62827 1.8112,2.669 2.9623,4.85273 2.5579,4.85273 -0.4044,0 0.5137,2.02083 2.0401,4.49071 1.5265,2.46989 2.7755,5.46989 2.7755,6.66667 0,1.19678 0.4845,2.17596 1.0768,2.17596 1.0577,0 4.5213,7.21593 6.1821,12.87958 0.4644,1.58379 1.7211,3.60726 2.7927,4.4966 1.0716,0.88935 1.9484,2.50652 1.9484,3.59371 0,1.08719 1.8,4.6438 4,7.90359 2.2,3.25977 4,6.72332 4,7.69677 0,0.97344 0.9,2.51683 2,3.42975 1.1,0.91292 2,2.84381 2,4.29086 0,1.44707 0.8385,4.2236 1.8633,6.17008 2.5271,4.79951 4.8811,13.63371 4.4717,16.78083 -0.2622,2.01587 0.8087,2.81967 4.9315,3.7012 2.8965,0.61936 6.1965,1.93959 7.3333,2.93385 1.1367,0.99427 3.3378,2.19404 4.891,2.66618 1.5533,0.47212 3.8962,2.04309 5.2066,3.49104 1.3104,1.44794 3.0764,2.63262 3.9246,2.63262 2.0388,0 15.3282,16.13252 17.9694,21.81351 1.1414,2.45511 2.9483,5.5112 4.0154,6.79132 1.067,1.28011 1.8133,3.99189 1.6584,6.02617 -0.1551,2.03428 0.6181,5.42451 1.7182,7.53386 1.1866,2.27525 2.0035,7.42385 2.0083,12.6583 l 0.013,8.82318 -9.3418,9.51016 c -5.1382,5.2306 -9.9692,9.51017 -10.7359,9.51017 -0.7667,0 -3.9128,1.30276 -6.9915,2.89501 -3.0785,1.59227 -6.6393,3.39227 -7.9126,4 -3.0888,1.47416 -17.0004,1.25751 -20.3515,-0.31694 z m 20.6667,-15.03682 c 13.2731,-4.98288 16.9143,-7.29842 19.2643,-12.25065 2.9854,-6.29133 2.3061,-16.17896 -1.7098,-24.88412 -1.5882,-3.44309 -2.8878,-7.19309 -2.8878,-8.33333 0,-1.14023 -0.6,-2.07315 -1.3334,-2.07315 -0.7333,0 -1.3333,-0.60296 -1.3333,-1.33992 0,-1.75547 -13.1933,-14.66008 -14.9881,-14.66008 -0.7615,0 -2.0507,-0.89564 -2.865,-1.99031 -1.4857,-1.99769 -12.0494,-4.88562 -17.9917,-4.91862 -3.4205,-0.0189 -8.7212,2.27308 -12.5071,5.40816 -1.7797,1.47385 -2.1453,3.04828 -1.5029,6.47284 0.7183,3.82817 0.4268,4.63566 -1.8916,5.24196 -3.3993,0.88893 -9.592,10.0049 -9.5723,14.09072 0.033,6.87697 1.7987,12.91012 4.7994,16.40226 1.7522,2.03927 3.186,4.15627 3.186,4.70444 0,2.55646 14.0641,14.23719 20.3253,16.88092 8.02,3.38636 14.3172,3.76072 21.008,1.24888 z m -257.3333,-96.87458 c -3.2516,-3.25163 -3.2516,-4.08959 0,-13.33334 1.4188,-4.03333 2.5992,-9.17874 2.6232,-11.43425 0.028,-2.61024 1.255,-5.2392 3.3768,-7.23241 1.8348,-1.72374 3.3333,-4.63283 3.3333,-6.4711 0,-3.8549 2.1912,-11.28521 4.8367,-16.40129 1.0065,-1.94648 1.83,-4.42301 1.83,-5.50341 0,-1.08039 0.8644,-2.68168 1.9208,-3.55843 1.0564,-0.87675 1.598,-2.43497 1.2036,-3.46275 -0.3944,-1.02777 0.4636,-3.83389 1.9066,-6.23585 1.4431,-2.40195 2.974,-6.68085 3.4022,-9.50868 0.4281,-2.82784 2.021,-7.52569 3.54,-10.43968 1.5188,-2.91399 2.633,-6.00031 2.4758,-6.85849 -0.582,-3.18014 1.8348,-10.27668 4.05,-11.892 4.1994,-3.06211 9.2235,-10.93626 10.848,-17.00166 0.8839,-3.3 2.6728,-8.1 3.9754,-10.66666 1.3025,-2.56667 2.7957,-8.26667 3.3181,-12.66667 0.5224,-4.4 1.4137,-8.6 1.9808,-9.33333 0.5671,-0.73334 1.4364,-3.58334 1.9319,-6.33334 0.4956,-2.75 1.4624,-5 2.1485,-5 0.6861,0 1.6177,-1.47538 2.0704,-3.27864 0.4525,-1.80325 1.664,-3.97672 2.692,-4.82993 1.0281,-0.8532 1.8692,-2.60435 1.8692,-3.89143 0,-1.28708 0.8933,-3.0816 1.9853,-3.98781 1.0919,-0.90623 1.6403,-2.20597 1.2186,-2.88833 -0.4218,-0.68238 -0.029,-2.12888 0.8713,-3.21448 0.9009,-1.0856 1.2684,-2.34351 0.8167,-2.79535 -0.4519,-0.45184 0.192,-2.53735 1.4308,-4.63445 2.474,-4.18819 7.8809,-5.23788 9.205,-1.78708 1.3083,3.4092 -0.9526,19.20869 -3.0488,21.30474 -1.085,1.08507 -3.0937,6.01527 -4.4637,10.95599 -1.3701,4.94073 -3.134,9.19747 -3.9197,9.4594 -0.7859,0.26195 -1.4288,1.94621 -1.4288,3.74281 0,3.48251 -5.7046,15.75922 -7.9747,17.16223 -0.7472,0.46184 -1.3587,2.00016 -1.3587,3.41849 0,3.34218 -9.2972,26.59718 -10.6333,26.59718 -0.5611,0 -1.7632,2.85 -2.6715,6.33333 -0.9082,3.48333 -2.5053,8.2642 -3.5489,10.62416 -1.0437,2.35996 -2.8869,8.35996 -4.096,13.33333 -1.2089,4.97338 -2.6059,9.34251 -3.1041,9.70918 -0.4983,0.36666 -1.8646,4.47438 -3.036,9.12826 -1.1714,4.65388 -2.829,9.30388 -3.6832,10.33334 -0.8544,1.02945 -1.1678,1.87173 -0.6964,1.87173 0.4713,0 -0.3295,2.32571 -1.7796,5.16824 -1.4502,2.84253 -2.2811,5.5238 -1.8466,5.95839 0.4346,0.43458 -0.234,2.35317 -1.4857,4.26352 -1.2516,1.91034 -3.7824,10.17908 -5.624,18.37494 -1.8415,8.19587 -4.2916,15.95158 -5.4447,17.23491 -2.7898,3.10484 -7.7278,2.95543 -11.0166,-0.33333 z M 1930.3161,443.3545 c -0.5864,-0.91666 -3.3162,-2.70696 -6.0662,-3.97842 -2.75,-1.27147 -5,-2.78503 -5,-3.36347 0,-0.57843 -2.0386,-2.14955 -4.5302,-3.49137 -2.5504,-1.37342 -5.5493,-4.56527 -6.862,-7.3032 -1.2824,-2.67495 -2.8362,-5.76354 -3.4528,-6.86354 -0.6166,-1.1 -2.1101,-3.8 -3.3188,-6 -1.2088,-2.2 -4.2629,-6.02401 -6.7869,-8.4978 -3.8144,-3.73842 -4.4219,-5.08909 -3.5981,-8 1.2905,-4.56048 0.8064,-14.43865 -0.9558,-19.5022 -1.7972,-5.16386 1.7107,-34.47929 4.3186,-36.09105 0.6522,-0.40315 1.186,-1.76512 1.186,-3.02663 0,-1.26149 1.2,-3.15853 2.6666,-4.21565 1.4667,-1.05712 2.6667,-2.59657 2.6667,-3.42103 0,-2.39545 4.3749,-5.64202 8,-5.9366 9.3631,-0.76088 13.3219,0.104 16.954,3.70395 4.8279,4.78492 7.5831,10.94708 9.7036,21.70223 1.6739,8.48926 1.0965,16.61689 -2.1272,29.95145 -1.2369,5.11607 -10.1611,18.22457 -15.4193,22.64909 -5.1408,4.32572 -4.4686,7.80539 3.2849,17.00046 9.3349,11.07072 19.1799,14.47905 24.7368,8.56396 4.0183,-4.27732 5.5399,-10.12788 6.2975,-24.21351 0.9317,-17.32208 2.0724,-18.55779 17.5838,-19.04837 l 12.0687,-0.38172 2.8821,4.04746 c 5.0984,7.16015 1.3914,12.10883 -9.2524,12.35127 -3.7609,0.0857 -7.1833,0.7144 -7.6053,1.39717 -0.4219,0.68278 -1.2995,5.99912 -1.95,11.81411 -1.3599,12.15411 -6.642,23.09929 -13.7727,28.53805 -3.486,2.65899 -5.8484,3.28203 -12.4441,3.28203 -5.0555,0 -8.5453,-0.63172 -9.2075,-1.66667 z m -17.0541,-56.25216 c 2.3451,-1.78869 5.0523,-5.23869 6.016,-7.66666 0.9636,-2.42799 2.3643,-5.21172 3.1123,-6.18608 0.7481,-0.97438 1.3976,-7.49874 1.4432,-14.4986 0.073,-11.15062 -0.264,-13.10142 -2.7184,-15.74964 -1.541,-1.66244 -3.1682,-3.97795 -3.6163,-5.14559 -0.5319,-1.38619 -1.642,-1.81351 -3.1984,-1.23127 -3.3596,1.25672 -9.6704,8.62338 -9.6959,11.31798 -0.013,1.24005 -0.5573,2.58589 -1.2124,2.99076 -0.655,0.40485 -1.6086,6.01336 -2.1192,12.46334 -0.7222,9.1262 -0.4372,13.41628 1.2856,19.34258 2.5182,8.66208 4.1795,9.33928 10.7035,4.36318 z m -664.0917,48.78487 c -18.5639,-10.58189 -26.0031,-17.03647 -28.5581,-24.77804 -0.863,-2.61507 -2.0315,-4.75467 -2.5966,-4.75467 -1.4412,0 -5.1194,-9.32086 -5.2615,-13.33333 -0.2147,-6.05884 5.3081,-21.32825 9.2918,-25.6898 2.1288,-2.3308 3.8706,-5.58871 3.8706,-7.23977 0,-1.9708 1.3415,-3.69567 3.9055,-5.02156 6.0282,-3.11727 6.5289,-6.98286 1.5427,-11.91006 -4.079,-4.03074 -9.9027,-10.78384 -20.7815,-24.0979 -2.9333,-3.58998 -6.887,-8.3678 -8.7859,-10.6174 -1.8989,-2.2496 -4.5989,-5.5426 -6,-7.31778 -1.4011,-1.77518 -3.8974,-4.54398 -5.5474,-6.1529 -1.65,-1.60891 -3,-3.55315 -3,-4.32054 0,-0.76738 -1.6683,-2.79898 -3.7073,-4.51466 -3.8429,-3.23366 -11.477,-13.31864 -14.9594,-19.76219 -1.1,-2.03535 -4.7,-6.84588 -8,-10.69008 -3.3,-3.84419 -7.5,-9.23065 -9.3333,-11.96992 -1.8334,-2.73927 -5.1136,-7.61635 -7.2894,-10.83796 -2.1759,-3.22161 -5.0849,-7.95748 -6.4644,-10.52415 -1.3796,-2.56666 -4.4136,-6.76666 -6.7422,-9.33333 -7.4318,-8.19147 -10.5258,-13.57791 -11.1914,-19.48305 -0.5867,-5.20504 -0.3154,-5.90618 2.8418,-7.3447 3.2964,-1.50196 3.8799,-1.16518 10.5013,6.06124 3.856,4.20836 7.932,9.25243 9.0577,11.20904 3.3085,5.75036 21.0782,32.59496 23.9785,36.22414 1.4651,1.83333 4.6336,5.73333 7.0412,8.66666 2.4076,2.93334 5.0844,6.97175 5.9485,8.97427 1.4857,3.44312 24.3287,30.2438 37.5473,44.05259 3.3486,3.4981 6.3985,7.24449 6.7777,8.32532 0.699,1.9929 6.0863,8.56617 17.7878,21.70404 5.5203,6.19792 6.3848,7.908 5.9368,11.7446 -0.6178,5.29221 0.2264,5.77017 8.5784,4.85674 3.9182,-0.42852 7.0392,-0.0847 8.2344,0.90736 1.0586,0.87858 2.7193,1.46467 3.6904,1.30242 1.7602,-0.29408 7.3717,1.6166 12.4322,4.23313 5.483,2.83493 11.3334,9.22773 11.3334,12.38415 0,1.75388 0.8562,3.8995 1.9028,4.76805 3.4812,2.88912 6.2886,13.92383 7.0544,27.72727 0.7296,13.15209 0.6286,13.84058 -2.7856,19 -1.9486,2.94437 -4.1343,5.3534 -4.8572,5.3534 -0.723,0 -1.3144,0.65382 -1.3144,1.45294 0,4.7722 -16.8852,13.49164 -27.3334,14.11482 -6.8761,0.41012 -8.9477,-0.0631 -14.7462,-3.36839 z m 17.7581,-11.90168 c 0.2991,-0.89707 1.7427,-1.63103 3.2081,-1.63103 4.1078,0 13.987,-8.875 17.148,-15.40506 2.606,-5.38307 2.7024,-6.4919 1.1803,-13.56199 -2.0327,-9.44119 -5.2219,-16.0828 -10.4947,-21.8558 -3.1758,-3.47705 -6.0318,-4.86879 -13.679,-6.6658 -6.4999,-1.52737 -10.4364,-1.85849 -12.0199,-1.01103 -1.2951,0.6931 -2.3547,0.91795 -2.3547,0.49968 0,-0.41826 -1.2,-0.11826 -2.6666,0.66667 -1.4667,0.78493 -2.6667,2.46377 -2.6667,3.73075 0,1.26696 -1.3373,2.89585 -2.9717,3.61974 -2.062,0.91328 -3.3101,3.04894 -4.0772,6.97683 -0.914,4.67941 -1.7279,5.79104 -4.695,6.41276 -8.2079,1.7198 -10.027,5.50165 -6.3616,13.22583 1.158,2.44041 2.1055,4.91044 2.1055,5.48896 0,1.54489 10.7398,11.1014 15,13.34728 2.0167,1.06314 3.6667,2.51758 3.6667,3.23209 0,0.71451 1.3853,1.29909 3.0785,1.29909 1.6931,0 4.2055,0.82414 5.5831,1.83142 3.0189,2.20752 10.2582,2.07585 11.0169,-0.20039 z m -880.43898,7.03172 c -12.46848,-2.95627 -22.39981,-10.7992 -28.6964,-22.66201 -1.16794,-2.2004 -2.87412,-8.72862 -3.79149,-14.50714 -1.92375,-12.11745 -0.44108,-20.50328 4.62528,-26.16026 1.64192,-1.83334 3.96869,-5.28234 5.17061,-7.66444 4.57535,-9.068 21.91754,-20.92423 29.17783,-19.94784 2.04895,0.27554 4.03436,10e-4 4.41203,-0.61003 1.15486,-1.86863 11.48397,-1.16633 18.52926,1.25985 9.77258,3.36536 17.48382,8.15519 19.53236,12.1325 0.99054,1.92314 2.47247,4.21097 3.29318,5.08406 0.82072,0.8731 2.55518,6.10123 3.85438,11.61807 4.08166,17.33219 1.2177,39.44799 -5.67992,43.86075 -0.91666,0.58644 -1.67948,1.78644 -1.69513,2.66666 -0.028,1.5743 -9.42975,8.93375 -11.41292,8.93375 -0.55841,0 -2.12131,1.00092 -3.47308,2.22425 -1.35179,1.22335 -3.49903,2.3366 -4.77165,2.47391 -1.27264,0.13729 -3.81388,0.59789 -5.64722,1.02355 -7.25698,1.68485 -16.99705,1.79893 -23.42712,0.27437 z m 28.55495,-18.99887 c 4.29423,-1.57392 7.2012,-4.028 11.22769,-9.47845 5.83371,-7.89681 9.02783,-18.91203 6.40159,-22.07645 -0.77035,-0.92822 -1.09807,-1.99023 -0.72827,-2.36003 1.09159,-1.0916 -5.49804,-14.8964 -8.20642,-17.19188 -4.36098,-3.69612 -16.11947,-7.8904 -22.1204,-7.8904 -3.36698,0 -8.30142,1.25955 -11.75283,3 -4.98649,2.51455 -6.01701,3.70412 -6.36833,7.35129 -0.33216,3.44819 -1.30074,4.7198 -4.66667,6.1268 -2.33613,0.97652 -4.97647,2.65456 -5.86741,3.72896 -1.9846,2.39327 -3.54434,21.12628 -1.759,21.12628 0.69193,0 1.64906,2.08426 2.12696,4.63167 1.12545,5.99916 9.68381,14.46076 15.56462,15.38864 6.9891,1.10276 19.88008,-0.0589 26.14847,-2.35643 z m 2064.75013,5.7863 c -1.5337,-1.08462 -5.5912,-2.6777 -9.0164,-3.54018 -3.4252,-0.86248 -7.5702,-2.98469 -9.2113,-4.71604 -1.6409,-1.73133 -3.5847,-3.15825 -4.3192,-3.17092 -0.7347,-0.0133 -2.8089,-2.87304 -4.6097,-6.35637 -1.8007,-3.48333 -4.6496,-8.02937 -6.331,-10.10231 -2.0132,-2.48197 -3.057,-5.53377 -3.057,-8.93725 0,-2.84256 -0.6358,-6.56353 -1.4127,-8.26883 -1.3968,-3.0655 -0.7401,-5.94434 2.7428,-12.02494 0.7351,-1.28334 1.8267,-3.34324 2.4256,-4.57756 0.5991,-1.23432 2.2237,-2.88432 3.6104,-3.66667 5.2273,-2.94915 6.2227,-4.82263 6.17,-11.61356 -0.045,-5.86797 0.6691,-7.76957 5.2477,-13.96749 2.9151,-3.9461 5.9407,-7.17472 6.7234,-7.17472 0.7826,0 3.3137,-0.82966 5.6246,-1.84368 12.1115,-5.3147 21.1144,-6.85296 28.2015,-4.81858 2.2,0.63152 6.4103,1.8388 9.3561,2.68283 8.2348,2.3594 16.5468,11.16064 22.4792,23.8026 7.2498,15.44881 8.3596,20.14497 9.7251,41.14808 0.7773,11.95648 0.6948,12.44687 -2.9188,17.33333 -5.3852,7.28211 -12.9253,13.87184 -14.9733,13.08596 -0.9731,-0.37341 -2.076,0.12054 -2.451,1.09756 -0.3749,0.97706 -2.4102,1.82562 -4.5229,1.8857 -2.1127,0.0601 -5.3752,1.11432 -7.2501,2.34277 -2.2251,1.45793 -5.2671,2.05636 -8.7599,1.72327 -2.9431,-0.28067 -5.3527,-0.19446 -5.3547,0.19158 -0.013,1.78494 -15.4882,1.34531 -18.1184,-0.51458 z m 40.122,-12.78351 c 0.4532,-0.73333 0.1887,-1.33333 -0.588,-1.33333 -0.7765,0 -1.412,0.6 -1.412,1.33333 0,0.73333 0.2646,1.33333 0.588,1.33333 0.3234,0 0.9588,-0.6 1.412,-1.33333 z m -4.1628,-2.63725 c 0.7496,-0.74951 2.2326,-1.36275 3.2958,-1.36275 1.063,0 4.8977,-3.09235 8.5216,-6.87189 l 6.5886,-6.8719 -2.0464,-16.94261 c -2.0296,-16.80483 -4.8938,-25.46585 -9.7562,-29.50132 -1.1284,-0.93648 -2.5456,-3.00167 -3.1492,-4.58931 -1.3294,-3.49652 -11.7547,-9.55554 -17.6692,-10.26909 -2.3588,-0.28459 -6.0888,0.0236 -8.2888,0.68476 -4.9791,1.49647 -7.6022,2.128 -9.384,2.25935 -0.7612,0.0561 -4.6362,3.15532 -8.6111,6.88714 l -7.2271,6.78514 0.3631,9.75005 c 0.3199,8.58796 0.013,10.07536 -2.5664,12.47936 -2.1149,1.97028 -3.9927,2.51671 -6.752,1.96481 l -3.8225,-0.76449 v 7.98685 c 0,5.96794 0.6741,8.84382 2.6666,11.37698 1.4667,1.86456 2.6667,3.95368 2.6667,4.64246 0,5.00467 13.6611,12.06622 26,13.43972 11.684,1.3006 27.3692,0.71812 29.1705,-1.08326 z M 347.2009,350.13229 c -8.46198,-9.55145 -7.29418,-8.48295 -19.31998,-17.6774 -5.15292,-3.93973 -10.20432,-8.72403 -11.22531,-10.63177 -1.02099,-1.90774 -2.65496,-3.46862 -3.63104,-3.46862 -0.97608,0 -1.77469,-0.9 -1.77469,-2 0,-1.1 -0.7838,-2 -1.74178,-2 -0.95797,0 -5.30797,-4.03024 -9.66666,-8.95609 -4.3587,-4.92585 -9.8749,-10.73625 -12.25823,-12.912 -2.38333,-2.17575 -4.33333,-4.48608 -4.33333,-5.13408 0,-0.648 -3.57403,-4.71905 -7.94227,-9.0468 -4.36825,-4.32775 -8.93725,-9.38716 -10.15335,-11.24316 -1.21609,-1.85599 -2.97788,-3.37453 -3.91508,-3.37453 -0.9372,0 -2.025,-0.8365 -2.41732,-1.85888 -0.39233,-1.02239 -3.37326,-5.37239 -6.6243,-9.66667 -10.50542,-13.87656 -12.62283,-20.60851 -7.8427,-24.93447 1.34108,-1.21366 4.0741,-2.20665 6.07338,-2.20665 3.09684,0 4.10076,1.03643 6.78041,7 1.72995,3.85 6.34693,10.32355 10.25996,14.38565 3.91303,4.06211 8.3146,9.1391 9.78127,11.2822 1.46666,2.1431 5.96666,6.9146 10,10.60335 4.03333,3.68875 9.73333,9.38019 12.66666,12.64765 5.33944,5.94764 24.46698,25.00652 30.25594,30.14732 1.69257,1.50307 3.95985,4.05307 5.03841,5.66667 1.07856,1.6136 2.66036,2.93383 3.51513,2.93383 2.2602,0 24.48556,23.72568 26.02955,27.78666 1.45147,3.81766 0.43127,10.07711 -1.45265,8.91279 -0.66116,-0.40863 -1.57899,-0.1332 -2.0396,0.61213 -2.14039,3.46322 -7.02256,1.07908 -14.06242,-6.86713 z M 70.183209,340.7545 c -2.93589,-2.93589 -1.93709,-12.31354 1.73333,-16.274 1.83334,-1.9782 3.33334,-5.07773 3.33334,-6.88785 0,-1.81013 1.51846,-5.69655 3.37437,-8.63648 1.85589,-2.93995 3.74076,-7.27801 4.18859,-9.64017 0.44782,-2.36216 2.63565,-7.89483 4.86182,-12.29483 6.23894,-12.33116 6.4718,-12.88119 5.75642,-13.59657 -0.6726,-0.6726 10.980081,-23.4914 15.185411,-29.73676 1.23448,-1.83334 2.64344,-4.98334 3.13101,-7 0.48759,-2.01667 1.47508,-3.66667 2.19444,-3.66667 0.71936,0 1.30794,-1.76459 1.30794,-3.92131 0,-2.15672 0.6,-4.29213 1.33333,-4.74536 0.73333,-0.45322 1.33333,-2.55461 1.33333,-4.66974 0,-7.01911 10.31787,-10.9647 13.4362,-5.13804 2.17107,4.05665 0.73334,12.21198 -3.82008,21.66888 -16.13137,33.50292 -20.13932,42.03948 -21.66248,46.1389 -0.95364,2.56667 -2.22796,5.32167 -2.83181,6.12222 -0.60385,0.80054 -2.26395,5.10554 -3.689111,9.56666 -1.42514,4.46111 -4.73053,12.24511 -7.34528,17.29778 -2.61476,5.05266 -4.7541,9.68977 -4.7541,10.30468 0,0.61492 -1.48228,4.2513 -3.29396,8.08086 -2.15636,4.55818 -4.34363,7.24407 -6.33334,7.77712 -4.38314,1.17427 -5.64264,1.04742 -7.43937,-0.74932 z m 1902.127991,-3.4 c -4.3445,-5.02192 -3.9281,-8.47193 1.8004,-14.91566 2.9749,-3.34639 7.8128,-8.78434 10.7508,-12.08434 10.41,-11.69269 17.7793,-18.90144 22.4016,-21.91352 2.5744,-1.67761 7.3744,-6.2098 10.6667,-10.0715 7.048,-8.26707 9.5334,-10.84754 17.4254,-18.09126 3.2416,-2.97528 6.77,-7.07173 7.841,-9.10322 1.0709,-2.03151 3.0209,-4.2683 4.3333,-4.97064 1.3124,-0.70236 2.3861,-2.39171 2.3861,-3.75411 0,-1.36241 0.9,-2.82247 2,-3.24459 1.1,-0.4221 2,-1.41884 2,-2.21496 0,-0.79612 1.7508,-3.32084 3.8907,-5.61048 2.1399,-2.28965 5.7328,-7.8071 7.9844,-12.26102 2.2516,-4.45392 6.8008,-10.94578 10.1093,-14.42636 3.3087,-3.48059 6.0156,-7.20971 6.0156,-8.28695 0,-1.07723 1.65,-3.92948 3.6667,-6.33832 5.2816,-6.30877 9.6667,-12.74256 9.6667,-14.18309 0,-1.4582 3.2236,-2.86331 6.569,-2.86331 2.8474,0 6.7643,4.06613 6.7643,7.022 0,2.53596 -10.6641,19.64467 -12.2448,19.64467 -0.5987,0 -1.0885,1.12653 -1.0885,2.50341 0,1.37687 -0.9816,3.31805 -2.1814,4.31376 -1.1997,0.99569 -3.5476,3.91916 -5.2173,6.49659 -1.6699,2.57742 -4.4647,6.18624 -6.2107,8.01957 -1.746,1.83333 -6.1481,8.34424 -9.7826,14.46868 -7.4275,12.51635 -13.2138,19.6834 -29.4164,36.43637 -6.1554,6.36446 -11.1916,12.24586 -11.1916,13.06978 0,1.53453 -18.9148,20.33638 -27.3195,27.15649 -2.5743,2.08889 -4.6805,4.40255 -4.6805,5.14144 0,0.73891 -1.5,2.52335 -3.3334,3.96545 -1.8333,1.44211 -3.3333,3.19868 -3.3333,3.9035 0,2.5225 -13.75,14.52496 -16.6399,14.52496 -0.8874,0 -2.5218,-1.05 -3.6321,-2.33334 z M 694.72533,332.02117 c -0.44896,-2.75 -1.46331,-11.5972 -2.25409,-19.66045 -0.7908,-8.06324 -2.09799,-15.45591 -2.90487,-16.42815 -1.02931,-1.24024 -4.67719,-1.69793 -12.22511,-1.53391 -5.91693,0.12867 -15.15374,-0.21958 -20.52626,-0.77373 -11.04892,-1.13965 -14.04888,-3.6288 -12.78352,-10.60683 1.30661,-7.20554 2.09297,-7.46441 20.54389,-6.76292 20.27361,0.77079 24.81468,-0.10333 24.34536,-4.68645 -0.98871,-9.65489 -1.66091,-32.96452 -1.02512,-35.54756 0.42684,-1.73417 1.75669,-3 3.15175,-3 3.99606,0 8.07408,11.007 9.55885,25.80035 0.725,7.22352 1.65183,13.67352 2.05961,14.33333 1.02087,1.65179 15.58659,1.51289 20.06918,-0.19139 5.40562,-2.05521 9.19606,2.0086 7.96989,8.5447 -1.2528,6.67802 -7.30959,10.75018 -16.07036,10.80461 -5.94268,0.0369 -6.99903,0.48793 -9.15315,3.90807 -2.30664,3.66226 -2.32408,4.47154 -0.33061,15.33333 2.5118,13.68607 2.67912,21.68699 0.49911,23.867 -0.88,0.88 -3.51436,1.6 -5.85412,1.6 -3.88188,0 -4.32556,-0.43752 -5.07043,-5 z m 1753.03757,-1.35375 c -0.8178,-0.53877 -1.881,-2.24378 -2.3626,-3.78892 -0.4818,-1.54514 -2.0491,-3.34514 -3.4831,-4 -3.2351,-1.47732 -24.0007,-21.64524 -24.0007,-23.30986 0,-0.66778 -0.6105,-1.21414 -1.3569,-1.21414 -0.7463,0 -3.4127,-1.95 -5.9252,-4.33333 -2.5127,-2.38333 -6.4848,-5.83333 -8.8268,-7.66667 -2.3421,-1.83333 -12.8213,-11.73333 -23.2871,-22 -10.4657,-10.26666 -24.8968,-24.06666 -32.0689,-30.66666 -7.1723,-6.6 -20.6884,-19.58714 -30.0359,-28.86031 -15.211,-15.09009 -16.986,-17.32993 -16.905,-21.33333 0.108,-5.36179 1.798,-7.80636 5.3957,-7.80636 3.0301,0 21.1497,15.49454 43.6768,37.3492 8.4333,8.18158 18.1833,17.63602 21.6667,21.00988 3.4833,3.37384 6.3333,6.63812 6.3333,7.25393 0,0.61581 1.4309,1.66371 3.1799,2.32865 1.749,0.66496 7.299,6.00107 12.3333,11.85803 5.0344,5.85696 10.0535,11.00007 11.1535,11.42915 1.1,0.42908 5.3,3.92726 9.3333,7.77376 4.0333,3.84649 7.6333,6.92016 8,6.83036 0.3667,-0.0897 4.8667,3.91064 10,8.88985 5.1333,4.97921 11.4823,11.05353 14.1088,13.49848 4.9676,4.6242 10.5579,15.96893 10.5579,21.42588 0,5.01324 -3.8304,7.74132 -7.487,5.33241 z M 1666.5832,306.3215 c -10.7104,-0.6318 -17.3224,-1.66125 -20,-3.11386 -2.2,-1.19352 -3.25,-2.17374 -2.3333,-2.17826 0.9166,-0.004 1.6574,-1.05821 1.6462,-2.34154 -0.013,-1.51198 -0.3662,-1.78974 -1.003,-0.78904 -0.5404,0.84936 -3.2314,1.96613 -5.9796,2.48172 -2.7483,0.51558 -5.0062,1.62065 -5.0174,2.4557 -0.013,0.83506 -0.6112,0.61828 -1.3333,-0.48172 -0.9788,-1.49097 -1.5761,-1.59413 -2.3471,-0.40536 -1.238,1.90894 -47.6744,3.59826 -54.9658,1.99962 -4.3236,-0.94792 -4.6966,-1.42998 -5.0726,-6.55634 -0.3277,-4.46896 0.1227,-5.8161 2.3428,-7.0042 2.3595,-1.26272 27.4542,-3.05872 35.3964,-2.53326 1.4667,0.0971 4.7667,0.16678 7.3334,0.15502 2.5666,-0.012 12.7666,-0.0133 22.6666,-0.003 9.9,0.0107 23.0736,-0.0895 29.2747,-0.22118 19.8744,-0.42205 24.0587,1.54296 24.0587,11.29823 0,2.59975 -0.6838,3.2706 -3.3334,3.2706 -2.4444,0 -3.3333,0.71111 -3.3333,2.66667 0,1.46666 -0.45,2.5716 -1,2.45541 -0.55,-0.11613 -8.2,-0.63597 -17,-1.15508 z m 0.4756,-53.93585 c -0.3496,-0.34955 -4.1996,-0.71289 -8.5556,-0.80744 -4.356,-0.0945 -10.92,-0.68616 -14.5867,-1.31469 -6.1226,-1.04955 -31.6504,-2.45343 -54.795,-3.01342 -6.1543,-0.1489 -10.3084,-0.92808 -11.8835,-2.22893 -1.656,-1.36752 -2.5828,-1.52197 -2.9311,-0.48841 -0.6669,1.97974 -10.8146,-0.21222 -13.8972,-3.0019 -3.0804,-2.78774 -3.803,-7.94977 -1.561,-11.15066 1.9276,-2.75219 6.3322,-3.62806 7.636,-1.51847 0.399,0.64564 5.9844,1.22239 12.412,1.28165 12.4389,0.11467 17.0688,0.5454 27.6865,2.57571 3.6667,0.70112 21.0667,1.10804 38.6667,0.90424 30.8654,-0.3574 32.1064,-0.27187 35,2.41273 2.0965,1.94506 3,4.30919 3,7.84995 0,4.26215 -0.6247,5.38969 -3.9338,7.10092 -3.7465,1.93739 -10.9021,2.75393 -12.2573,1.39872 z M 247.52129,181.75792 c -6.43072,-2.25415 -10.24467,-4.77288 -16.29847,-10.76352 -4.34676,-4.30142 -8.08877,-7.55506 -8.31557,-7.23032 -0.2268,0.32473 -1.25131,2.25432 -2.27669,4.28796 -3.07519,6.09902 -14.0361,12.24062 -25.0721,14.04833 -17.06789,2.79575 -25.60796,1.47087 -32.22717,-4.99961 -2.12741,-2.07962 -5.99252,-5.40155 -8.58911,-7.38207 -2.5966,-1.98052 -5.12896,-4.88607 -5.62749,-6.45677 -0.49852,-1.57071 -2.11119,-4.48539 -3.58369,-6.47707 -2.32012,-3.13812 -2.56168,-4.86523 -1.81066,-12.94593 0.5819,-6.26094 0.38116,-9.62475 -0.61093,-10.2379 -1.06828,-0.66022 -1.04808,-1.17862 0.0729,-1.87145 0.85278,-0.52705 1.89435,-4.50205 2.31458,-8.83333 0.79644,-8.2086 5.87918,-17.44514 8.65558,-15.72923 0.76754,0.47436 1.77843,0.32173 2.24643,-0.33915 4.21079,-5.94614 23.8356,-9.422444 30.08319,-5.32886 1.83732,1.20386 4.1197,2.18884 5.07197,2.18884 0.95225,0 4.92359,2.14977 8.8252,4.77726 3.9016,2.6275 7.40975,4.46134 7.79588,4.0752 0.38613,-0.38613 0.89781,-3.98514 1.13708,-7.99782 0.96677,-16.213704 11.82808,-26.205004 15.42739,-14.191634 1.36305,4.54949 1.27977,5.68 -0.56892,7.72279 -2.6622,2.941704 -4.69283,17.614204 -2.43775,17.614204 0.83429,0 1.51691,1.12402 1.51691,2.49782 0,4.58658 4.90737,22.10715 7.58154,27.06804 1.45251,2.69455 4.54087,6.49788 6.86302,8.45186 2.32216,1.95396 4.23393,4.24933 4.2484,5.1008 0.0284,1.67396 13.80782,10.21481 16.48008,10.21481 2.52478,0 4.82696,2.90307 4.82696,6.08685 0,2.88704 -4.726,10.05523 -6.43011,9.75291 -0.49677,-0.0881 -4.68109,-1.48449 -9.29848,-3.10301 z m -49.87116,-16.70959 c 9.22704,-2.16555 11.9914,-5.90367 9.79269,-13.24228 -0.83945,-2.80185 -1.53962,-6.52465 -1.55593,-8.27291 -0.0163,-1.74825 -1.20296,-4.67864 -2.63701,-6.51197 -1.43406,-1.83333 -2.62071,-4.26156 -2.63702,-5.39607 -0.0163,-1.1345 -2.40686,-4.38402 -5.31234,-7.22114 -8.0987,-7.90818 -18.14562,-10.54188 -27.4205,-7.18804 -3.49654,1.26437 -4.50069,2.6005 -5.81844,7.7421 -0.87593,3.41771 -1.14525,7.38007 -0.59848,8.80526 2.51438,6.55376 8.94151,13.98124 14.50071,16.75764 6.7188,3.35552 7.91033,7.51686 3.28607,11.47629 -3.69972,3.16779 -3.50054,6.189 0.34441,5.22399 1.65609,-0.41566 3.87376,-0.22258 4.92816,0.42908 1.05439,0.65165 2.8494,0.70597 3.98892,0.12066 1.13951,-0.58525 5.25195,-1.81045 9.13876,-2.72266 z m 874.12777,16.04453 c -8.024,-4.60222 -16.7517,-14.57821 -19.3099,-22.07169 -1.0015,-2.93333 -3.1852,-7.57141 -4.8528,-10.30684 -1.6676,-2.73543 -3.032,-5.6646 -3.032,-6.50928 0,-0.84468 -1.2788,-3.60496 -2.8418,-6.13395 -1.563,-2.52898 -3.0065,-7.0998 -3.2078,-10.15737 -0.5927,-9.00432 -3.3764,-24.06431 -4.7551,-25.72552 -1.9998,-2.409654 -0.4836,-33.346764 1.8076,-36.881924 1.0522,-1.62348 2.3287,-5.59276 2.8365,-8.82063 1.1181,-7.10585 6.9566,-14.89345 13.8365,-18.45546 6.2273,-3.22415 16.5352,-2.3221 26.0988,2.2839 17.4815,8.41948 24.6587,39.05696 15.1431,64.641874 -1.7249,4.63788 -16.5672,19.79259 -22.2755,22.74449 -2.1866,1.13072 -3.9756,2.64044 -3.9756,3.35495 0,0.71451 -0.75,1.31805 -1.6667,1.34123 -0.9167,0.0232 -3.3167,1.4944 -5.3333,3.26938 -3.6965,3.25346 -4.707,6.55484 -2.436,7.95842 0.677,0.41836 1.6388,2.61824 2.1375,4.88862 0.9974,4.54114 5.2179,11.39278 11.3153,18.36926 3.2205,3.68486 5.1388,4.63809 10.3036,5.1202 5.4279,0.50665 7.0649,0.0444 11.3122,-3.19448 4.1063,-3.13128 5.6057,-5.71919 8.6608,-14.9485 l 3.6948,-11.16164 7.1484,-3.16134 c 7.2314,-3.19808 9.124,-3.22032 19.2274,-0.22594 5.2606,1.5591 6.942,4.4837 6.0798,10.57494 -0.4114,2.90685 -1.1248,3.16374 -9.7772,3.52125 -7.7794,0.32143 -9.7168,0.87639 -11.637,3.33333 -1.267,1.62123 -2.317,4.0216 -2.3333,5.33415 -0.043,3.44447 -5.0778,12.99127 -9.1764,17.39925 -5.2656,5.66314 -9.8841,7.54899 -18.4537,7.53512 -6.0961,-0.009 -9.1733,-0.83869 -14.5382,-3.9158 z m -12.3463,-64.73836 c 3.7313,-2.56666 7.4668,-4.68668 8.3012,-4.71116 0.8344,-0.0244 4.6671,-4.17693 8.5171,-9.2277 5.0139,-6.577724 7,-10.372964 7,-13.376514 0,-2.30629 0.6773,-5.45885 1.5051,-7.00568 2.0601,-3.84929 -0.8332,-19.79848 -4.4184,-24.35633 -3.1848,-4.04879 -14.4019,-10.00918 -18.7091,-9.94134 -5.3485,0.0843 -10.2519,5.54207 -13.8073,15.36846 -2.9591,8.17852 -3.3421,11.32188 -3.3054,27.1305 0.032,13.646484 0.5183,18.607844 2.055,20.953104 1.1074,1.69006 2.0134,4.19396 2.0134,5.5642 0,5.59678 2.2543,5.51418 10.8484,-0.39754 z m 1131.1516,49.71134 c -1.4667,-0.80586 -3.5667,-1.97492 -4.6667,-2.59794 -1.1,-0.62301 -3.5,-1.85077 -5.3333,-2.72833 -4.9144,-2.35241 -14.6629,-12.71703 -16.8225,-17.88583 -1.034,-2.47458 -2.4719,-4.49924 -3.1954,-4.49924 -0.7234,0 -1.3154,-0.82653 -1.3154,-1.83674 0,-1.0102 -0.9222,-2.60206 -2.0492,-3.53744 -1.1271,-0.9354 -1.9194,-2.65887 -1.7606,-3.82994 0.1587,-1.17106 -0.7192,-4.45249 -1.9508,-7.29204 -1.2317,-2.83956 -2.2394,-5.86956 -2.2394,-6.73333 0,-0.86379 -0.5947,-2.16513 -1.3214,-2.89188 -1.3884,-1.38837 1.0439,-16.578754 2.8671,-17.905394 0.524,-0.38137 2.1513,-3.48917 3.616,-6.90621 1.4647,-3.41703 4.0525,-6.94481 5.7507,-7.83951 1.6981,-0.8947 3.3876,-1.9869 3.7542,-2.42712 1.607,-1.92925 9.3282,-5.46706 11.9318,-5.46706 5.5116,0 20.8032,4.52905 27.9052,8.26489 7.55,3.97156 10.8297,3.48427 10.8297,-1.60908 0,-4.38591 3.2435,-8.64533 6.9084,-9.07257 4.9043,-0.57168 6.2084,2.4095 7.2752,16.63076 0.6305,8.40596 1.5913,12.69792 3.3503,14.965814 1.3564,1.74889 2.4926,4.74889 2.5249,6.66667 0.2765,16.38458 11.9772,29.48685 26.3327,29.48685 3.6526,0 5.984,0.89452 8.0428,3.08593 3.8025,4.04767 3.664,7.01806 -0.4534,9.7158 -2.9898,1.95908 -4.6834,2.01682 -15.6666,0.53403 l -12.3143,-1.66251 -5.5688,5.35027 c -6.0108,5.77472 -11.4176,8.91577 -17.7359,10.30351 -2.1989,0.48297 -4.3404,1.43197 -4.7586,2.10889 -1.0606,1.71597 -20.6854,1.3952 -23.9367,-0.39125 z m 21.2973,-14.31978 c 0.4335,-0.7013 1.7556,-0.90381 2.9382,-0.45002 1.1992,0.46016 2.802,-0.0523 3.624,-1.15842 0.8106,-1.09092 2.9757,-2.9604 4.8114,-4.15438 2.7948,-1.81784 3.4039,-3.37987 3.7452,-9.60474 0.2632,-4.7984 -0.3292,-8.91098 -1.6709,-11.60044 -1.1432,-2.29162 -2.0785,-5.68181 -2.0785,-7.53374 0,-8.15794 -7.2258,-17.556484 -13.4978,-17.556484 -1.0997,0 -3.1625,-1.071 -4.5841,-2.37999 -5.1455,-4.73775 -9.2499,-6.95335 -12.8815,-6.95335 -2.0368,0 -3.7033,-0.50497 -3.7033,-1.12216 0,-0.61717 -2.8256,-1.16486 -6.2791,-1.21706 -14.4878,-0.21903 -21.894,15.049494 -15.0473,31.021984 1.5359,3.58304 3.7673,6.52322 5.2441,6.90939 2.9144,0.76215 7.3476,9.02716 6.0062,11.19764 -0.9492,1.53585 5.6488,9.17887 7.9922,9.25816 0.7795,0.0264 3.2172,1.5234 5.4172,3.32672 3.2055,2.62748 5.5072,3.28007 11.588,3.28537 4.1734,0.004 7.9426,-0.56717 8.376,-1.26848 z"
     id="path2074"
     inkscape:connector-curvature="0" />
  <rect
     style="opacity:1;fill:none;fill-opacity:1;stroke:#ff8080;stroke-width:7.55905533;stroke-miterlimit:4;stroke-dasharray:none"
     id="rect2076"
     width="397.14145"
     height="716.71625"
     x="1713.0277"
     y="308.53296" />
  <rect
     y="13.779528"
     x="856.69141"
     height="784.97491"
     width="474.7081"
     id="rect2078"
     style="opacity:1;fill:none;fill-opacity:1;stroke:#ff8080;stroke-width:7.55905533;stroke-miterlimit:4;stroke-dasharray:none" />
</svg>
