<?xml version="1.0" encoding="UTF-8" standalone="no"?>
<!-- Created with Inkscape (http://www.inkscape.org/) -->

<svg
   xmlns:dc="http://purl.org/dc/elements/1.1/"
   xmlns:cc="http://creativecommons.org/ns#"
   xmlns:rdf="http://www.w3.org/1999/02/22-rdf-syntax-ns#"
   xmlns:svg="http://www.w3.org/2000/svg"
   xmlns="http://www.w3.org/2000/svg"
   xmlns:sodipodi="http://sodipodi.sourceforge.net/DTD/sodipodi-0.dtd"
   xmlns:inkscape="http://www.inkscape.org/namespaces/inkscape"
   version="1.1"
   id="svg2127"
   width="3456"
   height="1072"
   viewBox="0 0 3456 1072"
   sodipodi:docname="08.svg"
   inkscape:version="0.92.2 2405546, 2018-03-11"
   inkscape:export-filename="/home/jasper/Documents/Projects/jaspervdj/drafts/08.png"
   inkscape:export-xdpi="33.330002"
   inkscape:export-ydpi="33.330002">
  <metadata
     id="metadata2133">
    <rdf:RDF>
      <cc:Work
         rdf:about="">
        <dc:format>image/svg+xml</dc:format>
        <dc:type
           rdf:resource="http://purl.org/dc/dcmitype/StillImage" />
        <dc:title></dc:title>
      </cc:Work>
    </rdf:RDF>
  </metadata>
  <defs
     id="defs2131" />
  <sodipodi:namedview
     pagecolor="#ffffff"
     bordercolor="#666666"
     borderopacity="1"
     objecttolerance="10"
     gridtolerance="10"
     guidetolerance="10"
     inkscape:pageopacity="0"
     inkscape:pageshadow="2"
     inkscape:window-width="1656"
     inkscape:window-height="904"
     id="namedview2129"
     showgrid="false"
     inkscape:zoom="0.27863682"
     inkscape:cx="917.10913"
     inkscape:cy="536"
     inkscape:window-x="0"
     inkscape:window-y="0"
     inkscape:window-maximized="0"
     inkscape:current-layer="svg2127" />
  <path
     style="fill:#000000;stroke-width:1.33333337"
     d="m 3043.2321,888.66667 c -9.441,-4.66159 -25.832,-16.62858 -25.8716,-18.8889 -0.015,-0.85554 -0.5028,-1.75554 -1.084,-2 -1.6089,-0.67668 -6.943,-9.84438 -6.9442,-11.93514 -6e-4,-1.01346 -1.7974,-5.63976 -3.993,-10.28071 -2.1954,-4.64093 -4.4294,-10.04093 -4.9642,-12 -1.4543,-5.32723 -0.8147,-26.98895 0.846,-28.64963 0.795,-0.79509 1.4525,-2.37562 1.4609,-3.51229 0.017,-2.2704 8.0755,-6.63283 13.326,-7.21387 1.8289,-0.20238 4.6359,-1.07706 6.2377,-1.94372 3.5558,-1.9239 9.073,-2.0342 12.4103,-0.24812 2.5621,1.37119 8.8739,10.14738 11.5113,16.00571 4.5159,10.0308 4.6035,10.67052 2.1779,15.89469 -2.7705,5.96667 -15.6708,17.8973 -22.3857,20.70296 l -4.728,1.97552 2.6217,5.04675 c 2.4052,4.62997 10.5281,12.33923 13.0756,12.40973 0.5892,0.0163 2.5712,1.20296 4.4045,2.63702 1.8334,1.43405 4.8904,2.6207 6.7934,2.63701 1.903,0.0163 4.546,1.22965 5.8733,2.69632 1.4873,1.64345 4.1067,2.66667 6.8264,2.66667 4.9767,0 7.1736,2.7683 7.1736,9.03902 0,9.0408 -11.7417,11.39267 -24.7679,4.96098 z m -23.4194,-61.90446 c 2.7718,-1.4141 6.7062,-5.08922 8.7429,-8.1669 3.61,-5.45512 3.6408,-5.65815 1.2235,-8.07544 -2.1474,-2.14734 -3.192,-2.28508 -7.796,-1.0278 -2.924,0.79852 -6.0143,2.01965 -6.8672,2.71364 -1.8152,1.47692 -3.7467,13.6949 -2.4872,15.73284 1.139,1.84302 1.3254,1.8125 7.184,-1.17634 z m 3.1649,-74.16114 c -2.8684,-2.00911 -2.9337,-2.62002 -2.3892,-22.33334 0.5584,-20.21928 1.8724,-52.60964 2.6773,-66.0019 0.2336,-3.88712 0.7944,-7.43712 1.2463,-7.88888 0.4517,-0.45178 0.8347,-4.47139 0.8509,-8.93251 0.035,-9.64577 2.9271,-14.62745 8.0692,-13.90124 2.5272,0.35689 3.7514,1.91483 5.5978,7.12347 1.9658,5.54545 2.217,9.13333 1.4937,21.33333 -0.4784,8.06667 -1.1157,20.36667 -1.4163,27.33333 -1.1346,26.28986 -3.272,62.06291 -3.804,63.66667 -0.7757,2.33817 -8.7881,2.07884 -12.3257,-0.39893 z M 1862.0317,685.13759 c -5.116,-0.65547 -11.7554,-2.37958 -14.7544,-3.83135 -2.9989,-1.45176 -6.1014,-2.63957 -6.8945,-2.63957 -1.4229,0 -7.0045,-4.39355 -13.2517,-10.43111 -2.3647,-2.28529 -4.1574,-2.89791 -6.835,-2.33571 -4.1593,0.87334 -5.9328,-0.0347 -8.0965,-4.14553 -2.3308,-4.42824 -1.8383,-9.92413 1.1772,-13.13392 2.1831,-2.32379 2.458,-3.54799 1.4136,-6.29493 -2.1921,-5.76594 -3.2677,-19.58138 -1.7703,-22.74068 0.7607,-1.60496 2.3118,-7.96148 3.4468,-14.1256 1.8072,-9.81468 2.6843,-11.84302 7.0575,-16.32151 6.95,-7.11751 12.6584,-8.05752 18.0313,-2.96928 5.0202,4.75413 6.1691,7.54007 9.0924,22.04569 1.983,9.83988 2.0924,12.89594 0.7404,20.66667 -1.684,9.67855 -4.0833,15.2704 -8.6086,20.06349 -3.4838,3.6897 -3.5002,5.77979 -0.075,9.45676 5.1649,5.54383 10.6833,7.46856 29.9613,10.45007 10.198,1.5772 14.3852,9.15033 8.2474,14.91651 -3.3086,3.1083 -4.5895,3.20124 -18.8823,1.37 z m -29.0748,-50.80426 c 1.5154,-1.65 3.1892,-5.1 3.7198,-7.66666 0.5305,-2.56667 1.5156,-5.35263 2.189,-6.19103 1.2907,-1.60657 -2.5405,-17.80897 -4.211,-17.80897 -3.0448,0 -5.6702,5.86496 -5.9614,13.31756 -0.1737,4.44548 -0.7008,8.46762 -1.1712,8.93812 -1.935,1.93509 -0.4821,12.41098 1.7215,12.41098 0.5271,0 2.198,-1.35 3.7133,-3 z M 3253,613.36659 c -2.0167,-1.5914 -3.6667,-2.58551 -3.6667,-2.2091 0,1.77058 -7.1573,-3.29773 -8.5217,-6.03449 -2.2397,-4.49248 -5.6121,-4.53375 -10.6276,-0.13 -9.8955,8.68824 -23.4313,8.45395 -32.682,-0.56568 -2.6595,-2.59301 -5.8972,-5.46469 -7.1949,-6.38151 -2.4271,-1.71464 -6.0055,-12.15426 -7.2368,-21.11236 -0.5055,-3.6776 -0.06,-5.76946 1.6238,-7.63044 1.2762,-1.41012 2.528,-5.01486 2.782,-8.01054 0.5415,-6.38618 1.3194,-7.95911 3.9359,-7.95911 1.0568,0 1.9213,-0.80701 1.9213,-1.79335 0,-4.07749 5.1671,-6.51452 15.611,-7.36281 l 10.389,-0.84387 -0.3458,-20 C 3218.5917,500.4532 3220.4333,492 3225.814,492 c 6.7733,0 8.6756,6.59893 6.9313,24.04335 -0.6569,6.56946 -0.4662,12.04162 0.5514,15.82054 0.8556,3.17746 1.818,8.95154 2.1385,12.8313 0.3207,3.87974 1.7657,9.66049 3.2112,12.84612 1.4456,3.18561 2.6416,8.20852 2.6576,11.16201 0.016,2.95351 0.9633,6.70351 2.1049,8.33333 1.1416,1.62984 1.7032,2.96335 1.248,2.96335 -0.4552,0 0.5608,2.47097 2.2578,5.49105 2.1668,3.8564 6.1988,7.51907 13.5438,12.30354 10.2052,6.64742 10.4407,6.92218 9.7238,11.34081 -0.9288,5.7234 -0.9223,5.71796 -7.7831,6.48432 -4.5076,0.50352 -6.516,0.022 -9.3992,-2.25313 z M 3220.5788,589.935 c 4.6825,-3.06816 6.5776,-8.83283 5.5213,-16.79564 -1.0933,-8.24152 -4.9236,-12.28492 -9.6133,-10.14813 -2.0041,0.91316 -4.2545,0.88578 -7.0413,-0.0856 -3.5135,-1.22484 -4.2863,-1.0715 -5.4372,1.07901 -2.9946,5.59533 -0.1859,24.06599 4.0689,26.758 2.96,1.87283 9.0069,1.4822 12.5016,-0.80759 z m -193.6001,22.31375 c -11.986,-2.51963 -22.291,-19.43032 -23.3151,-38.26078 -0.3781,-6.95473 0.056,-12.53188 1.2483,-16.06053 2.1508,-6.36145 15.8977,-21.51991 23.976,-26.43784 3.055,-1.85985 5.9405,-4.00585 6.4121,-4.76891 2.4631,-3.98534 12.7212,3.33107 12.6864,9.04828 -0.013,1.22707 -3.4575,4.74859 -7.6667,7.8256 -17.9512,13.12274 -22.9864,19.73086 -22.9864,30.16678 0,6.1801 0.6632,8.05709 4.7278,13.38025 l 4.7277,6.19173 h 11.7713 c 6.4742,0 14.0967,-0.77568 16.939,-1.72374 7.8021,-2.60251 10.3298,-1.65176 12.7129,4.7816 1.8635,5.0304 1.8689,6.04941 0.053,9.88125 -1.1134,2.34984 -2.9786,4.65177 -4.1448,5.11541 -3.143,1.24959 -32.0997,1.92078 -37.1416,0.8609 z M 1843.6748,548.21911 c -1.6411,-2.77811 -2.3449,-7.09856 -2.4535,-15.05755 -0.1413,-10.37175 0.9854,-55.94919 1.9898,-80.49489 2.0673,-50.51594 1.9266,-48.89388 4.4022,-50.77162 1.3127,-0.99562 3.989,-1.82932 5.9474,-1.85265 4.8432,-0.0577 5.487,3.58776 4.3901,24.854 -0.8977,17.40453 -1.7912,65.46599 -1.8672,100.43693 -0.047,21.23632 -1.2032,25.73164 -6.7931,26.39088 -2.4736,0.29174 -3.898,-0.59733 -5.6157,-3.5051 z m -724.9104,-46.70322 c -3.8319,-7.15998 0.9882,-15.90366 9.2356,-16.75337 26.5417,-2.73451 49.3942,-8.25199 54.2371,-13.09491 1.1998,-1.19972 1.8244,-4.66462 1.7602,-9.76365 -0.2634,-20.90453 -0.1219,-44.887 0.4986,-84.57063 1.412,-90.30382 0.5518,-127.22222 -3.3397,-143.33333 -0.8857,-3.66667 -1.6581,-10.59341 -1.7166,-15.39277 -0.072,-5.90947 -0.8574,-9.87226 -2.4334,-12.27691 l -2.3271,-3.55079 -19.2992,0.012 c -10.6145,0.007 -20.3673,-0.54998 -21.6729,-1.23696 -1.3055,-0.68697 -6.131,-1.67757 -10.7233,-2.20132 -9.8146,-1.11936 -13.3527,-3.64828 -13.9104,-9.94269 -0.3367,-3.80047 0.2072,-4.93839 3.1643,-6.61987 3.1388,-1.78476 4.5911,-1.80425 12,-0.16101 5.4448,1.20761 17.5239,1.92368 34.1174,2.02253 21.1664,0.12614 26.0485,0.51314 27.734,2.19862 4.3119,4.31189 8.9909,32.61997 10.7685,65.14909 2.0494,37.50439 2.5808,56.20945 2.0641,72.66667 -0.2994,9.53333 -0.6291,48.59016 -0.7329,86.79294 -0.1955,71.97582 -0.3379,73.8738 -5.5426,73.8738 -0.9318,0 -2.0395,0.9 -2.4616,2 -0.4221,1.1 -1.8363,2.0076 -3.1427,2.0169 -1.3063,0.009 -5.9097,1.80928 -10.2297,4 -4.32,2.1907 -9.2346,3.9831 -10.9213,3.9831 -1.6867,0 -3.3807,0.50806 -3.7645,1.12903 -0.3838,0.62096 -6.7821,1.49968 -14.2185,1.95273 -7.4364,0.45304 -14.2078,1.3393 -15.0476,1.96944 -0.8398,0.63015 -4.0329,1.29412 -7.0958,1.4755 -4.4145,0.26141 -5.8657,-0.22456 -7,-2.34414 z m 2055.2927,-3.84922 c -3.6048,-3.77262 -4.5936,-5.76614 -4.0283,-8.12102 0.4835,-2.01361 -0.4531,-5.17297 -2.6397,-8.90409 -1.864,-3.18069 -3.3891,-6.65277 -3.3891,-7.71573 0,-1.06295 -0.9,-2.67958 -2,-3.5925 -1.1,-0.91292 -2,-2.75149 -2,-4.08572 0,-1.33422 -2.3071,-7.41076 -5.1267,-13.5034 -2.8197,-6.09265 -5.8154,-12.57754 -6.657,-14.41088 C 3147.3747,435.5 3146.1512,433.1 3145.4975,432 c -1.9922,-3.35241 -3.8604,-8.36743 -5.4638,-14.66667 -0.84,-3.3 -2.0213,-7.92026 -2.6252,-10.26724 -1.3025,-5.06262 1.4298,-8.39942 6.8779,-8.39942 3.5741,0 4.3879,1.23732 9.8621,14.995 1.385,3.48058 2.9682,6.33058 3.5182,6.33333 0.55,0.003 1,0.77732 1,1.72127 0,1.59948 9.7478,21.32353 12.0013,24.28373 0.5583,0.73333 2.6099,6.12156 4.5591,11.97384 1.9492,5.85228 4.9332,13.65228 6.6309,17.33333 1.6977,3.68106 3.9991,9.78008 5.1139,13.5534 1.9898,6.73454 1.968,6.92439 -1.193,10.33334 -4.2888,4.62516 -6.0642,4.39382 -11.7218,-1.52724 z m -1665.508,0.0564 c -0.4091,-1.31432 -1.409,-3.58967 -2.2219,-5.05634 -1.7883,-3.22628 -3.9141,-25.32345 -3.8483,-40 0.045,-9.95998 0.013,-30.86498 -0.067,-44.66666 -0.097,-16.78354 1.5917,-148.48243 2.2273,-173.63595 0.6777,-26.81888 0.5423,-29.32341 -1.8248,-33.74004 -1.4064,-2.62392 -2.4088,-5.48775 -2.2276,-6.36405 2.0605,-9.96624 3.7849,-11.08231 18.7464,-12.13264 5.8667,-0.41187 16.9667,-1.30983 24.6667,-1.99548 17.1712,-1.52903 30.8054,-0.29286 34.5949,3.13658 3.3149,2.99991 3.7469,11.56807 0.7104,14.08815 -1.4347,1.19067 -8.456,1.72605 -23.9987,1.82992 -12.084,0.0808 -21.9713,0.44684 -21.972,0.81351 -8e-4,0.36666 -2.9713,0.66666 -6.6013,0.66666 -3.63,0 -7.2389,0.63895 -8.0199,1.4199 -0.9534,0.95342 -1.6298,25.2642 -2.0589,74 -0.3513,39.91905 -0.8344,94.7801 -1.0733,121.91344 -0.239,27.13333 -0.092,56.53333 0.3254,65.33333 l 0.76,16 7.3334,0.42821 c 4.0333,0.23554 13.0333,-0.23556 20,-1.04684 14.071,-1.63862 15.9749,-2.7737 20.5953,-12.27877 1.5059,-3.09796 3.47,-5.8574 4.3648,-6.13211 1.9769,-0.60698 7.0308,7.32502 7.0275,11.02951 0,5.39917 -2.903,12.85711 -6.6576,17.13348 -5.702,6.49421 -18.2646,9.57241 -44.3503,10.86721 -14.3069,0.71015 -15.7523,0.56843 -16.4307,-1.61102 z m 1514.1169,-3.72374 c -0.9132,-1.1004 -1.9465,-4.5504 -2.2963,-7.66666 -0.5765,-5.13782 -0.132,-6.23807 4.772,-11.80399 2.9743,-3.37593 7.4239,-10.07349 9.8879,-14.88347 4.1149,-8.03274 8.8251,-15.08808 16.6371,-24.92076 1.65,-2.0768 3,-4.51017 3,-5.4075 0,-0.89734 1.65,-3.65702 3.6666,-6.13263 2.0167,-2.47561 5.3167,-6.53717 7.3334,-9.02568 2.0166,-2.48851 3.7006,-5.04221 3.7424,-5.67491 0.041,-0.63268 3.5117,-5.65033 7.7113,-11.15033 8.1472,-10.66977 11.2449,-12.29248 17.4119,-9.12093 5.0249,2.58421 5.5561,3.78386 4.6281,10.45426 -1.1176,8.0347 -1.8568,9.23446 -11.1531,18.1015 -4.404,4.20077 -8.0073,8.44642 -8.0073,9.4348 0,0.98837 -0.45,1.79768 -1,1.79846 -0.55,7.9e-4 -3.9423,4.50079 -7.5384,10 -3.5961,5.49922 -6.9791,9.99858 -7.5177,9.99858 -0.9034,0 -9.954,13.15628 -14.5967,21.21794 -6.2237,10.80731 -11.1285,17.54315 -15.9385,21.88868 -5.9059,5.3356 -8.202,5.95388 -10.7427,2.89264 z m 256.6235,-14.51573 c -1.7363,-2.65844 -2.6948,-6.30685 -2.6667,-10.1502 l 0.044,-6 11.3333,-0.87593 c 6.2334,-0.48176 14.3334,-1.5611 18,-2.39851 3.6667,-0.83743 8.813,-1.99372 11.4362,-2.56955 2.623,-0.57582 5.461,-1.47441 6.3064,-1.99686 1.7938,-1.10868 1.0481,-11.5514 -2.0584,-28.82582 -1.7372,-9.65998 -4.364,-39.1475 -4.3698,-49.0549 -10e-4,-1.6802 -1.2337,-10.3802 -2.7393,-19.33334 -1.5056,-8.95313 -3.0019,-24.91812 -3.3251,-35.47773 -0.3232,-10.55961 -1.1049,-19.85961 -1.737,-20.66667 -0.6322,-0.80705 -1.1622,-2.36736 -1.1778,-3.46736 -0.1744,-12.32362 -2.0464,-24.87416 -4.0382,-27.07493 -1.2634,-1.39576 -2.3746,-4.72489 -2.4695,-7.39808 -0.4472,-12.60359 -2.374,-26.56047 -4.1516,-30.07208 -1.0799,-2.13313 -2.4317,-6.93313 -3.0043,-10.66667 -2.8713,-18.72646 -5.6608,-30.93458 -7.5436,-33.01517 -1.1494,-1.27007 -3.6734,-2.30049 -5.6089,-2.28984 -1.9355,0.0107 -15.6064,-0.46871 -30.3799,-1.06525 -23.6198,-0.95378 -27.1993,-1.39111 -29.6666,-3.62463 -3.2176,-2.91268 -3.7463,-9.66423 -1.046,-13.35709 1.655,-2.26338 4.0046,-2.34775 39.4402,-1.41616 36.7176,0.96528 37.7083,1.06286 38.7694,3.81858 2.311,6.00172 6.6392,21.82526 7.8852,28.82799 0.7176,4.03333 1.944,10.52911 2.725,14.43505 0.7812,3.90595 1.4203,8.78736 1.4203,10.84759 0,2.06023 0.8963,5.46445 1.9917,7.56495 1.0956,2.10049 1.9956,5.58296 2,7.73881 0,2.15587 0.5954,7.25587 1.3128,11.33333 4.5142,25.65502 7.3952,48.60971 9.9675,79.4136 1.1021,13.2 2.5728,25.9424 3.2681,28.31644 0.6952,2.37404 1.9503,12.57404 2.789,22.66667 2.306,27.74899 3.7398,39.95251 6.0728,51.68356 1.1668,5.86667 2.5885,13.36667 3.1594,16.66667 0.571,3.3 1.1994,6.6 1.3963,7.33333 0.1971,0.73333 0.2872,3.57528 0.2003,6.31544 -0.1391,4.38964 -0.722,5.21784 -4.9022,6.96436 -2.6092,1.09024 -7.8592,2.38711 -11.6666,2.88192 -3.8074,0.4948 -9.2479,1.71084 -12.09,2.70229 -2.8423,0.99147 -7.4423,1.80266 -10.2223,1.80266 -2.78,0 -5.2828,0.68476 -5.5619,1.52168 -0.2884,0.8653 -3.9308,1.649 -8.4444,1.81686 -7.5504,0.28082 -8.0693,0.0929 -10.6477,-3.85501 z m -694.546,0.64076 c -0.411,-0.66497 -6.5964,-1.60261 -13.7454,-2.08365 -7.1489,-0.48104 -17.4981,-1.71378 -22.9981,-2.7394 -5.5,-1.02563 -11.7407,-2.03798 -13.8681,-2.24967 -6.614,-0.65815 -8.9011,-5.45439 -9.4499,-19.81752 -1.0324,-27.02432 -2.0777,-44.77003 -2.9003,-49.23405 -0.4729,-2.56667 -0.6816,-9.16667 -0.4638,-14.66667 0.2178,-5.5 0.5057,-19.9 0.6397,-32 0.1339,-12.1 0.6692,-34.3 1.1895,-49.33333 0.5201,-15.03334 0.8236,-36.03334 0.6742,-46.66667 -0.9053,-64.44963 -0.6144,-75.58041 2.052,-78.52673 2.9356,-3.24379 7.753,-3.66675 10.0628,-0.88351 1.114,1.34221 1.55,8.69224 1.4435,24.33333 -0.084,12.32563 -0.08,23.31024 0.013,24.41024 0.3483,4.29604 -1.3734,127.02315 -2.02,144 -0.3772,9.9 -0.083,24.6 0.655,32.66667 0.7374,8.06667 1.4836,21.16468 1.6584,29.10669 0.417,18.96032 0.1213,18.72679 26.3176,20.8038 10.6333,0.84308 21.298,1.87766 23.6993,2.29904 5.3803,0.94415 8.3007,4.87395 8.3007,11.16974 0,3.75705 -0.8483,5.41308 -3.946,7.70332 -4.2718,3.15825 -6.144,3.59577 -7.3106,1.70837 z m -659.3058,-12.31943 c -3.8128,-4.0926 -4.8914,-13.08201 -2.1952,-18.29592 2.406,-4.6527 4.6727,-5.1663 9.3307,-2.11426 2.8444,1.8637 4.278,1.85084 14.9531,-0.13426 18.0757,-3.3613 21.5848,-4.45326 22.3545,-6.95649 1.6349,-5.31645 2.77,-31.19017 2.002,-45.63727 -0.059,-1.1 0.5435,-8.29326 1.3376,-15.98505 1.1641,-11.2746 4.3335,-56.58408 4.3379,-62.01495 0.013,-8.1436 -1.906,-43.14782 -2.4406,-44.66666 -0.387,-1.1 -1.1562,-16.87924 -1.709,-35.06498 -0.6712,-22.07556 -1.5198,-33.57945 -2.5532,-34.61293 -0.932,-0.93197 -9.1654,-1.92237 -20.69,-2.48881 -16.76,-0.82379 -19.9738,-1.36239 -25.8271,-4.32848 -5.5773,-2.82624 -6.8005,-4.11547 -7.3811,-7.77955 -0.5258,-3.31913 0,-5.11568 2.1734,-7.35495 2.7652,-2.85546 3.1597,-2.89722 10.8693,-1.15048 4.4,0.99691 17.3,2.18488 28.6667,2.63992 11.3666,0.45506 22.0626,1.20479 23.7689,1.66607 4.4031,1.19036 5.2573,4.81319 4.356,18.47419 -0.4353,6.6 -0.3779,19.2 0.128,28 2.306,40.13552 3.0807,61.92717 3.0807,86.66666 0,25.59127 -1.5938,60.25732 -2.8652,62.319 -0.9788,1.58723 -0.7452,70.15392 0.2444,71.7552 1.4137,2.28756 -4.6884,7.81652 -10.2924,9.32551 -2.7978,0.75336 -5.0868,1.94661 -5.0868,2.65168 0,0.70507 -1.8808,1.28195 -4.1796,1.28195 -5.7442,0 -20.4734,2.48281 -28.3068,4.77153 -8.7287,2.55023 -10.941,2.39829 -14.0759,-0.96667 z M 614.36464,466.63172 c -6.39944,-0.58947 -13.54163,-2.02275 -15.87151,-3.18504 -2.32989,-1.16237 -5.37378,-2.11335 -6.7642,-2.11335 -4.25406,0 -10.32174,-3.88089 -10.98225,-7.02425 -1.19279,-5.67653 -1.58911,-47.78843 -0.45633,-48.48853 1.33946,-0.82783 0.0944,-24.4722 -1.63039,-30.96082 -0.69591,-2.61805 -0.69725,-10.63706 -0.003,-19.33333 0.65223,-8.17285 1.11475,-17.85973 1.02783,-21.5264 -0.0869,-3.66667 0.37287,-19.86667 1.02177,-36 1.13582,-28.23885 1.2195,-33.95673 0.73175,-50 -0.12267,-4.03333 0.15828,-13.93333 0.62424,-22 0.98741,-17.09404 2.69319,-21.16635 8.31173,-19.84304 1.99428,0.46969 4.16312,1.34368 4.81963,1.94217 0.70136,0.63938 0.56752,8.67943 -0.32452,19.49452 -1.46181,17.72316 -3.26193,70.58014 -4.16873,122.40635 -0.35752,20.43293 1.03538,87.12807 1.87424,89.74304 1.4173,4.41817 5.47749,5.49161 25.98772,6.87071 21.56241,1.44985 21.97341,1.41182 25.48554,-2.358 3.4878,-3.74372 4.65284,-3.67622 8.84134,0.51228 2.91041,2.91041 3.3234,4.26436 2.70564,8.8701 -0.95416,7.11382 -5.62058,11.77863 -12.4071,12.40287 -2.85328,0.26244 -7.88778,0.74385 -11.18778,1.0698 -3.3,0.32595 -11.23591,0.11027 -17.63536,-0.47915 z M 115.93927,442.67536 c -5.53341,-0.53843 -11.29513,-1.74984 -12.80383,-2.69204 -3.249335,-2.02924 -5.802107,-8.43825 -5.802107,-14.56683 0,-3.93848 0.311118,-4.29952 2.999997,-3.48144 8.17139,2.4861 13.3708,3.23034 25,3.57847 7.53142,0.22545 13.74778,-0.2214 15.33334,-1.10224 1.46666,-0.81479 5.55917,-1.91515 9.09445,-2.44524 3.53528,-0.53011 8.03528,-2.25879 10,-3.84153 1.96472,-1.58275 5.84017,-4.35826 8.61213,-6.16779 2.77196,-1.80953 6.81958,-6.03885 8.9947,-9.39849 5.21709,-8.05824 6.30138,-16.38128 3.41682,-26.22775 -1.23484,-4.21509 -2.9414,-10.06381 -3.79237,-12.99715 -0.85099,-2.93333 -1.90249,-5.63333 -2.33669,-6 -0.43422,-0.36666 -2.73878,-3.87346 -5.12127,-7.79289 -7.73003,-12.71664 -12.30087,-17.20172 -18.69681,-18.34603 -2.6607,-0.47604 -5.80546,-1.70813 -6.98835,-2.73801 -2.19265,-1.90901 -5.05276,-2.76533 -12.96866,-3.8828 C 122.22112,323.35115 116,318.10623 116,312.028 c 0,-2.39941 12.89734,-14.32175 17.33333,-16.02297 5.65464,-2.1686 10.55351,-7.57488 10.61872,-11.7186 0.0264,-1.6758 0.93014,-4.3933 2.00836,-6.03888 1.07822,-1.64558 2.23915,-7.32427 2.57984,-12.61931 0.5206,-8.09123 0.261,-9.80679 -1.62706,-10.75196 -2.65902,-1.33112 -20.52656,-1.05003 -26.24652,0.41291 -6.13481,1.56904 -20.24429,8.70077 -22.799369,11.5241 -2.259348,2.49656 -7.848496,3.44614 -8.946826,1.52004 -0.313631,-0.55 -0.957983,-3.15273 -1.431894,-5.78386 -0.719501,-3.99463 -0.313818,-5.31446 2.459016,-8 5.660024,-5.48184 8.672071,-7.8828 9.889143,-7.8828 0.64354,0 1.88663,-0.8634 2.76242,-1.91866 3.88838,-4.68522 41.42597,-11.9434 43.59744,-8.4299 0.34509,0.55837 2.29904,1.01522 4.34211,1.01522 3.67449,0 5.89109,1.85736 9.12796,7.64858 2.26644,4.055 2.16593,23.49177 -0.14524,28.0843 -0.99655,1.98026 -2.16183,5.86895 -2.58951,8.64154 -0.42768,2.7726 -1.71232,6.91478 -2.85476,9.20485 -1.14244,2.29007 -2.07716,5.03524 -2.07716,6.10037 0,1.06515 -1.8,4.20931 -4,6.98703 -2.2,2.77772 -4,5.32295 -4,5.65604 0,0.33309 2.4,1.68788 5.33333,3.01063 2.93334,1.32274 5.33334,2.91388 5.33334,3.53582 0,0.62196 1.17317,1.13084 2.60704,1.13084 2.22149,0 13.82778,10.39738 18.05962,16.17852 3.11738,4.25867 14.21031,27.43338 14.59363,30.48815 0.23005,1.83333 1.0732,4.97664 1.87367,6.98512 2.48144,6.22631 3.28341,19.87859 1.54777,26.34821 -2.93283,10.93208 -7.89733,19.09446 -15.40823,25.33334 -3.97281,3.3 -8.8222,7.35 -10.77642,9 -1.95423,1.65 -4.12486,3 -4.8236,3 -0.69876,0 -3.16115,0.80693 -5.47198,1.79318 -13.73345,5.8614 -25.77498,7.69004 -40.9289,6.21551 z m 146.36881,-8.89241 c -1.29723,-0.36019 -3.53865,-2.96799 -4.98095,-5.79511 -1.4423,-2.82713 -3.23093,-5.51636 -3.97474,-5.97607 -3.36872,-2.08198 0.52102,-13.14464 5.03702,-14.3256 1.40407,-0.36717 4.75482,0.88112 7.65854,2.85314 7.91968,5.37852 12.94798,16.12437 9.59001,20.49456 -1.73927,2.26356 -9.39329,3.84208 -13.32988,2.74908 z M 2164.8156,393.14129 c -2.8501,-4.06913 -2.7337,-10.86544 0.2321,-13.54948 2.6278,-2.37808 21.04,-5.97152 39.619,-7.73225 6.6,-0.62549 14.4,-1.40159 17.3333,-1.72467 2.9333,-0.32306 10.3221,-0.99269 16.4196,-1.48802 6.0975,-0.49535 12.6975,-1.17776 14.6667,-1.5165 19.6833,-3.38577 51.5726,-5.26601 65.007,-3.83288 7.1763,0.76554 8.3635,1.32058 10.477,4.89839 2.565,4.34229 2.1458,10.61177 -0.9142,13.67176 -1.844,1.84403 -21.9278,3.22627 -61.4502,4.22923 -12.3535,0.31349 -22.8919,0.8364 -23.4188,1.16202 -0.5268,0.32563 -6.6195,0.94122 -13.5392,1.36799 -6.9196,0.42677 -16.6312,1.36031 -21.5812,2.07453 -42.5171,6.1347 -40.3496,6.01128 -42.8511,2.43988 z m -810.2908,-4.99102 c -3.0059,-2.4369 -3.2011,-3.46632 -3.356,-17.70215 -0.091,-8.31313 -0.7117,-17.21479 -1.3807,-19.78145 -0.6688,-2.56667 -0.8761,-6.76667 -0.4605,-9.33334 0.4156,-2.56666 0.2139,-6.91666 -0.4481,-9.66666 l -1.2039,-5 -9.5044,-0.1092 c -5.2275,-0.06 -13.1045,0.0796 -17.5045,0.31042 -4.4,0.2308 -13.7,0.42994 -20.6667,0.44254 l -12.6667,0.0229 -1.257,-6.51293 c -1.8871,-9.77779 0.012,-10.81608 20.7212,-11.33082 9.0947,-0.22605 18.0358,-0.55977 19.8692,-0.7416 1.8333,-0.18182 7.3774,-0.4245 12.3201,-0.53929 l 8.9868,-0.20869 -0.065,-26.45488 c -0.036,-14.55019 0.3712,-28.19424 0.9046,-30.32014 1.3563,-5.40377 4.2422,-8.0535 6.927,-6.36002 3.3549,2.11629 4.3137,7.95556 4.1266,25.13504 -0.2178,20.01068 1.141,35.633 3.2136,36.94897 0.8727,0.55399 9.8252,0.64825 19.8947,0.20947 l 18.3081,-0.79779 1.3586,3.57315 c 2.0753,5.4585 1.6264,10.74382 -1.124,13.23293 -3.0016,2.71641 -7.8112,3.57793 -23.3568,4.18381 -6.5116,0.25379 -12.5116,1.13404 -13.3334,1.95614 -2.0056,2.00658 -1.8352,38.98865 0.2118,45.9319 1.7645,5.98512 0.2608,10.5354 -4.5143,13.66079 -2.4617,1.61128 -3.2025,1.51879 -6,-0.74911 z M 3116,376 c -1.8333,-1.43405 -4.2849,-2.62071 -5.4479,-2.63701 -1.163,-0.0163 -6.0592,-4.11554 -10.8804,-9.10938 -6.4325,-6.66304 -9.1854,-10.65549 -10.3428,-15 -0.8673,-3.25616 -2.472,-6.9237 -3.566,-8.15012 -1.0938,-1.22642 -2.3322,-4.78929 -2.7517,-7.91749 -0.4196,-3.12821 -1.5381,-7.18176 -2.4855,-9.00789 -0.9474,-1.82614 -1.4016,-3.83955 -1.0093,-4.47424 0.3923,-0.63471 -0.021,-2.0387 -0.9184,-3.11999 -0.8975,-1.08128 -2.1163,-4.205 -2.7085,-6.94159 -0.5923,-2.7366 -1.9027,-8.57562 -2.912,-12.97562 -2.9779,-12.98162 -1.471,-57.76455 2.4004,-71.33334 1.1506,-4.03333 2.5736,-9.43333 3.162,-12 1.1152,-4.86477 9.9912,-22.75977 13.4601,-27.13681 10.2168,-12.89153 24.5761,-16.54489 36.822,-9.36836 6.2764,3.67823 12.5113,13.39468 12.5113,19.49751 0,1.69454 0.8255,4.26449 1.8344,5.71098 1.0088,1.44651 2.276,5.93002 2.8159,9.96335 0.5399,4.03333 1.5733,8.0658 2.2967,8.96103 0.8738,1.08182 0.573,7.34188 -0.8971,18.66666 -2.9253,22.53346 -4.4855,27.93988 -11.904,41.2514 -2.4924,4.47222 -11.9876,15.08274 -13.5153,15.10286 -0.7534,0.009 -3.3403,1.81805 -5.7491,4.01805 -2.4087,2.2 -5.2424,4 -6.2971,4 -1.0548,0 -1.9177,0.9 -1.9177,2 0,1.1 -0.6119,2 -1.3599,2 -0.7478,0 -3.8248,1.55609 -6.8376,3.45799 -5.4342,3.43046 -5.4717,3.50953 -4.7102,9.93844 1.0954,9.24989 9.521,25.83585 15.4281,30.37072 12.5213,9.61268 16.0807,10.24078 24.6443,4.34888 9.2225,-6.34523 12.5344,-12.3953 13.5665,-24.7827 0.4887,-5.86666 1.1212,-11.05452 1.4055,-11.52857 2.1804,-3.63687 22.0713,-10.47143 30.4753,-10.47143 17.0869,0 14.4436,14.62768 -3.4812,19.26439 -8.5496,2.2116 -8.9939,2.53472 -12.3333,8.97131 -1.9052,3.67238 -3.4642,8.10322 -3.4642,9.84629 0,4.16657 -4.2441,12.16545 -10.0597,18.95969 C 3142.0767,377.11957 3123.8052,382.10527 3116,376 Z m -18.0924,-85.28923 C 3111.3971,284.27285 3128,264.57341 3128,255.00608 c 0,-2.45951 0.9609,-6.33004 2.1353,-8.60117 4.1235,-7.97378 2.1898,-39.55584 -2.7566,-45.02142 -1.125,-1.24308 -2.0454,-2.94748 -2.0454,-3.78757 0,-2.00453 -7.0328,-5.59831 -10.9337,-5.58713 -6.8641,0.0197 -14.0541,7.66256 -20.0609,21.32454 -1.8023,4.09908 -4.373,13.60352 -6.9819,25.81408 -1.2728,5.95694 -2.2139,42.13606 -1.2793,49.18592 0.4616,3.48334 1.4473,6.33334 2.1904,6.33334 0.7429,0 5.0808,-1.78016 9.6397,-3.9559 z M 723.59849,372.75616 c -4.25416,-1.74931 -9.2195,-4.88507 -11.03409,-6.96836 -1.81459,-2.08329 -5.38067,-5.94661 -7.92463,-8.58517 -2.64964,-2.74815 -4.95938,-6.73494 -5.4073,-9.33334 -1.21116,-7.02613 -3.27584,-10.29021 -7.42363,-11.73614 C 688.39236,334.94216 688,334.19699 688,328.89928 c 0,-3.62325 0.77304,-6.54767 2,-7.56595 2.15188,-1.7859 2.83207,-12.6617 0.86781,-13.87569 -1.02373,-0.63269 -3.2707,-18.92071 -3.12789,-25.45764 0.24433,-11.18335 1.58116,-22.52108 2.79907,-23.73899 0.80356,-0.80356 1.4615,-3.29101 1.46209,-5.52768 10e-4,-3.95722 3.80764,-15.65316 5.7154,-17.56093 0.5226,-0.5226 0.95019,-2.00399 0.95019,-3.29199 0,-3.19533 9.28014,-12.0486 16.30937,-15.55917 4.57927,-2.287 7.35129,-2.74555 13.51728,-2.23603 8.40857,0.69483 10.16195,1.80907 12.45461,7.91479 2.69252,7.17059 3.25095,11.70636 3.19612,25.96003 -0.0575,14.92941 -1.58677,25.56544 -4.66909,32.47174 -1.03953,2.32919 -2.96605,7.2349 -4.28117,10.90156 -3.24418,9.04506 -15.60038,27.66562 -21.98447,33.13015 -2.86512,2.45245 -5.20932,5.43815 -5.20932,6.63488 0,1.19675 1.56088,5.35847 3.46863,9.24828 4.15792,8.47784 15.50508,16.98669 22.65294,16.98669 5.04616,0 9.16407,-4.2971 10.6013,-11.06261 0.49898,-2.34889 1.63878,-5.17072 2.5329,-6.27072 1.99338,-2.4524 6.07756,-13.31967 6.07756,-16.17127 0,-3.28165 4.15711,-6.06334 10.50236,-7.02753 3.20963,-0.48772 7.09314,-1.76752 8.63002,-2.84399 6.38974,-4.47556 11.53429,-1.19634 11.53429,7.35214 0,5.06696 -4.98301,10.11808 -11.86293,12.02509 -6.8517,1.89919 -7.68779,2.68727 -9.3282,8.79237 -1.27431,4.74263 -3.30572,9.04888 -10.00503,21.20902 -7.01621,12.73533 -14.93321,15.289 -29.20535,9.42033 z m -11.78916,-67.62651 c 3.77154,-3.41202 6.85734,-6.91945 6.85734,-7.79428 0,-0.87482 0.86909,-3.18317 1.93132,-5.12965 8.28465,-15.18127 11.81188,-28.64413 11.73522,-44.79145 -0.0529,-11.15614 -0.44096,-13.52883 -2.4529,-15 -3.71723,-2.71811 -9.29283,-2.06978 -13.63715,1.58573 -2.1788,1.83333 -4.62483,3.33333 -5.43564,3.33333 -0.8108,0 -1.47419,0.67918 -1.47419,1.5093 0,0.8301 -1.34145,3.6798 -2.981,6.33265 -1.63956,2.65285 -3.07482,6.62367 -3.18948,8.82404 -0.11466,2.20037 -1.23749,7.90068 -2.49518,12.66735 -3.47352,13.16453 -0.88204,46.79109 3.46816,45.00228 0.44889,-0.18459 3.90197,-3.12727 7.6735,-6.5393 z m 982.58577,63.71196 c -3.4495,-0.82956 -7.0195,-2.25828 -7.9334,-3.17494 C 1685.5477,364.75 1684.038,364 1683.1065,364 c -0.9313,0 -2.974,-1.73216 -4.5392,-3.84923 -1.5652,-2.11708 -4.26,-4.60602 -5.9882,-5.531 -2.7478,-1.47053 -3.6931,-1.27045 -7.5275,1.59314 -2.4117,1.80118 -6.7849,4.3307 -9.7183,5.62116 -2.9333,1.29045 -6.6584,2.99377 -8.278,3.78516 -4.5898,2.24273 -17.8664,0.22808 -27.4634,-4.16748 -7.4275,-3.40188 -9.2731,-5.00306 -13.4344,-11.65596 -3.0364,-4.85428 -4.8242,-9.35967 -4.8242,-12.15754 0,-7.05824 4.0751,-23.38342 6.5662,-26.30492 1.2505,-1.46666 3.361,-5.18373 4.69,-8.26014 2.9844,-6.90895 7.2464,-11.02866 13.7541,-13.29522 5.9581,-2.0751 13.1769,-2.2992 14.3231,-0.44464 0.4532,0.73334 1.9893,1.33334 3.4136,1.33334 1.4242,0 5.8528,3.45 9.8412,7.66666 l 7.2517,7.66667 -0.6741,-18 c -1.0747,-28.69509 -0.893,-72.95092 0.3074,-74.88996 0.6051,-0.97719 1.4211,-4.17671 1.8134,-7.11004 0.6666,-4.9832 1.001,-5.33627 5.0938,-5.37804 5.4986,-0.0561 6.4144,2.78912 4.8882,15.18485 -1.5611,12.67694 -0.6411,51.56035 1.2938,54.69122 0.4346,0.70301 0.1704,2.9078 -0.5868,4.89953 -0.7573,1.99172 -1.0821,4.59208 -0.722,5.77855 0.3602,1.18648 1.0076,6.95722 1.439,12.82389 1.5041,20.46337 3.0072,31.03923 5.2542,36.97045 0.909,2.39959 2.416,6.3545 3.349,8.7887 3.361,8.76952 24.2404,14.53726 39.4322,10.89281 6.5987,-1.58301 7.5047,-1.52132 9.9332,0.67639 3.4702,3.14049 3.3807,6.80601 -0.2974,12.1738 -2.0816,3.0379 -4.6504,4.75705 -8.5904,5.74917 -7.0172,1.76695 -20.4584,1.57513 -28.7116,-0.40971 z M 1644,349.33333 C 1644,348.6 1645.0633,348 1646.3629,348 c 3.6735,0 12.3039,-7.78439 12.303,-11.09707 -8e-4,-3.19342 -8.5219,-17.77108 -13.5078,-23.10866 -6.3168,-6.76252 -15.1358,-9.17087 -18.5441,-5.06416 -1.0532,1.26906 -1.7577,6.1643 -1.8299,12.71553 -0.1186,10.73611 -0.1982,10.92913 -5.9652,14.41336 -1.5378,0.92913 -1.4393,1.80781 0.5874,5.23884 3.1965,5.4112 6.5093,6.73273 23.5937,9.412 0.55,0.0863 1,-0.44317 1,-1.17651 z m 192.6667,19.05276 c -16.5788,-2.27001 -25.9964,-10.63996 -28.1884,-25.05276 -0.3347,-2.2 -1.4791,-6.26214 -2.5434,-9.02698 -2.5721,-6.68254 -2.4437,-9.36671 0.7318,-15.29144 1.4666,-2.73648 2.6666,-5.68043 2.6666,-6.5421 0,-4.3278 25.0467,-30.9657 29.2284,-31.08529 1.0423,-0.0297 2.9058,-0.96895 4.1412,-2.08697 1.2354,-1.11803 5.9594,-2.68686 10.4976,-3.48626 7.2922,-1.28446 8.5547,-1.17912 10.8588,0.90611 5.5547,5.02688 1.8956,15.2796 -5.453,15.2796 -4.5026,0 -14.5075,3.87663 -19.5438,7.57264 -8.9137,6.54171 -20.3908,24.83668 -20.3948,32.51025 0,3.66792 5.1664,12.92642 8.8202,15.8005 2.5554,2.01005 5.4332,2.77594 10.3586,2.75686 8.9066,-0.0345 23.464,-2.14433 33.4868,-4.85334 12.5776,-3.39952 19.0043,-3.5597 20.6342,-0.51428 2.4334,4.54689 1.5492,10.24418 -2.2644,14.59026 -3.1119,3.5464 -4.5423,4.13711 -10.0182,4.13711 -3.5132,0 -7.4296,0.52635 -8.703,1.16965 -7.5574,3.81798 -20.8335,5.06238 -34.3152,3.21644 z m -940.48405,-8.05276 c -2.24424,-4.20772 -2.17636,-9.12689 0.17547,-12.71622 1.27136,-1.94034 3.87815,-6.39796 5.79285,-9.90583 1.91471,-3.50787 4.16403,-6.97795 4.9985,-7.71128 0.83445,-0.73333 2.34098,-3.73333 3.34784,-6.66667 C 911.50416,320.4 913.08319,317.1 914.00627,316 c 2.06418,-2.45983 4.12792,-8.27697 4.49373,-12.66667 0.0917,-1.1 0.92439,-2 1.85049,-2 0.92611,0 2.27611,-1.35 3,-3 0.7239,-1.65 2.677,-3.19314 4.34023,-3.42921 4.06904,-0.57755 7.15827,6.33468 5.49977,12.30588 -1.21828,4.38625 -10.1553,22.23317 -20.34034,40.61893 -3.40091,6.13924 -6.18348,11.62504 -6.18348,12.19068 0,3.15718 -8.82656,3.42131 -10.48402,0.31372 z m 172.69065,-8.10498 c -3.1175,-3.4448 -2.7418,-7.70459 1.1267,-12.7765 1.8333,-2.40362 3.3333,-4.93625 3.3333,-5.62808 0,-0.69181 1.7756,-3.33517 3.9458,-5.87413 2.1702,-2.53897 3.9702,-5.14073 4,-5.78169 0.1031,-2.21766 10.8725,-22.77102 12.4602,-23.78042 3.9776,-2.5287 7.7238,-1.06932 9.7591,3.80184 2.0468,4.89863 1.5639,11.14396 -0.8616,11.14396 -0.7218,0 -3.8735,5.25 -7.0038,11.66667 -3.1303,6.41667 -8.0561,15.71667 -10.9463,20.66667 -4.7157,8.07692 -5.683,9 -9.4307,9 -2.3523,0 -5.1397,-1.06483 -6.3827,-2.43832 z m 1619.0034,-3.33048 c -1.1679,-0.8605 -2.8584,-3.79618 -3.7567,-6.52375 -1.4683,-4.45824 -1.3548,-5.25811 1.1233,-7.91808 1.5162,-1.62737 2.7567,-3.65196 2.7567,-4.49908 0,-1.34712 5.8211,-10.90776 13.5388,-22.23631 1.3537,-1.98697 2.4612,-4.98177 2.4612,-6.65512 0,-1.67334 2.0001,-6.04764 4.4448,-9.72065 2.4447,-3.67301 5.4585,-8.32821 6.6975,-10.34488 6.3945,-10.40888 13.6893,1.87632 8.4096,14.16283 -1.2202,2.83956 -2.2186,5.54269 -2.2186,6.00694 0,1.78374 -17.6318,35.52003 -18.7842,35.94134 -0.6687,0.24445 -1.2158,2.72098 -1.2158,5.50341 0,2.78243 -0.75,5.65343 -1.6666,6.38001 -2.3207,1.83947 -9.2394,1.78274 -11.79,-0.0967 z M 2883,346.33333 c -2.0965,-4.33589 -3.1473,-11.66666 -1.6724,-11.66666 0.6935,0 2.7855,-3.15 4.6487,-7 1.8633,-3.85 5.78,-10.3 8.7036,-14.33334 2.9236,-4.03333 5.3166,-8.10328 5.318,-9.04432 0,-2.24125 5.6248,-12.88544 10.364,-19.62234 4.5584,-6.48006 9.0626,-7.60471 12.5096,-3.12347 3.8788,5.04271 2.9904,10.26804 -3.7095,21.81801 -3.3943,5.85134 -6.9943,11.58603 -8,12.74378 -1.0057,1.15774 -1.8287,3.33428 -1.8287,4.83674 0,1.50246 -0.9,3.47868 -2,4.3916 -1.1,0.91292 -2,2.21171 -2,2.8862 0,0.6745 -0.5909,1.95103 -1.3132,2.83675 -6.1174,7.50168 -8.0201,10.16755 -8.0201,11.23711 0,2.20222 -6.0888,7.03994 -8.8607,7.03994 -1.4788,0 -3.3414,-1.35 -4.1393,-3 z m -578.3333,-51.71798 c -4.4,-0.54592 -12.8,-1.07238 -18.6667,-1.1699 -5.8667,-0.0975 -13.2631,-0.7761 -16.4365,-1.50796 -3.1735,-0.73186 -25.8263,-1.50001 -50.3396,-1.707 -25.7059,-0.21705 -45.0851,-0.9098 -45.7875,-1.63674 -1.0877,-1.12587 -1.9333,-7.74094 -1.5715,-12.29342 0.3427,-4.31101 12.1739,-5.66562 53.4684,-6.1218 24.7819,-0.27377 42.0446,0.57479 68,3.34262 7.7,0.8211 16.0622,1.3884 18.5826,1.26066 10.0242,-0.50804 14.7253,4.34547 12.9254,13.34463 -1.5773,7.88703 -3.6174,8.54323 -20.1746,6.48891 z M 627.33333,205.73148 C 623.66667,205.48149 619.46667,204.76983 618,204.15 613.91568,202.42393 603.01975,200 599.34519,200 c -1.80576,0 -6.59632,-1.35 -10.64567,-3 l -7.36247,-3 -10e-4,-6.92131 c -10e-4,-4.09886 0.67747,-7.34116 1.66401,-7.95088 2.08996,-1.29165 9.15852,-0.6246 11.20767,1.05768 0.84711,0.69544 4.74711,1.54216 8.66667,1.88159 3.91956,0.33943 9.82646,1.14945 13.12646,1.80003 3.3,0.65058 13.66159,1.60772 23.02574,2.12696 18.38744,1.01958 19.64093,1.60306 19.64093,9.14256 0,10.48913 -5.51791,12.35492 -31.33333,10.59485 z M 2590.2219,181.77747 c -0.5052,-0.5052 -12.4618,-0.9618 -26.5702,-1.01467 L 2538,180.6667 l -1.2016,-7.08418 c -1.5595,-9.19497 -0.088,-10.67574 12.7068,-12.78344 14.0791,-2.3193 46.2524,-1.59929 49.4117,1.10582 3.313,2.8367 3.3683,14.17934 0.083,17.0641 -2.896,2.54308 -7.5535,4.03318 -8.7781,2.8085 z"
     id="path2680"
     inkscape:connector-curvature="0" />
</svg>
