<?xml version="1.0" encoding="UTF-8"?>
<!DOCTYPE svg PUBLIC "-//W3C//DTD SVG 1.1//EN"
    "http://www.w3.org/Graphics/SVG/1.1/DTD/svg11.dtd">
<svg xmlns="http://www.w3.org/2000/svg" xmlns:xlink="http://www.w3.org/1999/xlink" version="1.1" width="404" height="284"><rect x="102" y="2" width="20" height="20" fill="#b2b73e" /><rect x="182" y="2" width="20" height="20" fill="#b2b73e" /><rect x="202" y="2" width="20" height="20" fill="#b2b73e" /><rect x="222" y="2" width="20" height="20" fill="#b2b73e" /><rect x="262" y="2" width="20" height="20" fill="#b2b73e" /><rect x="282" y="2" width="20" height="20" fill="#b2b73e" /><rect x="302" y="2" width="20" height="20" fill="#b2b73e" /><rect x="342" y="2" width="20" height="20" fill="#b2b73e" /><rect x="362" y="2" width="20" height="20" fill="#b2b73e" /><rect x="382" y="2" width="20" height="20" fill="#b2b73e" /><rect x="42" y="22" width="20" height="20" fill="#ffdd00" /><rect x="102" y="22" width="20" height="20" fill="#b2b73e" /><rect x="182" y="22" width="20" height="20" fill="#b2b73e" /><rect x="222" y="22" width="20" height="20" fill="#b2b73e" /><rect x="262" y="22" width="20" height="20" fill="#b2b73e" /><rect x="302" y="22" width="20" height="20" fill="#b2b73e" /><rect x="342" y="22" width="20" height="20" fill="#b2b73e" /><rect x="362" y="22" width="20" height="20" fill="#b2b73e" /><rect x="382" y="22" width="20" height="20" fill="#b2b73e" /><rect x="2" y="42" width="20" height="20" fill="#eeb480" /><rect x="22" y="42" width="20" height="20" fill="#ffdd00" /><rect x="42" y="42" width="20" height="20" fill="#b2b73e" /><rect x="62" y="42" width="20" height="20" fill="#ffdd00" /><rect x="102" y="42" width="20" height="20" fill="#b2b73e" /><rect x="122" y="42" width="20" height="20" fill="#b2b73e" /><rect x="142" y="42" width="20" height="20" fill="#b2b73e" /><rect x="182" y="42" width="20" height="20" fill="#b2b73e" /><rect x="202" y="42" width="20" height="20" fill="#b2b73e" /><rect x="222" y="42" width="20" height="20" fill="#b2b73e" /><rect x="262" y="42" width="20" height="20" fill="#b2b73e" /><rect x="282" y="42" width="20" height="20" fill="#b2b73e" /><rect x="302" y="42" width="20" height="20" fill="#b2b73e" /><rect x="342" y="42" width="20" height="20" fill="#b2b73e" /><rect x="2" y="62" width="20" height="20" fill="#eeb480" /><rect x="22" y="62" width="20" height="20" fill="#b2b73e" /><rect x="42" y="62" width="20" height="20" fill="#ffdd00" /><rect x="62" y="62" width="20" height="20" fill="#b5decc" /><rect x="82" y="62" width="20" height="20" fill="#b5decc" /><rect x="102" y="62" width="20" height="20" fill="#b5decc" /><rect x="122" y="62" width="20" height="20" fill="#b5decc" /><rect x="142" y="62" width="20" height="20" fill="#b5decc" /><rect x="162" y="62" width="20" height="20" fill="#b5decc" /><rect x="182" y="62" width="20" height="20" fill="#b5decc" /><rect x="202" y="62" width="20" height="20" fill="#b5decc" /><rect x="222" y="62" width="20" height="20" fill="#b5decc" /><rect x="242" y="62" width="20" height="20" fill="#b5decc" /><rect x="262" y="62" width="20" height="20" fill="#b5decc" /><rect x="282" y="62" width="20" height="20" fill="#b5decc" /><rect x="302" y="62" width="20" height="20" fill="#b5decc" /><rect x="322" y="62" width="20" height="20" fill="#b5decc" /><rect x="342" y="62" width="20" height="20" fill="#b5decc" /><rect x="362" y="62" width="20" height="20" fill="#b5decc" /><rect x="382" y="62" width="20" height="20" fill="#b5decc" /><rect x="2" y="82" width="20" height="20" fill="#a173b9" /><rect x="22" y="82" width="20" height="20" fill="#a173b9" /><rect x="42" y="82" width="20" height="20" fill="#eeb480" /><rect x="62" y="82" width="20" height="20" fill="#ffdd00" /><rect x="82" y="82" width="20" height="20" fill="#ffdd00" /><rect x="102" y="82" width="20" height="20" fill="#ffdd00" /><rect x="122" y="82" width="20" height="20" fill="#ffdd00" /><rect x="142" y="82" width="20" height="20" fill="#ffdd00" /><rect x="162" y="82" width="20" height="20" fill="#ffdd00" /><rect x="182" y="82" width="20" height="20" fill="#ffdd00" /><rect x="202" y="82" width="20" height="20" fill="#ffdd00" /><rect x="222" y="82" width="20" height="20" fill="#ffdd00" /><rect x="242" y="82" width="20" height="20" fill="#a173b9" /><rect x="262" y="82" width="20" height="20" fill="#a173b9" /><rect x="282" y="82" width="20" height="20" fill="#a173b9" /><rect x="302" y="82" width="20" height="20" fill="#a173b9" /><rect x="322" y="82" width="20" height="20" fill="#a173b9" /><rect x="342" y="82" width="20" height="20" fill="#a173b9" /><rect x="362" y="82" width="20" height="20" fill="#a173b9" /><rect x="382" y="82" width="20" height="20" fill="#b5decc" /><rect x="2" y="102" width="20" height="20" fill="#eeb480" /><rect x="22" y="102" width="20" height="20" fill="#b5decc" /><rect x="42" y="102" width="20" height="20" fill="#eeb480" /><rect x="62" y="102" width="20" height="20" fill="#b5decc" /><rect x="82" y="102" width="20" height="20" fill="#b5decc" /><rect x="102" y="102" width="20" height="20" fill="#b5decc" /><rect x="122" y="102" width="20" height="20" fill="#b5decc" /><rect x="142" y="102" width="20" height="20" fill="#b5decc" /><rect x="162" y="102" width="20" height="20" fill="#b5decc" /><rect x="182" y="102" width="20" height="20" fill="#b5decc" /><rect x="202" y="102" width="20" height="20" fill="#b5decc" /><rect x="222" y="102" width="20" height="20" fill="#a173b9" /><rect x="242" y="102" width="20" height="20" fill="#b5decc" /><rect x="262" y="102" width="20" height="20" fill="#b5decc" /><rect x="282" y="102" width="20" height="20" fill="#b5decc" /><rect x="302" y="102" width="20" height="20" fill="#b5decc" /><rect x="322" y="102" width="20" height="20" fill="#b5decc" /><rect x="342" y="102" width="20" height="20" fill="#b5decc" /><rect x="362" y="102" width="20" height="20" fill="#a173b9" /><rect x="382" y="102" width="20" height="20" fill="#b5decc" /><rect x="2" y="122" width="20" height="20" fill="#b5decc" /><rect x="22" y="122" width="20" height="20" fill="#b5decc" /><rect x="42" y="122" width="20" height="20" fill="#eeb480" /><rect x="62" y="122" width="20" height="20" fill="#b5decc" /><rect x="82" y="122" width="20" height="20" fill="#b5decc" /><rect x="102" y="122" width="20" height="20" fill="#b5decc" /><rect x="122" y="122" width="20" height="20" fill="#b5decc" /><rect x="142" y="122" width="20" height="20" fill="#b5decc" /><rect x="202" y="122" width="20" height="20" fill="#eeb480" /><rect x="222" y="122" width="20" height="20" fill="#a173b9" /><rect x="242" y="122" width="20" height="20" fill="#eeb480" /><rect x="262" y="122" width="20" height="20" fill="#ffdd00" /><rect x="282" y="122" width="20" height="20" fill="#ffdd00" /><rect x="302" y="122" width="20" height="20" fill="#eeb480" /><rect x="342" y="122" width="20" height="20" fill="#b5decc" /><rect x="362" y="122" width="20" height="20" fill="#a173b9" /><rect x="382" y="122" width="20" height="20" fill="#b5decc" /><rect x="2" y="142" width="20" height="20" fill="#ffdd00" /><rect x="22" y="142" width="20" height="20" fill="#ffdd00" /><rect x="42" y="142" width="20" height="20" fill="#eeb480" /><rect x="62" y="142" width="20" height="20" fill="#a173b9" /><rect x="82" y="142" width="20" height="20" fill="#a173b9" /><rect x="102" y="142" width="20" height="20" fill="#a173b9" /><rect x="122" y="142" width="20" height="20" fill="#a173b9" /><rect x="142" y="142" width="20" height="20" fill="#b5decc" /><rect x="182" y="142" width="20" height="20" fill="#b2b73e" /><rect x="202" y="142" width="20" height="20" fill="#ffdd00" /><rect x="222" y="142" width="20" height="20" fill="#a173b9" /><rect x="242" y="142" width="20" height="20" fill="#ffdd00" /><rect x="262" y="142" width="20" height="20" fill="#b2b73e" /><rect x="282" y="142" width="20" height="20" fill="#eeb480" /><rect x="302" y="142" width="20" height="20" fill="#eeb480" /><rect x="342" y="142" width="20" height="20" fill="#b5decc" /><rect x="362" y="142" width="20" height="20" fill="#a173b9" /><rect x="382" y="142" width="20" height="20" fill="#b5decc" /><rect x="2" y="162" width="20" height="20" fill="#b5decc" /><rect x="22" y="162" width="20" height="20" fill="#eeb480" /><rect x="42" y="162" width="20" height="20" fill="#b2b73e" /><rect x="62" y="162" width="20" height="20" fill="#eeb480" /><rect x="82" y="162" width="20" height="20" fill="#b5decc" /><rect x="102" y="162" width="20" height="20" fill="#b5decc" /><rect x="122" y="162" width="20" height="20" fill="#a173b9" /><rect x="142" y="162" width="20" height="20" fill="#b5decc" /><rect x="202" y="162" width="20" height="20" fill="#a173b9" /><rect x="222" y="162" width="20" height="20" fill="#b5decc" /><rect x="242" y="162" width="20" height="20" fill="#b2b73e" /><rect x="262" y="162" width="20" height="20" fill="#b5decc" /><rect x="342" y="162" width="20" height="20" fill="#b5decc" /><rect x="362" y="162" width="20" height="20" fill="#a173b9" /><rect x="382" y="162" width="20" height="20" fill="#b5decc" /><rect x="22" y="182" width="20" height="20" fill="#ffdd00" /><rect x="42" y="182" width="20" height="20" fill="#a173b9" /><rect x="62" y="182" width="20" height="20" fill="#eeb480" /><rect x="82" y="182" width="20" height="20" fill="#a173b9" /><rect x="102" y="182" width="20" height="20" fill="#b5decc" /><rect x="122" y="182" width="20" height="20" fill="#a173b9" /><rect x="142" y="182" width="20" height="20" fill="#b5decc" /><rect x="242" y="182" width="20" height="20" fill="#b5decc" /><rect x="342" y="182" width="20" height="20" fill="#b5decc" /><rect x="362" y="182" width="20" height="20" fill="#a173b9" /><rect x="382" y="182" width="20" height="20" fill="#b5decc" /><rect x="42" y="202" width="20" height="20" fill="#a173b9" /><rect x="62" y="202" width="20" height="20" fill="#a173b9" /><rect x="82" y="202" width="20" height="20" fill="#a173b9" /><rect x="102" y="202" width="20" height="20" fill="#b5decc" /><rect x="122" y="202" width="20" height="20" fill="#a173b9" /><rect x="142" y="202" width="20" height="20" fill="#b5decc" /><rect x="342" y="202" width="20" height="20" fill="#b5decc" /><rect x="362" y="202" width="20" height="20" fill="#a173b9" /><rect x="382" y="202" width="20" height="20" fill="#b5decc" /><rect x="102" y="222" width="20" height="20" fill="#b5decc" /><rect x="122" y="222" width="20" height="20" fill="#a173b9" /><rect x="142" y="222" width="20" height="20" fill="#b5decc" /><rect x="162" y="222" width="20" height="20" fill="#b5decc" /><rect x="182" y="222" width="20" height="20" fill="#b5decc" /><rect x="202" y="222" width="20" height="20" fill="#b5decc" /><rect x="222" y="222" width="20" height="20" fill="#b5decc" /><rect x="242" y="222" width="20" height="20" fill="#b5decc" /><rect x="262" y="222" width="20" height="20" fill="#b5decc" /><rect x="282" y="222" width="20" height="20" fill="#b5decc" /><rect x="302" y="222" width="20" height="20" fill="#b5decc" /><rect x="322" y="222" width="20" height="20" fill="#b5decc" /><rect x="342" y="222" width="20" height="20" fill="#b5decc" /><rect x="362" y="222" width="20" height="20" fill="#a173b9" /><rect x="382" y="222" width="20" height="20" fill="#b5decc" /><rect x="102" y="242" width="20" height="20" fill="#b5decc" /><rect x="122" y="242" width="20" height="20" fill="#a173b9" /><rect x="142" y="242" width="20" height="20" fill="#a173b9" /><rect x="162" y="242" width="20" height="20" fill="#a173b9" /><rect x="182" y="242" width="20" height="20" fill="#a173b9" /><rect x="202" y="242" width="20" height="20" fill="#a173b9" /><rect x="222" y="242" width="20" height="20" fill="#a173b9" /><rect x="242" y="242" width="20" height="20" fill="#a173b9" /><rect x="262" y="242" width="20" height="20" fill="#a173b9" /><rect x="282" y="242" width="20" height="20" fill="#a173b9" /><rect x="302" y="242" width="20" height="20" fill="#a173b9" /><rect x="322" y="242" width="20" height="20" fill="#a173b9" /><rect x="342" y="242" width="20" height="20" fill="#a173b9" /><rect x="362" y="242" width="20" height="20" fill="#a173b9" /><rect x="382" y="242" width="20" height="20" fill="#b5decc" /><rect x="102" y="262" width="20" height="20" fill="#b5decc" /><rect x="122" y="262" width="20" height="20" fill="#b5decc" /><rect x="142" y="262" width="20" height="20" fill="#b5decc" /><rect x="162" y="262" width="20" height="20" fill="#b5decc" /><rect x="182" y="262" width="20" height="20" fill="#b5decc" /><rect x="202" y="262" width="20" height="20" fill="#b5decc" /><rect x="222" y="262" width="20" height="20" fill="#b5decc" /><rect x="242" y="262" width="20" height="20" fill="#b5decc" /><rect x="262" y="262" width="20" height="20" fill="#b5decc" /><rect x="282" y="262" width="20" height="20" fill="#b5decc" /><rect x="302" y="262" width="20" height="20" fill="#b5decc" /><rect x="322" y="262" width="20" height="20" fill="#b5decc" /><rect x="342" y="262" width="20" height="20" fill="#b5decc" /><rect x="362" y="262" width="20" height="20" fill="#b5decc" /><rect x="382" y="262" width="20" height="20" fill="#b5decc" /><circle cx="12" cy="152" r="3" fill="#000" /><line x1="12" y1="152" x2="32" y2="152" stroke="#000" stroke-width="2" /><polygon points="29,149 35,152 29,155" fill="#000" /><polyline points="2,122 22,122 22,142 42,142 42,162 22,162 22,182 2,182 2,122" stroke="#0008" fill="none" stroke-width="1" /></svg>