<?xml version="1.0" encoding="UTF-8"?>
<!DOCTYPE svg PUBLIC "-//W3C//DTD SVG 1.1//EN"
    "http://www.w3.org/Graphics/SVG/1.1/DTD/svg11.dtd"><svg xmlns="http://www.w3.org/2000/svg" viewBox="0.0 0.0 1280.0 1600.0" height="1600.0000" font-size="1" stroke-opacity="1" width="1280.0000" xmlns:xlink="http://www.w3.org/1999/xlink" stroke="rgb(0,0,0)" version="1.1"><defs></defs><g stroke-linecap="butt" fill="rgb(238,180,128)" stroke-miterlimit="10.0" stroke-width="0.0" fill-opacity="1.0" stroke-opacity="1.0" stroke-linejoin="miter" stroke="rgb(0,0,0)"><path d="M 1152.0000,1536.0000 l -0.0000,-64.0000 h -64.0000 l -0.0000,64.0000 Z"/></g><g stroke-linecap="butt" fill="rgb(0,0,0)" stroke-miterlimit="10.0" stroke-width="0.0" fill-opacity="1.0" stroke-opacity="1.0" stroke-linejoin="miter" stroke="rgb(0,0,0)"><path d="M 1126.4000,1504.0000 c 0.0000,-3.5346 -2.8654,-6.4000 -6.4000 -6.4000c -3.5346,-0.0000 -6.4000,2.8654 -6.4000 6.4000c -0.0000,3.5346 2.8654,6.4000 6.4000 6.4000c 3.5346,0.0000 6.4000,-2.8654 6.4000 -6.4000Z"/></g><g stroke-linecap="butt" fill="rgb(181,222,204)" stroke-miterlimit="10.0" stroke-width="0.0" fill-opacity="1.0" stroke-opacity="1.0" stroke-linejoin="miter" stroke="rgb(0,0,0)"><path d="M 1216.0000,1472.0000 l -0.0000,-64.0000 h -64.0000 l -0.0000,64.0000 Z"/></g><g stroke-linecap="butt" fill="rgb(238,180,128)" stroke-miterlimit="10.0" stroke-width="0.0" fill-opacity="1.0" stroke-opacity="1.0" stroke-linejoin="miter" stroke="rgb(0,0,0)"><path d="M 1152.0000,1472.0000 l -0.0000,-64.0000 h -64.0000 l -0.0000,64.0000 Z"/></g><g stroke-linecap="butt" fill="rgb(181,222,204)" stroke-miterlimit="10.0" stroke-width="0.0" fill-opacity="1.0" stroke-opacity="1.0" stroke-linejoin="miter" stroke="rgb(0,0,0)"><path d="M 1152.0000,1408.0000 l -0.0000,-64.0000 h -64.0000 l -0.0000,64.0000 Z"/></g><g stroke-linecap="butt" fill="rgb(0,0,0)" stroke-miterlimit="10.0" stroke-width="5.724334022399462" fill-opacity="1.0" stroke-opacity="1.0" stroke-linejoin="miter" stroke="rgb(0,0,0)"><path d="M 1113.6000,1564.3050 l 6.4000,11.0851 l 6.4000,-11.0851 Z"/></g><g stroke-linecap="butt" fill="rgb(0,0,0)" stroke-miterlimit="10.0" stroke-width="5.724334022399462" fill-opacity="0.0" stroke-opacity="1.0" stroke-linejoin="miter" stroke="rgb(0,0,0)"><path d="M 1120.0000,1504.0000 l -0.0000,64.0000 "/></g><g stroke-linecap="butt" fill="rgb(181,222,204)" stroke-miterlimit="10.0" stroke-width="0.0" fill-opacity="1.0" stroke-opacity="1.0" stroke-linejoin="miter" stroke="rgb(0,0,0)"><path d="M 896.0000,1536.0000 l -0.0000,-64.0000 h -64.0000 l -0.0000,64.0000 Z"/></g><g stroke-linecap="butt" fill="rgb(181,222,204)" stroke-miterlimit="10.0" stroke-width="0.0" fill-opacity="1.0" stroke-opacity="1.0" stroke-linejoin="miter" stroke="rgb(0,0,0)"><path d="M 960.0000,1472.0000 l -0.0000,-64.0000 h -64.0000 l -0.0000,64.0000 Z"/></g><g stroke-linecap="butt" fill="rgb(238,180,128)" stroke-miterlimit="10.0" stroke-width="0.0" fill-opacity="1.0" stroke-opacity="1.0" stroke-linejoin="miter" stroke="rgb(0,0,0)"><path d="M 896.0000,1472.0000 l -0.0000,-64.0000 h -64.0000 l -0.0000,64.0000 Z"/></g><g stroke-linecap="butt" fill="rgb(238,180,128)" stroke-miterlimit="10.0" stroke-width="0.0" fill-opacity="1.0" stroke-opacity="1.0" stroke-linejoin="miter" stroke="rgb(0,0,0)"><path d="M 896.0000,1408.0000 l -0.0000,-64.0000 h -64.0000 l -0.0000,64.0000 Z"/></g><g stroke-linecap="butt" fill="rgb(0,0,0)" stroke-miterlimit="10.0" stroke-width="0.0" fill-opacity="1.0" stroke-opacity="1.0" stroke-linejoin="miter" stroke="rgb(0,0,0)"><path d="M 870.4000,1376.0000 c 0.0000,-3.5346 -2.8654,-6.4000 -6.4000 -6.4000c -3.5346,-0.0000 -6.4000,2.8654 -6.4000 6.4000c -0.0000,3.5346 2.8654,6.4000 6.4000 6.4000c 3.5346,0.0000 6.4000,-2.8654 6.4000 -6.4000Z"/></g><g stroke-linecap="butt" fill="rgb(0,0,0)" stroke-miterlimit="10.0" stroke-width="5.724334022399462" fill-opacity="1.0" stroke-opacity="1.0" stroke-linejoin="miter" stroke="rgb(0,0,0)"><path d="M 870.4000,1315.6950 l -6.4000,-11.0851 l -6.4000,11.0851 Z"/></g><g stroke-linecap="butt" fill="rgb(0,0,0)" stroke-miterlimit="10.0" stroke-width="5.724334022399462" fill-opacity="0.0" stroke-opacity="1.0" stroke-linejoin="miter" stroke="rgb(0,0,0)"><path d="M 864.0000,1376.0000 v -64.0000 "/></g><g stroke-linecap="butt" fill="rgb(181,222,204)" stroke-miterlimit="10.0" stroke-width="0.0" fill-opacity="1.0" stroke-opacity="1.0" stroke-linejoin="miter" stroke="rgb(0,0,0)"><path d="M 640.0000,1536.0000 l -0.0000,-64.0000 h -64.0000 l -0.0000,64.0000 Z"/></g><g stroke-linecap="butt" fill="rgb(238,180,128)" stroke-miterlimit="10.0" stroke-width="0.0" fill-opacity="1.0" stroke-opacity="1.0" stroke-linejoin="miter" stroke="rgb(0,0,0)"><path d="M 704.0000,1472.0000 l -0.0000,-64.0000 h -64.0000 l -0.0000,64.0000 Z"/></g><g stroke-linecap="butt" fill="rgb(0,0,0)" stroke-miterlimit="10.0" stroke-width="0.0" fill-opacity="1.0" stroke-opacity="1.0" stroke-linejoin="miter" stroke="rgb(0,0,0)"><path d="M 678.4000,1440.0000 c 0.0000,-3.5346 -2.8654,-6.4000 -6.4000 -6.4000c -3.5346,-0.0000 -6.4000,2.8654 -6.4000 6.4000c -0.0000,3.5346 2.8654,6.4000 6.4000 6.4000c 3.5346,0.0000 6.4000,-2.8654 6.4000 -6.4000Z"/></g><g stroke-linecap="butt" fill="rgb(238,180,128)" stroke-miterlimit="10.0" stroke-width="0.0" fill-opacity="1.0" stroke-opacity="1.0" stroke-linejoin="miter" stroke="rgb(0,0,0)"><path d="M 640.0000,1472.0000 l -0.0000,-64.0000 h -64.0000 l -0.0000,64.0000 Z"/></g><g stroke-linecap="butt" fill="rgb(181,222,204)" stroke-miterlimit="10.0" stroke-width="0.0" fill-opacity="1.0" stroke-opacity="1.0" stroke-linejoin="miter" stroke="rgb(0,0,0)"><path d="M 640.0000,1408.0000 l -0.0000,-64.0000 h -64.0000 l -0.0000,64.0000 Z"/></g><g stroke-linecap="butt" fill="rgb(0,0,0)" stroke-miterlimit="10.0" stroke-width="5.724334022399462" fill-opacity="1.0" stroke-opacity="1.0" stroke-linejoin="miter" stroke="rgb(0,0,0)"><path d="M 732.3050,1446.4000 l 11.0851,-6.4000 l -11.0851,-6.4000 Z"/></g><g stroke-linecap="butt" fill="rgb(0,0,0)" stroke-miterlimit="10.0" stroke-width="5.724334022399462" fill-opacity="0.0" stroke-opacity="1.0" stroke-linejoin="miter" stroke="rgb(0,0,0)"><path d="M 672.0000,1440.0000 l 64.0000,0.0000 "/></g><g stroke-linecap="butt" fill="rgb(238,180,128)" stroke-miterlimit="10.0" stroke-width="0.0" fill-opacity="1.0" stroke-opacity="1.0" stroke-linejoin="miter" stroke="rgb(0,0,0)"><path d="M 384.0000,1536.0000 l -0.0000,-64.0000 h -64.0000 l -0.0000,64.0000 Z"/></g><g stroke-linecap="butt" fill="rgb(238,180,128)" stroke-miterlimit="10.0" stroke-width="0.0" fill-opacity="1.0" stroke-opacity="1.0" stroke-linejoin="miter" stroke="rgb(0,0,0)"><path d="M 448.0000,1472.0000 l -0.0000,-64.0000 h -64.0000 l -0.0000,64.0000 Z"/></g><g stroke-linecap="butt" fill="rgb(0,0,0)" stroke-miterlimit="10.0" stroke-width="0.0" fill-opacity="1.0" stroke-opacity="1.0" stroke-linejoin="miter" stroke="rgb(0,0,0)"><path d="M 422.4000,1440.0000 c 0.0000,-3.5346 -2.8654,-6.4000 -6.4000 -6.4000c -3.5346,-0.0000 -6.4000,2.8654 -6.4000 6.4000c -0.0000,3.5346 2.8654,6.4000 6.4000 6.4000c 3.5346,0.0000 6.4000,-2.8654 6.4000 -6.4000Z"/></g><g stroke-linecap="butt" fill="rgb(238,180,128)" stroke-miterlimit="10.0" stroke-width="0.0" fill-opacity="1.0" stroke-opacity="1.0" stroke-linejoin="miter" stroke="rgb(0,0,0)"><path d="M 384.0000,1472.0000 l -0.0000,-64.0000 h -64.0000 l -0.0000,64.0000 Z"/></g><g stroke-linecap="butt" fill="rgb(238,180,128)" stroke-miterlimit="10.0" stroke-width="0.0" fill-opacity="1.0" stroke-opacity="1.0" stroke-linejoin="miter" stroke="rgb(0,0,0)"><path d="M 384.0000,1408.0000 l -0.0000,-64.0000 h -64.0000 l -0.0000,64.0000 Z"/></g><g stroke-linecap="butt" fill="rgb(0,0,0)" stroke-miterlimit="10.0" stroke-width="5.724334022399462" fill-opacity="1.0" stroke-opacity="1.0" stroke-linejoin="miter" stroke="rgb(0,0,0)"><path d="M 476.3050,1446.4000 l 11.0851,-6.4000 l -11.0851,-6.4000 Z"/></g><g stroke-linecap="butt" fill="rgb(0,0,0)" stroke-miterlimit="10.0" stroke-width="5.724334022399462" fill-opacity="0.0" stroke-opacity="1.0" stroke-linejoin="miter" stroke="rgb(0,0,0)"><path d="M 416.0000,1440.0000 l 64.0000,0.0000 "/></g><g stroke-linecap="butt" fill="rgb(0,0,0)" font-size="48.0px" font-style="italic" stroke-miterlimit="10.0" stroke-width="5.724334022399462" fill-opacity="1.0" stroke-opacity="1.0" stroke-linejoin="miter" stroke="rgb(0,0,0)"><text transform="matrix(1.0000,0.0000,0.0000,1.0000,556.8000,1158.4000)" dominant-baseline="middle" text-anchor="start" stroke="none">a(L)=2 ⇒ Prim(a(F),a(R))</text></g><g stroke-linecap="butt" fill="rgb(0,0,0)" font-size="48.0px" font-style="italic" stroke-miterlimit="10.0" stroke-width="5.724334022399462" fill-opacity="1.0" stroke-opacity="1.0" stroke-linejoin="miter" stroke="rgb(0,0,0)"><text transform="matrix(1.0000,0.0000,0.0000,1.0000,556.8000,1081.6000)" dominant-baseline="middle" text-anchor="start" stroke="none">a(L)=1 ⇒ Num(a(F)^a(R))</text></g><g stroke-linecap="butt" fill="rgb(178,183,62)" stroke-miterlimit="10.0" stroke-width="0.0" fill-opacity="1.0" stroke-opacity="1.0" stroke-linejoin="miter" stroke="rgb(0,0,0)"><path d="M 384.0000,1216.0000 l -0.0000,-64.0000 h -64.0000 l -0.0000,64.0000 Z"/></g><g stroke-linecap="butt" fill="rgb(0,0,0)" font-size="42.666666666666664px" stroke-miterlimit="10.0" stroke-width="0.0" fill-opacity="1.0" stroke-opacity="1.0" stroke-linejoin="miter" stroke="rgb(0,0,0)"><text transform="matrix(1.0000,0.0000,0.0000,1.0000,352.0000,1192.0000)" dominant-baseline="middle" text-anchor="middle" stroke="none">R</text></g><g stroke-linecap="butt" fill="rgb(255,221,0)" stroke-miterlimit="10.0" stroke-width="0.0" fill-opacity="1.0" stroke-opacity="1.0" stroke-linejoin="miter" stroke="rgb(0,0,0)"><path d="M 448.0000,1152.0000 l -0.0000,-64.0000 h -64.0000 l -0.0000,64.0000 Z"/></g><g stroke-linecap="butt" fill="rgb(0,0,0)" font-size="42.666666666666664px" stroke-miterlimit="10.0" stroke-width="0.0" fill-opacity="1.0" stroke-opacity="1.0" stroke-linejoin="miter" stroke="rgb(0,0,0)"><text transform="matrix(1.0000,0.0000,0.0000,1.0000,416.0000,1128.0000)" dominant-baseline="middle" text-anchor="middle" stroke="none">F</text></g><g stroke-linecap="butt" fill="rgb(181,222,204)" stroke-miterlimit="10.0" stroke-width="0.0" fill-opacity="1.0" stroke-opacity="1.0" stroke-linejoin="miter" stroke="rgb(0,0,0)"><path d="M 384.0000,1152.0000 l -0.0000,-64.0000 h -64.0000 l -0.0000,64.0000 Z"/></g><g stroke-linecap="butt" fill="rgb(238,180,128)" stroke-miterlimit="10.0" stroke-width="0.0" fill-opacity="1.0" stroke-opacity="1.0" stroke-linejoin="miter" stroke="rgb(0,0,0)"><path d="M 384.0000,1088.0000 l -0.0000,-64.0000 h -64.0000 l -0.0000,64.0000 Z"/></g><g stroke-linecap="butt" fill="rgb(0,0,0)" font-size="42.666666666666664px" stroke-miterlimit="10.0" stroke-width="0.0" fill-opacity="1.0" stroke-opacity="1.0" stroke-linejoin="miter" stroke="rgb(0,0,0)"><text transform="matrix(1.0000,0.0000,0.0000,1.0000,352.0000,1064.0000)" dominant-baseline="middle" text-anchor="middle" stroke="none">L</text></g><g stroke-linecap="butt" fill="rgb(238,180,128)" stroke-miterlimit="10.0" stroke-width="0.0" fill-opacity="1.0" stroke-opacity="1.0" stroke-linejoin="miter" stroke="rgb(0,0,0)"><path d="M 896.0000,896.0000 l -0.0000,-64.0000 h -64.0000 l -0.0000,64.0000 Z"/></g><g stroke-linecap="butt" fill="rgb(0,0,0)" stroke-miterlimit="10.0" stroke-width="0.0" fill-opacity="1.0" stroke-opacity="1.0" stroke-linejoin="miter" stroke="rgb(0,0,0)"><path d="M 870.4000,864.0000 c 0.0000,-3.5346 -2.8654,-6.4000 -6.4000 -6.4000c -3.5346,-0.0000 -6.4000,2.8654 -6.4000 6.4000c -0.0000,3.5346 2.8654,6.4000 6.4000 6.4000c 3.5346,0.0000 6.4000,-2.8654 6.4000 -6.4000Z"/></g><g stroke-linecap="butt" fill="rgb(238,180,128)" stroke-miterlimit="10.0" stroke-width="0.0" fill-opacity="1.0" stroke-opacity="1.0" stroke-linejoin="miter" stroke="rgb(0,0,0)"><path d="M 960.0000,832.0000 l -0.0000,-64.0000 h -64.0000 l -0.0000,64.0000 Z"/></g><g stroke-linecap="butt" fill="rgb(0,0,0)" stroke-miterlimit="10.0" stroke-width="0.0" fill-opacity="1.0" stroke-opacity="1.0" stroke-linejoin="miter" stroke="rgb(0,0,0)"><path d="M 934.4000,800.0000 c 0.0000,-3.5346 -2.8654,-6.4000 -6.4000 -6.4000c -3.5346,-0.0000 -6.4000,2.8654 -6.4000 6.4000c -0.0000,3.5346 2.8654,6.4000 6.4000 6.4000c 3.5346,0.0000 6.4000,-2.8654 6.4000 -6.4000Z"/></g><g stroke-linecap="butt" fill="rgb(255,221,0)" stroke-miterlimit="10.0" stroke-width="0.0" fill-opacity="1.0" stroke-opacity="1.0" stroke-linejoin="miter" stroke="rgb(0,0,0)"><path d="M 896.0000,832.0000 l -0.0000,-64.0000 h -64.0000 l -0.0000,64.0000 Z"/></g><g stroke-linecap="butt" fill="rgb(181,222,204)" stroke-miterlimit="10.0" stroke-width="0.0" fill-opacity="1.0" stroke-opacity="1.0" stroke-linejoin="miter" stroke="rgb(0,0,0)"><path d="M 896.0000,768.0000 l -0.0000,-64.0000 h -64.0000 l -0.0000,64.0000 Z"/></g><g stroke-linecap="butt" fill="rgb(0,0,0)" stroke-miterlimit="10.0" stroke-width="5.724334022399462" fill-opacity="1.0" stroke-opacity="1.0" stroke-linejoin="miter" stroke="rgb(0,0,0)"><path d="M 857.6000,924.3050 l 6.4000,11.0851 l 6.4000,-11.0851 Z"/></g><g stroke-linecap="butt" fill="rgb(0,0,0)" stroke-dashoffset="0.0" stroke-dasharray="6.4,6.4" stroke-miterlimit="10.0" stroke-width="5.724334022399462" fill-opacity="0.0" stroke-opacity="1.0" stroke-linejoin="miter" stroke="rgb(0,0,0)"><path d="M 864.0000,864.0000 l -0.0000,64.0000 "/></g><g stroke-linecap="butt" fill="rgb(0,0,0)" stroke-miterlimit="10.0" stroke-width="5.724334022399462" fill-opacity="1.0" stroke-opacity="1.0" stroke-linejoin="miter" stroke="rgb(0,0,0)"><path d="M 988.3050,806.4000 l 11.0851,-6.4000 l -11.0851,-6.4000 Z"/></g><g stroke-linecap="butt" fill="rgb(0,0,0)" stroke-miterlimit="10.0" stroke-width="5.724334022399462" fill-opacity="0.0" stroke-opacity="1.0" stroke-linejoin="miter" stroke="rgb(0,0,0)"><path d="M 928.0000,800.0000 l 64.0000,0.0000 "/></g><g stroke-linecap="butt" fill="rgb(238,180,128)" stroke-miterlimit="10.0" stroke-width="0.0" fill-opacity="1.0" stroke-opacity="1.0" stroke-linejoin="miter" stroke="rgb(0,0,0)"><path d="M 640.0000,896.0000 l -0.0000,-64.0000 h -64.0000 l -0.0000,64.0000 Z"/></g><g stroke-linecap="butt" fill="rgb(0,0,0)" stroke-miterlimit="10.0" stroke-width="0.0" fill-opacity="1.0" stroke-opacity="1.0" stroke-linejoin="miter" stroke="rgb(0,0,0)"><path d="M 614.4000,864.0000 c 0.0000,-3.5346 -2.8654,-6.4000 -6.4000 -6.4000c -3.5346,-0.0000 -6.4000,2.8654 -6.4000 6.4000c -0.0000,3.5346 2.8654,6.4000 6.4000 6.4000c 3.5346,0.0000 6.4000,-2.8654 6.4000 -6.4000Z"/></g><g stroke-linecap="butt" fill="rgb(255,221,0)" stroke-miterlimit="10.0" stroke-width="0.0" fill-opacity="1.0" stroke-opacity="1.0" stroke-linejoin="miter" stroke="rgb(0,0,0)"><path d="M 704.0000,832.0000 l -0.0000,-64.0000 h -64.0000 l -0.0000,64.0000 Z"/></g><g stroke-linecap="butt" fill="rgb(181,222,204)" stroke-miterlimit="10.0" stroke-width="0.0" fill-opacity="1.0" stroke-opacity="1.0" stroke-linejoin="miter" stroke="rgb(0,0,0)"><path d="M 640.0000,832.0000 l -0.0000,-64.0000 h -64.0000 l -0.0000,64.0000 Z"/></g><g stroke-linecap="butt" fill="rgb(238,180,128)" stroke-miterlimit="10.0" stroke-width="0.0" fill-opacity="1.0" stroke-opacity="1.0" stroke-linejoin="miter" stroke="rgb(0,0,0)"><path d="M 640.0000,768.0000 l -0.0000,-64.0000 h -64.0000 l -0.0000,64.0000 Z"/></g><g stroke-linecap="butt" fill="rgb(0,0,0)" stroke-miterlimit="10.0" stroke-width="0.0" fill-opacity="1.0" stroke-opacity="1.0" stroke-linejoin="miter" stroke="rgb(0,0,0)"><path d="M 614.4000,736.0000 c 0.0000,-3.5346 -2.8654,-6.4000 -6.4000 -6.4000c -3.5346,-0.0000 -6.4000,2.8654 -6.4000 6.4000c -0.0000,3.5346 2.8654,6.4000 6.4000 6.4000c 3.5346,0.0000 6.4000,-2.8654 6.4000 -6.4000Z"/></g><g stroke-linecap="butt" fill="rgb(0,0,0)" stroke-miterlimit="10.0" stroke-width="5.724334022399462" fill-opacity="1.0" stroke-opacity="1.0" stroke-linejoin="miter" stroke="rgb(0,0,0)"><path d="M 601.6000,924.3050 l 6.4000,11.0851 l 6.4000,-11.0851 Z"/></g><g stroke-linecap="butt" fill="rgb(0,0,0)" stroke-dashoffset="0.0" stroke-dasharray="6.4,6.4" stroke-miterlimit="10.0" stroke-width="5.724334022399462" fill-opacity="0.0" stroke-opacity="1.0" stroke-linejoin="miter" stroke="rgb(0,0,0)"><path d="M 608.0000,864.0000 l -0.0000,64.0000 "/></g><g stroke-linecap="butt" fill="rgb(0,0,0)" stroke-miterlimit="10.0" stroke-width="5.724334022399462" fill-opacity="1.0" stroke-opacity="1.0" stroke-linejoin="miter" stroke="rgb(0,0,0)"><path d="M 614.4000,675.6950 l -6.4000,-11.0851 l -6.4000,11.0851 Z"/></g><g stroke-linecap="butt" fill="rgb(0,0,0)" stroke-miterlimit="10.0" stroke-width="5.724334022399462" fill-opacity="0.0" stroke-opacity="1.0" stroke-linejoin="miter" stroke="rgb(0,0,0)"><path d="M 608.0000,736.0000 v -64.0000 "/></g><g stroke-linecap="butt" fill="rgb(255,221,0)" stroke-miterlimit="10.0" stroke-width="0.0" fill-opacity="1.0" stroke-opacity="1.0" stroke-linejoin="miter" stroke="rgb(0,0,0)"><path d="M 384.0000,896.0000 l -0.0000,-64.0000 h -64.0000 l -0.0000,64.0000 Z"/></g><g stroke-linecap="butt" fill="rgb(238,180,128)" stroke-miterlimit="10.0" stroke-width="0.0" fill-opacity="1.0" stroke-opacity="1.0" stroke-linejoin="miter" stroke="rgb(0,0,0)"><path d="M 448.0000,832.0000 l -0.0000,-64.0000 h -64.0000 l -0.0000,64.0000 Z"/></g><g stroke-linecap="butt" fill="rgb(0,0,0)" stroke-miterlimit="10.0" stroke-width="0.0" fill-opacity="1.0" stroke-opacity="1.0" stroke-linejoin="miter" stroke="rgb(0,0,0)"><path d="M 422.4000,800.0000 c 0.0000,-3.5346 -2.8654,-6.4000 -6.4000 -6.4000c -3.5346,-0.0000 -6.4000,2.8654 -6.4000 6.4000c -0.0000,3.5346 2.8654,6.4000 6.4000 6.4000c 3.5346,0.0000 6.4000,-2.8654 6.4000 -6.4000Z"/></g><g stroke-linecap="butt" fill="rgb(181,222,204)" stroke-miterlimit="10.0" stroke-width="0.0" fill-opacity="1.0" stroke-opacity="1.0" stroke-linejoin="miter" stroke="rgb(0,0,0)"><path d="M 384.0000,832.0000 l -0.0000,-64.0000 h -64.0000 l -0.0000,64.0000 Z"/></g><g stroke-linecap="butt" fill="rgb(238,180,128)" stroke-miterlimit="10.0" stroke-width="0.0" fill-opacity="1.0" stroke-opacity="1.0" stroke-linejoin="miter" stroke="rgb(0,0,0)"><path d="M 384.0000,768.0000 l -0.0000,-64.0000 h -64.0000 l -0.0000,64.0000 Z"/></g><g stroke-linecap="butt" fill="rgb(0,0,0)" stroke-miterlimit="10.0" stroke-width="0.0" fill-opacity="1.0" stroke-opacity="1.0" stroke-linejoin="miter" stroke="rgb(0,0,0)"><path d="M 358.4000,736.0000 c 0.0000,-3.5346 -2.8654,-6.4000 -6.4000 -6.4000c -3.5346,-0.0000 -6.4000,2.8654 -6.4000 6.4000c -0.0000,3.5346 2.8654,6.4000 6.4000 6.4000c 3.5346,0.0000 6.4000,-2.8654 6.4000 -6.4000Z"/></g><g stroke-linecap="butt" fill="rgb(0,0,0)" stroke-miterlimit="10.0" stroke-width="5.724334022399462" fill-opacity="1.0" stroke-opacity="1.0" stroke-linejoin="miter" stroke="rgb(0,0,0)"><path d="M 476.3050,806.4000 l 11.0851,-6.4000 l -11.0851,-6.4000 Z"/></g><g stroke-linecap="butt" fill="rgb(0,0,0)" stroke-dashoffset="0.0" stroke-dasharray="6.4,6.4" stroke-miterlimit="10.0" stroke-width="5.724334022399462" fill-opacity="0.0" stroke-opacity="1.0" stroke-linejoin="miter" stroke="rgb(0,0,0)"><path d="M 416.0000,800.0000 l 64.0000,0.0000 "/></g><g stroke-linecap="butt" fill="rgb(0,0,0)" stroke-miterlimit="10.0" stroke-width="5.724334022399462" fill-opacity="1.0" stroke-opacity="1.0" stroke-linejoin="miter" stroke="rgb(0,0,0)"><path d="M 358.4000,675.6950 l -6.4000,-11.0851 l -6.4000,11.0851 Z"/></g><g stroke-linecap="butt" fill="rgb(0,0,0)" stroke-miterlimit="10.0" stroke-width="5.724334022399462" fill-opacity="0.0" stroke-opacity="1.0" stroke-linejoin="miter" stroke="rgb(0,0,0)"><path d="M 352.0000,736.0000 v -64.0000 "/></g><g stroke-linecap="butt" fill="rgb(255,221,0)" stroke-miterlimit="10.0" stroke-width="0.0" fill-opacity="1.0" stroke-opacity="1.0" stroke-linejoin="miter" stroke="rgb(0,0,0)"><path d="M 896.0000,576.0000 l -0.0000,-64.0000 h -64.0000 l -0.0000,64.0000 Z"/></g><g stroke-linecap="butt" fill="rgb(0,0,0)" font-size="42.666666666666664px" stroke-miterlimit="10.0" stroke-width="0.0" fill-opacity="1.0" stroke-opacity="1.0" stroke-linejoin="miter" stroke="rgb(0,0,0)"><text transform="matrix(1.0000,0.0000,0.0000,1.0000,864.0000,552.0000)" dominant-baseline="middle" text-anchor="middle" stroke="none">R</text></g><g stroke-linecap="butt" fill="rgb(181,222,204)" stroke-miterlimit="10.0" stroke-width="0.0" fill-opacity="1.0" stroke-opacity="1.0" stroke-linejoin="miter" stroke="rgb(0,0,0)"><path d="M 960.0000,512.0000 l -0.0000,-64.0000 h -64.0000 l -0.0000,64.0000 Z"/></g><g stroke-linecap="butt" fill="rgb(238,180,128)" stroke-miterlimit="10.0" stroke-width="0.0" fill-opacity="1.0" stroke-opacity="1.0" stroke-linejoin="miter" stroke="rgb(0,0,0)"><path d="M 896.0000,512.0000 l -0.0000,-64.0000 h -64.0000 l -0.0000,64.0000 Z"/></g><g stroke-linecap="butt" fill="rgb(238,180,128)" stroke-miterlimit="10.0" stroke-width="0.0" fill-opacity="1.0" stroke-opacity="1.0" stroke-linejoin="miter" stroke="rgb(0,0,0)"><path d="M 896.0000,448.0000 l -0.0000,-64.0000 h -64.0000 l -0.0000,64.0000 Z"/></g><g stroke-linecap="butt" fill="rgb(0,0,0)" stroke-miterlimit="10.0" stroke-width="0.0" fill-opacity="1.0" stroke-opacity="1.0" stroke-linejoin="miter" stroke="rgb(0,0,0)"><path d="M 870.4000,416.0000 c 0.0000,-3.5346 -2.8654,-6.4000 -6.4000 -6.4000c -3.5346,-0.0000 -6.4000,2.8654 -6.4000 6.4000c -0.0000,3.5346 2.8654,6.4000 6.4000 6.4000c 3.5346,0.0000 6.4000,-2.8654 6.4000 -6.4000Z"/></g><g stroke-linecap="butt" fill="rgb(0,0,0)" stroke-miterlimit="10.0" stroke-width="5.724334022399462" fill-opacity="1.0" stroke-opacity="1.0" stroke-linejoin="miter" stroke="rgb(0,0,0)"><path d="M 870.4000,355.6950 l -6.4000,-11.0851 l -6.4000,11.0851 Z"/></g><g stroke-linecap="butt" fill="rgb(0,0,0)" stroke-miterlimit="10.0" stroke-width="5.724334022399462" fill-opacity="0.0" stroke-opacity="1.0" stroke-linejoin="miter" stroke="rgb(0,0,0)"><path d="M 864.0000,416.0000 v -64.0000 "/></g><g stroke-linecap="butt" fill="rgb(255,221,0)" stroke-miterlimit="10.0" stroke-width="0.0" fill-opacity="1.0" stroke-opacity="1.0" stroke-linejoin="miter" stroke="rgb(0,0,0)"><path d="M 640.0000,576.0000 l -0.0000,-64.0000 h -64.0000 l -0.0000,64.0000 Z"/></g><g stroke-linecap="butt" fill="rgb(238,180,128)" stroke-miterlimit="10.0" stroke-width="0.0" fill-opacity="1.0" stroke-opacity="1.0" stroke-linejoin="miter" stroke="rgb(0,0,0)"><path d="M 704.0000,512.0000 l -0.0000,-64.0000 h -64.0000 l -0.0000,64.0000 Z"/></g><g stroke-linecap="butt" fill="rgb(0,0,0)" stroke-miterlimit="10.0" stroke-width="0.0" fill-opacity="1.0" stroke-opacity="1.0" stroke-linejoin="miter" stroke="rgb(0,0,0)"><path d="M 678.4000,480.0000 c 0.0000,-3.5346 -2.8654,-6.4000 -6.4000 -6.4000c -3.5346,-0.0000 -6.4000,2.8654 -6.4000 6.4000c -0.0000,3.5346 2.8654,6.4000 6.4000 6.4000c 3.5346,0.0000 6.4000,-2.8654 6.4000 -6.4000Z"/></g><g stroke-linecap="butt" fill="rgb(238,180,128)" stroke-miterlimit="10.0" stroke-width="0.0" fill-opacity="1.0" stroke-opacity="1.0" stroke-linejoin="miter" stroke="rgb(0,0,0)"><path d="M 640.0000,512.0000 l -0.0000,-64.0000 h -64.0000 l -0.0000,64.0000 Z"/></g><g stroke-linecap="butt" fill="rgb(0,0,0)" font-size="42.666666666666664px" stroke-miterlimit="10.0" stroke-width="0.0" fill-opacity="1.0" stroke-opacity="1.0" stroke-linejoin="miter" stroke="rgb(0,0,0)"><text transform="matrix(1.0000,0.0000,0.0000,1.0000,608.0000,488.0000)" dominant-baseline="middle" text-anchor="middle" stroke="none">C</text></g><g stroke-linecap="butt" fill="rgb(181,222,204)" stroke-miterlimit="10.0" stroke-width="0.0" fill-opacity="1.0" stroke-opacity="1.0" stroke-linejoin="miter" stroke="rgb(0,0,0)"><path d="M 640.0000,448.0000 l -0.0000,-64.0000 h -64.0000 l -0.0000,64.0000 Z"/></g><g stroke-linecap="butt" fill="rgb(0,0,0)" stroke-miterlimit="10.0" stroke-width="5.724334022399462" fill-opacity="1.0" stroke-opacity="1.0" stroke-linejoin="miter" stroke="rgb(0,0,0)"><path d="M 732.3050,486.4000 l 11.0851,-6.4000 l -11.0851,-6.4000 Z"/></g><g stroke-linecap="butt" fill="rgb(0,0,0)" stroke-miterlimit="10.0" stroke-width="5.724334022399462" fill-opacity="0.0" stroke-opacity="1.0" stroke-linejoin="miter" stroke="rgb(0,0,0)"><path d="M 672.0000,480.0000 l 64.0000,0.0000 "/></g><g stroke-linecap="butt" fill="rgb(238,180,128)" stroke-miterlimit="10.0" stroke-width="0.0" fill-opacity="1.0" stroke-opacity="1.0" stroke-linejoin="miter" stroke="rgb(0,0,0)"><path d="M 384.0000,576.0000 l -0.0000,-64.0000 h -64.0000 l -0.0000,64.0000 Z"/></g><g stroke-linecap="butt" fill="rgb(0,0,0)" stroke-miterlimit="10.0" stroke-width="0.0" fill-opacity="1.0" stroke-opacity="1.0" stroke-linejoin="miter" stroke="rgb(0,0,0)"><path d="M 358.4000,544.0000 c 0.0000,-3.5346 -2.8654,-6.4000 -6.4000 -6.4000c -3.5346,-0.0000 -6.4000,2.8654 -6.4000 6.4000c -0.0000,3.5346 2.8654,6.4000 6.4000 6.4000c 3.5346,0.0000 6.4000,-2.8654 6.4000 -6.4000Z"/></g><g stroke-linecap="butt" fill="rgb(181,222,204)" stroke-miterlimit="10.0" stroke-width="0.0" fill-opacity="1.0" stroke-opacity="1.0" stroke-linejoin="miter" stroke="rgb(0,0,0)"><path d="M 448.0000,512.0000 l -0.0000,-64.0000 h -64.0000 l -0.0000,64.0000 Z"/></g><g stroke-linecap="butt" fill="rgb(238,180,128)" stroke-miterlimit="10.0" stroke-width="0.0" fill-opacity="1.0" stroke-opacity="1.0" stroke-linejoin="miter" stroke="rgb(0,0,0)"><path d="M 384.0000,512.0000 l -0.0000,-64.0000 h -64.0000 l -0.0000,64.0000 Z"/></g><g stroke-linecap="butt" fill="rgb(255,221,0)" stroke-miterlimit="10.0" stroke-width="0.0" fill-opacity="1.0" stroke-opacity="1.0" stroke-linejoin="miter" stroke="rgb(0,0,0)"><path d="M 384.0000,448.0000 l -0.0000,-64.0000 h -64.0000 l -0.0000,64.0000 Z"/></g><g stroke-linecap="butt" fill="rgb(0,0,0)" font-size="42.666666666666664px" stroke-miterlimit="10.0" stroke-width="0.0" fill-opacity="1.0" stroke-opacity="1.0" stroke-linejoin="miter" stroke="rgb(0,0,0)"><text transform="matrix(1.0000,0.0000,0.0000,1.0000,352.0000,424.0000)" dominant-baseline="middle" text-anchor="middle" stroke="none">L</text></g><g stroke-linecap="butt" fill="rgb(0,0,0)" stroke-miterlimit="10.0" stroke-width="5.724334022399462" fill-opacity="1.0" stroke-opacity="1.0" stroke-linejoin="miter" stroke="rgb(0,0,0)"><path d="M 345.6000,604.3050 l 6.4000,11.0851 l 6.4000,-11.0851 Z"/></g><g stroke-linecap="butt" fill="rgb(0,0,0)" stroke-miterlimit="10.0" stroke-width="5.724334022399462" fill-opacity="0.0" stroke-opacity="1.0" stroke-linejoin="miter" stroke="rgb(0,0,0)"><path d="M 352.0000,544.0000 l -0.0000,64.0000 "/></g><g stroke-linecap="butt" fill="rgb(238,180,128)" stroke-miterlimit="10.0" stroke-width="0.0" fill-opacity="1.0" stroke-opacity="1.0" stroke-linejoin="miter" stroke="rgb(0,0,0)"><path d="M 1152.0000,256.0000 l -0.0000,-64.0000 h -64.0000 l -0.0000,64.0000 Z"/></g><g stroke-linecap="butt" fill="rgb(0,0,0)" font-size="42.666666666666664px" stroke-miterlimit="10.0" stroke-width="0.0" fill-opacity="1.0" stroke-opacity="1.0" stroke-linejoin="miter" stroke="rgb(0,0,0)"><text transform="matrix(1.0000,0.0000,0.0000,1.0000,1120.0000,232.0000)" dominant-baseline="middle" text-anchor="middle" stroke="none">R</text></g><g stroke-linecap="butt" fill="rgb(181,222,204)" stroke-miterlimit="10.0" stroke-width="0.0" fill-opacity="1.0" stroke-opacity="1.0" stroke-linejoin="miter" stroke="rgb(0,0,0)"><path d="M 1216.0000,192.0000 l -0.0000,-64.0000 h -64.0000 l -0.0000,64.0000 Z"/></g><g stroke-linecap="butt" fill="rgb(181,222,204)" stroke-miterlimit="10.0" stroke-width="0.0" fill-opacity="1.0" stroke-opacity="1.0" stroke-linejoin="miter" stroke="rgb(0,0,0)"><path d="M 1152.0000,192.0000 l -0.0000,-64.0000 h -64.0000 l -0.0000,64.0000 Z"/></g><g stroke-linecap="butt" fill="rgb(181,222,204)" stroke-miterlimit="10.0" stroke-width="0.0" fill-opacity="1.0" stroke-opacity="1.0" stroke-linejoin="miter" stroke="rgb(0,0,0)"><path d="M 1152.0000,128.0000 l -0.0000,-64.0000 h -64.0000 l -0.0000,64.0000 Z"/></g><g stroke-linecap="butt" fill="rgb(181,222,204)" stroke-miterlimit="10.0" stroke-width="0.0" fill-opacity="1.0" stroke-opacity="1.0" stroke-linejoin="miter" stroke="rgb(0,0,0)"><path d="M 896.0000,256.0000 l -0.0000,-64.0000 h -64.0000 l -0.0000,64.0000 Z"/></g><g stroke-linecap="butt" fill="rgb(238,180,128)" stroke-miterlimit="10.0" stroke-width="0.0" fill-opacity="1.0" stroke-opacity="1.0" stroke-linejoin="miter" stroke="rgb(0,0,0)"><path d="M 960.0000,192.0000 l -0.0000,-64.0000 h -64.0000 l -0.0000,64.0000 Z"/></g><g stroke-linecap="butt" fill="rgb(0,0,0)" font-size="42.666666666666664px" stroke-miterlimit="10.0" stroke-width="0.0" fill-opacity="1.0" stroke-opacity="1.0" stroke-linejoin="miter" stroke="rgb(0,0,0)"><text transform="matrix(1.0000,0.0000,0.0000,1.0000,928.0000,168.0000)" dominant-baseline="middle" text-anchor="middle" stroke="none">F</text></g><g stroke-linecap="butt" fill="rgb(181,222,204)" stroke-miterlimit="10.0" stroke-width="0.0" fill-opacity="1.0" stroke-opacity="1.0" stroke-linejoin="miter" stroke="rgb(0,0,0)"><path d="M 896.0000,192.0000 l -0.0000,-64.0000 h -64.0000 l -0.0000,64.0000 Z"/></g><g stroke-linecap="butt" fill="rgb(181,222,204)" stroke-miterlimit="10.0" stroke-width="0.0" fill-opacity="1.0" stroke-opacity="1.0" stroke-linejoin="miter" stroke="rgb(0,0,0)"><path d="M 896.0000,128.0000 l -0.0000,-64.0000 h -64.0000 l -0.0000,64.0000 Z"/></g><g stroke-linecap="butt" fill="rgb(181,222,204)" stroke-miterlimit="10.0" stroke-width="0.0" fill-opacity="1.0" stroke-opacity="1.0" stroke-linejoin="miter" stroke="rgb(0,0,0)"><path d="M 640.0000,256.0000 l -0.0000,-64.0000 h -64.0000 l -0.0000,64.0000 Z"/></g><g stroke-linecap="butt" fill="rgb(181,222,204)" stroke-miterlimit="10.0" stroke-width="0.0" fill-opacity="1.0" stroke-opacity="1.0" stroke-linejoin="miter" stroke="rgb(0,0,0)"><path d="M 704.0000,192.0000 l -0.0000,-64.0000 h -64.0000 l -0.0000,64.0000 Z"/></g><g stroke-linecap="butt" fill="rgb(238,180,128)" stroke-miterlimit="10.0" stroke-width="0.0" fill-opacity="1.0" stroke-opacity="1.0" stroke-linejoin="miter" stroke="rgb(0,0,0)"><path d="M 640.0000,192.0000 l -0.0000,-64.0000 h -64.0000 l -0.0000,64.0000 Z"/></g><g stroke-linecap="butt" fill="rgb(0,0,0)" font-size="42.666666666666664px" stroke-miterlimit="10.0" stroke-width="0.0" fill-opacity="1.0" stroke-opacity="1.0" stroke-linejoin="miter" stroke="rgb(0,0,0)"><text transform="matrix(1.0000,0.0000,0.0000,1.0000,608.0000,168.0000)" dominant-baseline="middle" text-anchor="middle" stroke="none">C</text></g><g stroke-linecap="butt" fill="rgb(181,222,204)" stroke-miterlimit="10.0" stroke-width="0.0" fill-opacity="1.0" stroke-opacity="1.0" stroke-linejoin="miter" stroke="rgb(0,0,0)"><path d="M 640.0000,128.0000 l -0.0000,-64.0000 h -64.0000 l -0.0000,64.0000 Z"/></g><g stroke-linecap="butt" fill="rgb(181,222,204)" stroke-miterlimit="10.0" stroke-width="0.0" fill-opacity="1.0" stroke-opacity="1.0" stroke-linejoin="miter" stroke="rgb(0,0,0)"><path d="M 384.0000,256.0000 l -0.0000,-64.0000 h -64.0000 l -0.0000,64.0000 Z"/></g><g stroke-linecap="butt" fill="rgb(181,222,204)" stroke-miterlimit="10.0" stroke-width="0.0" fill-opacity="1.0" stroke-opacity="1.0" stroke-linejoin="miter" stroke="rgb(0,0,0)"><path d="M 448.0000,192.0000 l -0.0000,-64.0000 h -64.0000 l -0.0000,64.0000 Z"/></g><g stroke-linecap="butt" fill="rgb(181,222,204)" stroke-miterlimit="10.0" stroke-width="0.0" fill-opacity="1.0" stroke-opacity="1.0" stroke-linejoin="miter" stroke="rgb(0,0,0)"><path d="M 384.0000,192.0000 l -0.0000,-64.0000 h -64.0000 l -0.0000,64.0000 Z"/></g><g stroke-linecap="butt" fill="rgb(238,180,128)" stroke-miterlimit="10.0" stroke-width="0.0" fill-opacity="1.0" stroke-opacity="1.0" stroke-linejoin="miter" stroke="rgb(0,0,0)"><path d="M 384.0000,128.0000 l -0.0000,-64.0000 h -64.0000 l -0.0000,64.0000 Z"/></g><g stroke-linecap="butt" fill="rgb(0,0,0)" font-size="42.666666666666664px" stroke-miterlimit="10.0" stroke-width="0.0" fill-opacity="1.0" stroke-opacity="1.0" stroke-linejoin="miter" stroke="rgb(0,0,0)"><text transform="matrix(1.0000,0.0000,0.0000,1.0000,352.0000,104.0000)" dominant-baseline="middle" text-anchor="middle" stroke="none">L</text></g><g stroke-linecap="butt" fill="rgb(0,0,0)" font-size="64.0px" font-style="italic" stroke-miterlimit="10.0" stroke-width="5.724334022399462" fill-opacity="1.0" stroke-opacity="1.0" stroke-linejoin="miter" stroke="rgb(0,0,0)"><text transform="matrix(1.0000,0.0000,0.0000,1.0000,128.0000,1440.0000)" dominant-baseline="middle" text-anchor="middle" stroke="none">I</text></g><g stroke-linecap="butt" font-family="monospace" fill="rgb(0,0,0)" font-size="64.0px" stroke-miterlimit="10.0" stroke-width="5.724334022399462" fill-opacity="1.0" stroke-opacity="1.0" stroke-linejoin="miter" stroke="rgb(0,0,0)"><text transform="matrix(1.0000,0.0000,0.0000,1.0000,128.0000,1120.0000)" dominant-baseline="middle" text-anchor="middle" stroke="none">sym</text></g><g stroke-linecap="butt" fill="rgb(0,0,0)" font-size="64.0px" font-style="italic" stroke-miterlimit="10.0" stroke-width="5.724334022399462" fill-opacity="1.0" stroke-opacity="1.0" stroke-linejoin="miter" stroke="rgb(0,0,0)"><text transform="matrix(1.0000,0.0000,0.0000,1.0000,128.0000,800.0000)" dominant-baseline="middle" text-anchor="middle" stroke="none">(f x)</text></g><g stroke-linecap="butt" fill="rgb(0,0,0)" font-size="64.0px" font-style="italic" stroke-miterlimit="10.0" stroke-width="5.724334022399462" fill-opacity="1.0" stroke-opacity="1.0" stroke-linejoin="miter" stroke="rgb(0,0,0)"><text transform="matrix(1.0000,0.0000,0.0000,1.0000,128.0000,480.0000)" dominant-baseline="middle" text-anchor="middle" stroke="none">(λv.e)</text></g><g stroke-linecap="butt" fill="rgb(0,0,0)" font-size="64.0px" font-style="italic" stroke-miterlimit="10.0" stroke-width="5.724334022399462" fill-opacity="1.0" stroke-opacity="1.0" stroke-linejoin="miter" stroke="rgb(0,0,0)"><text transform="matrix(1.0000,0.0000,0.0000,1.0000,128.0000,160.0000)" dominant-baseline="middle" text-anchor="middle" stroke="none">x</text></g></svg>